<svg width="25" height="25" viewBox="0 0 25 25" fill="none" xmlns="http://www.w3.org/2000/svg">
<path d="M8.5 11.5C9.05228 11.5 9.5 11.9477 9.5 12.5C9.5 13.0523 9.05228 13.5 8.5 13.5C7.94772 13.5 7.5 13.0523 7.5 12.5C7.5 11.9477 7.94772 11.5 8.5 11.5Z" fill="black"/>
<path d="M12.5 11.5C13.0523 11.5 13.5 11.9477 13.5 12.5C13.5 13.0523 13.0523 13.5 12.5 13.5C11.9477 13.5 11.5 13.0523 11.5 12.5C11.5 11.9477 11.9477 11.5 12.5 11.5Z" fill="black"/>
<path d="M17.5 12.5C17.5 11.9477 17.0523 11.5 16.5 11.5C15.9477 11.5 15.5 11.9477 15.5 12.5C15.5 13.0523 15.9477 13.5 16.5 13.5C17.0523 13.5 17.5 13.0523 17.5 12.5Z" fill="black"/>
</svg>
