<svg width="16" height="16" viewBox="0 0 16 16" fill="none" xmlns="http://www.w3.org/2000/svg">
<g clip-path="url(#clip0_2027_22691)">
<path d="M14.44 14.9999C14.351 15.0012 14.2634 14.9787 14.186 14.9347C14.1087 14.8908 14.0444 14.827 14 14.7499C13.334 13.6155 12.3849 12.6735 11.2455 12.0161C10.106 11.3587 8.8154 11.0086 7.49997 10.9999V13.9999C7.49948 14.0987 7.46978 14.195 7.41461 14.2769C7.35944 14.3587 7.28128 14.4224 7.18997 14.4599C7.09891 14.4982 6.99856 14.5087 6.90156 14.49C6.80457 14.4713 6.71528 14.4243 6.64497 14.3549L0.644969 8.35495C0.598105 8.30847 0.560908 8.25317 0.535524 8.19224C0.510139 8.13131 0.49707 8.06595 0.49707 7.99995C0.49707 7.93394 0.510139 7.86859 0.535524 7.80766C0.560908 7.74673 0.598105 7.69143 0.644969 7.64495L6.64497 1.64495C6.71528 1.57557 6.80457 1.52857 6.90156 1.50988C6.99856 1.4912 7.09891 1.50166 7.18997 1.53995C7.28128 1.57746 7.35944 1.64116 7.41461 1.72302C7.46978 1.80488 7.49948 1.90124 7.49997 1.99995V5.05495C9.56857 5.32064 11.47 6.32942 12.8499 7.89328C14.2297 9.45713 14.9939 11.4694 15 13.5549C14.9988 13.8893 14.9771 14.2233 14.935 14.5549C14.9225 14.659 14.8776 14.7564 14.8068 14.8336C14.7359 14.9108 14.6426 14.9637 14.54 14.9849L14.44 14.9999ZM7.24997 9.99995C8.52517 9.98163 9.78915 10.2404 10.9546 10.7584C12.12 11.2763 13.159 12.0411 14 12.9999C13.8495 11.1861 13.0578 9.48527 11.7667 8.20244C10.4756 6.9196 8.76971 6.13875 6.95497 5.99995C6.83031 5.98868 6.71441 5.93107 6.63016 5.8385C6.54592 5.74592 6.49946 5.62512 6.49997 5.49995V3.20495L1.70497 7.99995L6.49997 12.7949V10.4999C6.49997 10.3673 6.55265 10.2402 6.64642 10.1464C6.74018 10.0526 6.86736 9.99995 6.99997 9.99995H7.26997H7.24997Z" fill="#495BFE"/>
</g>
<defs>
<clipPath id="clip0_2027_22691">
<rect width="16" height="16" fill="white"/>
</clipPath>
</defs>
</svg>
