<svg width="14" height="4" viewBox="0 0 14 4" fill="none" xmlns="http://www.w3.org/2000/svg">
<g opacity="0.2">
<path d="M6.25 2.25C6.25 1.83579 6.58579 1.5 7 1.5C7.41421 1.5 7.75 1.83579 7.75 2.25C7.75 2.66421 7.41421 3 7 3C6.58579 3 6.25 2.66421 6.25 2.25Z" fill="black" stroke="black" stroke-width="2" stroke-linecap="round" stroke-linejoin="round"/>
<path d="M11.5 2.25C11.5 1.83579 11.8358 1.5 12.25 1.5C12.6642 1.5 13 1.83579 13 2.25C13 2.66421 12.6642 3 12.25 3C11.8358 3 11.5 2.66421 11.5 2.25Z" fill="black" stroke="black" stroke-width="2" stroke-linecap="round" stroke-linejoin="round"/>
<path d="M1 2.25C1 1.83579 1.33579 1.5 1.75 1.5C2.16421 1.5 2.5 1.83579 2.5 2.25C2.5 2.66421 2.16421 3 1.75 3C1.33579 3 1 2.66421 1 2.25Z" fill="black" stroke="black" stroke-width="2" stroke-linecap="round" stroke-linejoin="round"/>
</g>
</svg>
