<svg width="18" height="19" viewBox="0 0 18 19" fill="none" xmlns="http://www.w3.org/2000/svg">
<path d="M16.6023 8.74447L9.13126 16.1109C8.216 17.0134 6.97464 17.5203 5.68026 17.5203C4.38588 17.5203 3.14452 17.0134 2.22926 16.1109C1.31399 15.2085 0.799805 13.9845 0.799805 12.7082C0.799805 11.432 1.31399 10.208 2.22926 9.30557L9.70033 1.93913C10.3105 1.3375 11.1381 0.999512 12.001 0.999512C12.8639 0.999512 13.6915 1.3375 14.3017 1.93913C14.9118 2.54076 15.2546 3.35675 15.2546 4.20758C15.2546 5.05841 14.9118 5.8744 14.3017 6.47603L6.82246 13.8425C6.51738 14.1433 6.10359 14.3123 5.67213 14.3123C5.24067 14.3123 4.82688 14.1433 4.5218 13.8425C4.21671 13.5417 4.04531 13.1337 4.04531 12.7082C4.04531 12.2828 4.21671 11.8748 4.5218 11.574L11.4238 4.77669" stroke="black" stroke-linecap="round" stroke-linejoin="round"/>
</svg>
