<svg width="20" height="20" viewBox="0 0 20 20" fill="none" xmlns="http://www.w3.org/2000/svg">
<g id="8542664_smile_emoji_icon 1">
<g id="Group 427322973">
<path id="Vector" d="M10.125 2C5.63659 2 2 5.63659 2 10.125C2 14.6134 5.63659 18.25 10.125 18.25C14.6134 18.25 18.25 14.6134 18.25 10.125C18.25 5.63659 14.6134 2 10.125 2ZM12.746 7.50403C13.3259 7.50403 13.7944 7.97253 13.7944 8.55242C13.7944 9.13231 13.3259 9.60081 12.746 9.60081C12.1661 9.60081 11.6976 9.13231 11.6976 8.55242C11.6976 7.97253 12.1661 7.50403 12.746 7.50403ZM7.50403 7.50403C8.08392 7.50403 8.55242 7.97253 8.55242 8.55242C8.55242 9.13231 8.08392 9.60081 7.50403 9.60081C6.92414 9.60081 6.45565 9.13231 6.45565 8.55242C6.45565 7.97253 6.92414 7.50403 7.50403 7.50403ZM13.8861 13.0801C12.9524 14.2006 11.5829 14.8427 10.125 14.8427C8.66709 14.8427 7.29763 14.2006 6.36391 13.0801C5.91835 12.5461 6.72429 11.8778 7.16986 12.4085C7.90373 13.2898 8.97833 13.7911 10.125 13.7911C11.2717 13.7911 12.3463 13.2865 13.0801 12.4085C13.5192 11.8778 14.3284 12.5461 13.8861 13.0801Z" fill="#B2B2B2"/>
</g>
</g>
</svg>
