<svg width="24" height="24" viewBox="0 0 24 24" fill="none" xmlns="http://www.w3.org/2000/svg">
<g opacity="0.5">
<path opacity="0.54" fill-rule="evenodd" clip-rule="evenodd" d="M16.4998 8.9L7.5998 0L6.1998 1.4L8.5998 3.8L3.4998 8.9C2.8998 9.5 2.8998 10.4 3.4998 11L8.9998 16.5C9.2998 16.8 9.6998 16.9 10.0998 16.9C10.4998 16.9 10.8998 16.8 11.1998 16.5L16.6998 11C17.0998 10.5 17.0998 9.5 16.4998 8.9ZM5.0998 10L9.89981 5.2L14.6998 10H5.0998ZM18.8998 11.5C18.8998 11.5 16.8998 13.7 16.8998 15C16.8998 16.1 17.7998 17 18.8998 17C19.9998 17 20.8998 16.1 20.8998 15C20.8998 13.7 18.8998 11.5 18.8998 11.5Z" fill="black"/>
<path opacity="0.54" fill-rule="evenodd" clip-rule="evenodd" d="M0 20V24H24V20H0Z" fill="black"/>
</g>
</svg>
