<svg width="26" height="24" viewBox="0 0 26 24" fill="none" xmlns="http://www.w3.org/2000/svg">
<path opacity="0.2" d="M13.7224 8.29537C13.7629 8.34057 13.9363 8.51125 14.0789 8.67024C14.9758 9.60234 16.4437 12.0339 16.8918 13.3066C16.9638 13.4999 17.1162 13.9885 17.126 14.2496C17.126 14.4998 17.0756 14.7382 16.9736 14.9658C16.831 15.2495 16.6066 15.4771 16.3417 15.6018C16.1578 15.682 15.6077 15.8067 15.5979 15.8067C14.996 15.9314 14.0181 16 12.9374 16C11.9077 16 10.9696 15.9314 10.3587 15.8293C10.3489 15.8176 9.66524 15.6929 9.43106 15.5566C9.00326 15.3064 8.73763 14.8177 8.73763 14.2948V14.2496C8.74811 13.909 9.01374 13.1928 9.02353 13.1928C9.47231 11.9887 10.8683 9.61325 11.7959 8.65855C11.7959 8.65855 12.0342 8.38967 12.1831 8.27277C12.397 8.0904 12.662 8 12.9269 8C13.2226 8 13.498 8.10209 13.7224 8.29537Z" fill="#030229"/>
</svg>
