<svg width="16" height="16" viewBox="0 0 16 16" fill="none" xmlns="http://www.w3.org/2000/svg">
<path fill-rule="evenodd" clip-rule="evenodd" d="M8.5 4.5C8.5 4.5 9.53553 4.5 10.2678 5.23223C10.2678 5.23223 11 5.96447 11 7C11 7 11 8.03553 10.2678 8.76777C10.2678 8.76777 9.53553 9.5 8.5 9.5C8.5 9.5 7.46447 9.5 6.73223 8.76777C6.73223 8.76777 6 8.03553 6 7C6 7 6 5.96447 6.73223 5.23223C6.73223 5.23223 7.46447 4.5 8.5 4.5ZM8.5 5.5C8.5 5.5 7.87868 5.5 7.43934 5.93934C7.43934 5.93934 7 6.37868 7 7C7 7 7 7.62132 7.43934 8.06066C7.43934 8.06066 7.87868 8.5 8.5 8.5C8.5 8.5 9.12132 8.5 9.56066 8.06066C9.56066 8.06066 10 7.62132 10 7C10 7 10 6.37868 9.56066 5.93934C9.56066 5.93934 9.12132 5.5 8.5 5.5Z" fill="black"/>
<path d="M2 7.25H3.5C3.77614 7.25 4 7.02614 4 6.75C4 6.47386 3.77614 6.25 3.5 6.25H2C1.72386 6.25 1.5 6.47386 1.5 6.75C1.5 7.02614 1.72386 7.25 2 7.25Z" fill="black"/>
<path d="M2 4.75H3.5C3.77614 4.75 4 4.52614 4 4.25C4 3.97386 3.77614 3.75 3.5 3.75H2C1.72386 3.75 1.5 3.97386 1.5 4.25C1.5 4.52614 1.72386 4.75 2 4.75Z" fill="black"/>
<path d="M2 9.75H3.5C3.77614 9.75 4 9.52614 4 9.25C4 8.97386 3.77614 8.75 3.5 8.75H2C1.72386 8.75 1.5 8.97386 1.5 9.25C1.5 9.52614 1.72386 9.75 2 9.75Z" fill="black"/>
<path d="M2 12.25H3.5C3.77614 12.25 4 12.0261 4 11.75C4 11.4739 3.77614 11.25 3.5 11.25H2C1.72386 11.25 1.5 11.4739 1.5 11.75C1.5 12.0261 1.72386 12.25 2 12.25Z" fill="black"/>
<path d="M9.95344 9.84311C10.6397 10.1862 11.1 10.8 11.1 10.8C11.1796 10.9061 11.298 10.9762 11.4293 10.995C11.4527 10.9983 11.4763 11 11.5 11L11.5017 11C11.6093 10.9996 11.7139 10.9646 11.8 10.9C11.9259 10.8056 12 10.6574 12 10.5L12 10.4934C11.9986 10.3875 11.9636 10.2848 11.9 10.2C11.298 9.39737 10.4007 8.94868 10.4007 8.94868C9.50329 8.5 8.5 8.5 8.5 8.5C7.49671 8.5 6.59934 8.94868 6.59934 8.94868C5.70197 9.39737 5.1 10.2 5.1 10.2C5.03509 10.2865 5 10.3918 5 10.5L5.00002 10.5044C5.00021 10.5266 5.00189 10.5487 5.00503 10.5707C5.02378 10.702 5.09391 10.8204 5.2 10.9C5.28655 10.9649 5.39181 11 5.5 11L5.5044 11C5.52659 10.9998 5.54874 10.9981 5.57071 10.995C5.70199 10.9762 5.82044 10.9061 5.9 10.8C6.36033 10.1862 7.04656 9.84311 7.04656 9.84311C7.73278 9.5 8.5 9.5 8.5 9.5C9.26722 9.5 9.95344 9.84311 9.95344 9.84311Z" fill="black"/>
<path fill-rule="evenodd" clip-rule="evenodd" d="M13 1.5C13 1.5 13.4142 1.5 13.7071 1.79289C13.7071 1.79289 14 2.08579 14 2.5V13.5C14 13.5 14 13.9142 13.7071 14.2071C13.7071 14.2071 13.4142 14.5 13 14.5H4C4 14.5 3.58578 14.5 3.29289 14.2071C3.29289 14.2071 3 13.9142 3 13.5V2.5C3 2.5 3 2.08579 3.29289 1.79289C3.29289 1.79289 3.58579 1.5 4 1.5H13ZM13 2.5H4V13.5H13V2.5Z" fill="black"/>
</svg>
