<svg width="16" height="16" viewBox="0 0 16 16" fill="none" xmlns="http://www.w3.org/2000/svg">
<path d="M2.5 4.75H13.5C13.7761 4.75 14 4.52614 14 4.25C14 3.97386 13.7761 3.75 13.5 3.75H2.5C2.22386 3.75 2 3.97386 2 4.25C2 4.52614 2.22386 4.75 2.5 4.75Z" fill="black"/>
<path d="M2.5 7.25H10.5C10.7761 7.25 11 7.02614 11 6.75C11 6.47386 10.7761 6.25 10.5 6.25H2.5C2.22386 6.25 2 6.47386 2 6.75C2 7.02614 2.22386 7.25 2.5 7.25Z" fill="black"/>
<path d="M2.5 9.75H13.5C13.7761 9.75 14 9.52614 14 9.25C14 8.97386 13.7761 8.75 13.5 8.75H2.5C2.22386 8.75 2 8.97386 2 9.25C2 9.52614 2.22386 9.75 2.5 9.75Z" fill="black"/>
<path d="M2.5 12.25H10.5C10.7761 12.25 11 12.0261 11 11.75C11 11.4739 10.7761 11.25 10.5 11.25H2.5C2.22386 11.25 2 11.4739 2 11.75C2 12.0261 2.22386 12.25 2.5 12.25Z" fill="black"/>
</svg>
