<svg width="24" height="24" viewBox="0 0 24 24" fill="none" xmlns="http://www.w3.org/2000/svg">
<path d="M14.4258 3.32598C15.5713 2.1804 17.4287 2.1804 18.5743 3.32599C19.7199 4.47157 19.7199 6.32893 18.5743 7.47451L17.0485 9.00028L17.1515 9.10324C18.0887 10.0405 18.0887 11.5601 17.1515 12.4974L15.4243 14.2246C15.19 14.4589 14.8101 14.4589 14.5757 14.2246C14.3415 13.9902 14.3415 13.6104 14.5757 13.376L16.303 11.6488C16.7716 11.1802 16.7716 10.4204 16.303 9.95177L16.2 9.84881L8.22429 17.8246C8.1474 17.9014 8.05105 17.956 7.94556 17.9824L3.14556 19.1824C2.93311 19.2354 2.70859 19.1686 2.5598 19.0079C2.41102 18.8472 2.36157 18.6182 2.43083 18.4105L3.93083 13.9105C3.96029 13.8222 4.00991 13.7418 4.07578 13.676L14.4258 3.32598Z" fill="black"/>
<path d="M3.92212 20.2854C3.90145 20.2703 3.88097 20.2553 3.86072 20.2403L5.47923 19.8357C6.12481 20.1602 6.90483 20.4002 7.80003 20.4002C8.40844 20.4002 9.01672 20.1872 9.64063 19.8318C10.2672 19.4751 10.8696 18.9987 11.4717 18.5096L11.6279 18.3824C12.1617 17.9475 12.7103 17.5006 13.2329 17.1927C13.7991 16.8591 14.4849 16.596 15.1898 16.8311C16.1754 17.1597 16.4868 18.0669 16.7748 19.0281C16.8406 19.2478 16.9535 19.4648 17.0872 19.615C17.2202 19.7644 17.327 19.8003 17.4 19.8003C17.6243 19.8003 17.9471 19.6781 18.3569 19.4364C18.6158 19.2838 18.8406 19.1284 19.0625 18.9749C19.1981 18.8812 19.333 18.7881 19.4735 18.6969C19.855 18.4496 20.184 18.2844 20.4227 18.1798C20.5421 18.1275 20.6392 18.0902 20.709 18.0651C20.744 18.0526 20.7722 18.0431 20.793 18.0364L20.8187 18.0282L20.8274 18.0257L20.8305 18.0248L20.8319 18.0244L21 18.6003C20.833 18.024 20.832 18.0243 20.8319 18.0244C21.1502 17.9321 21.4841 18.115 21.5763 18.4332C21.6683 18.7506 21.4864 19.0824 21.1698 19.1758L21.1616 19.1783C21.1526 19.1813 21.1364 19.1866 21.1138 19.1948C21.0684 19.211 20.9973 19.2382 20.9046 19.2788C20.7191 19.3601 20.4482 19.4951 20.1266 19.7037C20.0415 19.7589 19.9329 19.8335 19.8102 19.9179C19.5608 20.0895 19.2528 20.3012 18.9665 20.4701C18.5319 20.7264 17.9691 21.0003 17.4 21.0003C16.8731 21.0003 16.4651 20.721 16.1909 20.4129C15.9172 20.1054 15.7301 19.7225 15.6252 19.3725C15.3102 18.3208 15.1284 18.0755 14.8103 17.9694C14.6151 17.9044 14.326 17.9414 13.8422 18.2265C13.4024 18.4857 12.9254 18.8738 12.3688 19.3266L12.2284 19.4409C11.6305 19.9266 10.9579 20.4627 10.2344 20.8746C9.50834 21.2882 8.69163 21.6002 7.80003 21.6002C6.13472 21.6002 4.81339 20.9336 3.92212 20.2854Z" fill="black"/>
</svg>
