<svg width="24" height="24" viewBox="0 0 24 24" fill="none" xmlns="http://www.w3.org/2000/svg">
<path fill-rule="evenodd" clip-rule="evenodd" d="M10.3459 11.307C9.99427 11.307 9.71623 11.613 9.71623 12C9.71623 12.378 9.99427 12.693 10.3459 12.693H15.2526V16.995C15.2526 19.2 13.6252 21 11.6135 21H7.63091C5.62737 21 4 19.209 4 17.004V7.005C4 4.791 5.63555 3 7.63909 3H11.6298C13.6252 3 15.2526 4.791 15.2526 6.996V11.307H10.3459ZM18.1702 8.88614L20.5172 11.5051C20.6377 11.6401 20.702 11.8111 20.702 12.0001C20.702 12.1801 20.6377 12.3601 20.5172 12.4861L18.1702 15.1051C18.0496 15.2401 17.8889 15.3121 17.7362 15.3121C17.5754 15.3121 17.4147 15.2401 17.2941 15.1051C17.053 14.8351 17.053 14.3941 17.2941 14.1241L18.5801 12.6931H15.2526V11.3071H18.5801L17.2941 9.87614C17.053 9.60614 17.053 9.16514 17.2941 8.89514C17.5352 8.61614 17.9291 8.61614 18.1702 8.88614Z" fill="black"/>
</svg>
