<svg width="20" height="20" viewBox="0 0 20 20" fill="none" xmlns="http://www.w3.org/2000/svg">
<g clip-path="url(#clip0_114_2933)">
<path d="M10 1.875C8.90651 1.87629 7.82449 2.0981 6.81866 2.52715C5.81283 2.9562 4.90386 3.58368 4.1461 4.37208C3.38833 5.16047 2.79734 6.09358 2.40847 7.11562C2.01959 8.13765 1.84082 9.22761 1.88284 10.3203C2.0469 14.5938 5.55471 18.0391 9.83596 18.125C11.2706 18.1529 12.6871 17.8004 13.9413 17.1033C15.1956 16.4062 16.2428 15.3894 16.9766 14.1562C17.0073 14.105 17.0227 14.046 17.0209 13.9863C17.0191 13.9266 17.0003 13.8686 16.9666 13.8193C16.9328 13.77 16.8857 13.7313 16.8307 13.708C16.7757 13.6846 16.7152 13.6775 16.6563 13.6875C16.419 13.7294 16.1785 13.7503 15.9375 13.75C14.5078 13.75 13.711 13.125 13.2891 12.6016C13.1917 12.4776 13.1029 12.3471 13.0235 12.2109C12.6452 12.7291 12.1404 13.1415 11.5573 13.4089C10.9741 13.6762 10.3322 13.7895 9.69274 13.7378C9.05332 13.6862 8.43783 13.4714 7.90514 13.114C7.37244 12.7565 6.94034 12.2684 6.65016 11.6963C6.35998 11.1242 6.22141 10.4872 6.24772 9.84623C6.27402 9.20527 6.46431 8.58177 6.8004 8.03536C7.13648 7.48894 7.60712 7.03788 8.16732 6.72529C8.72751 6.41271 9.35852 6.24907 10 6.25C10.9241 6.24718 11.8158 6.58993 12.5 7.21094V6.89844C12.4975 6.73626 12.5565 6.57914 12.6653 6.45879C12.774 6.33844 12.9244 6.26383 13.086 6.25C13.1713 6.24466 13.2568 6.25687 13.3372 6.28588C13.4175 6.31489 13.4911 6.36008 13.5534 6.41865C13.6156 6.47723 13.6652 6.54795 13.699 6.62644C13.7328 6.70494 13.7502 6.78953 13.75 6.875V10C13.75 11.1406 14.1328 12.5 15.9375 12.5C17.7422 12.5 18.0938 11.2344 18.125 10.1172V10C18.123 7.84575 17.2663 5.78033 15.743 4.25704C14.2197 2.73376 12.1543 1.87707 10 1.875Z" fill="#B2B2B2"/>
<path d="M10 12.5C11.3807 12.5 12.5 11.3807 12.5 10C12.5 8.61929 11.3807 7.5 10 7.5C8.61929 7.5 7.5 8.61929 7.5 10C7.5 11.3807 8.61929 12.5 10 12.5Z" fill="#B2B2B2"/>
</g>
<defs>
<clipPath id="clip0_114_2933">
<rect width="20" height="20" fill="white"/>
</clipPath>
</defs>
</svg>
