<svg width="432" height="250" viewBox="0 0 432 250" fill="none" xmlns="http://www.w3.org/2000/svg">
<rect width="432" height="250" rx="16" fill="#F7F9FB"/>
<path d="M25.862 39C25.638 39 25.4607 38.9393 25.33 38.818C25.2087 38.6873 25.148 38.5147 25.148 38.3V29.83C25.148 29.6153 25.2087 29.4473 25.33 29.326C25.4607 29.1953 25.638 29.13 25.862 29.13H28.606C30.202 29.13 31.4387 29.5593 32.316 30.418C33.1933 31.2767 33.632 32.49 33.632 34.058C33.632 35.626 33.1933 36.844 32.316 37.712C31.4387 38.5707 30.202 39 28.606 39H25.862ZM28.522 37.796C30.9487 37.796 32.162 36.55 32.162 34.058C32.162 31.5753 30.9487 30.334 28.522 30.334H26.59V37.796H28.522ZM38.3933 39.098C37.7213 39.098 37.1286 38.9533 36.6153 38.664C36.1113 38.3747 35.7193 37.964 35.4393 37.432C35.1686 36.8907 35.0333 36.2653 35.0333 35.556C35.0333 34.8373 35.1686 34.212 35.4393 33.68C35.7193 33.1387 36.1113 32.7233 36.6153 32.434C37.1286 32.1447 37.7213 32 38.3933 32C39.0653 32 39.6533 32.1447 40.1573 32.434C40.6706 32.7233 41.0626 33.1387 41.3333 33.68C41.6133 34.212 41.7533 34.8373 41.7533 35.556C41.7533 36.2653 41.6133 36.8907 41.3333 37.432C41.0626 37.964 40.6706 38.3747 40.1573 38.664C39.6533 38.9533 39.0653 39.098 38.3933 39.098ZM38.3933 37.978C39.0186 37.978 39.4946 37.7727 39.8213 37.362C40.1573 36.9513 40.3253 36.3493 40.3253 35.556C40.3253 34.772 40.1573 34.1747 39.8213 33.764C39.4853 33.344 39.0093 33.134 38.3933 33.134C37.7773 33.134 37.3013 33.344 36.9653 33.764C36.6293 34.1747 36.4613 34.772 36.4613 35.556C36.4613 36.3493 36.6246 36.9513 36.9513 37.362C37.2873 37.7727 37.768 37.978 38.3933 37.978ZM46.2537 39.098C45.591 39.098 45.0077 38.9533 44.5037 38.664C44.009 38.3747 43.6217 37.964 43.3417 37.432C43.071 36.9 42.9357 36.284 42.9357 35.584C42.9357 34.8747 43.0757 34.2493 43.3557 33.708C43.645 33.1667 44.0463 32.7467 44.5597 32.448C45.073 32.1493 45.661 32 46.3237 32C46.6783 32 47.033 32.0513 47.3877 32.154C47.7517 32.2567 48.0737 32.3967 48.3537 32.574C48.6523 32.7793 48.8017 33.0173 48.8017 33.288C48.8017 33.4467 48.7597 33.582 48.6757 33.694C48.5917 33.7967 48.4843 33.848 48.3537 33.848C48.2697 33.848 48.1857 33.8293 48.1017 33.792C48.0177 33.7453 47.9103 33.68 47.7797 33.596C47.5463 33.4467 47.327 33.3347 47.1217 33.26C46.9257 33.176 46.6877 33.134 46.4077 33.134C45.773 33.134 45.2783 33.3487 44.9237 33.778C44.5783 34.2073 44.4057 34.8047 44.4057 35.57C44.4057 36.3353 44.5783 36.928 44.9237 37.348C45.269 37.7587 45.759 37.964 46.3937 37.964C46.6737 37.964 46.921 37.922 47.1357 37.838C47.3503 37.754 47.5697 37.642 47.7937 37.502C47.8963 37.4367 47.999 37.3807 48.1017 37.334C48.2043 37.2873 48.2977 37.264 48.3817 37.264C48.5123 37.264 48.6197 37.32 48.7037 37.432C48.7877 37.5347 48.8297 37.6653 48.8297 37.824C48.8297 37.9547 48.7923 38.076 48.7177 38.188C48.6523 38.2907 48.5357 38.398 48.3677 38.51C48.0877 38.6967 47.761 38.8413 47.3877 38.944C47.0143 39.0467 46.6363 39.098 46.2537 39.098ZM55.3872 32.028C55.6019 32.028 55.7699 32.0887 55.8912 32.21C56.0219 32.3313 56.0872 32.4993 56.0872 32.714V38.412C56.0872 38.608 56.0219 38.7667 55.8912 38.888C55.7606 39.0093 55.5879 39.07 55.3732 39.07C55.1772 39.07 55.0186 39.014 54.8972 38.902C54.7759 38.7807 54.7152 38.622 54.7152 38.426V37.894C54.5006 38.286 54.2019 38.5847 53.8192 38.79C53.4459 38.9953 53.0259 39.098 52.5592 39.098C50.8979 39.098 50.0672 38.1833 50.0672 36.354V32.714C50.0672 32.4993 50.1279 32.3313 50.2492 32.21C50.3799 32.0887 50.5572 32.028 50.7812 32.028C50.9959 32.028 51.1639 32.0887 51.2852 32.21C51.4159 32.3313 51.4812 32.4993 51.4812 32.714V36.34C51.4812 36.8907 51.5932 37.2967 51.8172 37.558C52.0412 37.8193 52.3866 37.95 52.8532 37.95C53.4039 37.95 53.8426 37.7727 54.1692 37.418C54.5052 37.0633 54.6732 36.592 54.6732 36.004V32.714C54.6732 32.5087 54.7386 32.3453 54.8692 32.224C54.9999 32.0933 55.1726 32.028 55.3872 32.028ZM65.9059 32C67.4366 32 68.2019 32.9193 68.2019 34.758V38.398C68.2019 38.6127 68.1366 38.7807 68.0059 38.902C67.8753 39.014 67.7026 39.07 67.4879 39.07C67.2826 39.07 67.1146 39.014 66.9839 38.902C66.8533 38.7807 66.7879 38.6127 66.7879 38.398V34.772C66.7879 34.2027 66.6853 33.792 66.4799 33.54C66.2746 33.2787 65.9526 33.148 65.5139 33.148C65.0006 33.148 64.5946 33.3253 64.2959 33.68C63.9973 34.0253 63.8479 34.5013 63.8479 35.108V38.398C63.8479 38.6127 63.7826 38.7807 63.6519 38.902C63.5213 39.014 63.3486 39.07 63.1339 39.07C62.9286 39.07 62.7606 39.014 62.6299 38.902C62.4993 38.7807 62.4339 38.6127 62.4339 38.398V34.772C62.4339 34.2027 62.3313 33.792 62.1259 33.54C61.9206 33.2787 61.5986 33.148 61.1599 33.148C60.6466 33.148 60.2359 33.3253 59.9279 33.68C59.6293 34.0253 59.4799 34.5013 59.4799 35.108V38.398C59.4799 38.6127 59.4146 38.7807 59.2839 38.902C59.1533 39.014 58.9853 39.07 58.7799 39.07C58.5746 39.07 58.4019 39.014 58.2619 38.902C58.1313 38.7807 58.0659 38.6127 58.0659 38.398V32.7C58.0659 32.4947 58.1359 32.3313 58.2759 32.21C58.4159 32.0887 58.5839 32.028 58.7799 32.028C58.9759 32.028 59.1346 32.0887 59.2559 32.21C59.3866 32.322 59.4519 32.4807 59.4519 32.686V33.204C59.6573 32.812 59.9419 32.5133 60.3059 32.308C60.6699 32.1027 61.0899 32 61.5659 32C62.0886 32 62.5179 32.1073 62.8539 32.322C63.1993 32.5367 63.4559 32.868 63.6239 33.316C63.8293 32.9147 64.1326 32.5973 64.5339 32.364C64.9353 32.1213 65.3926 32 65.9059 32ZM75.4862 37.278C75.6169 37.278 75.7242 37.3293 75.8082 37.432C75.8922 37.5347 75.9342 37.6653 75.9342 37.824C75.9342 38.0947 75.7662 38.3233 75.4302 38.51C75.1035 38.6967 74.7442 38.8413 74.3522 38.944C73.9695 39.0467 73.6009 39.098 73.2462 39.098C72.1635 39.098 71.3095 38.7853 70.6842 38.16C70.0589 37.5253 69.7462 36.662 69.7462 35.57C69.7462 34.87 69.8815 34.2493 70.1522 33.708C70.4322 33.1667 70.8195 32.7467 71.3142 32.448C71.8182 32.1493 72.3875 32 73.0222 32C73.9369 32 74.6602 32.294 75.1922 32.882C75.7242 33.47 75.9902 34.2633 75.9902 35.262C75.9902 35.6353 75.8222 35.822 75.4862 35.822H71.1602C71.2535 37.2687 71.9489 37.992 73.2462 37.992C73.5915 37.992 73.8902 37.9453 74.1422 37.852C74.3942 37.7587 74.6602 37.6373 74.9402 37.488C74.9682 37.4693 75.0429 37.432 75.1642 37.376C75.2949 37.3107 75.4022 37.278 75.4862 37.278ZM73.0502 33.036C72.5089 33.036 72.0749 33.2087 71.7482 33.554C71.4215 33.8993 71.2255 34.3847 71.1602 35.01H74.7722C74.7442 34.3753 74.5809 33.89 74.2822 33.554C73.9929 33.2087 73.5822 33.036 73.0502 33.036ZM81.2304 32C82.8637 32 83.6804 32.9193 83.6804 34.758V38.398C83.6804 38.6127 83.615 38.7807 83.4844 38.902C83.363 39.014 83.1904 39.07 82.9664 39.07C82.7517 39.07 82.579 39.0093 82.4484 38.888C82.327 38.7667 82.2664 38.6033 82.2664 38.398V34.828C82.2664 34.2493 82.1497 33.8247 81.9164 33.554C81.6924 33.2833 81.3377 33.148 80.8524 33.148C80.283 33.148 79.8257 33.3253 79.4804 33.68C79.135 34.0347 78.9624 34.5107 78.9624 35.108V38.398C78.9624 38.6033 78.897 38.7667 78.7664 38.888C78.645 39.0093 78.477 39.07 78.2624 39.07C78.0477 39.07 77.875 39.0093 77.7444 38.888C77.6137 38.7667 77.5484 38.6033 77.5484 38.398V32.7C77.5484 32.504 77.6137 32.3453 77.7444 32.224C77.8844 32.0933 78.057 32.028 78.2624 32.028C78.4677 32.028 78.631 32.0887 78.7524 32.21C78.8737 32.3313 78.9344 32.49 78.9344 32.686V33.26C79.1584 32.8493 79.471 32.5367 79.8724 32.322C80.2737 32.1073 80.7264 32 81.2304 32ZM88.9608 37.992C89.1661 38.0107 89.3108 38.0667 89.3948 38.16C89.4881 38.244 89.5348 38.3653 89.5348 38.524C89.5348 38.7107 89.4601 38.8553 89.3108 38.958C89.1708 39.0513 88.9608 39.0887 88.6808 39.07L88.3028 39.042C87.5468 38.986 86.9821 38.7573 86.6088 38.356C86.2354 37.9453 86.0488 37.3433 86.0488 36.55V33.26H85.2088C84.7981 33.26 84.5928 33.078 84.5928 32.714C84.5928 32.546 84.6441 32.4153 84.7468 32.322C84.8588 32.2193 85.0128 32.168 85.2088 32.168H86.0488V30.726C86.0488 30.5113 86.1094 30.3433 86.2308 30.222C86.3614 30.1007 86.5341 30.04 86.7488 30.04C86.9634 30.04 87.1361 30.1007 87.2668 30.222C87.3974 30.3433 87.4628 30.5113 87.4628 30.726V32.168H88.8488C89.0448 32.168 89.1941 32.2193 89.2968 32.322C89.4088 32.4153 89.4648 32.546 89.4648 32.714C89.4648 32.8913 89.4088 33.0267 89.2968 33.12C89.1941 33.2133 89.0448 33.26 88.8488 33.26H87.4628V36.648C87.4628 37.0867 87.5514 37.4087 87.7288 37.614C87.9154 37.8193 88.1954 37.936 88.5688 37.964L88.9608 37.992ZM102.11 38.104C102.194 38.2253 102.236 38.356 102.236 38.496C102.236 38.664 102.166 38.8087 102.026 38.93C101.895 39.042 101.741 39.098 101.564 39.098C101.302 39.098 101.092 38.9813 100.934 38.748L99.0577 35.836C98.8431 35.5 98.6144 35.2667 98.3717 35.136C98.1291 34.996 97.8117 34.926 97.4197 34.926H95.8377V38.342C95.8377 38.566 95.7724 38.7433 95.6417 38.874C95.5204 39.0047 95.3477 39.07 95.1237 39.07C94.9091 39.07 94.7364 39.0047 94.6057 38.874C94.4751 38.7433 94.4097 38.566 94.4097 38.342V29.83C94.4097 29.6153 94.4704 29.4473 94.5917 29.326C94.7224 29.1953 94.8997 29.13 95.1237 29.13H98.6097C99.7017 29.13 100.532 29.3727 101.102 29.858C101.68 30.3433 101.97 31.0527 101.97 31.986C101.97 32.7607 101.75 33.3907 101.312 33.876C100.873 34.352 100.248 34.6553 99.4357 34.786C99.6784 34.8513 99.8977 34.968 100.094 35.136C100.29 35.304 100.481 35.5373 100.668 35.836L102.11 38.104ZM98.4417 33.764C99.1697 33.764 99.7064 33.624 100.052 33.344C100.406 33.0547 100.584 32.6113 100.584 32.014C100.584 31.4167 100.411 30.9827 100.066 30.712C99.7204 30.432 99.1791 30.292 98.4417 30.292H95.8237V33.764H98.4417ZM109.256 37.278C109.386 37.278 109.494 37.3293 109.578 37.432C109.662 37.5347 109.704 37.6653 109.704 37.824C109.704 38.0947 109.536 38.3233 109.2 38.51C108.873 38.6967 108.514 38.8413 108.122 38.944C107.739 39.0467 107.37 39.098 107.016 39.098C105.933 39.098 105.079 38.7853 104.454 38.16C103.828 37.5253 103.516 36.662 103.516 35.57C103.516 34.87 103.651 34.2493 103.922 33.708C104.202 33.1667 104.589 32.7467 105.084 32.448C105.588 32.1493 106.157 32 106.792 32C107.706 32 108.43 32.294 108.962 32.882C109.494 33.47 109.76 34.2633 109.76 35.262C109.76 35.6353 109.592 35.822 109.256 35.822H104.93C105.023 37.2687 105.718 37.992 107.016 37.992C107.361 37.992 107.66 37.9453 107.912 37.852C108.164 37.7587 108.43 37.6373 108.71 37.488C108.738 37.4693 108.812 37.432 108.934 37.376C109.064 37.3107 109.172 37.278 109.256 37.278ZM106.82 33.036C106.278 33.036 105.844 33.2087 105.518 33.554C105.191 33.8993 104.995 34.3847 104.93 35.01H108.542C108.514 34.3753 108.35 33.89 108.052 33.554C107.762 33.2087 107.352 33.036 106.82 33.036ZM116.918 32.028C117.133 32.028 117.301 32.0933 117.422 32.224C117.553 32.3453 117.618 32.5087 117.618 32.714V40.918C117.618 41.1233 117.553 41.2867 117.422 41.408C117.291 41.5293 117.119 41.59 116.904 41.59C116.689 41.59 116.517 41.5293 116.386 41.408C116.265 41.296 116.204 41.142 116.204 40.946V37.852C115.999 38.2533 115.7 38.5613 115.308 38.776C114.925 38.9907 114.477 39.098 113.964 39.098C113.367 39.098 112.835 38.9533 112.368 38.664C111.911 38.3747 111.556 37.964 111.304 37.432C111.052 36.9 110.926 36.284 110.926 35.584C110.926 34.8747 111.052 34.2493 111.304 33.708C111.565 33.1667 111.925 32.7467 112.382 32.448C112.849 32.1493 113.376 32 113.964 32C114.477 32 114.93 32.112 115.322 32.336C115.714 32.56 116.013 32.8773 116.218 33.288V32.714C116.218 32.5087 116.279 32.3453 116.4 32.224C116.531 32.0933 116.703 32.028 116.918 32.028ZM114.3 37.978C114.916 37.978 115.387 37.768 115.714 37.348C116.05 36.928 116.218 36.3307 116.218 35.556C116.218 34.7813 116.05 34.184 115.714 33.764C115.387 33.344 114.916 33.134 114.3 33.134C113.693 33.134 113.217 33.3533 112.872 33.792C112.527 34.2213 112.354 34.8187 112.354 35.584C112.354 36.3493 112.522 36.942 112.858 37.362C113.203 37.7727 113.684 37.978 114.3 37.978ZM124.881 32.028C125.096 32.028 125.264 32.0887 125.385 32.21C125.516 32.3313 125.581 32.4993 125.581 32.714V38.412C125.581 38.608 125.516 38.7667 125.385 38.888C125.255 39.0093 125.082 39.07 124.867 39.07C124.671 39.07 124.513 39.014 124.391 38.902C124.27 38.7807 124.209 38.622 124.209 38.426V37.894C123.995 38.286 123.696 38.5847 123.313 38.79C122.94 38.9953 122.52 39.098 122.053 39.098C120.392 39.098 119.561 38.1833 119.561 36.354V32.714C119.561 32.4993 119.622 32.3313 119.743 32.21C119.874 32.0887 120.051 32.028 120.275 32.028C120.49 32.028 120.658 32.0887 120.779 32.21C120.91 32.3313 120.975 32.4993 120.975 32.714V36.34C120.975 36.8907 121.087 37.2967 121.311 37.558C121.535 37.8193 121.881 37.95 122.347 37.95C122.898 37.95 123.337 37.7727 123.663 37.418C123.999 37.0633 124.167 36.592 124.167 36.004V32.714C124.167 32.5087 124.233 32.3453 124.363 32.224C124.494 32.0933 124.667 32.028 124.881 32.028ZM132.908 37.278C133.039 37.278 133.146 37.3293 133.23 37.432C133.314 37.5347 133.356 37.6653 133.356 37.824C133.356 38.0947 133.188 38.3233 132.852 38.51C132.525 38.6967 132.166 38.8413 131.774 38.944C131.391 39.0467 131.023 39.098 130.668 39.098C129.585 39.098 128.731 38.7853 128.106 38.16C127.481 37.5253 127.168 36.662 127.168 35.57C127.168 34.87 127.303 34.2493 127.574 33.708C127.854 33.1667 128.241 32.7467 128.736 32.448C129.24 32.1493 129.809 32 130.444 32C131.359 32 132.082 32.294 132.614 32.882C133.146 33.47 133.412 34.2633 133.412 35.262C133.412 35.6353 133.244 35.822 132.908 35.822H128.582C128.675 37.2687 129.371 37.992 130.668 37.992C131.013 37.992 131.312 37.9453 131.564 37.852C131.816 37.7587 132.082 37.6373 132.362 37.488C132.39 37.4693 132.465 37.432 132.586 37.376C132.717 37.3107 132.824 37.278 132.908 37.278ZM130.472 33.036C129.931 33.036 129.497 33.2087 129.17 33.554C128.843 33.8993 128.647 34.3847 128.582 35.01H132.194C132.166 34.3753 132.003 33.89 131.704 33.554C131.415 33.2087 131.004 33.036 130.472 33.036ZM137.35 39.098C136.398 39.098 135.619 38.902 135.012 38.51C134.844 38.4073 134.723 38.3 134.648 38.188C134.583 38.076 134.55 37.95 134.55 37.81C134.55 37.6607 134.592 37.5347 134.676 37.432C134.76 37.3293 134.868 37.278 134.998 37.278C135.12 37.278 135.311 37.3527 135.572 37.502C135.852 37.6513 136.123 37.7727 136.384 37.866C136.655 37.9593 136.991 38.006 137.392 38.006C137.84 38.006 138.19 37.9267 138.442 37.768C138.694 37.6093 138.82 37.3853 138.82 37.096C138.82 36.9093 138.769 36.76 138.666 36.648C138.573 36.536 138.405 36.438 138.162 36.354C137.92 36.2607 137.56 36.1627 137.084 36.06C136.263 35.8827 135.67 35.6447 135.306 35.346C134.952 35.038 134.774 34.6227 134.774 34.1C134.774 33.6987 134.891 33.3393 135.124 33.022C135.358 32.6953 135.68 32.4433 136.09 32.266C136.501 32.0887 136.968 32 137.49 32C137.864 32 138.228 32.0513 138.582 32.154C138.937 32.2473 139.25 32.3873 139.52 32.574C139.828 32.7793 139.982 33.0173 139.982 33.288C139.982 33.4373 139.936 33.5633 139.842 33.666C139.758 33.7687 139.656 33.82 139.534 33.82C139.45 33.82 139.366 33.8013 139.282 33.764C139.198 33.7267 139.086 33.666 138.946 33.582C138.694 33.4327 138.456 33.316 138.232 33.232C138.018 33.148 137.747 33.106 137.42 33.106C137.028 33.106 136.711 33.19 136.468 33.358C136.235 33.526 136.118 33.7547 136.118 34.044C136.118 34.3053 136.226 34.5107 136.44 34.66C136.664 34.8 137.08 34.9353 137.686 35.066C138.312 35.1967 138.802 35.346 139.156 35.514C139.511 35.682 139.763 35.892 139.912 36.144C140.071 36.3867 140.15 36.6993 140.15 37.082C140.15 37.6887 139.894 38.1787 139.38 38.552C138.876 38.916 138.2 39.098 137.35 39.098ZM145.002 37.992C145.207 38.0107 145.352 38.0667 145.436 38.16C145.529 38.244 145.576 38.3653 145.576 38.524C145.576 38.7107 145.501 38.8553 145.352 38.958C145.212 39.0513 145.002 39.0887 144.722 39.07L144.344 39.042C143.588 38.986 143.023 38.7573 142.65 38.356C142.276 37.9453 142.09 37.3433 142.09 36.55V33.26H141.25C140.839 33.26 140.634 33.078 140.634 32.714C140.634 32.546 140.685 32.4153 140.788 32.322C140.9 32.2193 141.054 32.168 141.25 32.168H142.09V30.726C142.09 30.5113 142.15 30.3433 142.272 30.222C142.402 30.1007 142.575 30.04 142.79 30.04C143.004 30.04 143.177 30.1007 143.308 30.222C143.438 30.3433 143.504 30.5113 143.504 30.726V32.168H144.89C145.086 32.168 145.235 32.2193 145.338 32.322C145.45 32.4153 145.506 32.546 145.506 32.714C145.506 32.8913 145.45 33.0267 145.338 33.12C145.235 33.2133 145.086 33.26 144.89 33.26H143.504V36.648C143.504 37.0867 143.592 37.4087 143.77 37.614C143.956 37.8193 144.236 37.936 144.61 37.964L145.002 37.992Z" fill="black"/>
<path d="M25.536 73.084C25.376 73.084 25.252 73.04 25.164 72.952C25.084 72.856 25.044 72.728 25.044 72.568V64.972C25.044 64.804 25.084 64.676 25.164 64.588C25.252 64.5 25.376 64.456 25.536 64.456C25.696 64.456 25.816 64.5 25.896 64.588C25.984 64.676 26.028 64.804 26.028 64.972V68.284H31.104V64.972C31.104 64.804 31.144 64.676 31.224 64.588C31.312 64.5 31.436 64.456 31.596 64.456C31.756 64.456 31.876 64.5 31.956 64.588C32.044 64.676 32.088 64.804 32.088 64.972V72.568C32.088 72.728 32.044 72.856 31.956 72.952C31.876 73.04 31.756 73.084 31.596 73.084C31.436 73.084 31.312 73.04 31.224 72.952C31.144 72.856 31.104 72.728 31.104 72.568V69.136H26.028V72.568C26.028 72.728 25.988 72.856 25.908 72.952C25.828 73.04 25.704 73.084 25.536 73.084ZM34.6649 73.084C34.5049 73.084 34.3809 73.04 34.2929 72.952C34.2129 72.856 34.1729 72.728 34.1729 72.568V65.044C34.1729 64.876 34.2169 64.752 34.3049 64.672C34.3929 64.584 34.5169 64.54 34.6769 64.54H37.5209C38.4249 64.54 39.1209 64.752 39.6089 65.176C40.0969 65.6 40.3409 66.204 40.3409 66.988C40.3409 67.484 40.2289 67.916 40.0049 68.284C39.7889 68.644 39.4689 68.92 39.0449 69.112C38.6209 69.296 38.1129 69.388 37.5209 69.388L37.6409 69.232H37.8809C38.1929 69.232 38.4649 69.312 38.6969 69.472C38.9289 69.632 39.1409 69.888 39.3329 70.24L40.4849 72.388C40.5489 72.5 40.5769 72.612 40.5689 72.724C40.5689 72.828 40.5329 72.916 40.4609 72.988C40.3889 73.052 40.2849 73.084 40.1489 73.084C40.0129 73.084 39.9009 73.052 39.8129 72.988C39.7249 72.924 39.6489 72.832 39.5849 72.712L38.2769 70.288C38.0929 69.944 37.8809 69.716 37.6409 69.604C37.4009 69.484 37.0849 69.424 36.6929 69.424H35.1569V72.568C35.1569 72.728 35.1169 72.856 35.0369 72.952C34.9569 73.04 34.8329 73.084 34.6649 73.084ZM35.1569 68.644H37.3769C38.0329 68.644 38.5289 68.508 38.8649 68.236C39.2009 67.956 39.3689 67.54 39.3689 66.988C39.3689 66.452 39.2009 66.048 38.8649 65.776C38.5289 65.496 38.0329 65.356 37.3769 65.356H35.1569V68.644Z" fill="black"/>
<path d="M98 66H389C390.657 66 392 67.3431 392 69C392 70.6569 390.657 72 389 72H98V66Z" fill="black" fill-opacity="0.1"/>
<path d="M25.572 101.084C25.404 101.084 25.272 101.04 25.176 100.952C25.088 100.856 25.044 100.72 25.044 100.544V93.08C25.044 92.904 25.088 92.772 25.176 92.684C25.272 92.588 25.408 92.54 25.584 92.54H29.94C30.076 92.54 30.18 92.576 30.252 92.648C30.324 92.72 30.36 92.82 30.36 92.948C30.36 93.084 30.324 93.188 30.252 93.26C30.18 93.332 30.076 93.368 29.94 93.368H26.028V96.32H29.688C29.824 96.32 29.928 96.356 30 96.428C30.08 96.5 30.12 96.6 30.12 96.728C30.12 96.864 30.08 96.968 30 97.04C29.928 97.112 29.824 97.148 29.688 97.148H26.028V100.544C26.028 100.904 25.876 101.084 25.572 101.084ZM32.1889 101.06C32.0289 101.06 31.9089 101.016 31.8289 100.928C31.7489 100.832 31.7089 100.7 31.7089 100.532V95.624C31.7089 95.456 31.7489 95.328 31.8289 95.24C31.9089 95.152 32.0289 95.108 32.1889 95.108C32.3409 95.108 32.4609 95.152 32.5489 95.24C32.6369 95.328 32.6809 95.456 32.6809 95.624V100.532C32.6809 100.7 32.6369 100.832 32.5489 100.928C32.4689 101.016 32.3489 101.06 32.1889 101.06ZM32.1889 93.764C31.9889 93.764 31.8329 93.712 31.7209 93.608C31.6089 93.496 31.5529 93.348 31.5529 93.164C31.5529 92.972 31.6089 92.828 31.7209 92.732C31.8329 92.628 31.9889 92.576 32.1889 92.576C32.3969 92.576 32.5529 92.628 32.6569 92.732C32.7689 92.828 32.8249 92.972 32.8249 93.164C32.8249 93.348 32.7689 93.496 32.6569 93.608C32.5529 93.712 32.3969 93.764 32.1889 93.764ZM34.9779 101.084C34.8179 101.084 34.6979 101.04 34.6179 100.952C34.5379 100.864 34.4979 100.74 34.4979 100.58V95.576C34.4979 95.416 34.5379 95.296 34.6179 95.216C34.6979 95.128 34.8139 95.084 34.9659 95.084C35.1179 95.084 35.2339 95.128 35.3139 95.216C35.4019 95.296 35.4459 95.416 35.4459 95.576V96.608L35.3139 96.464C35.4819 96 35.7539 95.652 36.1299 95.42C36.5139 95.18 36.9539 95.06 37.4499 95.06C37.9139 95.06 38.2979 95.144 38.6019 95.312C38.9139 95.48 39.1459 95.736 39.2979 96.08C39.4499 96.416 39.5259 96.844 39.5259 97.364V100.58C39.5259 100.74 39.4819 100.864 39.3939 100.952C39.3139 101.04 39.1979 101.084 39.0459 101.084C38.8859 101.084 38.7619 101.04 38.6739 100.952C38.5939 100.864 38.5539 100.74 38.5539 100.58V97.424C38.5539 96.88 38.4459 96.484 38.2299 96.236C38.0219 95.98 37.6859 95.852 37.2219 95.852C36.6859 95.852 36.2579 96.02 35.9379 96.356C35.6259 96.684 35.4699 97.124 35.4699 97.676V100.58C35.4699 100.916 35.3059 101.084 34.9779 101.084ZM43.1543 101.108C42.7543 101.108 42.3943 101.032 42.0743 100.88C41.7623 100.72 41.5143 100.504 41.3303 100.232C41.1463 99.96 41.0543 99.656 41.0543 99.32C41.0543 98.888 41.1623 98.548 41.3783 98.3C41.6023 98.052 41.9663 97.876 42.4703 97.772C42.9823 97.668 43.6783 97.616 44.5583 97.616H45.0983V98.252H44.5703C43.9223 98.252 43.4103 98.284 43.0343 98.348C42.6663 98.404 42.4063 98.504 42.2543 98.648C42.1103 98.792 42.0383 98.996 42.0383 99.26C42.0383 99.588 42.1503 99.856 42.3743 100.064C42.6063 100.272 42.9183 100.376 43.3103 100.376C43.6303 100.376 43.9103 100.3 44.1503 100.148C44.3983 99.996 44.5903 99.788 44.7263 99.524C44.8703 99.26 44.9423 98.956 44.9423 98.612V97.244C44.9423 96.748 44.8423 96.392 44.6423 96.176C44.4423 95.952 44.1143 95.84 43.6583 95.84C43.3783 95.84 43.0983 95.876 42.8183 95.948C42.5383 96.02 42.2423 96.136 41.9303 96.296C41.8183 96.352 41.7223 96.372 41.6423 96.356C41.5623 96.332 41.4983 96.288 41.4503 96.224C41.4023 96.16 41.3743 96.088 41.3663 96.008C41.3583 95.92 41.3743 95.836 41.4143 95.756C41.4623 95.676 41.5343 95.612 41.6303 95.564C41.9823 95.388 42.3303 95.26 42.6743 95.18C43.0183 95.1 43.3463 95.06 43.6583 95.06C44.1623 95.06 44.5783 95.144 44.9063 95.312C45.2343 95.472 45.4783 95.72 45.6383 96.056C45.7983 96.384 45.8783 96.808 45.8783 97.328V100.58C45.8783 100.74 45.8383 100.864 45.7583 100.952C45.6863 101.04 45.5783 101.084 45.4343 101.084C45.2823 101.084 45.1663 101.04 45.0863 100.952C45.0063 100.864 44.9663 100.74 44.9663 100.58V99.644H45.0743C45.0103 99.948 44.8863 100.208 44.7023 100.424C44.5263 100.64 44.3063 100.808 44.0423 100.928C43.7783 101.048 43.4823 101.108 43.1543 101.108ZM48.1615 101.084C48.0015 101.084 47.8815 101.04 47.8015 100.952C47.7215 100.864 47.6815 100.74 47.6815 100.58V95.576C47.6815 95.416 47.7215 95.296 47.8015 95.216C47.8815 95.128 47.9975 95.084 48.1495 95.084C48.3015 95.084 48.4175 95.128 48.4975 95.216C48.5855 95.296 48.6295 95.416 48.6295 95.576V96.608L48.4975 96.464C48.6655 96 48.9375 95.652 49.3135 95.42C49.6975 95.18 50.1375 95.06 50.6335 95.06C51.0975 95.06 51.4815 95.144 51.7855 95.312C52.0975 95.48 52.3295 95.736 52.4815 96.08C52.6335 96.416 52.7095 96.844 52.7095 97.364V100.58C52.7095 100.74 52.6655 100.864 52.5775 100.952C52.4975 101.04 52.3815 101.084 52.2295 101.084C52.0695 101.084 51.9455 101.04 51.8575 100.952C51.7775 100.864 51.7375 100.74 51.7375 100.58V97.424C51.7375 96.88 51.6295 96.484 51.4135 96.236C51.2055 95.98 50.8695 95.852 50.4055 95.852C49.8695 95.852 49.4415 96.02 49.1215 96.356C48.8095 96.684 48.6535 97.124 48.6535 97.676V100.58C48.6535 100.916 48.4895 101.084 48.1615 101.084ZM56.9738 101.108C56.3898 101.108 55.8858 100.98 55.4618 100.724C55.0378 100.468 54.7098 100.112 54.4778 99.656C54.2538 99.192 54.1418 98.656 54.1418 98.048C54.1418 97.584 54.2058 97.168 54.3338 96.8C54.4618 96.432 54.6498 96.12 54.8978 95.864C55.1458 95.6 55.4418 95.4 55.7858 95.264C56.1378 95.128 56.5338 95.06 56.9738 95.06C57.2618 95.06 57.5618 95.104 57.8738 95.192C58.1858 95.28 58.4698 95.432 58.7258 95.648C58.8058 95.704 58.8578 95.772 58.8818 95.852C58.9058 95.932 58.9058 96.012 58.8818 96.092C58.8578 96.164 58.8178 96.228 58.7618 96.284C58.7058 96.332 58.6338 96.36 58.5458 96.368C58.4658 96.376 58.3818 96.348 58.2938 96.284C58.0858 96.124 57.8738 96.012 57.6578 95.948C57.4418 95.884 57.2338 95.852 57.0338 95.852C56.7218 95.852 56.4498 95.904 56.2178 96.008C55.9858 96.104 55.7898 96.244 55.6298 96.428C55.4698 96.612 55.3458 96.84 55.2578 97.112C55.1778 97.384 55.1378 97.7 55.1378 98.06C55.1378 98.756 55.3018 99.308 55.6298 99.716C55.9578 100.116 56.4258 100.316 57.0338 100.316C57.2338 100.316 57.4378 100.284 57.6458 100.22C57.8618 100.156 58.0778 100.044 58.2938 99.884C58.3818 99.82 58.4658 99.792 58.5458 99.8C58.6258 99.808 58.6938 99.84 58.7498 99.896C58.8058 99.944 58.8418 100.008 58.8578 100.088C58.8818 100.168 58.8818 100.248 58.8578 100.328C58.8338 100.4 58.7818 100.464 58.7018 100.52C58.4458 100.728 58.1658 100.88 57.8618 100.976C57.5578 101.064 57.2618 101.108 56.9738 101.108ZM62.5673 101.108C61.9513 101.108 61.4193 100.988 60.9713 100.748C60.5313 100.5 60.1873 100.152 59.9393 99.704C59.6993 99.256 59.5793 98.72 59.5793 98.096C59.5793 97.488 59.6993 96.96 59.9393 96.512C60.1793 96.056 60.5073 95.7 60.9233 95.444C61.3473 95.188 61.8353 95.06 62.3873 95.06C62.7793 95.06 63.1313 95.128 63.4433 95.264C63.7553 95.392 64.0193 95.58 64.2353 95.828C64.4593 96.076 64.6273 96.376 64.7393 96.728C64.8593 97.08 64.9193 97.476 64.9193 97.916C64.9193 98.044 64.8833 98.14 64.8113 98.204C64.7393 98.26 64.6353 98.288 64.4993 98.288H60.3233V97.652H64.2713L64.0793 97.808C64.0793 97.376 64.0153 97.012 63.8873 96.716C63.7593 96.412 63.5713 96.18 63.3233 96.02C63.0833 95.86 62.7793 95.78 62.4113 95.78C62.0033 95.78 61.6553 95.876 61.3673 96.068C61.0873 96.252 60.8753 96.512 60.7313 96.848C60.5873 97.176 60.5153 97.56 60.5153 98V98.072C60.5153 98.808 60.6913 99.368 61.0433 99.752C61.4033 100.136 61.9113 100.328 62.5673 100.328C62.8393 100.328 63.1073 100.292 63.3713 100.22C63.6433 100.148 63.9073 100.028 64.1633 99.86C64.2753 99.788 64.3753 99.756 64.4633 99.764C64.5593 99.764 64.6353 99.792 64.6913 99.848C64.7473 99.896 64.7833 99.96 64.7993 100.04C64.8233 100.112 64.8153 100.192 64.7753 100.28C64.7433 100.368 64.6753 100.444 64.5713 100.508C64.3073 100.7 63.9953 100.848 63.6353 100.952C63.2753 101.056 62.9193 101.108 62.5673 101.108Z" fill="black"/>
<path d="M98 94H260C261.657 94 263 95.3431 263 97C263 98.6569 261.657 100 260 100H98V94Z" fill="black" fill-opacity="0.1"/>
<path d="M98 66H278C279.657 66 281 67.3431 281 69C281 70.6569 279.657 72 278 72H98V66Z" fill="black"/>
<path d="M98 94H176C177.657 94 179 95.3431 179 97C179 98.6569 177.657 100 176 100H98V94Z" fill="black"/>
<path d="M98 150H134C135.657 150 137 151.343 137 153C137 154.657 135.657 156 134 156H98V150Z" fill="black"/>
<path d="M98 178H134C135.657 178 137 179.343 137 181C137 182.657 135.657 184 134 184H98V178Z" fill="black"/>
<path d="M98 206H119C120.657 206 122 207.343 122 209C122 210.657 120.657 212 119 212H98V206Z" fill="black"/>
<path d="M25.536 129.084C25.376 129.084 25.252 129.04 25.164 128.952C25.084 128.856 25.044 128.728 25.044 128.568V121.044C25.044 120.876 25.088 120.752 25.176 120.672C25.264 120.584 25.388 120.54 25.548 120.54H28.392C29.296 120.54 29.992 120.752 30.48 121.176C30.968 121.6 31.212 122.204 31.212 122.988C31.212 123.484 31.1 123.916 30.876 124.284C30.66 124.644 30.34 124.92 29.916 125.112C29.492 125.296 28.984 125.388 28.392 125.388L28.512 125.232H28.752C29.064 125.232 29.336 125.312 29.568 125.472C29.8 125.632 30.012 125.888 30.204 126.24L31.356 128.388C31.42 128.5 31.448 128.612 31.44 128.724C31.44 128.828 31.404 128.916 31.332 128.988C31.26 129.052 31.156 129.084 31.02 129.084C30.884 129.084 30.772 129.052 30.684 128.988C30.596 128.924 30.52 128.832 30.456 128.712L29.148 126.288C28.964 125.944 28.752 125.716 28.512 125.604C28.272 125.484 27.956 125.424 27.564 125.424H26.028V128.568C26.028 128.728 25.988 128.856 25.908 128.952C25.828 129.04 25.704 129.084 25.536 129.084ZM26.028 124.644H28.248C28.904 124.644 29.4 124.508 29.736 124.236C30.072 123.956 30.24 123.54 30.24 122.988C30.24 122.452 30.072 122.048 29.736 121.776C29.4 121.496 28.904 121.356 28.248 121.356H26.028V124.644ZM35.4713 129.108C34.9113 129.108 34.4273 129.02 34.0193 128.844C33.6113 128.66 33.2993 128.408 33.0833 128.088C32.8753 127.768 32.7713 127.396 32.7713 126.972C32.7713 126.7 32.8073 126.452 32.8793 126.228C32.9513 125.996 33.0593 125.78 33.2033 125.58C33.3553 125.372 33.5433 125.172 33.7673 124.98C33.9913 124.788 34.2513 124.592 34.5473 124.392L34.9313 124.14L34.7993 124.344C34.4153 123.928 34.1433 123.568 33.9833 123.264C33.8313 122.952 33.7553 122.632 33.7553 122.304C33.7553 121.936 33.8393 121.612 34.0073 121.332C34.1753 121.044 34.4153 120.824 34.7273 120.672C35.0473 120.512 35.4153 120.432 35.8313 120.432C36.3913 120.432 36.8473 120.588 37.1993 120.9C37.5513 121.204 37.7273 121.62 37.7273 122.148C37.7273 122.436 37.6713 122.708 37.5593 122.964C37.4473 123.212 37.2593 123.464 36.9953 123.72C36.7313 123.968 36.3633 124.232 35.8913 124.512L35.9153 124.26L38.1593 126.78H37.9433C38.0553 126.588 38.1513 126.368 38.2313 126.12C38.3193 125.872 38.3913 125.604 38.4473 125.316C38.5113 125.02 38.5553 124.708 38.5793 124.38C38.5953 124.244 38.6393 124.14 38.7113 124.068C38.7833 123.996 38.8873 123.96 39.0233 123.96C39.1593 123.96 39.2633 124 39.3353 124.08C39.4073 124.16 39.4353 124.276 39.4193 124.428C39.3873 124.828 39.3313 125.208 39.2513 125.568C39.1713 125.928 39.0673 126.264 38.9393 126.576C38.8113 126.88 38.6673 127.16 38.5073 127.416L38.4953 127.128L39.6833 128.436C39.7873 128.54 39.8353 128.644 39.8273 128.748C39.8273 128.844 39.7873 128.924 39.7073 128.988C39.6353 129.052 39.5353 129.084 39.4073 129.084C39.2953 129.084 39.2033 129.06 39.1313 129.012C39.0593 128.972 38.9753 128.908 38.8793 128.82L37.9673 127.788H38.2193C37.8833 128.204 37.4793 128.528 37.0073 128.76C36.5353 128.992 36.0233 129.108 35.4713 129.108ZM35.5193 128.304C35.9753 128.304 36.3793 128.208 36.7313 128.016C37.0913 127.824 37.4033 127.544 37.6673 127.176L37.6553 127.476L35.1113 124.692L35.4953 124.728L35.1233 124.968C34.7793 125.192 34.5033 125.404 34.2953 125.604C34.0953 125.796 33.9513 125.996 33.8633 126.204C33.7753 126.412 33.7313 126.644 33.7313 126.9C33.7313 127.34 33.8833 127.684 34.1873 127.932C34.4913 128.18 34.9353 128.304 35.5193 128.304ZM35.8313 121.188C35.4873 121.188 35.2073 121.288 34.9913 121.488C34.7753 121.688 34.6673 121.952 34.6673 122.28C34.6673 122.456 34.6913 122.62 34.7393 122.772C34.7953 122.916 34.8913 123.08 35.0273 123.264C35.1633 123.44 35.3513 123.668 35.5913 123.948L35.3393 123.96C35.7233 123.712 36.0273 123.496 36.2513 123.312C36.4753 123.12 36.6353 122.936 36.7313 122.76C36.8273 122.584 36.8753 122.396 36.8753 122.196C36.8753 121.884 36.7793 121.64 36.5873 121.464C36.3953 121.28 36.1433 121.188 35.8313 121.188ZM41.9317 129C41.7557 129 41.6197 128.956 41.5237 128.868C41.4357 128.772 41.3917 128.636 41.3917 128.46V121.08C41.3917 120.904 41.4357 120.772 41.5237 120.684C41.6197 120.588 41.7557 120.54 41.9317 120.54H44.2477C45.6157 120.54 46.6717 120.9 47.4157 121.62C48.1597 122.34 48.5317 123.388 48.5317 124.764C48.5317 125.452 48.4357 126.06 48.2437 126.588C48.0597 127.108 47.7837 127.548 47.4157 127.908C47.0477 128.268 46.5997 128.54 46.0717 128.724C45.5437 128.908 44.9357 129 44.2477 129H41.9317ZM42.3757 128.16H44.1757C44.7357 128.16 45.2197 128.088 45.6277 127.944C46.0437 127.8 46.3877 127.588 46.6597 127.308C46.9397 127.028 47.1477 126.676 47.2837 126.252C47.4197 125.82 47.4877 125.324 47.4877 124.764C47.4877 123.636 47.2117 122.792 46.6597 122.232C46.1077 121.664 45.2797 121.38 44.1757 121.38H42.3757V128.16Z" fill="black"/>
<path d="M98 122H312C313.657 122 315 123.343 315 125C315 126.657 313.657 128 312 128H98V122Z" fill="#DEE0E2"/>
<path d="M98.5 122.5H250C251.381 122.5 252.5 123.619 252.5 125C252.5 126.381 251.381 127.5 250 127.5H98.5V122.5Z" fill="black" stroke="black"/>
<path d="M27.612 157.084C27.46 157.084 27.34 157.04 27.252 156.952C27.164 156.856 27.12 156.728 27.12 156.568V149.392H24.42C24.276 149.392 24.164 149.352 24.084 149.272C24.004 149.192 23.964 149.088 23.964 148.96C23.964 148.824 24.004 148.72 24.084 148.648C24.164 148.576 24.276 148.54 24.42 148.54H30.816C30.96 148.54 31.072 148.576 31.152 148.648C31.232 148.72 31.272 148.824 31.272 148.96C31.272 149.096 31.232 149.204 31.152 149.284C31.072 149.356 30.96 149.392 30.816 149.392H28.116V156.568C28.116 156.728 28.072 156.856 27.984 156.952C27.904 157.04 27.78 157.084 27.612 157.084ZM31.7087 157.084C31.5487 157.084 31.4247 157.04 31.3367 156.952C31.2567 156.864 31.2167 156.74 31.2167 156.58V151.576C31.2167 151.416 31.2567 151.296 31.3367 151.216C31.4167 151.128 31.5327 151.084 31.6847 151.084C31.8367 151.084 31.9527 151.128 32.0327 151.216C32.1207 151.296 32.1647 151.416 32.1647 151.576V152.548H32.0447C32.1727 152.076 32.4167 151.712 32.7767 151.456C33.1367 151.2 33.5807 151.064 34.1087 151.048C34.2287 151.04 34.3247 151.068 34.3967 151.132C34.4687 151.188 34.5087 151.288 34.5167 151.432C34.5247 151.568 34.4927 151.676 34.4207 151.756C34.3487 151.836 34.2367 151.884 34.0847 151.9L33.8927 151.924C33.3487 151.972 32.9287 152.148 32.6327 152.452C32.3447 152.748 32.2007 153.156 32.2007 153.676V156.58C32.2007 156.74 32.1567 156.864 32.0687 156.952C31.9887 157.04 31.8687 157.084 31.7087 157.084ZM37.2949 157.108C36.8949 157.108 36.5349 157.032 36.2149 156.88C35.9029 156.72 35.6549 156.504 35.4709 156.232C35.2869 155.96 35.1949 155.656 35.1949 155.32C35.1949 154.888 35.3029 154.548 35.5189 154.3C35.7429 154.052 36.1069 153.876 36.6109 153.772C37.1229 153.668 37.8189 153.616 38.6989 153.616H39.2389V154.252H38.7109C38.0629 154.252 37.5509 154.284 37.1749 154.348C36.8069 154.404 36.5469 154.504 36.3949 154.648C36.2509 154.792 36.1789 154.996 36.1789 155.26C36.1789 155.588 36.2909 155.856 36.5149 156.064C36.7469 156.272 37.0589 156.376 37.4509 156.376C37.7709 156.376 38.0509 156.3 38.2909 156.148C38.5389 155.996 38.7309 155.788 38.8669 155.524C39.0109 155.26 39.0829 154.956 39.0829 154.612V153.244C39.0829 152.748 38.9829 152.392 38.7829 152.176C38.5829 151.952 38.2549 151.84 37.7989 151.84C37.5189 151.84 37.2389 151.876 36.9589 151.948C36.6789 152.02 36.3829 152.136 36.0709 152.296C35.9589 152.352 35.8629 152.372 35.7829 152.356C35.7029 152.332 35.6389 152.288 35.5909 152.224C35.5429 152.16 35.5149 152.088 35.5069 152.008C35.4989 151.92 35.5149 151.836 35.5549 151.756C35.6029 151.676 35.6749 151.612 35.7709 151.564C36.1229 151.388 36.4709 151.26 36.8149 151.18C37.1589 151.1 37.4869 151.06 37.7989 151.06C38.3029 151.06 38.7189 151.144 39.0469 151.312C39.3749 151.472 39.6189 151.72 39.7789 152.056C39.9389 152.384 40.0189 152.808 40.0189 153.328V156.58C40.0189 156.74 39.9789 156.864 39.8989 156.952C39.8269 157.04 39.7189 157.084 39.5749 157.084C39.4229 157.084 39.3069 157.04 39.2269 156.952C39.1469 156.864 39.1069 156.74 39.1069 156.58V155.644H39.2149C39.1509 155.948 39.0269 156.208 38.8429 156.424C38.6669 156.64 38.4469 156.808 38.1829 156.928C37.9189 157.048 37.6229 157.108 37.2949 157.108ZM42.3022 157.084C42.1422 157.084 42.0222 157.04 41.9422 156.952C41.8622 156.864 41.8222 156.74 41.8222 156.58V151.576C41.8222 151.416 41.8622 151.296 41.9422 151.216C42.0222 151.128 42.1382 151.084 42.2902 151.084C42.4422 151.084 42.5582 151.128 42.6382 151.216C42.7262 151.296 42.7702 151.416 42.7702 151.576V152.608L42.6382 152.464C42.8062 152 43.0782 151.652 43.4542 151.42C43.8382 151.18 44.2782 151.06 44.7742 151.06C45.2382 151.06 45.6222 151.144 45.9262 151.312C46.2382 151.48 46.4702 151.736 46.6222 152.08C46.7742 152.416 46.8502 152.844 46.8502 153.364V156.58C46.8502 156.74 46.8062 156.864 46.7182 156.952C46.6382 157.04 46.5222 157.084 46.3702 157.084C46.2102 157.084 46.0862 157.04 45.9982 156.952C45.9182 156.864 45.8782 156.74 45.8782 156.58V153.424C45.8782 152.88 45.7702 152.484 45.5542 152.236C45.3462 151.98 45.0102 151.852 44.5462 151.852C44.0102 151.852 43.5822 152.02 43.2622 152.356C42.9502 152.684 42.7942 153.124 42.7942 153.676V156.58C42.7942 156.916 42.6302 157.084 42.3022 157.084ZM50.6105 157.108C50.2505 157.108 49.8865 157.064 49.5185 156.976C49.1585 156.888 48.8225 156.736 48.5105 156.52C48.4305 156.464 48.3745 156.4 48.3425 156.328C48.3105 156.248 48.2985 156.172 48.3065 156.1C48.3225 156.02 48.3545 155.952 48.4025 155.896C48.4585 155.84 48.5225 155.808 48.5945 155.8C48.6745 155.784 48.7625 155.8 48.8585 155.848C49.1705 156.04 49.4705 156.176 49.7585 156.256C50.0545 156.328 50.3465 156.364 50.6345 156.364C51.0905 156.364 51.4345 156.28 51.6665 156.112C51.8985 155.944 52.0145 155.716 52.0145 155.428C52.0145 155.204 51.9385 155.028 51.7865 154.9C51.6345 154.764 51.3945 154.66 51.0665 154.588L49.9745 154.348C49.4705 154.244 49.0945 154.064 48.8465 153.808C48.6065 153.552 48.4865 153.22 48.4865 152.812C48.4865 152.452 48.5785 152.144 48.7625 151.888C48.9545 151.624 49.2225 151.42 49.5665 151.276C49.9105 151.132 50.3105 151.06 50.7665 151.06C51.1185 151.06 51.4505 151.108 51.7625 151.204C52.0825 151.292 52.3705 151.436 52.6265 151.636C52.7065 151.692 52.7585 151.76 52.7825 151.84C52.8145 151.912 52.8185 151.988 52.7945 152.068C52.7785 152.14 52.7425 152.204 52.6865 152.26C52.6305 152.308 52.5625 152.336 52.4825 152.344C52.4025 152.352 52.3185 152.328 52.2305 152.272C51.9905 152.112 51.7465 151.996 51.4985 151.924C51.2505 151.844 51.0065 151.804 50.7665 151.804C50.3185 151.804 49.9785 151.892 49.7465 152.068C49.5145 152.244 49.3985 152.476 49.3985 152.764C49.3985 152.988 49.4705 153.172 49.6145 153.316C49.7585 153.46 49.9825 153.564 50.2865 153.628L51.3785 153.856C51.8985 153.968 52.2865 154.148 52.5425 154.396C52.8065 154.636 52.9385 154.964 52.9385 155.38C52.9385 155.908 52.7265 156.328 52.3025 156.64C51.8785 156.952 51.3145 157.108 50.6105 157.108ZM54.8998 159.244C54.7398 159.244 54.6198 159.2 54.5398 159.112C54.4598 159.032 54.4198 158.912 54.4198 158.752V151.576C54.4198 151.416 54.4598 151.296 54.5398 151.216C54.6198 151.128 54.7358 151.084 54.8878 151.084C55.0478 151.084 55.1678 151.128 55.2478 151.216C55.3358 151.296 55.3798 151.416 55.3798 151.576V152.716L55.2478 152.548C55.3758 152.092 55.6278 151.732 56.0038 151.468C56.3878 151.196 56.8438 151.06 57.3718 151.06C57.8918 151.06 58.3438 151.184 58.7278 151.432C59.1198 151.672 59.4198 152.02 59.6278 152.476C59.8438 152.924 59.9518 153.46 59.9518 154.084C59.9518 154.7 59.8438 155.236 59.6278 155.692C59.4198 156.14 59.1238 156.488 58.7398 156.736C58.3558 156.984 57.8998 157.108 57.3718 157.108C56.8438 157.108 56.3918 156.976 56.0158 156.712C55.6398 156.44 55.3838 156.08 55.2478 155.632H55.3918V158.752C55.3918 158.912 55.3478 159.032 55.2598 159.112C55.1718 159.2 55.0518 159.244 54.8998 159.244ZM57.1678 156.328C57.5358 156.328 57.8518 156.24 58.1158 156.064C58.3878 155.888 58.5958 155.632 58.7398 155.296C58.8918 154.96 58.9678 154.556 58.9678 154.084C58.9678 153.356 58.8038 152.8 58.4758 152.416C58.1558 152.032 57.7198 151.84 57.1678 151.84C56.8078 151.84 56.4918 151.928 56.2198 152.104C55.9478 152.272 55.7358 152.524 55.5838 152.86C55.4398 153.188 55.3678 153.596 55.3678 154.084C55.3678 154.804 55.5318 155.36 55.8598 155.752C56.1878 156.136 56.6238 156.328 57.1678 156.328ZM63.8399 157.108C63.2719 157.108 62.7799 156.984 62.3639 156.736C61.9479 156.488 61.6239 156.14 61.3919 155.692C61.1679 155.236 61.0559 154.7 61.0559 154.084C61.0559 153.62 61.1199 153.204 61.2479 152.836C61.3759 152.46 61.5639 152.14 61.8119 151.876C62.0599 151.612 62.3519 151.412 62.6879 151.276C63.0319 151.132 63.4159 151.06 63.8399 151.06C64.4079 151.06 64.8999 151.184 65.3159 151.432C65.7319 151.68 66.0519 152.032 66.2759 152.488C66.5079 152.936 66.6239 153.468 66.6239 154.084C66.6239 154.548 66.5599 154.964 66.4319 155.332C66.3039 155.7 66.1159 156.02 65.8679 156.292C65.6199 156.556 65.3239 156.76 64.9799 156.904C64.6439 157.04 64.2639 157.108 63.8399 157.108ZM63.8399 156.328C64.1999 156.328 64.5159 156.24 64.7879 156.064C65.0599 155.888 65.2679 155.632 65.4119 155.296C65.5639 154.96 65.6399 154.556 65.6399 154.084C65.6399 153.356 65.4759 152.8 65.1479 152.416C64.8279 152.032 64.3919 151.84 63.8399 151.84C63.4719 151.84 63.1519 151.928 62.8799 152.104C62.6159 152.272 62.4079 152.524 62.2559 152.86C62.1119 153.188 62.0399 153.596 62.0399 154.084C62.0399 154.804 62.2039 155.36 62.5319 155.752C62.8599 156.136 63.2959 156.328 63.8399 156.328ZM68.5759 157.084C68.4159 157.084 68.2919 157.04 68.2039 156.952C68.1239 156.864 68.0839 156.74 68.0839 156.58V151.576C68.0839 151.416 68.1239 151.296 68.2039 151.216C68.2839 151.128 68.3999 151.084 68.5519 151.084C68.7039 151.084 68.8199 151.128 68.8999 151.216C68.9879 151.296 69.0319 151.416 69.0319 151.576V152.548H68.9119C69.0399 152.076 69.2839 151.712 69.6439 151.456C70.0039 151.2 70.4479 151.064 70.9759 151.048C71.0959 151.04 71.1919 151.068 71.2639 151.132C71.3359 151.188 71.3759 151.288 71.3839 151.432C71.3919 151.568 71.3599 151.676 71.2879 151.756C71.2159 151.836 71.1039 151.884 70.9519 151.9L70.7599 151.924C70.2159 151.972 69.7959 152.148 69.4999 152.452C69.2119 152.748 69.0679 153.156 69.0679 153.676V156.58C69.0679 156.74 69.0239 156.864 68.9359 156.952C68.8559 157.04 68.7359 157.084 68.5759 157.084ZM75.0411 157.108C74.5851 157.108 74.2011 157.028 73.8891 156.868C73.5851 156.7 73.3571 156.46 73.2051 156.148C73.0531 155.828 72.9771 155.44 72.9771 154.984V151.924H72.1731C72.0371 151.924 71.9331 151.892 71.8611 151.828C71.7891 151.756 71.7531 151.66 71.7531 151.54C71.7531 151.42 71.7891 151.328 71.8611 151.264C71.9331 151.2 72.0371 151.168 72.1731 151.168H72.9771V149.788C72.9771 149.628 73.0211 149.508 73.1091 149.428C73.1971 149.34 73.3171 149.296 73.4691 149.296C73.6211 149.296 73.7371 149.34 73.8171 149.428C73.9051 149.508 73.9491 149.628 73.9491 149.788V151.168H75.4611C75.5971 151.168 75.7011 151.2 75.7731 151.264C75.8451 151.328 75.8811 151.42 75.8811 151.54C75.8811 151.66 75.8451 151.756 75.7731 151.828C75.7011 151.892 75.5971 151.924 75.4611 151.924H73.9491V154.888C73.9491 155.344 74.0451 155.692 74.2371 155.932C74.4291 156.164 74.7411 156.28 75.1731 156.28C75.3251 156.28 75.4531 156.264 75.5571 156.232C75.6691 156.2 75.7611 156.184 75.8331 156.184C75.9051 156.176 75.9651 156.2 76.0131 156.256C76.0611 156.312 76.0851 156.408 76.0851 156.544C76.0851 156.64 76.0651 156.728 76.0251 156.808C75.9931 156.888 75.9331 156.944 75.8451 156.976C75.7491 157.008 75.6211 157.036 75.4611 157.06C75.3091 157.092 75.1691 157.108 75.0411 157.108Z" fill="black"/>
<path d="M98 150H224C225.657 150 227 151.343 227 153C227 154.657 225.657 156 224 156H98V150Z" fill="black" fill-opacity="0.1"/>
<path d="M25.536 185.084C25.376 185.084 25.252 185.04 25.164 184.952C25.084 184.856 25.044 184.728 25.044 184.568V176.972C25.044 176.804 25.084 176.676 25.164 176.588C25.252 176.5 25.376 176.456 25.536 176.456C25.696 176.456 25.816 176.5 25.896 176.588C25.984 176.676 26.028 176.804 26.028 176.972V184.568C26.028 184.728 25.988 184.856 25.908 184.952C25.828 185.04 25.704 185.084 25.536 185.084ZM30.694 185.084C30.542 185.084 30.422 185.04 30.334 184.952C30.246 184.856 30.202 184.728 30.202 184.568V177.392H27.502C27.358 177.392 27.246 177.352 27.166 177.272C27.086 177.192 27.046 177.088 27.046 176.96C27.046 176.824 27.086 176.72 27.166 176.648C27.246 176.576 27.358 176.54 27.502 176.54H33.898C34.042 176.54 34.154 176.576 34.234 176.648C34.314 176.72 34.354 176.824 34.354 176.96C34.354 177.096 34.314 177.204 34.234 177.284C34.154 177.356 34.042 177.392 33.898 177.392H31.198V184.568C31.198 184.728 31.154 184.856 31.066 184.952C30.986 185.04 30.862 185.084 30.694 185.084Z" fill="black"/>
<path d="M98 178H334C335.657 178 337 179.343 337 181C337 182.657 335.657 184 334 184H98V178Z" fill="black" fill-opacity="0.1"/>
<path d="M27.78 213.108C27.404 213.108 27.036 213.076 26.676 213.012C26.316 212.948 25.98 212.856 25.668 212.736C25.364 212.616 25.088 212.464 24.84 212.28C24.744 212.208 24.676 212.128 24.636 212.04C24.604 211.944 24.596 211.852 24.612 211.764C24.636 211.668 24.676 211.588 24.732 211.524C24.796 211.46 24.872 211.424 24.96 211.416C25.048 211.408 25.144 211.436 25.248 211.5C25.608 211.756 25.992 211.944 26.4 212.064C26.808 212.176 27.268 212.232 27.78 212.232C28.5 212.232 29.032 212.1 29.376 211.836C29.728 211.564 29.904 211.208 29.904 210.768C29.904 210.408 29.776 210.128 29.52 209.928C29.272 209.72 28.852 209.556 28.26 209.436L27.012 209.184C26.26 209.024 25.696 208.764 25.32 208.404C24.952 208.036 24.768 207.548 24.768 206.94C24.768 206.564 24.844 206.224 24.996 205.92C25.148 205.608 25.36 205.344 25.632 205.128C25.904 204.904 26.228 204.732 26.604 204.612C26.98 204.492 27.396 204.432 27.852 204.432C28.356 204.432 28.824 204.504 29.256 204.648C29.696 204.784 30.092 204.992 30.444 205.272C30.532 205.344 30.592 205.428 30.624 205.524C30.656 205.612 30.66 205.7 30.636 205.788C30.612 205.868 30.568 205.936 30.504 205.992C30.448 206.048 30.372 206.08 30.276 206.088C30.188 206.096 30.088 206.064 29.976 205.992C29.656 205.752 29.324 205.58 28.98 205.476C28.636 205.364 28.256 205.308 27.84 205.308C27.416 205.308 27.048 205.372 26.736 205.5C26.432 205.628 26.192 205.816 26.016 206.064C25.848 206.304 25.764 206.584 25.764 206.904C25.764 207.288 25.88 207.592 26.112 207.816C26.352 208.04 26.74 208.204 27.276 208.308L28.524 208.572C29.332 208.74 29.928 208.996 30.312 209.34C30.704 209.676 30.9 210.136 30.9 210.72C30.9 211.072 30.828 211.396 30.684 211.692C30.54 211.988 30.332 212.244 30.06 212.46C29.788 212.668 29.46 212.828 29.076 212.94C28.692 213.052 28.26 213.108 27.78 213.108ZM34.1308 213.108C33.7308 213.108 33.3708 213.032 33.0508 212.88C32.7388 212.72 32.4908 212.504 32.3068 212.232C32.1228 211.96 32.0308 211.656 32.0308 211.32C32.0308 210.888 32.1388 210.548 32.3548 210.3C32.5788 210.052 32.9428 209.876 33.4468 209.772C33.9588 209.668 34.6548 209.616 35.5348 209.616H36.0748V210.252H35.5468C34.8988 210.252 34.3868 210.284 34.0108 210.348C33.6428 210.404 33.3828 210.504 33.2308 210.648C33.0868 210.792 33.0148 210.996 33.0148 211.26C33.0148 211.588 33.1268 211.856 33.3508 212.064C33.5828 212.272 33.8948 212.376 34.2868 212.376C34.6068 212.376 34.8868 212.3 35.1268 212.148C35.3748 211.996 35.5668 211.788 35.7028 211.524C35.8468 211.26 35.9188 210.956 35.9188 210.612V209.244C35.9188 208.748 35.8188 208.392 35.6188 208.176C35.4188 207.952 35.0908 207.84 34.6348 207.84C34.3548 207.84 34.0748 207.876 33.7948 207.948C33.5148 208.02 33.2188 208.136 32.9068 208.296C32.7948 208.352 32.6988 208.372 32.6188 208.356C32.5388 208.332 32.4748 208.288 32.4268 208.224C32.3788 208.16 32.3508 208.088 32.3428 208.008C32.3348 207.92 32.3508 207.836 32.3908 207.756C32.4388 207.676 32.5108 207.612 32.6068 207.564C32.9588 207.388 33.3068 207.26 33.6508 207.18C33.9948 207.1 34.3228 207.06 34.6348 207.06C35.1388 207.06 35.5548 207.144 35.8828 207.312C36.2108 207.472 36.4548 207.72 36.6148 208.056C36.7748 208.384 36.8548 208.808 36.8548 209.328V212.58C36.8548 212.74 36.8148 212.864 36.7348 212.952C36.6628 213.04 36.5548 213.084 36.4108 213.084C36.2588 213.084 36.1428 213.04 36.0628 212.952C35.9828 212.864 35.9428 212.74 35.9428 212.58V211.644H36.0508C35.9868 211.948 35.8628 212.208 35.6788 212.424C35.5028 212.64 35.2828 212.808 35.0188 212.928C34.7548 213.048 34.4588 213.108 34.1308 213.108ZM40.4341 213.108C39.8581 213.108 39.4181 212.932 39.1141 212.58C38.8101 212.228 38.6581 211.724 38.6581 211.068V204.948C38.6581 204.788 38.6981 204.668 38.7781 204.588C38.8581 204.5 38.9781 204.456 39.1381 204.456C39.2901 204.456 39.4101 204.5 39.4981 204.588C39.5861 204.668 39.6301 204.788 39.6301 204.948V210.996C39.6301 211.428 39.7141 211.752 39.8821 211.968C40.0581 212.176 40.3141 212.28 40.6501 212.28C40.7221 212.28 40.7861 212.276 40.8421 212.268C40.8981 212.26 40.9541 212.256 41.0101 212.256C41.0981 212.248 41.1581 212.268 41.1901 212.316C41.2301 212.364 41.2501 212.46 41.2501 212.604C41.2501 212.748 41.2181 212.856 41.1541 212.928C41.0901 213 40.9861 213.048 40.8421 213.072C40.7781 213.08 40.7101 213.088 40.6381 213.096C40.5661 213.104 40.4981 213.108 40.4341 213.108ZM44.7783 213.108C44.1623 213.108 43.6303 212.988 43.1823 212.748C42.7423 212.5 42.3983 212.152 42.1503 211.704C41.9103 211.256 41.7903 210.72 41.7903 210.096C41.7903 209.488 41.9103 208.96 42.1503 208.512C42.3903 208.056 42.7183 207.7 43.1343 207.444C43.5583 207.188 44.0463 207.06 44.5983 207.06C44.9903 207.06 45.3423 207.128 45.6543 207.264C45.9663 207.392 46.2303 207.58 46.4463 207.828C46.6703 208.076 46.8383 208.376 46.9503 208.728C47.0703 209.08 47.1303 209.476 47.1303 209.916C47.1303 210.044 47.0943 210.14 47.0223 210.204C46.9503 210.26 46.8463 210.288 46.7103 210.288H42.5343V209.652H46.4823L46.2903 209.808C46.2903 209.376 46.2263 209.012 46.0983 208.716C45.9703 208.412 45.7823 208.18 45.5343 208.02C45.2943 207.86 44.9903 207.78 44.6223 207.78C44.2143 207.78 43.8663 207.876 43.5783 208.068C43.2983 208.252 43.0863 208.512 42.9423 208.848C42.7983 209.176 42.7263 209.56 42.7263 210V210.072C42.7263 210.808 42.9023 211.368 43.2543 211.752C43.6143 212.136 44.1223 212.328 44.7783 212.328C45.0503 212.328 45.3183 212.292 45.5823 212.22C45.8543 212.148 46.1183 212.028 46.3743 211.86C46.4863 211.788 46.5863 211.756 46.6743 211.764C46.7703 211.764 46.8463 211.792 46.9023 211.848C46.9583 211.896 46.9943 211.96 47.0103 212.04C47.0343 212.112 47.0263 212.192 46.9863 212.28C46.9543 212.368 46.8863 212.444 46.7823 212.508C46.5183 212.7 46.2063 212.848 45.8463 212.952C45.4863 213.056 45.1303 213.108 44.7783 213.108ZM50.505 213.108C50.145 213.108 49.781 213.064 49.413 212.976C49.053 212.888 48.717 212.736 48.405 212.52C48.325 212.464 48.269 212.4 48.237 212.328C48.205 212.248 48.193 212.172 48.201 212.1C48.217 212.02 48.249 211.952 48.297 211.896C48.353 211.84 48.417 211.808 48.489 211.8C48.569 211.784 48.657 211.8 48.753 211.848C49.065 212.04 49.365 212.176 49.653 212.256C49.949 212.328 50.241 212.364 50.529 212.364C50.985 212.364 51.329 212.28 51.561 212.112C51.793 211.944 51.909 211.716 51.909 211.428C51.909 211.204 51.833 211.028 51.681 210.9C51.529 210.764 51.289 210.66 50.961 210.588L49.869 210.348C49.365 210.244 48.989 210.064 48.741 209.808C48.501 209.552 48.381 209.22 48.381 208.812C48.381 208.452 48.473 208.144 48.657 207.888C48.849 207.624 49.117 207.42 49.461 207.276C49.805 207.132 50.205 207.06 50.661 207.06C51.013 207.06 51.345 207.108 51.657 207.204C51.977 207.292 52.265 207.436 52.521 207.636C52.601 207.692 52.653 207.76 52.677 207.84C52.709 207.912 52.713 207.988 52.689 208.068C52.673 208.14 52.637 208.204 52.581 208.26C52.525 208.308 52.457 208.336 52.377 208.344C52.297 208.352 52.213 208.328 52.125 208.272C51.885 208.112 51.641 207.996 51.393 207.924C51.145 207.844 50.901 207.804 50.661 207.804C50.213 207.804 49.873 207.892 49.641 208.068C49.409 208.244 49.293 208.476 49.293 208.764C49.293 208.988 49.365 209.172 49.509 209.316C49.653 209.46 49.877 209.564 50.181 209.628L51.273 209.856C51.793 209.968 52.181 210.148 52.437 210.396C52.701 210.636 52.833 210.964 52.833 211.38C52.833 211.908 52.621 212.328 52.197 212.64C51.773 212.952 51.209 213.108 50.505 213.108Z" fill="black"/>
<path d="M98 206H246C247.657 206 249 207.343 249 209C249 210.657 247.657 212 246 212H98V206Z" fill="black" fill-opacity="0.1"/>
</svg>
