<svg width="662" height="320" viewBox="0 0 662 320" fill="none" xmlns="http://www.w3.org/2000/svg">
<rect width="662" height="320" rx="16" fill="#F7F9FB"/>
<path d="M28.228 39.07C28.0133 39.07 27.836 39.0047 27.696 38.874C27.5653 38.734 27.5 38.5567 27.5 38.342V30.334H24.7C24.252 30.334 24.028 30.1333 24.028 29.732C24.028 29.536 24.084 29.3867 24.196 29.284C24.3173 29.1813 24.4853 29.13 24.7 29.13H31.756C31.9707 29.13 32.134 29.1813 32.246 29.284C32.3673 29.3867 32.428 29.536 32.428 29.732C32.428 30.1333 32.204 30.334 31.756 30.334H28.956V38.342C28.956 38.5567 28.8907 38.734 28.76 38.874C28.6293 39.0047 28.452 39.07 28.228 39.07ZM35.3445 39.098C34.6725 39.098 34.0798 38.9533 33.5665 38.664C33.0625 38.3747 32.6705 37.964 32.3905 37.432C32.1198 36.8907 31.9845 36.2653 31.9845 35.556C31.9845 34.8373 32.1198 34.212 32.3905 33.68C32.6705 33.1387 33.0625 32.7233 33.5665 32.434C34.0798 32.1447 34.6725 32 35.3445 32C36.0165 32 36.6045 32.1447 37.1085 32.434C37.6218 32.7233 38.0138 33.1387 38.2845 33.68C38.5645 34.212 38.7045 34.8373 38.7045 35.556C38.7045 36.2653 38.5645 36.8907 38.2845 37.432C38.0138 37.964 37.6218 38.3747 37.1085 38.664C36.6045 38.9533 36.0165 39.098 35.3445 39.098ZM35.3445 37.978C35.9698 37.978 36.4458 37.7727 36.7725 37.362C37.1085 36.9513 37.2765 36.3493 37.2765 35.556C37.2765 34.772 37.1085 34.1747 36.7725 33.764C36.4365 33.344 35.9605 33.134 35.3445 33.134C34.7285 33.134 34.2525 33.344 33.9165 33.764C33.5805 34.1747 33.4125 34.772 33.4125 35.556C33.4125 36.3493 33.5758 36.9513 33.9025 37.362C34.2385 37.7727 34.7192 37.978 35.3445 37.978ZM43.5975 37.992C43.8028 38.0107 43.9475 38.0667 44.0315 38.16C44.1248 38.244 44.1715 38.3653 44.1715 38.524C44.1715 38.7107 44.0968 38.8553 43.9475 38.958C43.8075 39.0513 43.5975 39.0887 43.3175 39.07L42.9395 39.042C42.1835 38.986 41.6188 38.7573 41.2455 38.356C40.8722 37.9453 40.6855 37.3433 40.6855 36.55V33.26H39.8455C39.4348 33.26 39.2295 33.078 39.2295 32.714C39.2295 32.546 39.2808 32.4153 39.3835 32.322C39.4955 32.2193 39.6495 32.168 39.8455 32.168H40.6855V30.726C40.6855 30.5113 40.7462 30.3433 40.8675 30.222C40.9982 30.1007 41.1708 30.04 41.3855 30.04C41.6002 30.04 41.7728 30.1007 41.9035 30.222C42.0342 30.3433 42.0995 30.5113 42.0995 30.726V32.168H43.4855C43.6815 32.168 43.8308 32.2193 43.9335 32.322C44.0455 32.4153 44.1015 32.546 44.1015 32.714C44.1015 32.8913 44.0455 33.0267 43.9335 33.12C43.8308 33.2133 43.6815 33.26 43.4855 33.26H42.0995V36.648C42.0995 37.0867 42.1882 37.4087 42.3655 37.614C42.5522 37.8193 42.8322 37.936 43.2055 37.964L43.5975 37.992ZM48.057 32C48.9624 32 49.6344 32.2287 50.073 32.686C50.521 33.1433 50.745 33.8387 50.745 34.772V38.398C50.745 38.6127 50.6844 38.7807 50.563 38.902C50.4417 39.014 50.2737 39.07 50.059 39.07C49.8537 39.07 49.6904 39.0093 49.569 38.888C49.4477 38.7667 49.387 38.6033 49.387 38.398V37.88C49.2097 38.272 48.9437 38.5753 48.589 38.79C48.2437 38.9953 47.8377 39.098 47.371 39.098C46.923 39.098 46.5124 39.0093 46.139 38.832C45.7657 38.6453 45.4717 38.3887 45.257 38.062C45.0517 37.7353 44.949 37.3713 44.949 36.97C44.949 36.4753 45.075 36.088 45.327 35.808C45.5884 35.5187 46.013 35.3133 46.601 35.192C47.1984 35.0707 48.015 35.01 49.051 35.01H49.373V34.604C49.373 34.0813 49.2657 33.7033 49.051 33.47C48.8364 33.2367 48.491 33.12 48.015 33.12C47.6884 33.12 47.3804 33.162 47.091 33.246C46.8017 33.33 46.4844 33.4513 46.139 33.61C45.887 33.75 45.7097 33.82 45.607 33.82C45.467 33.82 45.3504 33.7687 45.257 33.666C45.173 33.5633 45.131 33.4327 45.131 33.274C45.131 33.134 45.1684 33.0127 45.243 32.91C45.327 32.798 45.4577 32.6907 45.635 32.588C45.9617 32.4107 46.3444 32.2707 46.783 32.168C47.2217 32.056 47.6464 32 48.057 32ZM47.623 38.048C48.1364 38.048 48.5564 37.8753 48.883 37.53C49.2097 37.1753 49.373 36.7227 49.373 36.172V35.808H49.121C48.393 35.808 47.833 35.8407 47.441 35.906C47.049 35.9713 46.769 36.0833 46.601 36.242C46.433 36.3913 46.349 36.6107 46.349 36.9C46.349 37.236 46.4704 37.5113 46.713 37.726C46.9557 37.9407 47.259 38.048 47.623 38.048ZM53.3932 39.07C53.1879 39.07 53.0152 39.014 52.8752 38.902C52.7446 38.79 52.6792 38.622 52.6792 38.398V29.746C52.6792 29.522 52.7446 29.354 52.8752 29.242C53.0152 29.1207 53.1879 29.06 53.3932 29.06C53.5986 29.06 53.7666 29.1207 53.8972 29.242C54.0279 29.354 54.0932 29.522 54.0932 29.746V38.398C54.0932 38.622 54.0279 38.79 53.8972 38.902C53.7666 39.014 53.5986 39.07 53.3932 39.07ZM63.0093 39.07C62.7946 39.07 62.6173 39.0047 62.4772 38.874C62.3466 38.734 62.2812 38.5567 62.2812 38.342V30.334H59.4813C59.0333 30.334 58.8093 30.1333 58.8093 29.732C58.8093 29.536 58.8653 29.3867 58.9773 29.284C59.0986 29.1813 59.2666 29.13 59.4813 29.13H66.5373C66.7519 29.13 66.9153 29.1813 67.0273 29.284C67.1486 29.3867 67.2093 29.536 67.2093 29.732C67.2093 30.1333 66.9853 30.334 66.5373 30.334H63.7373V38.342C63.7373 38.5567 63.6719 38.734 63.5413 38.874C63.4106 39.0047 63.2333 39.07 63.0093 39.07ZM72.5057 37.278C72.6364 37.278 72.7437 37.3293 72.8277 37.432C72.9117 37.5347 72.9537 37.6653 72.9537 37.824C72.9537 38.0947 72.7857 38.3233 72.4497 38.51C72.1231 38.6967 71.7637 38.8413 71.3717 38.944C70.9891 39.0467 70.6204 39.098 70.2657 39.098C69.1831 39.098 68.3291 38.7853 67.7037 38.16C67.0784 37.5253 66.7657 36.662 66.7657 35.57C66.7657 34.87 66.9011 34.2493 67.1717 33.708C67.4517 33.1667 67.8391 32.7467 68.3337 32.448C68.8377 32.1493 69.4071 32 70.0417 32C70.9564 32 71.6797 32.294 72.2117 32.882C72.7437 33.47 73.0097 34.2633 73.0097 35.262C73.0097 35.6353 72.8417 35.822 72.5057 35.822H68.1797C68.2731 37.2687 68.9684 37.992 70.2657 37.992C70.6111 37.992 70.9097 37.9453 71.1617 37.852C71.4137 37.7587 71.6797 37.6373 71.9597 37.488C71.9877 37.4693 72.0624 37.432 72.1837 37.376C72.3144 37.3107 72.4217 37.278 72.5057 37.278ZM70.0697 33.036C69.5284 33.036 69.0944 33.2087 68.7677 33.554C68.4411 33.8993 68.2451 34.3847 68.1797 35.01H71.7917C71.7637 34.3753 71.6004 33.89 71.3017 33.554C71.0124 33.2087 70.6017 33.036 70.0697 33.036ZM82.4079 32C83.9386 32 84.7039 32.9193 84.7039 34.758V38.398C84.7039 38.6127 84.6386 38.7807 84.5079 38.902C84.3772 39.014 84.2046 39.07 83.9899 39.07C83.7846 39.07 83.6166 39.014 83.4859 38.902C83.3552 38.7807 83.2899 38.6127 83.2899 38.398V34.772C83.2899 34.2027 83.1872 33.792 82.9819 33.54C82.7766 33.2787 82.4546 33.148 82.0159 33.148C81.5026 33.148 81.0966 33.3253 80.7979 33.68C80.4992 34.0253 80.3499 34.5013 80.3499 35.108V38.398C80.3499 38.6127 80.2846 38.7807 80.1539 38.902C80.0232 39.014 79.8506 39.07 79.6359 39.07C79.4306 39.07 79.2626 39.014 79.1319 38.902C79.0012 38.7807 78.9359 38.6127 78.9359 38.398V34.772C78.9359 34.2027 78.8332 33.792 78.6279 33.54C78.4226 33.2787 78.1006 33.148 77.6619 33.148C77.1486 33.148 76.7379 33.3253 76.4299 33.68C76.1312 34.0253 75.9819 34.5013 75.9819 35.108V38.398C75.9819 38.6127 75.9166 38.7807 75.7859 38.902C75.6552 39.014 75.4872 39.07 75.2819 39.07C75.0766 39.07 74.9039 39.014 74.7639 38.902C74.6332 38.7807 74.5679 38.6127 74.5679 38.398V32.7C74.5679 32.4947 74.6379 32.3313 74.7779 32.21C74.9179 32.0887 75.0859 32.028 75.2819 32.028C75.4779 32.028 75.6366 32.0887 75.7579 32.21C75.8886 32.322 75.9539 32.4807 75.9539 32.686V33.204C76.1592 32.812 76.4439 32.5133 76.8079 32.308C77.1719 32.1027 77.5919 32 78.0679 32C78.5906 32 79.0199 32.1073 79.3559 32.322C79.7012 32.5367 79.9579 32.868 80.1259 33.316C80.3312 32.9147 80.6346 32.5973 81.0359 32.364C81.4372 32.1213 81.8946 32 82.4079 32ZM90.3082 32C90.8962 32 91.4188 32.1493 91.8762 32.448C92.3428 32.7467 92.7022 33.1667 92.9542 33.708C93.2155 34.2493 93.3462 34.8747 93.3462 35.584C93.3462 36.284 93.2202 36.9 92.9682 37.432C92.7162 37.964 92.3568 38.3747 91.8902 38.664C91.4328 38.9533 90.9055 39.098 90.3082 39.098C89.7948 39.098 89.3422 38.9907 88.9502 38.776C88.5582 38.552 88.2595 38.2347 88.0542 37.824V40.946C88.0542 41.142 87.9888 41.296 87.8582 41.408C87.7368 41.5293 87.5735 41.59 87.3682 41.59C87.1535 41.59 86.9762 41.5293 86.8362 41.408C86.7055 41.2867 86.6402 41.1233 86.6402 40.918V32.714C86.6402 32.5087 86.7055 32.3453 86.8362 32.224C86.9668 32.0933 87.1395 32.028 87.3542 32.028C87.5595 32.028 87.7275 32.0933 87.8582 32.224C87.9888 32.3453 88.0542 32.5087 88.0542 32.714V33.288C88.2595 32.8773 88.5582 32.56 88.9502 32.336C89.3422 32.112 89.7948 32 90.3082 32ZM89.9722 37.978C90.5882 37.978 91.0642 37.7727 91.4002 37.362C91.7362 36.942 91.9042 36.3493 91.9042 35.584C91.9042 34.8093 91.7315 34.2073 91.3862 33.778C91.0502 33.3487 90.5788 33.134 89.9722 33.134C89.3562 33.134 88.8802 33.344 88.5442 33.764C88.2175 34.184 88.0542 34.7813 88.0542 35.556C88.0542 36.3307 88.2175 36.928 88.5442 37.348C88.8802 37.768 89.3562 37.978 89.9722 37.978ZM95.6256 39.07C95.4203 39.07 95.2476 39.014 95.1076 38.902C94.977 38.79 94.9116 38.622 94.9116 38.398V29.746C94.9116 29.522 94.977 29.354 95.1076 29.242C95.2476 29.1207 95.4203 29.06 95.6256 29.06C95.831 29.06 95.999 29.1207 96.1296 29.242C96.2603 29.354 96.3256 29.522 96.3256 29.746V38.398C96.3256 38.622 96.2603 38.79 96.1296 38.902C95.999 39.014 95.831 39.07 95.6256 39.07ZM101.172 32C102.078 32 102.75 32.2287 103.188 32.686C103.636 33.1433 103.86 33.8387 103.86 34.772V38.398C103.86 38.6127 103.8 38.7807 103.678 38.902C103.557 39.014 103.389 39.07 103.174 39.07C102.969 39.07 102.806 39.0093 102.684 38.888C102.563 38.7667 102.502 38.6033 102.502 38.398V37.88C102.325 38.272 102.059 38.5753 101.704 38.79C101.359 38.9953 100.953 39.098 100.486 39.098C100.038 39.098 99.6276 39.0093 99.2543 38.832C98.8809 38.6453 98.5869 38.3887 98.3723 38.062C98.1669 37.7353 98.0643 37.3713 98.0643 36.97C98.0643 36.4753 98.1903 36.088 98.4423 35.808C98.7036 35.5187 99.1283 35.3133 99.7163 35.192C100.314 35.0707 101.13 35.01 102.166 35.01H102.488V34.604C102.488 34.0813 102.381 33.7033 102.166 33.47C101.952 33.2367 101.606 33.12 101.13 33.12C100.804 33.12 100.496 33.162 100.206 33.246C99.9169 33.33 99.5996 33.4513 99.2543 33.61C99.0023 33.75 98.8249 33.82 98.7223 33.82C98.5823 33.82 98.4656 33.7687 98.3723 33.666C98.2883 33.5633 98.2463 33.4327 98.2463 33.274C98.2463 33.134 98.2836 33.0127 98.3583 32.91C98.4423 32.798 98.5729 32.6907 98.7503 32.588C99.0769 32.4107 99.4596 32.2707 99.8983 32.168C100.337 32.056 100.762 32 101.172 32ZM100.738 38.048C101.252 38.048 101.672 37.8753 101.998 37.53C102.325 37.1753 102.488 36.7227 102.488 36.172V35.808H102.236C101.508 35.808 100.948 35.8407 100.556 35.906C100.164 35.9713 99.8843 36.0833 99.7163 36.242C99.5483 36.3913 99.4643 36.6107 99.4643 36.9C99.4643 37.236 99.5856 37.5113 99.8283 37.726C100.071 37.9407 100.374 38.048 100.738 38.048ZM109.14 37.992C109.346 38.0107 109.49 38.0667 109.574 38.16C109.668 38.244 109.714 38.3653 109.714 38.524C109.714 38.7107 109.64 38.8553 109.49 38.958C109.35 39.0513 109.14 39.0887 108.86 39.07L108.482 39.042C107.726 38.986 107.162 38.7573 106.788 38.356C106.415 37.9453 106.228 37.3433 106.228 36.55V33.26H105.388C104.978 33.26 104.772 33.078 104.772 32.714C104.772 32.546 104.824 32.4153 104.926 32.322C105.038 32.2193 105.192 32.168 105.388 32.168H106.228V30.726C106.228 30.5113 106.289 30.3433 106.41 30.222C106.541 30.1007 106.714 30.04 106.928 30.04C107.143 30.04 107.316 30.1007 107.446 30.222C107.577 30.3433 107.642 30.5113 107.642 30.726V32.168H109.028C109.224 32.168 109.374 32.2193 109.476 32.322C109.588 32.4153 109.644 32.546 109.644 32.714C109.644 32.8913 109.588 33.0267 109.476 33.12C109.374 33.2133 109.224 33.26 109.028 33.26H107.642V36.648C107.642 37.0867 107.731 37.4087 107.908 37.614C108.095 37.8193 108.375 37.936 108.748 37.964L109.14 37.992ZM116.078 37.278C116.209 37.278 116.316 37.3293 116.4 37.432C116.484 37.5347 116.526 37.6653 116.526 37.824C116.526 38.0947 116.358 38.3233 116.022 38.51C115.695 38.6967 115.336 38.8413 114.944 38.944C114.561 39.0467 114.193 39.098 113.838 39.098C112.755 39.098 111.901 38.7853 111.276 38.16C110.651 37.5253 110.338 36.662 110.338 35.57C110.338 34.87 110.473 34.2493 110.744 33.708C111.024 33.1667 111.411 32.7467 111.906 32.448C112.41 32.1493 112.979 32 113.614 32C114.529 32 115.252 32.294 115.784 32.882C116.316 33.47 116.582 34.2633 116.582 35.262C116.582 35.6353 116.414 35.822 116.078 35.822H111.752C111.845 37.2687 112.541 37.992 113.838 37.992C114.183 37.992 114.482 37.9453 114.734 37.852C114.986 37.7587 115.252 37.6373 115.532 37.488C115.56 37.4693 115.635 37.432 115.756 37.376C115.887 37.3107 115.994 37.278 116.078 37.278ZM113.642 33.036C113.101 33.036 112.667 33.2087 112.34 33.554C112.013 33.8993 111.817 34.3847 111.752 35.01H115.364C115.336 34.3753 115.173 33.89 114.874 33.554C114.585 33.2087 114.174 33.036 113.642 33.036ZM120.52 39.098C119.568 39.098 118.789 38.902 118.182 38.51C118.014 38.4073 117.893 38.3 117.818 38.188C117.753 38.076 117.72 37.95 117.72 37.81C117.72 37.6607 117.762 37.5347 117.846 37.432C117.93 37.3293 118.037 37.278 118.168 37.278C118.289 37.278 118.481 37.3527 118.742 37.502C119.022 37.6513 119.293 37.7727 119.554 37.866C119.825 37.9593 120.161 38.006 120.562 38.006C121.01 38.006 121.36 37.9267 121.612 37.768C121.864 37.6093 121.99 37.3853 121.99 37.096C121.99 36.9093 121.939 36.76 121.836 36.648C121.743 36.536 121.575 36.438 121.332 36.354C121.089 36.2607 120.73 36.1627 120.254 36.06C119.433 35.8827 118.84 35.6447 118.476 35.346C118.121 35.038 117.944 34.6227 117.944 34.1C117.944 33.6987 118.061 33.3393 118.294 33.022C118.527 32.6953 118.849 32.4433 119.26 32.266C119.671 32.0887 120.137 32 120.66 32C121.033 32 121.397 32.0513 121.752 32.154C122.107 32.2473 122.419 32.3873 122.69 32.574C122.998 32.7793 123.152 33.0173 123.152 33.288C123.152 33.4373 123.105 33.5633 123.012 33.666C122.928 33.7687 122.825 33.82 122.704 33.82C122.62 33.82 122.536 33.8013 122.452 33.764C122.368 33.7267 122.256 33.666 122.116 33.582C121.864 33.4327 121.626 33.316 121.402 33.232C121.187 33.148 120.917 33.106 120.59 33.106C120.198 33.106 119.881 33.19 119.638 33.358C119.405 33.526 119.288 33.7547 119.288 34.044C119.288 34.3053 119.395 34.5107 119.61 34.66C119.834 34.8 120.249 34.9353 120.856 35.066C121.481 35.1967 121.971 35.346 122.326 35.514C122.681 35.682 122.933 35.892 123.082 36.144C123.241 36.3867 123.32 36.6993 123.32 37.082C123.32 37.6887 123.063 38.1787 122.55 38.552C122.046 38.916 121.369 39.098 120.52 39.098Z" fill="black"/>
<path d="M144.214 39.098C144.037 39.098 143.897 39.0467 143.794 38.944C143.691 38.832 143.64 38.6827 143.64 38.496V30.124H140.49C140.322 30.124 140.191 30.0773 140.098 29.984C140.005 29.8907 139.958 29.7693 139.958 29.62C139.958 29.4613 140.005 29.34 140.098 29.256C140.191 29.172 140.322 29.13 140.49 29.13H147.952C148.12 29.13 148.251 29.172 148.344 29.256C148.437 29.34 148.484 29.4613 148.484 29.62C148.484 29.7787 148.437 29.9047 148.344 29.998C148.251 30.082 148.12 30.124 147.952 30.124H144.802V38.496C144.802 38.6827 144.751 38.832 144.648 38.944C144.555 39.0467 144.41 39.098 144.214 39.098ZM151.247 39.126C150.585 39.126 150.011 38.9813 149.525 38.692C149.04 38.4027 148.662 37.9967 148.391 37.474C148.13 36.942 147.999 36.3167 147.999 35.598C147.999 35.0567 148.074 34.5713 148.223 34.142C148.373 33.7033 148.592 33.33 148.881 33.022C149.171 32.714 149.511 32.4807 149.903 32.322C150.305 32.154 150.753 32.07 151.247 32.07C151.91 32.07 152.484 32.2147 152.969 32.504C153.455 32.7933 153.828 33.204 154.089 33.736C154.36 34.2587 154.495 34.8793 154.495 35.598C154.495 36.1393 154.421 36.6247 154.271 37.054C154.122 37.4833 153.903 37.8567 153.613 38.174C153.324 38.482 152.979 38.72 152.577 38.888C152.185 39.0467 151.742 39.126 151.247 39.126ZM151.247 38.216C151.667 38.216 152.036 38.1133 152.353 37.908C152.671 37.7027 152.913 37.404 153.081 37.012C153.259 36.62 153.347 36.1487 153.347 35.598C153.347 34.7487 153.156 34.1 152.773 33.652C152.4 33.204 151.891 32.98 151.247 32.98C150.818 32.98 150.445 33.0827 150.127 33.288C149.819 33.484 149.577 33.778 149.399 34.17C149.231 34.5527 149.147 35.0287 149.147 35.598C149.147 36.438 149.339 37.0867 149.721 37.544C150.104 37.992 150.613 38.216 151.247 38.216ZM158.86 39.126C158.328 39.126 157.88 39.0327 157.516 38.846C157.162 38.65 156.896 38.37 156.718 38.006C156.541 37.6327 156.452 37.18 156.452 36.648V33.078H155.514C155.356 33.078 155.234 33.0407 155.15 32.966C155.066 32.882 155.024 32.77 155.024 32.63C155.024 32.49 155.066 32.3827 155.15 32.308C155.234 32.2333 155.356 32.196 155.514 32.196H156.452V30.586C156.452 30.3993 156.504 30.2593 156.606 30.166C156.709 30.0633 156.849 30.012 157.026 30.012C157.204 30.012 157.339 30.0633 157.432 30.166C157.535 30.2593 157.586 30.3993 157.586 30.586V32.196H159.35C159.509 32.196 159.63 32.2333 159.714 32.308C159.798 32.3827 159.84 32.49 159.84 32.63C159.84 32.77 159.798 32.882 159.714 32.966C159.63 33.0407 159.509 33.078 159.35 33.078H157.586V36.536C157.586 37.068 157.698 37.474 157.922 37.754C158.146 38.0247 158.51 38.16 159.014 38.16C159.192 38.16 159.341 38.1413 159.462 38.104C159.593 38.0667 159.7 38.048 159.784 38.048C159.868 38.0387 159.938 38.0667 159.994 38.132C160.05 38.1973 160.078 38.3093 160.078 38.468C160.078 38.58 160.055 38.6827 160.008 38.776C159.971 38.8693 159.901 38.9347 159.798 38.972C159.686 39.0093 159.537 39.042 159.35 39.07C159.173 39.1073 159.01 39.126 158.86 39.126ZM163.167 39.126C162.7 39.126 162.28 39.0373 161.907 38.86C161.543 38.6733 161.254 38.4213 161.039 38.104C160.824 37.7867 160.717 37.432 160.717 37.04C160.717 36.536 160.843 36.1393 161.095 35.85C161.356 35.5607 161.781 35.3553 162.369 35.234C162.966 35.1127 163.778 35.052 164.805 35.052H165.435V35.794H164.819C164.063 35.794 163.466 35.8313 163.027 35.906C162.598 35.9713 162.294 36.088 162.117 36.256C161.949 36.424 161.865 36.662 161.865 36.97C161.865 37.3527 161.996 37.6653 162.257 37.908C162.528 38.1507 162.892 38.272 163.349 38.272C163.722 38.272 164.049 38.1833 164.329 38.006C164.618 37.8287 164.842 37.586 165.001 37.278C165.169 36.97 165.253 36.6153 165.253 36.214V34.618C165.253 34.0393 165.136 33.624 164.903 33.372C164.67 33.1107 164.287 32.98 163.755 32.98C163.428 32.98 163.102 33.022 162.775 33.106C162.448 33.19 162.103 33.3253 161.739 33.512C161.608 33.5773 161.496 33.6007 161.403 33.582C161.31 33.554 161.235 33.5027 161.179 33.428C161.123 33.3533 161.09 33.2693 161.081 33.176C161.072 33.0733 161.09 32.9753 161.137 32.882C161.193 32.7887 161.277 32.714 161.389 32.658C161.8 32.4527 162.206 32.3033 162.607 32.21C163.008 32.1167 163.391 32.07 163.755 32.07C164.343 32.07 164.828 32.168 165.211 32.364C165.594 32.5507 165.878 32.84 166.065 33.232C166.252 33.6147 166.345 34.1093 166.345 34.716V38.51C166.345 38.6967 166.298 38.8413 166.205 38.944C166.121 39.0467 165.995 39.098 165.827 39.098C165.65 39.098 165.514 39.0467 165.421 38.944C165.328 38.8413 165.281 38.6967 165.281 38.51V37.418H165.407C165.332 37.7727 165.188 38.076 164.973 38.328C164.768 38.58 164.511 38.776 164.203 38.916C163.895 39.056 163.55 39.126 163.167 39.126ZM170.521 39.126C169.849 39.126 169.335 38.9207 168.981 38.51C168.626 38.0993 168.449 37.5113 168.449 36.746V29.606C168.449 29.4193 168.495 29.2793 168.589 29.186C168.682 29.0833 168.822 29.032 169.009 29.032C169.186 29.032 169.326 29.0833 169.429 29.186C169.531 29.2793 169.583 29.4193 169.583 29.606V36.662C169.583 37.166 169.681 37.544 169.877 37.796C170.082 38.0387 170.381 38.16 170.773 38.16C170.857 38.16 170.931 38.1553 170.997 38.146C171.062 38.1367 171.127 38.132 171.193 38.132C171.295 38.1227 171.365 38.146 171.403 38.202C171.449 38.258 171.473 38.37 171.473 38.538C171.473 38.706 171.435 38.832 171.361 38.916C171.286 39 171.165 39.056 170.997 39.084C170.922 39.0933 170.843 39.1027 170.759 39.112C170.675 39.1213 170.595 39.126 170.521 39.126ZM176.929 39.098C176.742 39.098 176.597 39.0467 176.495 38.944C176.401 38.832 176.355 38.6827 176.355 38.496V29.718C176.355 29.522 176.406 29.3773 176.509 29.284C176.611 29.1813 176.756 29.13 176.943 29.13H180.261C181.315 29.13 182.127 29.3913 182.697 29.914C183.266 30.4273 183.551 31.1553 183.551 32.098C183.551 33.0313 183.266 33.7593 182.697 34.282C182.127 34.8047 181.315 35.066 180.261 35.066H177.503V38.496C177.503 38.6827 177.456 38.832 177.363 38.944C177.269 39.0467 177.125 39.098 176.929 39.098ZM177.503 34.1H180.121C180.877 34.1 181.446 33.932 181.829 33.596C182.221 33.2507 182.417 32.7513 182.417 32.098C182.417 31.4353 182.221 30.936 181.829 30.6C181.446 30.2547 180.877 30.082 180.121 30.082H177.503V34.1ZM187.825 39.126C187.107 39.126 186.486 38.986 185.963 38.706C185.45 38.4167 185.049 38.0107 184.759 37.488C184.479 36.9653 184.339 36.34 184.339 35.612C184.339 34.9027 184.479 34.2867 184.759 33.764C185.039 33.232 185.422 32.8167 185.907 32.518C186.402 32.2193 186.971 32.07 187.615 32.07C188.073 32.07 188.483 32.1493 188.847 32.308C189.211 32.4573 189.519 32.6767 189.771 32.966C190.033 33.2553 190.229 33.6053 190.359 34.016C190.499 34.4267 190.569 34.8887 190.569 35.402C190.569 35.5513 190.527 35.6633 190.443 35.738C190.359 35.8033 190.238 35.836 190.079 35.836H185.207V35.094H189.813L189.589 35.276C189.589 34.772 189.515 34.3473 189.365 34.002C189.216 33.6473 188.997 33.3767 188.707 33.19C188.427 33.0033 188.073 32.91 187.643 32.91C187.167 32.91 186.761 33.022 186.425 33.246C186.099 33.4607 185.851 33.764 185.683 34.156C185.515 34.5387 185.431 34.9867 185.431 35.5V35.584C185.431 36.4427 185.637 37.096 186.047 37.544C186.467 37.992 187.06 38.216 187.825 38.216C188.143 38.216 188.455 38.174 188.763 38.09C189.081 38.006 189.389 37.866 189.687 37.67C189.818 37.586 189.935 37.5487 190.037 37.558C190.149 37.558 190.238 37.5907 190.303 37.656C190.369 37.712 190.411 37.7867 190.429 37.88C190.457 37.964 190.448 38.0573 190.401 38.16C190.364 38.2627 190.285 38.3513 190.163 38.426C189.855 38.65 189.491 38.8227 189.071 38.944C188.651 39.0653 188.236 39.126 187.825 39.126ZM192.77 39.098C192.584 39.098 192.444 39.0467 192.35 38.944C192.257 38.8413 192.21 38.6967 192.21 38.51V32.672C192.21 32.4853 192.257 32.3453 192.35 32.252C192.444 32.1493 192.579 32.098 192.756 32.098C192.934 32.098 193.069 32.1493 193.162 32.252C193.265 32.3453 193.316 32.4853 193.316 32.672V33.876L193.162 33.708C193.358 33.1667 193.676 32.7607 194.114 32.49C194.562 32.21 195.076 32.07 195.654 32.07C196.196 32.07 196.644 32.168 196.998 32.364C197.362 32.56 197.633 32.8587 197.81 33.26C197.988 33.652 198.076 34.1513 198.076 34.758V38.51C198.076 38.6967 198.025 38.8413 197.922 38.944C197.829 39.0467 197.694 39.098 197.516 39.098C197.33 39.098 197.185 39.0467 197.082 38.944C196.989 38.8413 196.942 38.6967 196.942 38.51V34.828C196.942 34.1933 196.816 33.7313 196.564 33.442C196.322 33.1433 195.93 32.994 195.388 32.994C194.763 32.994 194.264 33.19 193.89 33.582C193.526 33.9647 193.344 34.478 193.344 35.122V38.51C193.344 38.902 193.153 39.098 192.77 39.098ZM202.758 39.126C202.151 39.126 201.619 38.9813 201.162 38.692C200.714 38.4027 200.364 37.9967 200.112 37.474C199.869 36.942 199.748 36.3167 199.748 35.598C199.748 34.87 199.869 34.2447 200.112 33.722C200.364 33.19 200.714 32.784 201.162 32.504C201.619 32.2147 202.151 32.07 202.758 32.07C203.374 32.07 203.901 32.224 204.34 32.532C204.778 32.84 205.072 33.2553 205.222 33.778H205.068V29.606C205.068 29.4193 205.114 29.2793 205.208 29.186C205.31 29.0833 205.455 29.032 205.642 29.032C205.819 29.032 205.954 29.0833 206.048 29.186C206.15 29.2793 206.202 29.4193 206.202 29.606V38.51C206.202 38.6967 206.155 38.8413 206.062 38.944C205.968 39.0467 205.828 39.098 205.642 39.098C205.464 39.098 205.324 39.0467 205.222 38.944C205.128 38.8413 205.082 38.6967 205.082 38.51V37.18L205.236 37.376C205.086 37.908 204.788 38.3327 204.34 38.65C203.901 38.9673 203.374 39.126 202.758 39.126ZM202.996 38.216C203.416 38.216 203.784 38.1133 204.102 37.908C204.419 37.7027 204.662 37.404 204.83 37.012C205.007 36.62 205.096 36.1487 205.096 35.598C205.096 34.7487 204.904 34.1 204.522 33.652C204.148 33.204 203.64 32.98 202.996 32.98C202.566 32.98 202.193 33.0827 201.876 33.288C201.568 33.484 201.325 33.778 201.148 34.17C200.98 34.5527 200.896 35.0287 200.896 35.598C200.896 36.438 201.087 37.0867 201.47 37.544C201.852 37.992 202.361 38.216 202.996 38.216ZM208.89 39.07C208.703 39.07 208.563 39.0187 208.47 38.916C208.376 38.804 208.33 38.65 208.33 38.454V32.728C208.33 32.532 208.376 32.3827 208.47 32.28C208.563 32.1773 208.703 32.126 208.89 32.126C209.067 32.126 209.207 32.1773 209.31 32.28C209.412 32.3827 209.464 32.532 209.464 32.728V38.454C209.464 38.65 209.412 38.804 209.31 38.916C209.216 39.0187 209.076 39.07 208.89 39.07ZM208.89 30.558C208.656 30.558 208.474 30.4973 208.344 30.376C208.213 30.2453 208.148 30.0727 208.148 29.858C208.148 29.634 208.213 29.466 208.344 29.354C208.474 29.2327 208.656 29.172 208.89 29.172C209.132 29.172 209.314 29.2327 209.436 29.354C209.566 29.466 209.632 29.634 209.632 29.858C209.632 30.0727 209.566 30.2453 209.436 30.376C209.314 30.4973 209.132 30.558 208.89 30.558ZM212.144 39.098C211.957 39.098 211.817 39.0467 211.724 38.944C211.63 38.8413 211.584 38.6967 211.584 38.51V32.672C211.584 32.4853 211.63 32.3453 211.724 32.252C211.817 32.1493 211.952 32.098 212.13 32.098C212.307 32.098 212.442 32.1493 212.536 32.252C212.638 32.3453 212.69 32.4853 212.69 32.672V33.876L212.536 33.708C212.732 33.1667 213.049 32.7607 213.488 32.49C213.936 32.21 214.449 32.07 215.028 32.07C215.569 32.07 216.017 32.168 216.372 32.364C216.736 32.56 217.006 32.8587 217.184 33.26C217.361 33.652 217.45 34.1513 217.45 34.758V38.51C217.45 38.6967 217.398 38.8413 217.296 38.944C217.202 39.0467 217.067 39.098 216.89 39.098C216.703 39.098 216.558 39.0467 216.456 38.944C216.362 38.8413 216.316 38.6967 216.316 38.51V34.828C216.316 34.1933 216.19 33.7313 215.938 33.442C215.695 33.1433 215.303 32.994 214.762 32.994C214.136 32.994 213.637 33.19 213.264 33.582C212.9 33.9647 212.718 34.478 212.718 35.122V38.51C212.718 38.902 212.526 39.098 212.144 39.098ZM222.551 41.646C222.056 41.646 221.571 41.5853 221.095 41.464C220.628 41.352 220.203 41.17 219.821 40.918C219.709 40.8527 219.634 40.7733 219.597 40.68C219.569 40.5867 219.564 40.4933 219.583 40.4C219.601 40.316 219.643 40.2367 219.709 40.162C219.774 40.0967 219.849 40.0547 219.933 40.036C220.026 40.0173 220.119 40.0313 220.213 40.078C220.623 40.33 221.015 40.5027 221.389 40.596C221.762 40.6893 222.131 40.736 222.495 40.736C223.157 40.736 223.657 40.5587 223.993 40.204C224.338 39.8493 224.511 39.336 224.511 38.664V37.082H224.651C224.511 37.6233 224.212 38.0527 223.755 38.37C223.307 38.6873 222.779 38.846 222.173 38.846C221.547 38.846 221.006 38.706 220.549 38.426C220.091 38.1367 219.737 37.7353 219.485 37.222C219.242 36.7087 219.121 36.116 219.121 35.444C219.121 34.94 219.191 34.4827 219.331 34.072C219.471 33.652 219.671 33.2973 219.933 33.008C220.203 32.7093 220.525 32.4807 220.899 32.322C221.281 32.154 221.706 32.07 222.173 32.07C222.789 32.07 223.321 32.2287 223.769 32.546C224.217 32.854 224.506 33.274 224.637 33.806L224.497 33.974V32.672C224.497 32.4853 224.543 32.3453 224.637 32.252C224.739 32.1493 224.879 32.098 225.057 32.098C225.243 32.098 225.383 32.1493 225.477 32.252C225.57 32.3453 225.617 32.4853 225.617 32.672V38.51C225.617 39.546 225.355 40.3253 224.833 40.848C224.319 41.38 223.559 41.646 222.551 41.646ZM222.383 37.922C222.821 37.922 223.199 37.824 223.517 37.628C223.834 37.4227 224.077 37.1333 224.245 36.76C224.422 36.3867 224.511 35.948 224.511 35.444C224.511 34.688 224.319 34.0907 223.937 33.652C223.554 33.204 223.036 32.98 222.383 32.98C221.953 32.98 221.58 33.0827 221.263 33.288C220.945 33.484 220.698 33.7687 220.521 34.142C220.353 34.506 220.269 34.94 220.269 35.444C220.269 36.2 220.46 36.802 220.843 37.25C221.225 37.698 221.739 37.922 222.383 37.922Z" fill="black" fill-opacity="0.4"/>
<line x1="371.5" y1="24" x2="371.5" y2="44" stroke="black" stroke-opacity="0.2"/>
<path d="M400 34C400 35.6569 398.657 37 397 37C395.343 37 394 35.6569 394 34C394 32.3431 395.343 31 397 31C398.657 31 400 32.3431 400 34Z" fill="#1C1C1C"/>
<path d="M409.704 38.108C408.872 38.108 408.16 37.932 407.568 37.58C406.976 37.228 406.52 36.728 406.2 36.08C405.888 35.432 405.732 34.66 405.732 33.764C405.732 33.092 405.82 32.492 405.996 31.964C406.18 31.428 406.44 30.976 406.776 30.608C407.12 30.232 407.54 29.944 408.036 29.744C408.532 29.536 409.088 29.432 409.704 29.432C410.2 29.432 410.672 29.504 411.12 29.648C411.568 29.784 411.956 29.988 412.284 30.26C412.388 30.34 412.456 30.432 412.488 30.536C412.528 30.632 412.532 30.728 412.5 30.824C412.476 30.912 412.428 30.988 412.356 31.052C412.292 31.108 412.212 31.136 412.116 31.136C412.02 31.136 411.912 31.096 411.792 31.016C411.504 30.784 411.188 30.612 410.844 30.5C410.5 30.388 410.128 30.332 409.728 30.332C409.096 30.332 408.56 30.468 408.12 30.74C407.68 31.004 407.348 31.392 407.124 31.904C406.9 32.416 406.788 33.036 406.788 33.764C406.788 34.492 406.9 35.116 407.124 35.636C407.348 36.148 407.68 36.54 408.12 36.812C408.56 37.076 409.096 37.208 409.728 37.208C410.12 37.208 410.492 37.152 410.844 37.04C411.196 36.92 411.52 36.744 411.816 36.512C411.936 36.432 412.044 36.396 412.14 36.404C412.236 36.404 412.316 36.432 412.38 36.488C412.444 36.544 412.488 36.616 412.512 36.704C412.544 36.792 412.544 36.884 412.512 36.98C412.488 37.076 412.428 37.16 412.332 37.232C411.996 37.52 411.6 37.74 411.144 37.892C410.696 38.036 410.216 38.108 409.704 38.108ZM415.921 38.108C415.449 38.108 415.057 38.024 414.745 37.856C414.441 37.68 414.209 37.42 414.049 37.076C413.897 36.732 413.821 36.304 413.821 35.792V32.576C413.821 32.408 413.861 32.284 413.941 32.204C414.029 32.124 414.149 32.084 414.301 32.084C414.461 32.084 414.581 32.124 414.661 32.204C414.749 32.284 414.793 32.408 414.793 32.576V35.78C414.793 36.292 414.897 36.676 415.105 36.932C415.321 37.18 415.657 37.304 416.113 37.304C416.609 37.304 417.013 37.136 417.325 36.8C417.637 36.464 417.793 36.024 417.793 35.48V32.576C417.793 32.408 417.833 32.284 417.913 32.204C418.001 32.124 418.125 32.084 418.285 32.084C418.437 32.084 418.553 32.124 418.633 32.204C418.721 32.284 418.765 32.408 418.765 32.576V37.58C418.765 37.916 418.609 38.084 418.297 38.084C418.145 38.084 418.025 38.04 417.937 37.952C417.857 37.864 417.817 37.74 417.817 37.58V36.488L417.973 36.656C417.813 37.128 417.549 37.488 417.181 37.736C416.821 37.984 416.401 38.108 415.921 38.108ZM421.076 38.084C420.916 38.084 420.792 38.04 420.704 37.952C420.624 37.864 420.584 37.74 420.584 37.58V32.576C420.584 32.416 420.624 32.296 420.704 32.216C420.784 32.128 420.9 32.084 421.052 32.084C421.204 32.084 421.32 32.128 421.4 32.216C421.488 32.296 421.532 32.416 421.532 32.576V33.548H421.412C421.54 33.076 421.784 32.712 422.144 32.456C422.504 32.2 422.948 32.064 423.476 32.048C423.596 32.04 423.692 32.068 423.764 32.132C423.836 32.188 423.876 32.288 423.884 32.432C423.892 32.568 423.86 32.676 423.788 32.756C423.716 32.836 423.604 32.884 423.452 32.9L423.26 32.924C422.716 32.972 422.296 33.148 422 33.452C421.712 33.748 421.568 34.156 421.568 34.676V37.58C421.568 37.74 421.524 37.864 421.436 37.952C421.356 38.04 421.236 38.084 421.076 38.084ZM425.377 38.084C425.217 38.084 425.093 38.04 425.005 37.952C424.925 37.864 424.885 37.74 424.885 37.58V32.576C424.885 32.416 424.925 32.296 425.005 32.216C425.085 32.128 425.201 32.084 425.353 32.084C425.505 32.084 425.621 32.128 425.701 32.216C425.789 32.296 425.833 32.416 425.833 32.576V33.548H425.713C425.841 33.076 426.085 32.712 426.445 32.456C426.805 32.2 427.249 32.064 427.777 32.048C427.897 32.04 427.993 32.068 428.065 32.132C428.137 32.188 428.177 32.288 428.185 32.432C428.193 32.568 428.161 32.676 428.089 32.756C428.017 32.836 427.905 32.884 427.753 32.9L427.561 32.924C427.017 32.972 426.597 33.148 426.301 33.452C426.013 33.748 425.869 34.156 425.869 34.676V37.58C425.869 37.74 425.825 37.864 425.737 37.952C425.657 38.04 425.537 38.084 425.377 38.084ZM431.743 38.108C431.127 38.108 430.595 37.988 430.147 37.748C429.707 37.5 429.363 37.152 429.115 36.704C428.875 36.256 428.755 35.72 428.755 35.096C428.755 34.488 428.875 33.96 429.115 33.512C429.355 33.056 429.683 32.7 430.099 32.444C430.523 32.188 431.011 32.06 431.563 32.06C431.955 32.06 432.307 32.128 432.619 32.264C432.931 32.392 433.195 32.58 433.411 32.828C433.635 33.076 433.803 33.376 433.915 33.728C434.035 34.08 434.095 34.476 434.095 34.916C434.095 35.044 434.059 35.14 433.987 35.204C433.915 35.26 433.811 35.288 433.675 35.288H429.499V34.652H433.447L433.255 34.808C433.255 34.376 433.191 34.012 433.063 33.716C432.935 33.412 432.747 33.18 432.499 33.02C432.259 32.86 431.955 32.78 431.587 32.78C431.179 32.78 430.831 32.876 430.543 33.068C430.263 33.252 430.051 33.512 429.907 33.848C429.763 34.176 429.691 34.56 429.691 35V35.072C429.691 35.808 429.867 36.368 430.219 36.752C430.579 37.136 431.087 37.328 431.743 37.328C432.015 37.328 432.283 37.292 432.547 37.22C432.819 37.148 433.083 37.028 433.339 36.86C433.451 36.788 433.551 36.756 433.639 36.764C433.735 36.764 433.811 36.792 433.867 36.848C433.923 36.896 433.959 36.96 433.975 37.04C433.999 37.112 433.991 37.192 433.951 37.28C433.919 37.368 433.851 37.444 433.747 37.508C433.483 37.7 433.171 37.848 432.811 37.952C432.451 38.056 432.095 38.108 431.743 38.108ZM435.982 38.084C435.822 38.084 435.702 38.04 435.622 37.952C435.542 37.864 435.502 37.74 435.502 37.58V32.576C435.502 32.416 435.542 32.296 435.622 32.216C435.702 32.128 435.818 32.084 435.97 32.084C436.122 32.084 436.238 32.128 436.318 32.216C436.406 32.296 436.45 32.416 436.45 32.576V33.608L436.318 33.464C436.486 33 436.758 32.652 437.134 32.42C437.518 32.18 437.958 32.06 438.454 32.06C438.918 32.06 439.302 32.144 439.606 32.312C439.918 32.48 440.15 32.736 440.302 33.08C440.454 33.416 440.53 33.844 440.53 34.364V37.58C440.53 37.74 440.486 37.864 440.398 37.952C440.318 38.04 440.202 38.084 440.05 38.084C439.89 38.084 439.766 38.04 439.678 37.952C439.598 37.864 439.558 37.74 439.558 37.58V34.424C439.558 33.88 439.45 33.484 439.234 33.236C439.026 32.98 438.69 32.852 438.226 32.852C437.69 32.852 437.262 33.02 436.942 33.356C436.63 33.684 436.474 34.124 436.474 34.676V37.58C436.474 37.916 436.31 38.084 435.982 38.084ZM444.662 38.108C444.206 38.108 443.822 38.028 443.51 37.868C443.206 37.7 442.978 37.46 442.826 37.148C442.674 36.828 442.598 36.44 442.598 35.984V32.924H441.794C441.658 32.924 441.554 32.892 441.482 32.828C441.41 32.756 441.374 32.66 441.374 32.54C441.374 32.42 441.41 32.328 441.482 32.264C441.554 32.2 441.658 32.168 441.794 32.168H442.598V30.788C442.598 30.628 442.642 30.508 442.73 30.428C442.818 30.34 442.938 30.296 443.09 30.296C443.242 30.296 443.358 30.34 443.438 30.428C443.526 30.508 443.57 30.628 443.57 30.788V32.168H445.082C445.218 32.168 445.322 32.2 445.394 32.264C445.466 32.328 445.502 32.42 445.502 32.54C445.502 32.66 445.466 32.756 445.394 32.828C445.322 32.892 445.218 32.924 445.082 32.924H443.57V35.888C443.57 36.344 443.666 36.692 443.858 36.932C444.05 37.164 444.362 37.28 444.794 37.28C444.946 37.28 445.074 37.264 445.178 37.232C445.29 37.2 445.382 37.184 445.454 37.184C445.526 37.176 445.586 37.2 445.634 37.256C445.682 37.312 445.706 37.408 445.706 37.544C445.706 37.64 445.686 37.728 445.646 37.808C445.614 37.888 445.554 37.944 445.466 37.976C445.37 38.008 445.242 38.036 445.082 38.06C444.93 38.092 444.79 38.108 444.662 38.108ZM452.455 38.084C452.311 38.084 452.195 38.048 452.107 37.976C452.019 37.896 451.947 37.78 451.891 37.628L449.239 30.056C449.183 29.888 449.195 29.748 449.275 29.636C449.363 29.516 449.499 29.456 449.683 29.456C449.819 29.456 449.927 29.492 450.007 29.564C450.087 29.628 450.155 29.732 450.211 29.876L452.695 37.16H452.275L454.807 29.912C454.863 29.76 454.931 29.648 455.011 29.576C455.091 29.496 455.199 29.456 455.335 29.456C455.463 29.456 455.563 29.496 455.635 29.576C455.715 29.648 455.783 29.76 455.839 29.912L458.335 37.16H457.963L460.471 29.876C460.511 29.74 460.571 29.636 460.651 29.564C460.739 29.492 460.851 29.456 460.987 29.456C461.155 29.456 461.279 29.512 461.359 29.624C461.439 29.736 461.447 29.88 461.383 30.056L458.719 37.628C458.663 37.78 458.591 37.896 458.503 37.976C458.423 38.048 458.307 38.084 458.155 38.084C458.011 38.084 457.895 38.048 457.807 37.976C457.727 37.896 457.655 37.78 457.591 37.628L455.179 30.68H455.443L453.007 37.628C452.951 37.78 452.883 37.896 452.803 37.976C452.723 38.048 452.607 38.084 452.455 38.084ZM464.743 38.108C464.127 38.108 463.595 37.988 463.147 37.748C462.707 37.5 462.363 37.152 462.115 36.704C461.875 36.256 461.755 35.72 461.755 35.096C461.755 34.488 461.875 33.96 462.115 33.512C462.355 33.056 462.683 32.7 463.099 32.444C463.523 32.188 464.011 32.06 464.563 32.06C464.955 32.06 465.307 32.128 465.619 32.264C465.931 32.392 466.195 32.58 466.411 32.828C466.635 33.076 466.803 33.376 466.915 33.728C467.035 34.08 467.095 34.476 467.095 34.916C467.095 35.044 467.059 35.14 466.987 35.204C466.915 35.26 466.811 35.288 466.675 35.288H462.499V34.652H466.447L466.255 34.808C466.255 34.376 466.191 34.012 466.063 33.716C465.935 33.412 465.747 33.18 465.499 33.02C465.259 32.86 464.955 32.78 464.587 32.78C464.179 32.78 463.831 32.876 463.543 33.068C463.263 33.252 463.051 33.512 462.907 33.848C462.763 34.176 462.691 34.56 462.691 35V35.072C462.691 35.808 462.867 36.368 463.219 36.752C463.579 37.136 464.087 37.328 464.743 37.328C465.015 37.328 465.283 37.292 465.547 37.22C465.819 37.148 466.083 37.028 466.339 36.86C466.451 36.788 466.551 36.756 466.639 36.764C466.735 36.764 466.811 36.792 466.867 36.848C466.923 36.896 466.959 36.96 466.975 37.04C466.999 37.112 466.991 37.192 466.951 37.28C466.919 37.368 466.851 37.444 466.747 37.508C466.483 37.7 466.171 37.848 465.811 37.952C465.451 38.056 465.095 38.108 464.743 38.108ZM471.13 38.108C470.514 38.108 469.982 37.988 469.534 37.748C469.094 37.5 468.75 37.152 468.502 36.704C468.262 36.256 468.142 35.72 468.142 35.096C468.142 34.488 468.262 33.96 468.502 33.512C468.742 33.056 469.07 32.7 469.486 32.444C469.91 32.188 470.398 32.06 470.95 32.06C471.342 32.06 471.694 32.128 472.006 32.264C472.318 32.392 472.582 32.58 472.798 32.828C473.022 33.076 473.19 33.376 473.302 33.728C473.422 34.08 473.482 34.476 473.482 34.916C473.482 35.044 473.446 35.14 473.374 35.204C473.302 35.26 473.198 35.288 473.062 35.288H468.886V34.652H472.834L472.642 34.808C472.642 34.376 472.578 34.012 472.45 33.716C472.322 33.412 472.134 33.18 471.886 33.02C471.646 32.86 471.342 32.78 470.974 32.78C470.566 32.78 470.218 32.876 469.93 33.068C469.65 33.252 469.438 33.512 469.294 33.848C469.15 34.176 469.078 34.56 469.078 35V35.072C469.078 35.808 469.254 36.368 469.606 36.752C469.966 37.136 470.474 37.328 471.13 37.328C471.402 37.328 471.67 37.292 471.934 37.22C472.206 37.148 472.47 37.028 472.726 36.86C472.838 36.788 472.938 36.756 473.026 36.764C473.122 36.764 473.198 36.792 473.254 36.848C473.31 36.896 473.346 36.96 473.362 37.04C473.386 37.112 473.378 37.192 473.338 37.28C473.306 37.368 473.238 37.444 473.134 37.508C472.87 37.7 472.558 37.848 472.198 37.952C471.838 38.056 471.482 38.108 471.13 38.108ZM475.369 38.084C475.209 38.084 475.089 38.04 475.009 37.952C474.929 37.864 474.889 37.74 474.889 37.58V29.948C474.889 29.788 474.929 29.668 475.009 29.588C475.089 29.5 475.209 29.456 475.369 29.456C475.521 29.456 475.641 29.5 475.729 29.588C475.817 29.668 475.861 29.788 475.861 29.948V34.76H475.885L478.345 32.408C478.457 32.304 478.553 32.224 478.633 32.168C478.721 32.112 478.837 32.084 478.981 32.084C479.109 32.084 479.209 32.12 479.281 32.192C479.353 32.256 479.385 32.34 479.377 32.444C479.377 32.54 479.329 32.644 479.233 32.756L476.617 35.24V34.712L479.461 37.388C479.573 37.5 479.629 37.608 479.629 37.712C479.629 37.816 479.589 37.904 479.509 37.976C479.437 38.048 479.341 38.084 479.221 38.084C479.077 38.084 478.961 38.056 478.873 38C478.785 37.936 478.677 37.844 478.549 37.724L475.885 35.264H475.861V37.58C475.861 37.916 475.697 38.084 475.369 38.084Z" fill="#1C1C1C"/>
<path d="M513 34C513 35.6569 511.657 37 510 37C508.343 37 507 35.6569 507 34C507 32.3431 508.343 31 510 31C511.657 31 513 32.3431 513 34Z" fill="#A8C5DA"/>
<path d="M519.536 38.084C519.376 38.084 519.252 38.04 519.164 37.952C519.084 37.856 519.044 37.728 519.044 37.568V30.044C519.044 29.876 519.088 29.752 519.176 29.672C519.264 29.584 519.388 29.54 519.548 29.54H522.392C523.296 29.54 523.992 29.764 524.48 30.212C524.968 30.652 525.212 31.276 525.212 32.084C525.212 32.884 524.968 33.508 524.48 33.956C523.992 34.404 523.296 34.628 522.392 34.628H520.028V37.568C520.028 37.728 519.988 37.856 519.908 37.952C519.828 38.04 519.704 38.084 519.536 38.084ZM520.028 33.8H522.272C522.92 33.8 523.408 33.656 523.736 33.368C524.072 33.072 524.24 32.644 524.24 32.084C524.24 31.516 524.072 31.088 523.736 30.8C523.408 30.504 522.92 30.356 522.272 30.356H520.028V33.8ZM526.881 38.084C526.721 38.084 526.597 38.04 526.509 37.952C526.429 37.864 526.389 37.74 526.389 37.58V32.576C526.389 32.416 526.429 32.296 526.509 32.216C526.589 32.128 526.705 32.084 526.857 32.084C527.009 32.084 527.125 32.128 527.205 32.216C527.293 32.296 527.337 32.416 527.337 32.576V33.548H527.217C527.345 33.076 527.589 32.712 527.949 32.456C528.309 32.2 528.753 32.064 529.281 32.048C529.401 32.04 529.497 32.068 529.569 32.132C529.641 32.188 529.681 32.288 529.689 32.432C529.697 32.568 529.665 32.676 529.593 32.756C529.521 32.836 529.409 32.884 529.257 32.9L529.065 32.924C528.521 32.972 528.101 33.148 527.805 33.452C527.517 33.748 527.373 34.156 527.373 34.676V37.58C527.373 37.74 527.329 37.864 527.241 37.952C527.161 38.04 527.041 38.084 526.881 38.084ZM533.247 38.108C532.631 38.108 532.099 37.988 531.651 37.748C531.211 37.5 530.867 37.152 530.619 36.704C530.379 36.256 530.259 35.72 530.259 35.096C530.259 34.488 530.379 33.96 530.619 33.512C530.859 33.056 531.187 32.7 531.603 32.444C532.027 32.188 532.515 32.06 533.067 32.06C533.459 32.06 533.811 32.128 534.123 32.264C534.435 32.392 534.699 32.58 534.915 32.828C535.139 33.076 535.307 33.376 535.419 33.728C535.539 34.08 535.599 34.476 535.599 34.916C535.599 35.044 535.563 35.14 535.491 35.204C535.419 35.26 535.315 35.288 535.179 35.288H531.003V34.652H534.951L534.759 34.808C534.759 34.376 534.695 34.012 534.567 33.716C534.439 33.412 534.251 33.18 534.003 33.02C533.763 32.86 533.459 32.78 533.091 32.78C532.683 32.78 532.335 32.876 532.047 33.068C531.767 33.252 531.555 33.512 531.411 33.848C531.267 34.176 531.195 34.56 531.195 35V35.072C531.195 35.808 531.371 36.368 531.723 36.752C532.083 37.136 532.591 37.328 533.247 37.328C533.519 37.328 533.787 37.292 534.051 37.22C534.323 37.148 534.587 37.028 534.843 36.86C534.955 36.788 535.055 36.756 535.143 36.764C535.239 36.764 535.315 36.792 535.371 36.848C535.427 36.896 535.463 36.96 535.479 37.04C535.503 37.112 535.495 37.192 535.455 37.28C535.423 37.368 535.355 37.444 535.251 37.508C534.987 37.7 534.675 37.848 534.315 37.952C533.955 38.056 533.599 38.108 533.247 38.108ZM539.107 38.084C538.971 38.084 538.851 38.048 538.747 37.976C538.643 37.896 538.555 37.776 538.483 37.616L536.407 32.768C536.351 32.648 536.331 32.536 536.347 32.432C536.363 32.328 536.411 32.244 536.491 32.18C536.571 32.116 536.683 32.084 536.827 32.084C536.955 32.084 537.055 32.112 537.127 32.168C537.199 32.224 537.263 32.324 537.319 32.468L539.287 37.28H538.963L540.967 32.468C541.023 32.324 541.087 32.224 541.159 32.168C541.231 32.112 541.335 32.084 541.471 32.084C541.599 32.084 541.695 32.116 541.759 32.18C541.831 32.244 541.871 32.328 541.879 32.432C541.895 32.528 541.879 32.636 541.831 32.756L539.731 37.616C539.675 37.776 539.591 37.896 539.479 37.976C539.375 38.048 539.251 38.084 539.107 38.084ZM543.591 38.06C543.431 38.06 543.311 38.016 543.231 37.928C543.151 37.832 543.111 37.7 543.111 37.532V32.624C543.111 32.456 543.151 32.328 543.231 32.24C543.311 32.152 543.431 32.108 543.591 32.108C543.743 32.108 543.863 32.152 543.951 32.24C544.039 32.328 544.083 32.456 544.083 32.624V37.532C544.083 37.7 544.039 37.832 543.951 37.928C543.871 38.016 543.751 38.06 543.591 38.06ZM543.591 30.764C543.391 30.764 543.235 30.712 543.123 30.608C543.011 30.496 542.955 30.348 542.955 30.164C542.955 29.972 543.011 29.828 543.123 29.732C543.235 29.628 543.391 29.576 543.591 29.576C543.799 29.576 543.955 29.628 544.059 29.732C544.171 29.828 544.227 29.972 544.227 30.164C544.227 30.348 544.171 30.496 544.059 30.608C543.955 30.712 543.799 30.764 543.591 30.764ZM548.324 38.108C547.756 38.108 547.264 37.984 546.848 37.736C546.432 37.488 546.108 37.14 545.876 36.692C545.652 36.236 545.54 35.7 545.54 35.084C545.54 34.62 545.604 34.204 545.732 33.836C545.86 33.46 546.048 33.14 546.296 32.876C546.544 32.612 546.836 32.412 547.172 32.276C547.516 32.132 547.9 32.06 548.324 32.06C548.892 32.06 549.384 32.184 549.8 32.432C550.216 32.68 550.536 33.032 550.76 33.488C550.992 33.936 551.108 34.468 551.108 35.084C551.108 35.548 551.044 35.964 550.916 36.332C550.788 36.7 550.6 37.02 550.352 37.292C550.104 37.556 549.808 37.76 549.464 37.904C549.128 38.04 548.748 38.108 548.324 38.108ZM548.324 37.328C548.684 37.328 549 37.24 549.272 37.064C549.544 36.888 549.752 36.632 549.896 36.296C550.048 35.96 550.124 35.556 550.124 35.084C550.124 34.356 549.96 33.8 549.632 33.416C549.312 33.032 548.876 32.84 548.324 32.84C547.956 32.84 547.636 32.928 547.364 33.104C547.1 33.272 546.892 33.524 546.74 33.86C546.596 34.188 546.524 34.596 546.524 35.084C546.524 35.804 546.688 36.36 547.016 36.752C547.344 37.136 547.78 37.328 548.324 37.328ZM554.632 38.108C554.16 38.108 553.768 38.024 553.456 37.856C553.152 37.68 552.92 37.42 552.76 37.076C552.608 36.732 552.532 36.304 552.532 35.792V32.576C552.532 32.408 552.572 32.284 552.652 32.204C552.74 32.124 552.86 32.084 553.012 32.084C553.172 32.084 553.292 32.124 553.372 32.204C553.46 32.284 553.504 32.408 553.504 32.576V35.78C553.504 36.292 553.608 36.676 553.816 36.932C554.032 37.18 554.368 37.304 554.824 37.304C555.32 37.304 555.724 37.136 556.036 36.8C556.348 36.464 556.504 36.024 556.504 35.48V32.576C556.504 32.408 556.544 32.284 556.624 32.204C556.712 32.124 556.836 32.084 556.996 32.084C557.148 32.084 557.264 32.124 557.344 32.204C557.432 32.284 557.476 32.408 557.476 32.576V37.58C557.476 37.916 557.32 38.084 557.008 38.084C556.856 38.084 556.736 38.04 556.648 37.952C556.568 37.864 556.528 37.74 556.528 37.58V36.488L556.684 36.656C556.524 37.128 556.26 37.488 555.892 37.736C555.532 37.984 555.112 38.108 554.632 38.108ZM561.263 38.108C560.903 38.108 560.539 38.064 560.171 37.976C559.811 37.888 559.475 37.736 559.163 37.52C559.083 37.464 559.027 37.4 558.995 37.328C558.963 37.248 558.951 37.172 558.959 37.1C558.975 37.02 559.007 36.952 559.055 36.896C559.111 36.84 559.175 36.808 559.247 36.8C559.327 36.784 559.415 36.8 559.511 36.848C559.823 37.04 560.123 37.176 560.411 37.256C560.707 37.328 560.999 37.364 561.287 37.364C561.743 37.364 562.087 37.28 562.319 37.112C562.551 36.944 562.667 36.716 562.667 36.428C562.667 36.204 562.591 36.028 562.439 35.9C562.287 35.764 562.047 35.66 561.719 35.588L560.627 35.348C560.123 35.244 559.747 35.064 559.499 34.808C559.259 34.552 559.139 34.22 559.139 33.812C559.139 33.452 559.231 33.144 559.415 32.888C559.607 32.624 559.875 32.42 560.219 32.276C560.563 32.132 560.963 32.06 561.419 32.06C561.771 32.06 562.103 32.108 562.415 32.204C562.735 32.292 563.023 32.436 563.279 32.636C563.359 32.692 563.411 32.76 563.435 32.84C563.467 32.912 563.471 32.988 563.447 33.068C563.431 33.14 563.395 33.204 563.339 33.26C563.283 33.308 563.215 33.336 563.135 33.344C563.055 33.352 562.971 33.328 562.883 33.272C562.643 33.112 562.399 32.996 562.151 32.924C561.903 32.844 561.659 32.804 561.419 32.804C560.971 32.804 560.631 32.892 560.399 33.068C560.167 33.244 560.051 33.476 560.051 33.764C560.051 33.988 560.123 34.172 560.267 34.316C560.411 34.46 560.635 34.564 560.939 34.628L562.031 34.856C562.551 34.968 562.939 35.148 563.195 35.396C563.459 35.636 563.591 35.964 563.591 36.38C563.591 36.908 563.379 37.328 562.955 37.64C562.531 37.952 561.967 38.108 561.263 38.108ZM571.01 38.084C570.866 38.084 570.75 38.048 570.662 37.976C570.574 37.896 570.502 37.78 570.446 37.628L567.794 30.056C567.738 29.888 567.75 29.748 567.83 29.636C567.918 29.516 568.054 29.456 568.238 29.456C568.374 29.456 568.482 29.492 568.562 29.564C568.642 29.628 568.71 29.732 568.766 29.876L571.25 37.16H570.83L573.362 29.912C573.418 29.76 573.486 29.648 573.566 29.576C573.646 29.496 573.754 29.456 573.89 29.456C574.018 29.456 574.118 29.496 574.19 29.576C574.27 29.648 574.338 29.76 574.394 29.912L576.89 37.16H576.518L579.026 29.876C579.066 29.74 579.126 29.636 579.206 29.564C579.294 29.492 579.406 29.456 579.542 29.456C579.71 29.456 579.834 29.512 579.914 29.624C579.994 29.736 580.002 29.88 579.938 30.056L577.274 37.628C577.218 37.78 577.146 37.896 577.058 37.976C576.978 38.048 576.862 38.084 576.71 38.084C576.566 38.084 576.45 38.048 576.362 37.976C576.282 37.896 576.21 37.78 576.146 37.628L573.734 30.68H573.998L571.562 37.628C571.506 37.78 571.438 37.896 571.358 37.976C571.278 38.048 571.162 38.084 571.01 38.084ZM583.298 38.108C582.682 38.108 582.15 37.988 581.702 37.748C581.262 37.5 580.918 37.152 580.67 36.704C580.43 36.256 580.31 35.72 580.31 35.096C580.31 34.488 580.43 33.96 580.67 33.512C580.91 33.056 581.238 32.7 581.654 32.444C582.078 32.188 582.566 32.06 583.118 32.06C583.51 32.06 583.862 32.128 584.174 32.264C584.486 32.392 584.75 32.58 584.966 32.828C585.19 33.076 585.358 33.376 585.47 33.728C585.59 34.08 585.65 34.476 585.65 34.916C585.65 35.044 585.614 35.14 585.542 35.204C585.47 35.26 585.366 35.288 585.23 35.288H581.054V34.652H585.002L584.81 34.808C584.81 34.376 584.746 34.012 584.618 33.716C584.49 33.412 584.302 33.18 584.054 33.02C583.814 32.86 583.51 32.78 583.142 32.78C582.734 32.78 582.386 32.876 582.098 33.068C581.818 33.252 581.606 33.512 581.462 33.848C581.318 34.176 581.246 34.56 581.246 35V35.072C581.246 35.808 581.422 36.368 581.774 36.752C582.134 37.136 582.642 37.328 583.298 37.328C583.57 37.328 583.838 37.292 584.102 37.22C584.374 37.148 584.638 37.028 584.894 36.86C585.006 36.788 585.106 36.756 585.194 36.764C585.29 36.764 585.366 36.792 585.422 36.848C585.478 36.896 585.514 36.96 585.53 37.04C585.554 37.112 585.546 37.192 585.506 37.28C585.474 37.368 585.406 37.444 585.302 37.508C585.038 37.7 584.726 37.848 584.366 37.952C584.006 38.056 583.65 38.108 583.298 38.108ZM589.685 38.108C589.069 38.108 588.537 37.988 588.089 37.748C587.649 37.5 587.305 37.152 587.057 36.704C586.817 36.256 586.697 35.72 586.697 35.096C586.697 34.488 586.817 33.96 587.057 33.512C587.297 33.056 587.625 32.7 588.041 32.444C588.465 32.188 588.953 32.06 589.505 32.06C589.897 32.06 590.249 32.128 590.561 32.264C590.873 32.392 591.137 32.58 591.353 32.828C591.577 33.076 591.745 33.376 591.857 33.728C591.977 34.08 592.037 34.476 592.037 34.916C592.037 35.044 592.001 35.14 591.929 35.204C591.857 35.26 591.753 35.288 591.617 35.288H587.441V34.652H591.389L591.197 34.808C591.197 34.376 591.133 34.012 591.005 33.716C590.877 33.412 590.689 33.18 590.441 33.02C590.201 32.86 589.897 32.78 589.529 32.78C589.121 32.78 588.773 32.876 588.485 33.068C588.205 33.252 587.993 33.512 587.849 33.848C587.705 34.176 587.633 34.56 587.633 35V35.072C587.633 35.808 587.809 36.368 588.161 36.752C588.521 37.136 589.029 37.328 589.685 37.328C589.957 37.328 590.225 37.292 590.489 37.22C590.761 37.148 591.025 37.028 591.281 36.86C591.393 36.788 591.493 36.756 591.581 36.764C591.677 36.764 591.753 36.792 591.809 36.848C591.865 36.896 591.901 36.96 591.917 37.04C591.941 37.112 591.933 37.192 591.893 37.28C591.861 37.368 591.793 37.444 591.689 37.508C591.425 37.7 591.113 37.848 590.753 37.952C590.393 38.056 590.037 38.108 589.685 38.108ZM593.923 38.084C593.763 38.084 593.643 38.04 593.563 37.952C593.483 37.864 593.443 37.74 593.443 37.58V29.948C593.443 29.788 593.483 29.668 593.563 29.588C593.643 29.5 593.763 29.456 593.923 29.456C594.075 29.456 594.195 29.5 594.283 29.588C594.371 29.668 594.415 29.788 594.415 29.948V34.76H594.439L596.899 32.408C597.011 32.304 597.107 32.224 597.187 32.168C597.275 32.112 597.391 32.084 597.535 32.084C597.663 32.084 597.763 32.12 597.835 32.192C597.907 32.256 597.939 32.34 597.931 32.444C597.931 32.54 597.883 32.644 597.787 32.756L595.171 35.24V34.712L598.015 37.388C598.127 37.5 598.183 37.608 598.183 37.712C598.183 37.816 598.143 37.904 598.063 37.976C597.991 38.048 597.895 38.084 597.775 38.084C597.631 38.084 597.515 38.056 597.427 38C597.339 37.936 597.231 37.844 597.103 37.724L594.439 35.264H594.415V37.58C594.415 37.916 594.251 38.084 593.923 38.084Z" fill="#1C1C1C"/>
<path d="M28.4169 64.2727V73H27.3601V65.3807H27.3089L25.1783 66.7955V65.7216L27.3601 64.2727H28.4169ZM33.6541 73.1193C33.1541 73.1193 32.7038 73.0199 32.3033 72.821C31.9027 72.6222 31.5817 72.3494 31.3402 72.0028C31.0987 71.6562 30.9666 71.2614 30.9439 70.8182H31.9666C32.0064 71.2131 32.1854 71.5398 32.5036 71.7983C32.8246 72.054 33.2081 72.1818 33.6541 72.1818C34.0121 72.1818 34.3303 72.098 34.6087 71.9304C34.8899 71.7628 35.1101 71.5327 35.2692 71.2401C35.4311 70.9446 35.5121 70.6108 35.5121 70.2386C35.5121 69.858 35.4283 69.5185 35.2607 69.2202C35.0959 68.919 34.8686 68.6818 34.5788 68.5085C34.2891 68.3352 33.9581 68.2472 33.5859 68.2443C33.3189 68.2415 33.0447 68.2827 32.7635 68.3679C32.4822 68.4503 32.2507 68.5568 32.0689 68.6875L31.0803 68.5682L31.6087 64.2727H36.1428V65.2102H32.495L32.1882 67.7841H32.2393C32.4183 67.642 32.6428 67.5241 32.9126 67.4304C33.1825 67.3366 33.4638 67.2898 33.7564 67.2898C34.2905 67.2898 34.7663 67.4176 35.1839 67.6733C35.6044 67.9261 35.9339 68.2727 36.1726 68.7131C36.4141 69.1534 36.5348 69.6562 36.5348 70.2216C36.5348 70.7784 36.4098 71.2756 36.1598 71.7131C35.9126 72.1477 35.5717 72.4915 35.1371 72.7443C34.7024 72.9943 34.2081 73.1193 33.6541 73.1193ZM38.381 64.2727H39.6424L42.6083 71.517H42.7106L45.6765 64.2727H46.9379V73H45.9492V66.3693H45.864L43.1367 73H42.1822L39.4549 66.3693H39.3697V73H38.381V64.2727Z" fill="black" fill-opacity="0.4"/>
<path d="M28.2177 111.273V120H27.1609V112.381H27.1097L24.979 113.795V112.722L27.1609 111.273H28.2177ZM33.5742 120.119C32.9322 120.119 32.3853 119.945 31.9336 119.595C31.4819 119.243 31.1367 118.733 30.8981 118.065C30.6594 117.395 30.5401 116.585 30.5401 115.636C30.5401 114.693 30.6594 113.888 30.8981 113.22C31.1396 112.55 31.4862 112.038 31.9379 111.686C32.3924 111.331 32.9379 111.153 33.5742 111.153C34.2106 111.153 34.7546 111.331 35.2063 111.686C35.6609 112.038 36.0075 112.55 36.2461 113.22C36.4876 113.888 36.6083 114.693 36.6083 115.636C36.6083 116.585 36.489 117.395 36.2504 118.065C36.0117 118.733 35.6665 119.243 35.2148 119.595C34.7631 119.945 34.2163 120.119 33.5742 120.119ZM33.5742 119.182C34.2106 119.182 34.7049 118.875 35.0572 118.261C35.4094 117.648 35.5856 116.773 35.5856 115.636C35.5856 114.881 35.5046 114.237 35.3427 113.706C35.1836 113.175 34.9535 112.77 34.6523 112.491C34.354 112.213 33.9947 112.074 33.5742 112.074C32.9435 112.074 32.4506 112.385 32.0955 113.007C31.7404 113.626 31.5629 114.503 31.5629 115.636C31.5629 116.392 31.6424 117.034 31.8015 117.562C31.9606 118.091 32.1893 118.493 32.4876 118.768C32.7887 119.044 33.1509 119.182 33.5742 119.182ZM38.381 111.273H39.6424L42.6083 118.517H42.7106L45.6765 111.273H46.9379V120H45.9492V113.369H45.864L43.1367 120H42.1822L39.4549 113.369H39.3697V120H38.381V111.273Z" fill="black" fill-opacity="0.4"/>
<path d="M33.6541 167.119C33.1541 167.119 32.7038 167.02 32.3033 166.821C31.9027 166.622 31.5817 166.349 31.3402 166.003C31.0987 165.656 30.9666 165.261 30.9439 164.818H31.9666C32.0064 165.213 32.1854 165.54 32.5036 165.798C32.8246 166.054 33.2081 166.182 33.6541 166.182C34.0121 166.182 34.3303 166.098 34.6087 165.93C34.8899 165.763 35.1101 165.533 35.2692 165.24C35.4311 164.945 35.5121 164.611 35.5121 164.239C35.5121 163.858 35.4283 163.518 35.2607 163.22C35.0959 162.919 34.8686 162.682 34.5788 162.509C34.2891 162.335 33.9581 162.247 33.5859 162.244C33.3189 162.241 33.0447 162.283 32.7635 162.368C32.4822 162.45 32.2507 162.557 32.0689 162.688L31.0803 162.568L31.6087 158.273H36.1428V159.21H32.495L32.1882 161.784H32.2393C32.4183 161.642 32.6428 161.524 32.9126 161.43C33.1825 161.337 33.4638 161.29 33.7564 161.29C34.2905 161.29 34.7663 161.418 35.1839 161.673C35.6044 161.926 35.9339 162.273 36.1726 162.713C36.4141 163.153 36.5348 163.656 36.5348 164.222C36.5348 164.778 36.4098 165.276 36.1598 165.713C35.9126 166.148 35.5717 166.491 35.1371 166.744C34.7024 166.994 34.2081 167.119 33.6541 167.119ZM38.381 158.273H39.6424L42.6083 165.517H42.7106L45.6765 158.273H46.9379V167H45.9492V160.369H45.864L43.1367 167H42.1822L39.4549 160.369H39.3697V167H38.381V158.273Z" fill="black" fill-opacity="0.4"/>
<path d="M35.7177 205.273V214H34.6609V206.381H34.6097L32.479 207.795V206.722L34.6609 205.273H35.7177ZM38.381 205.273H39.6424L42.6083 212.517H42.7106L45.6765 205.273H46.9379V214H45.9492V207.369H45.864L43.1367 214H42.1822L39.4549 207.369H39.3697V214H38.381V205.273Z" fill="black" fill-opacity="0.4"/>
<path d="M44.25 261.119C43.608 261.119 43.0611 260.945 42.6094 260.595C42.1577 260.243 41.8125 259.733 41.5739 259.065C41.3352 258.395 41.2159 257.585 41.2159 256.636C41.2159 255.693 41.3352 254.888 41.5739 254.22C41.8153 253.55 42.1619 253.038 42.6136 252.686C43.0682 252.331 43.6136 252.153 44.25 252.153C44.8864 252.153 45.4304 252.331 45.8821 252.686C46.3366 253.038 46.6832 253.55 46.9219 254.22C47.1634 254.888 47.2841 255.693 47.2841 256.636C47.2841 257.585 47.1648 258.395 46.9261 259.065C46.6875 259.733 46.3423 260.243 45.8906 260.595C45.4389 260.945 44.892 261.119 44.25 261.119ZM44.25 260.182C44.8864 260.182 45.3807 259.875 45.733 259.261C46.0852 258.648 46.2614 257.773 46.2614 256.636C46.2614 255.881 46.1804 255.237 46.0185 254.706C45.8594 254.175 45.6293 253.77 45.3281 253.491C45.0298 253.213 44.6705 253.074 44.25 253.074C43.6193 253.074 43.1264 253.385 42.7713 254.007C42.4162 254.626 42.2386 255.503 42.2386 256.636C42.2386 257.392 42.3182 258.034 42.4773 258.562C42.6364 259.091 42.8651 259.493 43.1634 259.768C43.4645 260.044 43.8267 260.182 44.25 260.182Z" fill="black" fill-opacity="0.4"/>
<line x1="64.5" y1="75.5" x2="637.5" y2="75.5" stroke="black" stroke-opacity="0.05" stroke-linecap="round"/>
<line x1="64.5" y1="123" x2="637.5" y2="123" stroke="black" stroke-opacity="0.05" stroke-linecap="round"/>
<line x1="64.5" y1="170.5" x2="637.5" y2="170.5" stroke="black" stroke-opacity="0.05" stroke-linecap="round"/>
<line x1="64.5" y1="218" x2="637.5" y2="218" stroke="black" stroke-opacity="0.05" stroke-linecap="round"/>
<line x1="64.5" y1="265.5" x2="637.5" y2="265.5" stroke="black" stroke-opacity="0.2" stroke-linecap="round"/>
<path d="M93.6291 282.273H94.8904L97.8564 289.517H97.9586L100.925 282.273H102.186V291H101.197V284.369H101.112L98.3848 291H97.4302L94.7029 284.369H94.6177V291H93.6291V282.273ZM106.828 291.136C106.237 291.136 105.718 290.996 105.272 290.714C104.829 290.433 104.482 290.04 104.232 289.534C103.985 289.028 103.862 288.437 103.862 287.761C103.862 287.08 103.985 286.484 104.232 285.976C104.482 285.467 104.829 285.072 105.272 284.791C105.718 284.51 106.237 284.369 106.828 284.369C107.419 284.369 107.936 284.51 108.379 284.791C108.825 285.072 109.171 285.467 109.419 285.976C109.669 286.484 109.794 287.08 109.794 287.761C109.794 288.437 109.669 289.028 109.419 289.534C109.171 290.04 108.825 290.433 108.379 290.714C107.936 290.996 107.419 291.136 106.828 291.136ZM106.828 290.233C107.276 290.233 107.646 290.118 107.936 289.888C108.225 289.658 108.44 289.355 108.579 288.98C108.718 288.605 108.788 288.199 108.788 287.761C108.788 287.324 108.718 286.916 108.579 286.538C108.44 286.161 108.225 285.855 107.936 285.622C107.646 285.389 107.276 285.273 106.828 285.273C106.379 285.273 106.009 285.389 105.72 285.622C105.43 285.855 105.215 286.161 105.076 286.538C104.937 286.916 104.867 287.324 104.867 287.761C104.867 288.199 104.937 288.605 105.076 288.98C105.215 289.355 105.43 289.658 105.72 289.888C106.009 290.118 106.379 290.233 106.828 290.233ZM112.334 287.062V291H111.329V284.455H112.3V285.477H112.385C112.539 285.145 112.772 284.878 113.084 284.676C113.397 284.472 113.8 284.369 114.295 284.369C114.738 284.369 115.126 284.46 115.458 284.642C115.79 284.821 116.049 285.094 116.233 285.46C116.418 285.824 116.51 286.284 116.51 286.841V291H115.505V286.909C115.505 286.395 115.371 285.994 115.104 285.707C114.837 285.418 114.471 285.273 114.005 285.273C113.684 285.273 113.397 285.342 113.144 285.482C112.894 285.621 112.697 285.824 112.552 286.091C112.407 286.358 112.334 286.682 112.334 287.062Z" fill="black" fill-opacity="0.4"/>
<path d="M177.197 283.21V282.273H183.742V283.21H180.998V291H179.941V283.21H177.197ZM188.471 288.324V284.455H189.477V291H188.471V289.892H188.403C188.25 290.224 188.011 290.507 187.687 290.74C187.363 290.97 186.954 291.085 186.46 291.085C186.051 291.085 185.687 290.996 185.369 290.817C185.051 290.635 184.801 290.362 184.619 289.999C184.437 289.632 184.346 289.17 184.346 288.614V284.455H185.352V288.545C185.352 289.023 185.485 289.403 185.752 289.688C186.022 289.972 186.366 290.114 186.784 290.114C187.034 290.114 187.288 290.05 187.547 289.922C187.808 289.794 188.027 289.598 188.203 289.334C188.382 289.07 188.471 288.733 188.471 288.324ZM194.063 291.136C193.433 291.136 192.888 290.997 192.431 290.719C191.977 290.438 191.626 290.045 191.379 289.543C191.134 289.037 191.012 288.449 191.012 287.778C191.012 287.108 191.134 286.517 191.379 286.006C191.626 285.491 191.969 285.091 192.41 284.804C192.853 284.514 193.37 284.369 193.961 284.369C194.302 284.369 194.638 284.426 194.971 284.54C195.303 284.653 195.606 284.838 195.879 285.094C196.151 285.347 196.369 285.682 196.531 286.099C196.692 286.517 196.773 287.031 196.773 287.642V288.068H191.728V287.199H195.751C195.751 286.83 195.677 286.5 195.529 286.21C195.384 285.92 195.177 285.692 194.907 285.524C194.64 285.357 194.325 285.273 193.961 285.273C193.56 285.273 193.214 285.372 192.921 285.571C192.631 285.767 192.408 286.023 192.252 286.338C192.096 286.653 192.018 286.991 192.018 287.352V287.932C192.018 288.426 192.103 288.845 192.273 289.189C192.447 289.53 192.687 289.79 192.994 289.969C193.3 290.145 193.657 290.233 194.063 290.233C194.327 290.233 194.566 290.196 194.779 290.122C194.995 290.045 195.181 289.932 195.337 289.781C195.494 289.628 195.614 289.437 195.7 289.21L196.671 289.483C196.569 289.812 196.397 290.102 196.156 290.352C195.914 290.599 195.616 290.793 195.261 290.932C194.906 291.068 194.506 291.136 194.063 291.136Z" fill="black" fill-opacity="0.4"/>
<path d="M259.033 291L256.646 282.273H257.72L259.544 289.381H259.629L261.487 282.273H262.68L264.538 289.381H264.624L266.447 282.273H267.521L265.135 291H264.044L262.118 284.045H262.05L260.124 291H259.033ZM270.837 291.136C270.206 291.136 269.662 290.997 269.205 290.719C268.75 290.438 268.399 290.045 268.152 289.543C267.908 289.037 267.786 288.449 267.786 287.778C267.786 287.108 267.908 286.517 268.152 286.006C268.399 285.491 268.743 285.091 269.183 284.804C269.626 284.514 270.143 284.369 270.734 284.369C271.075 284.369 271.412 284.426 271.744 284.54C272.077 284.653 272.379 284.838 272.652 285.094C272.925 285.347 273.142 285.682 273.304 286.099C273.466 286.517 273.547 287.031 273.547 287.642V288.068H268.501V287.199H272.524C272.524 286.83 272.45 286.5 272.303 286.21C272.158 285.92 271.95 285.692 271.68 285.524C271.413 285.357 271.098 285.273 270.734 285.273C270.334 285.273 269.987 285.372 269.695 285.571C269.405 285.767 269.182 286.023 269.026 286.338C268.869 286.653 268.791 286.991 268.791 287.352V287.932C268.791 288.426 268.876 288.845 269.047 289.189C269.22 289.53 269.46 289.79 269.767 289.969C270.074 290.145 270.43 290.233 270.837 290.233C271.101 290.233 271.339 290.196 271.553 290.122C271.768 290.045 271.955 289.932 272.111 289.781C272.267 289.628 272.388 289.437 272.473 289.21L273.445 289.483C273.342 289.812 273.17 290.102 272.929 290.352C272.688 290.599 272.389 290.793 272.034 290.932C271.679 291.068 271.28 291.136 270.837 291.136ZM277.548 291.136C277.003 291.136 276.521 290.999 276.104 290.723C275.686 290.445 275.359 290.053 275.124 289.547C274.888 289.038 274.77 288.438 274.77 287.744C274.77 287.057 274.888 286.46 275.124 285.955C275.359 285.449 275.688 285.058 276.108 284.783C276.528 284.507 277.014 284.369 277.565 284.369C277.991 284.369 278.328 284.44 278.575 284.582C278.825 284.722 279.016 284.881 279.146 285.06C279.28 285.236 279.384 285.381 279.457 285.494H279.543V282.273H280.548V291H279.577V289.994H279.457C279.384 290.114 279.278 290.264 279.142 290.446C279.006 290.625 278.811 290.786 278.558 290.928C278.305 291.067 277.969 291.136 277.548 291.136ZM277.685 290.233C278.088 290.233 278.429 290.128 278.707 289.918C278.986 289.705 279.197 289.411 279.342 289.036C279.487 288.658 279.56 288.222 279.56 287.727C279.56 287.239 279.489 286.811 279.347 286.445C279.205 286.075 278.994 285.788 278.716 285.584C278.438 285.376 278.094 285.273 277.685 285.273C277.259 285.273 276.903 285.382 276.619 285.601C276.338 285.817 276.126 286.111 275.984 286.483C275.845 286.852 275.776 287.267 275.776 287.727C275.776 288.193 275.847 288.616 275.989 288.997C276.134 289.375 276.347 289.676 276.628 289.901C276.912 290.122 277.264 290.233 277.685 290.233Z" fill="black" fill-opacity="0.4"/>
<path d="M340.699 283.21V282.273H347.244V283.21H344.5V291H343.443V283.21H340.699ZM349.744 287.062V291H348.739V282.273H349.744V285.477H349.83C349.983 285.139 350.213 284.871 350.52 284.672C350.83 284.47 351.242 284.369 351.756 284.369C352.202 284.369 352.593 284.459 352.928 284.638C353.263 284.814 353.523 285.085 353.708 285.452C353.895 285.815 353.989 286.278 353.989 286.841V291H352.983V286.909C352.983 286.389 352.848 285.987 352.578 285.703C352.311 285.416 351.941 285.273 351.466 285.273C351.137 285.273 350.841 285.342 350.58 285.482C350.321 285.621 350.117 285.824 349.966 286.091C349.818 286.358 349.744 286.682 349.744 287.062ZM359.954 288.324V284.455H360.959V291H359.954V289.892H359.885C359.732 290.224 359.493 290.507 359.17 290.74C358.846 290.97 358.437 291.085 357.942 291.085C357.533 291.085 357.17 290.996 356.851 290.817C356.533 290.635 356.283 290.362 356.101 289.999C355.92 289.632 355.829 289.17 355.829 288.614V284.455H356.834V288.545C356.834 289.023 356.968 289.403 357.235 289.688C357.505 289.972 357.849 290.114 358.266 290.114C358.516 290.114 358.77 290.05 359.029 289.922C359.29 289.794 359.509 289.598 359.685 289.334C359.864 289.07 359.954 288.733 359.954 288.324Z" fill="black" fill-opacity="0.4"/>
<path d="M426.914 291V282.273H432.147V283.21H427.971V286.159H431.755V287.097H427.971V291H426.914ZM433.751 291V284.455H434.722V285.443H434.79C434.91 285.119 435.126 284.857 435.438 284.655C435.751 284.453 436.103 284.352 436.495 284.352C436.569 284.352 436.661 284.354 436.772 284.357C436.883 284.359 436.966 284.364 437.023 284.369V285.392C436.989 285.384 436.911 285.371 436.789 285.354C436.67 285.334 436.543 285.324 436.41 285.324C436.091 285.324 435.807 285.391 435.557 285.524C435.31 285.655 435.114 285.837 434.969 286.07C434.827 286.3 434.756 286.562 434.756 286.858V291H433.751ZM438.215 291V284.455H439.221V291H438.215ZM438.727 283.364C438.531 283.364 438.362 283.297 438.22 283.163C438.08 283.03 438.011 282.869 438.011 282.682C438.011 282.494 438.08 282.334 438.22 282.2C438.362 282.067 438.531 282 438.727 282C438.923 282 439.09 282.067 439.23 282.2C439.372 282.334 439.443 282.494 439.443 282.682C439.443 282.869 439.372 283.03 439.23 283.163C439.09 283.297 438.923 283.364 438.727 283.364Z" fill="black" fill-opacity="0.4"/>
<path d="M511.443 284.455C511.392 284.023 511.184 283.688 510.821 283.449C510.457 283.21 510.011 283.091 509.483 283.091C509.096 283.091 508.758 283.153 508.468 283.278C508.181 283.403 507.957 283.575 507.795 283.794C507.636 284.013 507.556 284.261 507.556 284.54C507.556 284.773 507.612 284.973 507.723 285.141C507.836 285.305 507.981 285.443 508.157 285.554C508.333 285.662 508.518 285.751 508.711 285.822C508.904 285.891 509.082 285.946 509.244 285.989L510.13 286.227C510.358 286.287 510.61 286.369 510.889 286.474C511.17 286.58 511.439 286.723 511.694 286.905C511.953 287.084 512.166 287.314 512.333 287.595C512.501 287.876 512.585 288.222 512.585 288.631C512.585 289.102 512.461 289.528 512.214 289.909C511.97 290.29 511.612 290.592 511.14 290.817C510.672 291.041 510.102 291.153 509.431 291.153C508.806 291.153 508.265 291.053 507.808 290.851C507.353 290.649 506.995 290.368 506.734 290.007C506.475 289.646 506.329 289.227 506.295 288.75H507.386C507.414 289.08 507.525 289.352 507.718 289.568C507.914 289.781 508.162 289.94 508.46 290.045C508.761 290.148 509.085 290.199 509.431 290.199C509.835 290.199 510.197 290.134 510.518 290.003C510.839 289.869 511.093 289.685 511.281 289.449C511.468 289.21 511.562 288.932 511.562 288.614C511.562 288.324 511.481 288.088 511.319 287.906C511.157 287.724 510.944 287.577 510.68 287.463C510.416 287.349 510.13 287.25 509.824 287.165L508.75 286.858C508.068 286.662 507.528 286.382 507.13 286.018C506.733 285.655 506.534 285.179 506.534 284.591C506.534 284.102 506.666 283.676 506.93 283.312C507.197 282.946 507.555 282.662 508.004 282.46C508.456 282.256 508.96 282.153 509.517 282.153C510.079 282.153 510.579 282.254 511.017 282.456C511.454 282.655 511.801 282.928 512.056 283.274C512.315 283.621 512.451 284.014 512.466 284.455H511.443ZM516.112 291.153C515.697 291.153 515.321 291.075 514.983 290.919C514.645 290.76 514.376 290.531 514.178 290.233C513.979 289.932 513.879 289.568 513.879 289.142C513.879 288.767 513.953 288.463 514.101 288.23C514.249 287.994 514.446 287.81 514.693 287.676C514.94 287.543 515.213 287.443 515.511 287.378C515.813 287.31 516.115 287.256 516.419 287.216C516.817 287.165 517.139 287.126 517.386 287.101C517.636 287.072 517.818 287.026 517.932 286.96C518.048 286.895 518.107 286.781 518.107 286.619V286.585C518.107 286.165 517.991 285.838 517.761 285.605C517.534 285.372 517.189 285.256 516.726 285.256C516.246 285.256 515.869 285.361 515.597 285.571C515.324 285.781 515.132 286.006 515.021 286.244L514.067 285.903C514.237 285.506 514.464 285.196 514.749 284.974C515.036 284.75 515.348 284.594 515.686 284.506C516.027 284.415 516.362 284.369 516.692 284.369C516.902 284.369 517.143 284.395 517.416 284.446C517.692 284.494 517.957 284.595 518.213 284.749C518.472 284.902 518.686 285.134 518.857 285.443C519.027 285.753 519.112 286.168 519.112 286.688V291H518.107V290.114H518.055C517.987 290.256 517.874 290.408 517.714 290.57C517.555 290.732 517.344 290.869 517.08 290.983C516.815 291.097 516.493 291.153 516.112 291.153ZM516.266 290.25C516.663 290.25 516.999 290.172 517.271 290.016C517.547 289.859 517.754 289.658 517.893 289.411C518.036 289.163 518.107 288.903 518.107 288.631V287.71C518.064 287.761 517.97 287.808 517.825 287.851C517.683 287.891 517.518 287.926 517.331 287.957C517.146 287.986 516.966 288.011 516.79 288.034C516.616 288.054 516.476 288.071 516.368 288.085C516.107 288.119 515.862 288.175 515.635 288.251C515.411 288.325 515.229 288.437 515.089 288.588C514.953 288.736 514.885 288.937 514.885 289.193C514.885 289.543 515.014 289.807 515.273 289.986C515.534 290.162 515.865 290.25 516.266 290.25ZM523.794 284.455V285.307H520.402V284.455H523.794ZM521.391 282.886H522.397V289.125C522.397 289.409 522.438 289.622 522.52 289.764C522.605 289.903 522.713 289.997 522.844 290.045C522.978 290.091 523.118 290.114 523.266 290.114C523.377 290.114 523.468 290.108 523.539 290.097C523.61 290.082 523.667 290.071 523.709 290.062L523.914 290.966C523.846 290.991 523.75 291.017 523.628 291.043C523.506 291.071 523.351 291.085 523.164 291.085C522.88 291.085 522.601 291.024 522.328 290.902C522.059 290.78 521.834 290.594 521.655 290.344C521.479 290.094 521.391 289.778 521.391 289.398V282.886Z" fill="black" fill-opacity="0.4"/>
<path d="M592.007 284.455C591.956 284.023 591.749 283.688 591.385 283.449C591.021 283.21 590.575 283.091 590.047 283.091C589.661 283.091 589.323 283.153 589.033 283.278C588.746 283.403 588.521 283.575 588.36 283.794C588.2 284.013 588.121 284.261 588.121 284.54C588.121 284.773 588.176 284.973 588.287 285.141C588.401 285.305 588.546 285.443 588.722 285.554C588.898 285.662 589.083 285.751 589.276 285.822C589.469 285.891 589.646 285.946 589.808 285.989L590.695 286.227C590.922 286.287 591.175 286.369 591.453 286.474C591.735 286.58 592.003 286.723 592.259 286.905C592.517 287.084 592.73 287.314 592.898 287.595C593.066 287.876 593.149 288.222 593.149 288.631C593.149 289.102 593.026 289.528 592.779 289.909C592.534 290.29 592.176 290.592 591.705 290.817C591.236 291.041 590.666 291.153 589.996 291.153C589.371 291.153 588.83 291.053 588.372 290.851C587.918 290.649 587.56 290.368 587.298 290.007C587.04 289.646 586.894 289.227 586.86 288.75H587.95C587.979 289.08 588.09 289.352 588.283 289.568C588.479 289.781 588.726 289.94 589.024 290.045C589.325 290.148 589.649 290.199 589.996 290.199C590.399 290.199 590.762 290.134 591.083 290.003C591.404 289.869 591.658 289.685 591.845 289.449C592.033 289.21 592.127 288.932 592.127 288.614C592.127 288.324 592.046 288.088 591.884 287.906C591.722 287.724 591.509 287.577 591.244 287.463C590.98 287.349 590.695 287.25 590.388 287.165L589.314 286.858C588.632 286.662 588.093 286.382 587.695 286.018C587.297 285.655 587.098 285.179 587.098 284.591C587.098 284.102 587.23 283.676 587.494 283.312C587.762 282.946 588.119 282.662 588.568 282.46C589.02 282.256 589.524 282.153 590.081 282.153C590.644 282.153 591.144 282.254 591.581 282.456C592.019 282.655 592.365 282.928 592.621 283.274C592.879 283.621 593.016 284.014 593.03 284.455H592.007ZM598.876 288.324V284.455H599.881V291H598.876V289.892H598.807C598.654 290.224 598.415 290.507 598.091 290.74C597.768 290.97 597.358 291.085 596.864 291.085C596.455 291.085 596.091 290.996 595.773 290.817C595.455 290.635 595.205 290.362 595.023 289.999C594.841 289.632 594.751 289.17 594.751 288.614V284.455H595.756V288.545C595.756 289.023 595.89 289.403 596.157 289.688C596.427 289.972 596.77 290.114 597.188 290.114C597.438 290.114 597.692 290.05 597.951 289.922C598.212 289.794 598.431 289.598 598.607 289.334C598.786 289.07 598.876 288.733 598.876 288.324ZM602.729 287.062V291H601.723V284.455H602.695V285.477H602.78C602.933 285.145 603.166 284.878 603.479 284.676C603.791 284.472 604.195 284.369 604.689 284.369C605.132 284.369 605.52 284.46 605.852 284.642C606.185 284.821 606.443 285.094 606.628 285.46C606.813 285.824 606.905 286.284 606.905 286.841V291H605.899V286.909C605.899 286.395 605.766 285.994 605.499 285.707C605.232 285.418 604.865 285.273 604.399 285.273C604.078 285.273 603.791 285.342 603.539 285.482C603.289 285.621 603.091 285.824 602.946 286.091C602.801 286.358 602.729 286.682 602.729 287.062Z" fill="black" fill-opacity="0.4"/>
<path d="M89 217C97.7319 210.386 117.651 197.323 127.475 197.984C139.754 198.811 150.396 208.732 164.312 208.732C178.229 208.732 190 183.102 206.88 189.717C243.198 203.947 234.713 181.449 267.457 189.717C293.653 196.331 318.211 188.063 327.216 183.102C337.585 178.693 366.018 170.37 396.798 172.354C435.273 174.835 466.38 172.354 482.752 156.646C488.094 151.521 512.222 133.496 541.692 140.11C571.162 146.724 603.088 115.307 608 112" stroke="#1C1C1C" stroke-width="3" stroke-linecap="round" stroke-linejoin="round"/>
<path d="M79 205.908C86 197.741 107 182.008 135 184.408C170 187.408 181.861 202.766 190.5 205.908C221 217 216 205.908 246.5 176.408C290.577 133.776 300 176.408 324.5 176.408C341.5 176.408 347.235 143.429 396.5 155.408C419.5 161 440 160.408 450.5 147.408C461 134.408 493.5 124.408 516 130.408C538.5 136.408 555.104 130.855 560.5 127.408C578.5 115.908 592 124.908 609 134.408" stroke="#A8C5DA" stroke-width="3" stroke-linecap="round" stroke-linejoin="round"/>
<g filter="url(#filter0_d_732_17322)">
<circle cx="3" cy="3" r="4.5" transform="matrix(-1 0 0 1 444 152)" fill="#A8C5DA" stroke="white" stroke-width="3"/>
</g>
<rect x="394" y="117" width="92" height="28" rx="8" fill="black" fill-opacity="0.8"/>
<path d="M403.972 135.084C403.804 135.084 403.672 135.04 403.576 134.952C403.488 134.856 403.444 134.72 403.444 134.544V127.08C403.444 126.904 403.488 126.772 403.576 126.684C403.672 126.588 403.808 126.54 403.984 126.54H408.34C408.476 126.54 408.58 126.576 408.652 126.648C408.724 126.72 408.76 126.82 408.76 126.948C408.76 127.084 408.724 127.188 408.652 127.26C408.58 127.332 408.476 127.368 408.34 127.368H404.428V130.32H408.088C408.224 130.32 408.328 130.356 408.4 130.428C408.48 130.5 408.52 130.6 408.52 130.728C408.52 130.864 408.48 130.968 408.4 131.04C408.328 131.112 408.224 131.148 408.088 131.148H404.428V134.544C404.428 134.904 404.276 135.084 403.972 135.084ZM410.261 135.084C410.101 135.084 409.977 135.04 409.889 134.952C409.809 134.864 409.769 134.74 409.769 134.58V129.576C409.769 129.416 409.809 129.296 409.889 129.216C409.969 129.128 410.085 129.084 410.237 129.084C410.389 129.084 410.505 129.128 410.585 129.216C410.673 129.296 410.717 129.416 410.717 129.576V130.548H410.597C410.725 130.076 410.969 129.712 411.329 129.456C411.689 129.2 412.133 129.064 412.661 129.048C412.781 129.04 412.877 129.068 412.949 129.132C413.021 129.188 413.061 129.288 413.069 129.432C413.077 129.568 413.045 129.676 412.973 129.756C412.901 129.836 412.789 129.884 412.637 129.9L412.445 129.924C411.901 129.972 411.481 130.148 411.185 130.452C410.897 130.748 410.753 131.156 410.753 131.676V134.58C410.753 134.74 410.709 134.864 410.621 134.952C410.541 135.04 410.421 135.084 410.261 135.084ZM414.55 135.06C414.39 135.06 414.27 135.016 414.19 134.928C414.11 134.832 414.07 134.7 414.07 134.532V129.624C414.07 129.456 414.11 129.328 414.19 129.24C414.27 129.152 414.39 129.108 414.55 129.108C414.702 129.108 414.822 129.152 414.91 129.24C414.998 129.328 415.042 129.456 415.042 129.624V134.532C415.042 134.7 414.998 134.832 414.91 134.928C414.83 135.016 414.71 135.06 414.55 135.06ZM414.55 127.764C414.35 127.764 414.194 127.712 414.082 127.608C413.97 127.496 413.914 127.348 413.914 127.164C413.914 126.972 413.97 126.828 414.082 126.732C414.194 126.628 414.35 126.576 414.55 126.576C414.758 126.576 414.914 126.628 415.018 126.732C415.13 126.828 415.186 126.972 415.186 127.164C415.186 127.348 415.13 127.496 415.018 127.608C414.914 127.712 414.758 127.764 414.55 127.764ZM417.327 135.048C417.127 135.048 416.967 134.988 416.847 134.868C416.727 134.74 416.667 134.58 416.667 134.388C416.667 134.196 416.727 134.04 416.847 133.92C416.967 133.792 417.127 133.728 417.327 133.728C417.527 133.728 417.683 133.792 417.795 133.92C417.915 134.04 417.975 134.196 417.975 134.388C417.975 134.58 417.915 134.74 417.795 134.868C417.683 134.988 417.527 135.048 417.327 135.048ZM417.327 130.44C417.127 130.44 416.967 130.376 416.847 130.248C416.727 130.12 416.667 129.964 416.667 129.78C416.667 129.58 416.727 129.42 416.847 129.3C416.967 129.18 417.127 129.12 417.327 129.12C417.527 129.12 417.683 129.18 417.795 129.3C417.915 129.42 417.975 129.58 417.975 129.78C417.975 129.964 417.915 130.12 417.795 130.248C417.683 130.376 417.527 130.44 417.327 130.44ZM425.551 135.108C425.095 135.108 424.639 135.04 424.183 134.904C423.735 134.768 423.327 134.556 422.959 134.268C422.863 134.204 422.799 134.128 422.767 134.04C422.735 133.952 422.731 133.864 422.755 133.776C422.779 133.688 422.823 133.616 422.887 133.56C422.951 133.496 423.027 133.46 423.115 133.452C423.211 133.444 423.311 133.476 423.415 133.548C423.743 133.78 424.083 133.952 424.435 134.064C424.787 134.176 425.155 134.232 425.539 134.232C425.931 134.232 426.267 134.16 426.547 134.016C426.835 133.864 427.051 133.656 427.195 133.392C427.347 133.12 427.423 132.804 427.423 132.444C427.423 131.892 427.263 131.44 426.943 131.088C426.623 130.736 426.183 130.56 425.623 130.56C425.279 130.56 424.963 130.624 424.675 130.752C424.387 130.88 424.123 131.084 423.883 131.364C423.827 131.428 423.759 131.484 423.679 131.532C423.607 131.572 423.523 131.592 423.427 131.592C423.291 131.592 423.183 131.556 423.103 131.484C423.031 131.404 422.995 131.3 422.995 131.172V126.996C422.995 126.844 423.035 126.732 423.115 126.66C423.195 126.58 423.307 126.54 423.451 126.54H427.531C427.683 126.54 427.795 126.576 427.867 126.648C427.947 126.72 427.987 126.824 427.987 126.96C427.987 127.096 427.947 127.2 427.867 127.272C427.795 127.344 427.683 127.38 427.531 127.38H423.967V130.752H423.703C423.911 130.416 424.199 130.16 424.567 129.984C424.935 129.8 425.347 129.708 425.803 129.708C426.339 129.708 426.799 129.82 427.183 130.044C427.575 130.268 427.875 130.584 428.083 130.992C428.299 131.392 428.407 131.86 428.407 132.396C428.407 132.924 428.291 133.392 428.059 133.8C427.827 134.208 427.499 134.528 427.075 134.76C426.651 134.992 426.143 135.108 425.551 135.108ZM430.455 136.14C430.375 136.244 430.291 136.304 430.203 136.32C430.115 136.336 430.039 136.32 429.975 136.272C429.911 136.224 429.875 136.156 429.867 136.068C429.867 135.98 429.907 135.884 429.987 135.78C430.115 135.612 430.203 135.44 430.251 135.264C430.299 135.096 430.323 134.94 430.323 134.796L430.371 135.048C430.163 135.048 429.995 134.988 429.867 134.868C429.747 134.74 429.687 134.58 429.687 134.388C429.687 134.196 429.743 134.04 429.855 133.92C429.975 133.792 430.131 133.728 430.323 133.728C430.531 133.728 430.695 133.8 430.815 133.944C430.935 134.08 430.995 134.28 430.995 134.544C430.995 134.712 430.979 134.884 430.947 135.06C430.915 135.244 430.859 135.428 430.779 135.612C430.699 135.796 430.591 135.972 430.455 136.14ZM433.245 135C433.069 135 432.937 134.96 432.849 134.88C432.769 134.792 432.729 134.676 432.729 134.532C432.729 134.444 432.749 134.36 432.789 134.28C432.837 134.192 432.901 134.104 432.981 134.016L435.669 131.136C436.077 130.696 436.369 130.292 436.545 129.924C436.729 129.548 436.821 129.168 436.821 128.784C436.821 128.304 436.673 127.94 436.377 127.692C436.089 127.436 435.665 127.308 435.105 127.308C434.745 127.308 434.405 127.364 434.085 127.476C433.765 127.588 433.457 127.76 433.161 127.992C433.057 128.072 432.961 128.108 432.873 128.1C432.793 128.092 432.721 128.06 432.657 128.004C432.593 127.948 432.549 127.876 432.525 127.788C432.501 127.7 432.501 127.612 432.525 127.524C432.557 127.436 432.621 127.356 432.717 127.284C433.029 127.028 433.405 126.824 433.845 126.672C434.285 126.512 434.733 126.432 435.189 126.432C435.757 126.432 436.237 126.52 436.629 126.696C437.021 126.872 437.317 127.132 437.517 127.476C437.717 127.812 437.817 128.224 437.817 128.712C437.817 129.048 437.761 129.38 437.649 129.708C437.545 130.028 437.381 130.356 437.157 130.692C436.941 131.028 436.657 131.376 436.305 131.736L433.749 134.436V134.16H437.793C437.945 134.16 438.057 134.196 438.129 134.268C438.209 134.332 438.249 134.432 438.249 134.568C438.249 134.712 438.209 134.82 438.129 134.892C438.057 134.964 437.945 135 437.793 135H433.245ZM442.673 135.108C442.217 135.108 441.761 135.04 441.305 134.904C440.857 134.768 440.449 134.556 440.081 134.268C439.985 134.204 439.921 134.128 439.889 134.04C439.857 133.952 439.853 133.864 439.877 133.776C439.901 133.688 439.945 133.616 440.009 133.56C440.073 133.496 440.149 133.46 440.237 133.452C440.333 133.444 440.433 133.476 440.537 133.548C440.865 133.78 441.205 133.952 441.557 134.064C441.909 134.176 442.277 134.232 442.661 134.232C443.053 134.232 443.389 134.16 443.669 134.016C443.957 133.864 444.173 133.656 444.317 133.392C444.469 133.12 444.545 132.804 444.545 132.444C444.545 131.892 444.385 131.44 444.065 131.088C443.745 130.736 443.305 130.56 442.745 130.56C442.401 130.56 442.085 130.624 441.797 130.752C441.509 130.88 441.245 131.084 441.005 131.364C440.949 131.428 440.881 131.484 440.801 131.532C440.729 131.572 440.645 131.592 440.549 131.592C440.413 131.592 440.305 131.556 440.225 131.484C440.153 131.404 440.117 131.3 440.117 131.172V126.996C440.117 126.844 440.157 126.732 440.237 126.66C440.317 126.58 440.429 126.54 440.573 126.54H444.653C444.805 126.54 444.917 126.576 444.989 126.648C445.069 126.72 445.109 126.824 445.109 126.96C445.109 127.096 445.069 127.2 444.989 127.272C444.917 127.344 444.805 127.38 444.653 127.38H441.089V130.752H440.825C441.033 130.416 441.321 130.16 441.689 129.984C442.057 129.8 442.469 129.708 442.925 129.708C443.461 129.708 443.921 129.82 444.305 130.044C444.697 130.268 444.997 130.584 445.205 130.992C445.421 131.392 445.529 131.86 445.529 132.396C445.529 132.924 445.413 133.392 445.181 133.8C444.949 134.208 444.621 134.528 444.197 134.76C443.773 134.992 443.265 135.108 442.673 135.108ZM449.976 135.108C449.312 135.108 448.744 134.948 448.272 134.628C447.808 134.3 447.456 133.828 447.216 133.212C446.976 132.596 446.856 131.852 446.856 130.98C446.856 130.244 446.932 129.596 447.084 129.036C447.236 128.476 447.46 128.004 447.756 127.62C448.052 127.228 448.412 126.932 448.836 126.732C449.26 126.532 449.74 126.432 450.276 126.432C450.644 126.432 451.02 126.504 451.404 126.648C451.796 126.792 452.14 126.996 452.436 127.26C452.524 127.324 452.576 127.404 452.592 127.5C452.616 127.588 452.616 127.676 452.592 127.764C452.568 127.844 452.524 127.912 452.46 127.968C452.404 128.024 452.332 128.056 452.244 128.064C452.156 128.064 452.064 128.028 451.968 127.956C451.696 127.724 451.416 127.56 451.128 127.464C450.84 127.36 450.548 127.308 450.252 127.308C449.732 127.308 449.288 127.436 448.92 127.692C448.56 127.948 448.284 128.336 448.092 128.856C447.908 129.368 447.816 130.012 447.816 130.788V131.904H447.708C447.756 131.448 447.888 131.056 448.104 130.728C448.328 130.392 448.612 130.136 448.956 129.96C449.3 129.784 449.688 129.696 450.12 129.696C450.616 129.696 451.056 129.808 451.44 130.032C451.824 130.256 452.124 130.572 452.34 130.98C452.556 131.38 452.664 131.84 452.664 132.36C452.664 132.888 452.552 133.36 452.328 133.776C452.104 134.192 451.788 134.52 451.38 134.76C450.972 134.992 450.504 135.108 449.976 135.108ZM449.916 134.268C450.268 134.268 450.58 134.192 450.852 134.04C451.124 133.88 451.336 133.66 451.488 133.38C451.64 133.092 451.716 132.764 451.716 132.396C451.716 132.028 451.64 131.704 451.488 131.424C451.336 131.144 451.124 130.924 450.852 130.764C450.58 130.604 450.268 130.524 449.916 130.524C449.564 130.524 449.252 130.604 448.98 130.764C448.708 130.924 448.496 131.144 448.344 131.424C448.192 131.704 448.116 132.028 448.116 132.396C448.116 132.764 448.192 133.092 448.344 133.38C448.496 133.66 448.708 133.88 448.98 134.04C449.252 134.192 449.564 134.268 449.916 134.268ZM454.771 136.14C454.691 136.244 454.607 136.304 454.519 136.32C454.431 136.336 454.355 136.32 454.291 136.272C454.227 136.224 454.191 136.156 454.183 136.068C454.183 135.98 454.223 135.884 454.303 135.78C454.431 135.612 454.519 135.44 454.567 135.264C454.615 135.096 454.639 134.94 454.639 134.796L454.687 135.048C454.479 135.048 454.311 134.988 454.183 134.868C454.063 134.74 454.003 134.58 454.003 134.388C454.003 134.196 454.059 134.04 454.171 133.92C454.291 133.792 454.447 133.728 454.639 133.728C454.847 133.728 455.011 133.8 455.131 133.944C455.251 134.08 455.311 134.28 455.311 134.544C455.311 134.712 455.295 134.884 455.263 135.06C455.231 135.244 455.175 135.428 455.095 135.612C455.015 135.796 454.907 135.972 454.771 136.14ZM459.794 135.108C459.338 135.108 458.882 135.04 458.426 134.904C457.978 134.768 457.57 134.556 457.202 134.268C457.106 134.204 457.042 134.128 457.01 134.04C456.978 133.952 456.974 133.864 456.998 133.776C457.022 133.688 457.066 133.616 457.13 133.56C457.194 133.496 457.27 133.46 457.358 133.452C457.454 133.444 457.554 133.476 457.658 133.548C457.986 133.78 458.326 133.952 458.678 134.064C459.03 134.176 459.398 134.232 459.782 134.232C460.174 134.232 460.51 134.16 460.79 134.016C461.078 133.864 461.294 133.656 461.438 133.392C461.59 133.12 461.666 132.804 461.666 132.444C461.666 131.892 461.506 131.44 461.186 131.088C460.866 130.736 460.426 130.56 459.866 130.56C459.522 130.56 459.206 130.624 458.918 130.752C458.63 130.88 458.366 131.084 458.126 131.364C458.07 131.428 458.002 131.484 457.922 131.532C457.85 131.572 457.766 131.592 457.67 131.592C457.534 131.592 457.426 131.556 457.346 131.484C457.274 131.404 457.238 131.3 457.238 131.172V126.996C457.238 126.844 457.278 126.732 457.358 126.66C457.438 126.58 457.55 126.54 457.694 126.54H461.774C461.926 126.54 462.038 126.576 462.11 126.648C462.19 126.72 462.23 126.824 462.23 126.96C462.23 127.096 462.19 127.2 462.11 127.272C462.038 127.344 461.926 127.38 461.774 127.38H458.21V130.752H457.946C458.154 130.416 458.442 130.16 458.81 129.984C459.178 129.8 459.59 129.708 460.046 129.708C460.582 129.708 461.042 129.82 461.426 130.044C461.818 130.268 462.118 130.584 462.326 130.992C462.542 131.392 462.65 131.86 462.65 132.396C462.65 132.924 462.534 133.392 462.302 133.8C462.07 134.208 461.742 134.528 461.318 134.76C460.894 134.992 460.386 135.108 459.794 135.108ZM466.221 135.108C465.861 135.108 465.485 135.036 465.093 134.892C464.701 134.748 464.357 134.54 464.061 134.268C463.973 134.204 463.917 134.128 463.893 134.04C463.877 133.952 463.881 133.868 463.905 133.788C463.929 133.7 463.969 133.628 464.025 133.572C464.089 133.508 464.165 133.476 464.253 133.476C464.341 133.468 464.433 133.5 464.529 133.572C464.801 133.804 465.081 133.972 465.369 134.076C465.657 134.18 465.949 134.232 466.245 134.232C466.765 134.232 467.205 134.104 467.565 133.848C467.933 133.592 468.209 133.204 468.393 132.684C468.585 132.164 468.681 131.52 468.681 130.752V129.636H468.789C468.741 130.084 468.605 130.476 468.381 130.812C468.165 131.148 467.885 131.404 467.541 131.58C467.197 131.756 466.809 131.844 466.377 131.844C465.881 131.844 465.441 131.732 465.057 131.508C464.673 131.284 464.373 130.968 464.157 130.56C463.941 130.152 463.833 129.692 463.833 129.18C463.833 128.644 463.945 128.172 464.169 127.764C464.401 127.348 464.717 127.024 465.117 126.792C465.525 126.552 465.993 126.432 466.521 126.432C467.185 126.432 467.749 126.596 468.213 126.924C468.685 127.244 469.041 127.712 469.281 128.328C469.521 128.944 469.641 129.688 469.641 130.56C469.641 131.296 469.565 131.944 469.413 132.504C469.261 133.064 469.037 133.54 468.741 133.932C468.445 134.316 468.085 134.608 467.661 134.808C467.237 135.008 466.757 135.108 466.221 135.108ZM466.581 131.016C466.941 131.016 467.257 130.936 467.529 130.776C467.801 130.616 468.013 130.396 468.165 130.116C468.317 129.828 468.393 129.5 468.393 129.132C468.393 128.764 468.317 128.44 468.165 128.16C468.013 127.88 467.801 127.66 467.529 127.5C467.257 127.34 466.941 127.26 466.581 127.26C466.229 127.26 465.917 127.34 465.645 127.5C465.381 127.66 465.169 127.88 465.009 128.16C464.857 128.44 464.781 128.764 464.781 129.132C464.781 129.5 464.857 129.828 465.009 130.116C465.169 130.396 465.381 130.616 465.645 130.776C465.917 130.936 466.229 131.016 466.581 131.016ZM474.004 135.108C473.372 135.108 472.828 135.016 472.372 134.832C471.924 134.648 471.58 134.38 471.34 134.028C471.108 133.676 470.992 133.252 470.992 132.756C470.992 132.364 471.072 132.016 471.232 131.712C471.392 131.4 471.616 131.148 471.904 130.956C472.192 130.764 472.524 130.644 472.9 130.596V130.776C472.38 130.664 471.964 130.42 471.652 130.044C471.348 129.66 471.196 129.208 471.196 128.688C471.196 128.208 471.308 127.804 471.532 127.476C471.764 127.14 472.092 126.884 472.516 126.708C472.94 126.524 473.436 126.432 474.004 126.432C474.58 126.432 475.076 126.524 475.492 126.708C475.916 126.884 476.244 127.14 476.476 127.476C476.708 127.804 476.824 128.208 476.824 128.688C476.824 129.032 476.752 129.352 476.608 129.648C476.472 129.936 476.276 130.176 476.02 130.368C475.764 130.56 475.464 130.692 475.12 130.764V130.596C475.688 130.676 476.144 130.912 476.488 131.304C476.84 131.688 477.016 132.172 477.016 132.756C477.016 133.252 476.896 133.676 476.656 134.028C476.424 134.38 476.08 134.648 475.624 134.832C475.176 135.016 474.636 135.108 474.004 135.108ZM474.004 134.292C474.684 134.292 475.196 134.16 475.54 133.896C475.892 133.632 476.068 133.232 476.068 132.696C476.068 132.168 475.892 131.776 475.54 131.52C475.196 131.256 474.684 131.124 474.004 131.124C473.332 131.124 472.82 131.256 472.468 131.52C472.116 131.776 471.94 132.168 471.94 132.696C471.94 133.232 472.116 133.632 472.468 133.896C472.82 134.16 473.332 134.292 474.004 134.292ZM474.004 130.308C474.396 130.308 474.728 130.248 475 130.128C475.28 130 475.496 129.82 475.648 129.588C475.8 129.356 475.876 129.084 475.876 128.772C475.876 128.292 475.708 127.92 475.372 127.656C475.044 127.384 474.588 127.248 474.004 127.248C473.42 127.248 472.964 127.384 472.636 127.656C472.308 127.92 472.144 128.292 472.144 128.772C472.144 129.252 472.308 129.628 472.636 129.9C472.964 130.172 473.42 130.308 474.004 130.308Z" fill="white"/>
<defs>
<filter id="filter0_d_732_17322" x="433" y="149" width="16" height="16" filterUnits="userSpaceOnUse" color-interpolation-filters="sRGB">
<feFlood flood-opacity="0" result="BackgroundImageFix"/>
<feColorMatrix in="SourceAlpha" type="matrix" values="0 0 0 0 0 0 0 0 0 0 0 0 0 0 0 0 0 0 127 0" result="hardAlpha"/>
<feOffset dy="2"/>
<feGaussianBlur stdDeviation="1"/>
<feComposite in2="hardAlpha" operator="out"/>
<feColorMatrix type="matrix" values="0 0 0 0 0 0 0 0 0 0 0 0 0 0 0 0 0 0 0.1 0"/>
<feBlend mode="normal" in2="BackgroundImageFix" result="effect1_dropShadow_732_17322"/>
<feBlend mode="normal" in="SourceGraphic" in2="effect1_dropShadow_732_17322" result="shape"/>
</filter>
</defs>
</svg>
