<svg width="24" height="24" viewBox="0 0 24 24" fill="none" xmlns="http://www.w3.org/2000/svg">
<path fill-rule="evenodd" clip-rule="evenodd" d="M14.8235 17.6762V18.8824H16.0015C16.6504 18.8824 17.1765 18.3583 17.1765 17.7074V7.70589H14.2388C13.5871 7.70589 13.0588 7.18429 13.0588 6.53053V3H7.18149C6.52897 3 6 3.52843 6 4.18078V17.7016C6 18.3537 6.52407 18.8824 7.17495 18.8824H11.8824V17.6762C11.5185 17.3048 11.2941 16.7963 11.2941 16.2353C11.2941 15.0982 12.2159 14.1765 13.3529 14.1765C14.49 14.1765 15.4118 15.0982 15.4118 16.2353C15.4118 16.7963 15.1874 17.3048 14.8235 17.6762ZM12.4706 18.096V21L13.3529 20.1177L14.2353 21V18.096C13.9679 18.223 13.6687 18.2941 13.3529 18.2941C13.0372 18.2941 12.738 18.223 12.4706 18.096ZM13.6471 3V6.52769C13.6471 6.85352 13.9123 7.11765 14.2299 7.11765H17.1765L13.6471 3ZM7.76471 7.11765V7.70589H11.8824V7.11765H7.76471ZM7.76471 5.35294V5.94118H11.8824V5.35294H7.76471ZM7.76471 8.88236V9.47059H15.4118V8.88236H7.76471ZM7.76471 10.6471V11.2353H15.4118V10.6471H7.76471ZM7.76471 12.4118V13H15.4118V12.4118H7.76471ZM13.3529 17.7059C14.1651 17.7059 14.8235 17.0475 14.8235 16.2353C14.8235 15.4231 14.1651 14.7647 13.3529 14.7647C12.5408 14.7647 11.8824 15.4231 11.8824 16.2353C11.8824 17.0475 12.5408 17.7059 13.3529 17.7059Z" fill="black"/>
</svg>
