<svg width="384" height="413" viewBox="0 0 384 413" fill="none" xmlns="http://www.w3.org/2000/svg">
<path d="M309.72 369.45C290.99 357.19 286.24 333.72 286.44 312.52C286.44 308.98 285.99 305.26 287.62 302.12C289.25 298.98 293.18 296.76 296.42 298.18C299.11 299.35 300.35 302.37 301.9 304.87C303.982 308.198 306.959 310.874 310.49 312.59C312.8 313.7 315.64 314.35 317.87 313.07C320.92 311.31 321.18 307.07 321.07 303.57C320.87 297.024 320.666 290.47 320.46 283.91C320.35 280.39 320.25 276.8 321.28 273.44C322.31 270.08 324.68 266.91 328.05 265.9C331.42 264.89 335.65 266.71 336.45 270.13C336.625 271.583 336.695 273.047 336.66 274.51C336.8 275.97 337.53 277.57 338.94 277.94C340.35 278.31 341.78 277.29 342.82 276.23C346.41 272.59 348.82 267.96 351.01 263.35C353.2 258.74 355.38 254.04 358.62 250.08C361.86 246.12 366.41 242.95 371.5 242.54C376.59 242.13 382.12 245.12 383.5 250.03C384.88 254.94 382.1 260.03 379.01 264.15C374.422 270.241 368.972 275.631 362.83 280.15C361.638 280.843 360.693 281.892 360.13 283.15C359.42 285.51 361.73 287.79 364.13 288.5C366.81 289.31 369.68 288.97 372.47 289.23C375.26 289.49 378.3 290.62 379.41 293.23C380.96 296.79 378 300.63 375.07 303.17C369.172 308.274 362.445 312.332 355.18 315.17C352.58 316.17 349.85 317.08 347.78 318.94C345.71 320.8 344.51 324 345.85 326.45C347.19 328.9 350.48 329.61 353.22 329.05C355.96 328.49 358.37 326.95 360.96 325.91C365.82 323.97 372.15 324.15 375.39 328.25C377.52 330.95 377.79 334.77 376.83 338.07C375.708 341.328 373.943 344.328 371.64 346.89C364.073 356.304 354.151 363.549 342.88 367.89C331.62 372.05 321.12 373.35 309.73 369.55" fill="#F0F0F0"/>
<path d="M378.259 245.33C378.259 245.33 378.149 245.45 377.919 245.67L376.919 246.62C375.999 247.45 374.649 248.68 372.919 250.32C368.128 254.914 363.692 259.865 359.649 265.13C357.069 268.45 354.399 272.21 351.649 276.29C348.899 280.37 345.929 284.77 343.009 289.5C339.923 294.422 337.108 299.51 334.579 304.74C333.269 307.47 332.109 310.31 330.929 313.21C329.749 316.11 328.569 319.05 327.359 322.02C322.764 333.175 318.801 344.579 315.489 356.18C312.83 365.658 311.082 375.369 310.269 385.18C309.739 391.799 309.796 398.451 310.439 405.06C310.689 407.39 310.919 409.21 311.119 410.43C311.209 411.02 311.269 411.49 311.319 411.82C311.369 412.15 311.379 412.3 311.379 412.3C311.379 412.3 310.789 409.76 310.229 405.08C309.513 398.461 309.399 391.79 309.889 385.15C310.657 375.304 312.375 365.555 315.019 356.04C318.303 344.411 322.256 332.982 326.859 321.81C328.073 318.843 329.263 315.907 330.429 313C331.609 310.11 332.779 307.24 334.099 304.51C336.639 299.262 339.47 294.161 342.579 289.23C345.519 284.5 348.479 280.12 351.279 276.03C354.079 271.94 356.779 268.21 359.379 264.89C363.46 259.633 367.951 254.708 372.809 250.16C374.519 248.55 375.899 247.34 376.809 246.53L377.879 245.62C378.129 245.42 378.259 245.33 378.259 245.33Z" fill="#E0E0E0"/>
<path d="M334.2 304.47C334.036 303.982 333.915 303.48 333.84 302.97C333.64 301.97 333.38 300.59 333.1 298.85C332.52 295.35 331.88 290.51 331.18 285.16C330.48 279.81 329.77 274.99 329.11 271.52C328.79 269.78 328.51 268.38 328.31 267.41C328.175 266.917 328.088 266.411 328.05 265.9C328.246 266.373 328.4 266.861 328.51 267.36C328.78 268.36 329.11 269.71 329.51 271.44C330.26 274.9 331.05 279.74 331.74 285.09C332.43 290.44 333.03 295.19 333.5 298.79C333.73 300.47 333.92 301.86 334.07 302.93C334.164 303.438 334.207 303.954 334.2 304.47Z" fill="#E0E0E0"/>
<path d="M379.81 294.92C379.659 294.975 379.5 295.005 379.34 295.01L377.99 295.16C376.81 295.28 375.11 295.45 372.99 295.74C368.8 296.27 363.04 297.23 356.74 298.55C350.44 299.87 344.79 301.35 340.74 302.55C338.74 303.13 337.08 303.64 335.95 303.99L334.65 304.38C334.498 304.437 334.34 304.474 334.18 304.49C334.18 304.49 334.32 304.4 334.61 304.28L335.88 303.79C336.99 303.38 338.61 302.79 340.63 302.19C344.63 300.92 350.32 299.4 356.63 298.05C362.94 296.7 368.73 295.83 372.94 295.39C375.05 295.15 376.76 295.03 377.94 294.97L379.3 294.92C379.469 294.896 379.641 294.896 379.81 294.92Z" fill="#E0E0E0"/>
<path d="M315.49 355.19C315.369 355.017 315.266 354.833 315.18 354.64C314.97 354.22 314.7 353.64 314.36 353.02C313.66 351.61 312.7 349.54 311.54 347.02C309.21 341.89 306.21 334.7 303.01 326.73C299.81 318.76 296.86 311.56 294.63 306.39L291.95 300.29C291.66 299.61 291.42 299.06 291.23 298.63C291.133 298.44 291.059 298.238 291.01 298.03C291.141 298.198 291.249 298.383 291.33 298.58L292.14 300.2C292.84 301.61 293.81 303.68 294.97 306.2C297.3 311.33 300.29 318.52 303.5 326.49C306.71 334.46 309.64 341.66 311.88 346.82C312.99 349.36 313.88 351.43 314.55 352.93C314.85 353.61 315.09 354.16 315.27 354.59C315.366 354.781 315.44 354.982 315.49 355.19Z" fill="#E0E0E0"/>
<path d="M375.88 334.37C375.69 334.476 375.489 334.56 375.28 334.62L373.52 335.23L367.05 337.46C361.58 339.34 354.05 342.03 345.77 345.03C337.49 348.03 329.93 350.67 324.43 352.46C321.68 353.36 319.43 354.06 317.9 354.52L316.11 355.04C315.904 355.118 315.689 355.169 315.47 355.19C315.665 355.088 315.869 355.004 316.08 354.94L317.83 354.32L324.31 352.1C329.77 350.22 337.31 347.52 345.59 344.53C353.87 341.54 361.43 338.89 366.93 337.1C369.68 336.2 371.93 335.5 373.46 335.04L375.25 334.52C375.453 334.444 375.664 334.393 375.88 334.37Z" fill="#E0E0E0"/>
<path d="M61.1895 216.06L78.1495 265.61H154.929L154.359 263.06L123.319 262.1L109.009 216.04L61.1895 216.06Z" fill="#E6E6E6"/>
<path d="M95.2195 239.34C95.7195 241.34 94.8496 243.34 93.2696 243.78C91.6896 244.22 89.9995 242.9 89.4995 240.87C88.9995 238.84 89.8595 236.87 91.4395 236.42C93.0195 235.97 94.7095 237.31 95.2195 239.34Z" fill="white"/>
<path d="M231.79 323.26L257.3 410.84H260.37L240.79 322.96L231.79 323.26Z" fill="#EBEBEB"/>
<path d="M184.92 323.7L165.17 410.81H168.67L195.11 323.67L184.92 323.7Z" fill="#EBEBEB"/>
<path d="M208.03 321.69L211.06 410.81H215.2L217.02 322.04L208.03 321.69Z" fill="#EBEBEB"/>
<path d="M184 358.97L243.24 357.11L243.64 363.25L179.56 365.7L184 358.97Z" fill="#EBEBEB"/>
<path d="M184.889 323.67L183.979 328.18H193.779L195.009 323.67H184.889Z" fill="#E0E0E0"/>
<path d="M208.01 321.94L208.22 328.18H216.91L217.02 323.03L208.01 321.94Z" fill="#E0E0E0"/>
<path d="M209.26 358.18L209.48 364.56L204.88 364.73L203.38 358.36L209.26 358.18Z" fill="#E0E0E0"/>
<path d="M216.29 357.84L216.15 364.32L219.75 364.18L220.58 357.84H216.29Z" fill="#E0E0E0"/>
<path d="M231.4 321.94L232.71 326.45H241.56L240.59 322.07L231.4 321.94Z" fill="#E0E0E0"/>
<path d="M165.27 317.52C173.7 313.39 207.75 315.61 207.75 315.61C207.75 315.61 198.13 196.27 210.56 195.32C222.99 194.37 251.15 185.41 256.22 203.46C261.56 222.46 254.35 323.82 247.22 322.84C230.98 320.6 180.88 326.4 165.8 322.84C161.92 321.98 165.27 317.52 165.27 317.52Z" fill="#F0F0F0"/>
<path d="M245.49 205.52C245.55 205.52 245.79 205.82 246.2 206.52C246.41 206.85 246.63 207.27 246.89 207.77C247.15 208.27 247.43 208.87 247.72 209.54C249.295 213.394 250.286 217.462 250.66 221.61C251.196 227.707 251.363 233.832 251.16 239.95C251.04 246.85 250.62 254.43 250 262.35C249.38 270.27 248.61 277.82 247.9 284.66C247.19 291.5 246.49 297.66 245.53 302.84C244.815 306.916 243.775 310.929 242.42 314.84C241.992 316.296 241.377 317.691 240.59 318.99C240.882 317.51 241.28 316.053 241.78 314.63C242.868 310.685 243.713 306.677 244.31 302.63C245.11 297.51 245.68 291.36 246.31 284.51C246.94 277.66 247.65 270.12 248.31 262.22C248.97 254.32 249.4 246.78 249.6 239.91C249.877 233.848 249.837 227.777 249.48 221.72C249.217 217.655 248.43 213.642 247.14 209.78C246.15 206.98 245.38 205.59 245.49 205.52Z" fill="#E0E0E0"/>
<path d="M239.15 318.78C239.05 319.28 231.31 318.06 221.71 317.29C212.11 316.52 204.27 316.44 204.25 315.93C204.23 315.42 212.13 314.75 221.85 315.56C231.57 316.37 239.25 318.34 239.15 318.78Z" fill="#E0E0E0"/>
<path d="M292.64 264.88H20.4297V273.8H292.64V264.88Z" fill="#E6E6E6"/>
<path d="M41.7097 273.8L20.4297 410.73L31.0697 410.92L67.5997 273.8H41.7097Z" fill="#EBEBEB"/>
<path d="M272.82 272.32L285.26 410.84H275.35L248.5 278.06L247.1 268.2L272.82 272.32Z" fill="#EBEBEB"/>
<path d="M247.89 273.8L248.88 279.96L273.42 279.04L272.95 273.8H247.89Z" fill="#E0E0E0"/>
<path d="M41.7095 273.8L40.7095 280.11L66.0695 279.4L67.5995 273.8H41.7095Z" fill="#E0E0E0"/>
<path d="M30.3298 266.12V255.44L35.7098 254.25L30.3298 250.92V240.82H87.7198V246.88H90.9698C90.4398 247.48 91.9698 248.21 91.3198 248.46C90.1598 248.89 87.3198 249.56 87.3198 249.56L88.0298 253.77L84.8098 254.49L89.1098 257.49L89.8298 265.49L30.2798 266.71" fill="#E0E0E0"/>
<path d="M25.0898 266.12V255.44L30.4898 254.25L25.1098 250.92V240.82H82.4898V246.88H85.7299C85.1999 247.48 86.7798 248.21 86.0798 248.46C84.9198 248.89 82.0798 249.56 82.0798 249.56L82.7998 253.77L79.5698 254.49L83.8699 257.49L84.5899 265.49L25.0898 266.67" fill="#F0F0F0"/>
<path d="M293.68 250.98C292.353 249.997 290.715 249.528 289.07 249.66C289.07 248.77 289.07 248.22 289.07 248.22H263.9C263.9 248.22 263.11 264.82 275.82 265.41C281.51 265.67 284.77 263.12 286.63 259.91C287.564 260.132 288.52 260.25 289.48 260.26C290.899 260.324 292.301 259.931 293.48 259.14C294.117 258.637 294.622 257.986 294.951 257.243C295.281 256.501 295.424 255.69 295.37 254.88C295.4 254.144 295.264 253.411 294.972 252.736C294.679 252.061 294.237 251.46 293.68 250.98ZM291.96 257.15C290.89 257.95 288.96 257.83 287.71 257.61C288.346 255.848 288.759 254.014 288.94 252.15C290.039 252.014 291.15 252.269 292.08 252.87C292.35 253.124 292.56 253.436 292.693 253.782C292.826 254.128 292.88 254.5 292.85 254.87C292.889 255.285 292.829 255.704 292.674 256.092C292.519 256.48 292.274 256.825 291.96 257.1V257.15Z" fill="#F0F0F0"/>
<path d="M115.25 134.9L102.69 122.77H36.4297V83.0996L129.89 81.0996V121.98H113.49L115.25 134.9ZM37.4297 121.77H103.09L113.87 132.18L112.34 120.98H128.89V82.1596L37.4297 84.0796V121.77Z" fill="#E0E0E0"/>
<path d="M79.9795 93.0898H48.7495V96.7498H79.9795V93.0898Z" fill="#E0E0E0"/>
<path d="M118.35 101.46H48.7495V105.12H118.35V101.46Z" fill="#E0E0E0"/>
<path d="M118.35 108.72H48.7495V112.38H118.35V108.72Z" fill="#E0E0E0"/>
<path d="M81.5996 3.8L83.4996 55.35H161.33L232.87 31.37V0L81.5996 3.8Z" fill="#E0E0E0"/>
<path d="M161.72 24.9202L162.35 67.1902H228.49C228.49 67.1902 234.88 96.5802 234.91 94.9702C234.94 93.3602 242.99 66.7902 242.99 66.7902L328.34 65.9902V22.9102L161.72 24.9202Z" fill="#F0F0F0"/>
<path d="M310.4 39.2402H179.61V43.3802H310.4V39.2402Z" fill="white"/>
<path d="M310.4 48.9805H179.61V53.1205H310.4V48.9805Z" fill="white"/>
<path d="M334 411.05C334 411.19 259.23 411.31 167 411.31C74.77 411.31 0 411.19 0 411.05C0 410.91 74.75 410.79 167 410.79C259.25 410.79 334 410.9 334 411.05Z" fill="#263238"/>
<path d="M82.9303 277.88C77.2603 278.79 74.7303 285.75 75.2303 291.46C75.7303 297.17 78.0703 302.77 77.4403 308.46C76.6403 315.7 71.1703 321.82 70.5303 329.08C69.7803 337.64 75.8303 345.23 77.6403 353.63C78.5203 357.72 78.4003 362.04 79.9203 365.93C81.2167 369.244 83.622 372.005 86.7264 373.745C89.8308 375.484 93.4422 376.093 96.9452 375.467C100.448 374.842 103.626 373.022 105.937 370.316C108.249 367.611 109.55 364.188 109.62 360.63C109.75 354.06 105.69 347.87 106.19 341.31C106.55 336.47 109.39 331.88 108.78 327.05C108.06 321.32 102.78 317.25 100.87 311.78C98.9604 306.31 100.79 300.28 100.15 294.53C98.9903 284.22 93.2703 277.04 82.9303 277.87" fill="#3E51FF"/>
<path d="M54.0003 327.79C53.0003 337.34 57.2603 348.58 62.1803 356.79C67.1502 365.094 74.6401 371.596 83.5603 375.35C84.5603 375.77 85.8003 376.12 86.6403 375.44C86.9403 375.113 87.1654 374.724 87.3001 374.301C87.4348 373.878 87.4758 373.431 87.4203 372.99C87.4941 362.849 84.2765 352.957 78.2506 344.8C72.2246 336.643 63.7154 330.66 54.0003 327.75" fill="#3E51FF"/>
<path opacity="0.2" d="M54.0003 327.79C53.0003 337.34 57.2603 348.58 62.1803 356.79C67.1502 365.094 74.6401 371.596 83.5603 375.35C84.5603 375.77 85.8003 376.12 86.6403 375.44C86.9403 375.113 87.1654 374.724 87.3001 374.301C87.4348 373.878 87.4758 373.431 87.4203 372.99C87.4941 362.849 84.2765 352.957 78.2506 344.8C72.2246 336.643 63.7154 330.66 54.0003 327.75" fill="white"/>
<path d="M95.6104 395.36C95.5031 395.193 95.4126 395.015 95.3404 394.83C95.1604 394.42 94.9404 393.9 94.6604 393.27C94.0904 391.9 93.2304 389.94 92.1304 387.53C89.2855 381.253 86.1214 375.125 82.6504 369.17C79.163 363.224 75.3782 357.456 71.3104 351.89C69.7404 349.75 68.4504 348.04 67.5504 346.89L66.5504 345.53C66.3204 345.22 66.2004 345.05 66.2204 345.03C66.3693 345.161 66.5064 345.305 66.6304 345.46C66.9204 345.81 67.2904 346.24 67.7404 346.76C68.7404 347.89 70.0404 349.57 71.6404 351.68C75.8161 357.19 79.6596 362.943 83.1504 368.91C86.6218 374.876 89.7405 381.04 92.4904 387.37C93.5404 389.81 94.3404 391.8 94.8604 393.19C95.0904 393.84 95.2904 394.37 95.4404 394.79C95.5211 394.972 95.5782 395.164 95.6104 395.36Z" fill="#263238"/>
<path d="M89.4904 304.3C89.5539 304.603 89.5907 304.91 89.6004 305.22C89.6004 305.87 89.7104 306.74 89.7904 307.85C89.9404 310.18 90.1504 313.48 90.4104 317.53C90.9304 325.7 91.6504 336.99 92.5304 349.45C93.4104 361.91 94.2704 373.2 94.9004 381.37C95.2104 385.37 95.4604 388.7 95.6404 391.04C95.7204 392.14 95.7804 393.04 95.8204 393.67C95.847 393.976 95.847 394.284 95.8204 394.59C95.7467 394.291 95.6998 393.987 95.6804 393.68C95.6104 393.03 95.5204 392.16 95.4004 391.06L94.4904 381.4C93.7604 373.24 92.8304 361.96 91.9604 349.49C91.0904 337.02 90.4204 325.73 89.9604 317.55C89.7704 313.5 89.6204 310.2 89.5104 307.86C89.4704 306.746 89.4404 305.866 89.4204 305.22C89.4239 304.912 89.4473 304.605 89.4904 304.3Z" fill="#263238"/>
<path d="M80.6802 381.74H104.6V399.3C104.601 400.809 104.306 402.303 103.729 403.697C103.153 405.09 102.307 406.357 101.241 407.424C100.175 408.491 98.9092 409.338 97.5157 409.915C96.1222 410.493 94.6286 410.79 93.1202 410.79C90.18 410.792 87.3513 409.665 85.2172 407.643C83.0832 405.62 81.8064 402.856 81.6502 399.92L80.6802 381.74Z" fill="#263238"/>
<path d="M338.98 117.59C337.731 124.808 334.348 131.487 329.268 136.766C324.189 142.044 317.644 145.68 310.479 147.205C303.314 148.729 295.856 148.073 289.067 145.32C282.278 142.568 276.47 137.844 272.39 131.76L255.01 134.45L266.78 118.09C265.784 112.81 265.96 107.376 267.296 102.172C268.631 96.9678 271.093 92.1204 274.508 87.9724C277.923 83.8244 282.207 80.4769 287.058 78.1667C291.909 75.8564 297.208 74.6396 302.58 74.6024C307.953 74.5652 313.268 75.7085 318.151 77.9513C323.033 80.1942 327.363 83.482 330.835 87.5823C334.307 91.6826 336.836 96.4955 338.243 101.681C339.651 106.866 339.902 112.297 338.98 117.59Z" fill="#3E51FF"/>
<path d="M313.76 124.64C316.76 124.74 318.94 120.95 319.12 115.02C319.43 104.94 312.46 97.3204 302.34 97.0204C292.22 96.7204 284.44 103.88 284.13 113.91C283.84 123.53 290.9 130.77 300.77 131.07C303.429 131.097 306.055 130.487 308.43 129.29L309.02 130.65C306.449 131.962 303.605 132.647 300.72 132.65C290.02 132.32 282.35 124.39 282.67 113.9C283 102.98 291.4 95.2104 302.39 95.5404C313.22 95.8704 320.88 104.09 320.54 115.09C320.33 121.9 317.54 126.21 313.54 126.09C311.29 126.02 309.54 124.34 309.54 121.62L309.6 119.44C308.753 121.166 307.416 122.603 305.757 123.573C304.097 124.542 302.189 125 300.27 124.89C298.881 124.872 297.51 124.57 296.241 124.005C294.972 123.439 293.832 122.621 292.89 121.6C291.948 120.579 291.223 119.377 290.761 118.067C290.298 116.757 290.107 115.367 290.2 113.98C290.38 107.87 294.83 103.45 300.81 103.63C302.695 103.627 304.541 104.178 306.116 105.214C307.691 106.251 308.927 107.727 309.67 109.46L309.83 104.07L311.5 104.12L310.98 121.18C310.92 123.3 312.18 124.6 313.76 124.64ZM291.95 113.98C291.925 115.71 292.412 117.409 293.35 118.863C294.288 120.316 295.635 121.46 297.222 122.15C298.809 122.84 300.564 123.045 302.267 122.74C303.97 122.434 305.544 121.632 306.792 120.434C308.04 119.236 308.906 117.695 309.281 116.006C309.655 114.317 309.522 112.555 308.898 110.941C308.273 109.328 307.185 107.935 305.771 106.939C304.357 105.942 302.679 105.386 300.95 105.34C299.782 105.28 298.615 105.46 297.52 105.868C296.425 106.276 295.424 106.904 294.581 107.714C293.738 108.523 293.07 109.497 292.617 110.575C292.164 111.653 291.937 112.812 291.95 113.98Z" fill="white"/>
<path d="M254.6 138.75C252.81 138.21 249.6 147.82 249.1 145.36C248.6 142.9 254.38 134.05 252.49 133.56C250.03 132.92 246.87 143.05 246.54 143.88C246.21 144.71 244.99 144.27 245.32 143.53C245.81 142.47 250.66 131.17 248.25 130.53C246.91 130.17 246.49 132.63 246.49 132.63C246.49 132.63 242.73 143.53 241.6 143.19C240.47 142.85 242.45 136.36 243.27 134.19C244.09 132.02 243.41 130.84 242.18 131.25C241.34 131.54 238.65 138.02 237.89 140.15C237.13 142.28 235.12 148.15 233.75 144.46C232.38 140.77 229.92 138.46 228.82 138.26C228.564 138.25 228.311 138.319 228.095 138.458C227.88 138.597 227.713 138.8 227.618 139.038C227.523 139.276 227.503 139.537 227.563 139.787C227.622 140.036 227.757 140.261 227.95 140.43C228.795 141.465 229.492 142.613 230.02 143.84C230.483 144.807 230.78 145.845 230.9 146.91C231.16 149.047 231.21 151.204 231.05 153.35V153.95L219.19 183.41L205.98 154.41C201.75 140.35 184.28 139.77 184.28 139.77L166.96 137.98C160.7 135.57 153.71 135.98 149.82 138.2C147.379 139.646 145.273 141.594 143.641 143.914C142.009 146.234 140.887 148.874 140.35 151.66C136.35 171.28 122.47 241.54 121.35 272.31C120.642 275.659 120.114 279.044 119.77 282.45C119.43 287.78 119.91 287.82 120.53 287.75C122.22 287.57 121.53 278.39 122.79 280.27C124.05 282.15 122.38 291.61 124.13 291.35C126.49 290.98 125.49 281.38 125.49 280.56C125.49 279.74 126.65 279.69 126.63 280.43C126.63 281.49 126.55 292.67 128.8 292.36C130.04 292.19 129.53 289.98 129.53 289.98C129.53 289.98 128.8 279.52 129.87 279.4C130.94 279.28 131.59 285.4 131.65 287.5C131.71 289.6 132.72 290.36 133.65 289.58C134.25 289.04 134.2 282.66 134.09 280.58C133.98 278.5 133.56 272.88 136.02 275.49C138.48 278.1 141.36 279.19 142.35 278.94C142.568 278.857 142.756 278.708 142.886 278.514C143.016 278.321 143.083 278.091 143.078 277.857C143.072 277.624 142.995 277.398 142.855 277.21C142.716 277.023 142.522 276.883 142.3 276.81C141.225 276.24 140.233 275.527 139.35 274.69C138.638 274.055 138.034 273.308 137.56 272.48C137.41 272.21 137.29 271.96 137.15 271.71C137.53 265.86 140.97 215.6 149.83 181.16L151.49 176.87C153.23 183.87 152.19 198.19 148.49 204.38C142.42 214.64 142.9 239.85 142.9 239.85L198.76 241.98C198.76 241.98 198.33 232.71 197.84 220.87L196.6 186.05L196.74 179.38L197 178.68C199.7 182.99 203.08 188.52 207.25 195.57C221.14 219 232.86 191.11 232.86 191.11L244.73 157.53C247.753 153.317 250.547 148.944 253.1 144.43C255.73 139.19 255.26 138.98 254.6 138.75Z" fill="#E5BAAB"/>
<path d="M168.62 406.78V397.78L151.69 397.67L151.55 410.9L152.6 410.97C157.27 411.26 176.37 412.11 179.5 411.19C182.99 410.11 168.62 406.78 168.62 406.78Z" fill="#3E51FF"/>
<path d="M179.9 410.32C179.9 410.48 173.56 410.61 165.75 410.61C157.94 410.61 151.61 410.48 151.61 410.32C151.61 410.16 157.94 410.03 165.75 410.03C173.56 410.03 179.9 410.16 179.9 410.32Z" fill="#263238"/>
<path d="M168.92 408.63C168.78 408.55 168.92 408.06 169.27 407.63C169.62 407.2 170.07 406.92 170.18 407.03C170.29 407.14 170.06 407.55 169.73 407.98C169.4 408.41 169.06 408.7 168.92 408.63Z" fill="#263238"/>
<path d="M170 409.22C169.85 409.16 169.93 408.62 170.26 408.06C170.59 407.5 171.04 407.16 171.16 407.26C171.28 407.36 171.07 407.83 170.76 408.35C170.45 408.87 170.15 409.28 170 409.22Z" fill="#263238"/>
<path d="M156.71 410.26C156.64 410.31 156.39 410.07 156.02 409.67C155.568 409.145 155.066 408.666 154.52 408.24C153.984 407.844 153.359 407.586 152.7 407.49C152.19 407.42 151.86 407.49 151.83 407.41C151.8 407.33 152.11 407.12 152.71 407.08C153.485 407.056 154.244 407.3 154.86 407.77C155.455 408.222 155.961 408.782 156.35 409.42C156.64 409.89 156.77 410.21 156.71 410.26Z" fill="#263238"/>
<path d="M168.97 406.98C169.05 407.11 168.76 407.43 168.28 407.6C167.8 407.77 167.36 407.71 167.34 407.55C167.32 407.39 167.66 407.21 168.08 407.06C168.5 406.91 168.89 406.79 168.97 406.98Z" fill="#263238"/>
<path d="M168.71 406.05C168.71 406.21 168.27 406.35 167.71 406.36C167.15 406.37 166.71 406.24 166.71 406.08C166.71 405.92 167.18 405.78 167.71 405.78C168.24 405.78 168.69 405.89 168.71 406.05Z" fill="#263238"/>
<path d="M186.49 403.58L189.17 394.94L173.03 389.83L168.98 402.42L169.98 402.8C174.36 404.46 192.34 410.92 195.61 410.97C199.22 410.98 186.49 403.58 186.49 403.58Z" fill="#3E51FF"/>
<path d="M196.2 410.29C196.2 410.45 190.07 408.7 182.61 406.38C175.15 404.06 169.14 402.07 169.19 401.92C169.24 401.77 175.32 403.52 182.78 405.83C190.24 408.14 196.25 410.14 196.2 410.29Z" fill="#263238"/>
<path d="M186.22 405.43C186.11 405.31 186.37 404.89 186.86 404.54C187.35 404.19 187.86 404.1 187.86 404.24C187.86 404.38 187.59 404.7 187.14 405.02C186.69 405.34 186.33 405.54 186.22 405.43Z" fill="#263238"/>
<path d="M187.08 406.32C186.95 406.22 187.19 405.72 187.67 405.32C188.15 404.92 188.67 404.69 188.76 404.82C188.85 404.95 188.51 405.34 188.06 405.75C187.61 406.16 187.2 406.42 187.08 406.32Z" fill="#263238"/>
<path d="M174.08 403.37C174 403.37 173.83 403.1 173.59 402.6C173.315 401.969 172.98 401.366 172.59 400.8C172.197 400.259 171.674 399.826 171.07 399.54C170.61 399.32 170.27 399.29 170.27 399.2C170.27 399.11 170.62 399.01 171.21 399.15C171.955 399.364 172.606 399.822 173.06 400.45C173.488 401.055 173.803 401.732 173.99 402.45C174.12 402.98 174.15 403.35 174.08 403.37Z" fill="#263238"/>
<path d="M186.77 403.82C186.77 403.97 186.43 404.19 185.92 404.21C185.41 404.23 185.02 404.04 185.05 403.88C185.08 403.72 185.45 403.65 185.9 403.63C186.35 403.61 186.74 403.66 186.77 403.82Z" fill="#263238"/>
<path d="M186.78 402.91C186.78 403.06 186.27 403.06 185.78 402.91C185.29 402.76 184.78 402.49 184.89 402.34C185 402.19 185.42 402.2 185.94 402.34C186.46 402.48 186.81 402.75 186.78 402.91Z" fill="#263238"/>
<path d="M183.95 140.89C183.69 139.01 184.7 131.19 184.7 131.19C184.7 131.19 191.89 130.67 192.55 123.58C193.21 116.49 193.3 100.11 193.3 100.11L180.49 93.3203L165.79 103.72L161.94 111.98L166.82 129.98V139.3L183.95 140.89Z" fill="#E5BAAB"/>
<path d="M192.41 111.03C192.46 110.98 192.41 110.75 192.09 110.48C191.706 110.137 191.221 109.926 190.708 109.879C190.195 109.832 189.68 109.952 189.24 110.22C188.91 110.43 188.78 110.64 188.83 110.7C188.88 110.76 189.68 110.37 190.65 110.47C190.775 110.48 190.899 110.5 191.02 110.53C190.88 110.604 190.762 110.714 190.678 110.848C190.594 110.982 190.547 111.136 190.541 111.295C190.536 111.453 190.572 111.61 190.646 111.75C190.721 111.889 190.831 112.007 190.966 112.091C191.1 112.174 191.254 112.221 191.413 112.226C191.571 112.231 191.728 112.194 191.867 112.119C192.007 112.043 192.124 111.933 192.207 111.798C192.29 111.663 192.336 111.509 192.34 111.35C192.36 111.245 192.36 111.136 192.34 111.03C192.34 111.03 192.38 111.06 192.41 111.03Z" fill="#263238"/>
<path d="M181.56 110.69C181.62 110.64 181.56 110.4 181.25 110.14C180.867 109.793 180.384 109.579 179.87 109.53C179.353 109.485 178.835 109.604 178.39 109.87C178.07 110.08 177.94 110.29 177.99 110.35C178.04 110.41 178.83 110.03 179.81 110.12C179.969 110.137 180.126 110.167 180.28 110.21C180.157 110.268 180.048 110.354 179.963 110.46C179.878 110.566 179.818 110.69 179.787 110.823C179.757 110.956 179.757 111.094 179.788 111.227C179.819 111.359 179.879 111.483 179.965 111.589C180.051 111.695 180.159 111.78 180.283 111.838C180.406 111.896 180.541 111.925 180.677 111.923C180.813 111.921 180.947 111.889 181.069 111.827C181.191 111.766 181.297 111.678 181.38 111.57C181.469 111.443 181.525 111.296 181.54 111.142C181.556 110.987 181.532 110.832 181.47 110.69H181.56Z" fill="#263238"/>
<path d="M184.82 119.06C185.349 118.946 185.889 118.895 186.43 118.91C186.68 118.91 186.93 118.91 186.98 118.7C187.025 118.428 186.987 118.149 186.87 117.9C186.68 117.26 186.48 116.57 186.26 115.9C185.691 114.154 185.25 112.369 184.94 110.56C185.19 111.039 185.385 111.546 185.52 112.07C185.83 113.02 186.23 114.33 186.65 115.79L187.22 117.79C187.353 118.106 187.377 118.458 187.29 118.79C187.25 118.876 187.191 118.952 187.116 119.012C187.041 119.071 186.953 119.111 186.86 119.13C186.718 119.154 186.572 119.154 186.43 119.13C185.892 119.175 185.351 119.152 184.82 119.06Z" fill="#263238"/>
<path d="M181.56 119.89C182.35 120.18 184.24 121.6 186.24 121.67C185.868 122.155 185.341 122.5 184.747 122.647C184.153 122.794 183.526 122.735 182.97 122.48C180.91 121.53 181.56 119.89 181.56 119.89Z" fill="#EFEDE9"/>
<path d="M184.7 131.19C181.333 130.941 178.107 129.737 175.4 127.72C175.4 127.72 177.4 133 184.49 132.93L184.7 131.19Z" fill="#D78776"/>
<path d="M198.08 89.5299C197.554 89.0342 196.913 88.6776 196.214 88.4925C195.516 88.3074 194.782 88.2996 194.08 88.4699C192.684 88.8218 191.32 89.2867 190 89.8599C188.668 90.4285 187.18 90.5168 185.79 90.1099C183.94 89.4099 182.92 87.4399 181.33 86.2699C180.629 85.7581 179.823 85.4073 178.97 85.2427C178.118 85.0781 177.24 85.1037 176.398 85.3177C175.557 85.5316 174.773 85.9287 174.102 86.4805C173.432 87.0323 172.892 87.7252 172.52 88.5099C171.72 90.1999 171.52 92.5099 169.88 93.2799C168.53 93.9299 166.96 93.2799 165.53 92.8099C164.212 92.3501 162.786 92.3012 161.44 92.6699C160.772 92.8728 160.176 93.2634 159.724 93.7953C159.272 94.3273 158.983 94.978 158.89 95.6699C158.81 96.9299 159.57 98.1299 159.53 99.3999C159.47 101.33 157.65 102.68 155.99 103.66C154.33 104.64 152.46 105.82 152.13 107.72C152.072 108.537 152.213 109.355 152.54 110.106C152.867 110.857 153.372 111.517 154.01 112.03C155.285 113.049 156.507 114.134 157.67 115.28C158.72 116.52 159.35 118.35 158.59 119.8C158.2 120.52 157.5 121.09 157.34 121.89C157.06 123.24 158.34 124.33 159.57 125.01C160.782 125.798 162.144 126.329 163.57 126.57C164.139 126.633 164.714 126.596 165.27 126.46C166.27 129.31 166.84 131.71 166.84 131.71C168.03 133.64 168.03 127.34 168.03 127.34C168.03 127.34 168.61 121.26 167.64 118.95C167.64 118.95 164.04 120.35 162.84 113.8C162.24 110.57 167.08 108.73 168.64 112.59L171.72 112.7C171.72 112.7 171.36 100.07 178.48 102.25C191.04 106.1 197.77 102.05 198.64 91.8499C198.738 91.4465 198.738 91.0256 198.641 90.6221C198.543 90.2186 198.351 89.8442 198.08 89.5299Z" fill="#263238"/>
<path d="M167.38 116.98C167.38 116.98 167.28 117.06 167.11 117.16C166.864 117.281 166.581 117.302 166.32 117.22C165.917 116.995 165.58 116.667 165.345 116.27C165.109 115.873 164.983 115.421 164.98 114.96C164.93 114.441 164.998 113.918 165.18 113.43C165.224 113.237 165.315 113.058 165.444 112.908C165.573 112.758 165.736 112.642 165.92 112.57C166.039 112.53 166.168 112.534 166.285 112.58C166.401 112.625 166.499 112.71 166.56 112.82C166.65 112.99 166.62 113.11 166.65 113.12C166.68 113.13 166.78 113.01 166.71 112.76C166.668 112.613 166.576 112.485 166.45 112.4C166.364 112.341 166.268 112.301 166.167 112.28C166.066 112.26 165.961 112.259 165.86 112.28C165.622 112.349 165.406 112.477 165.232 112.651C165.057 112.826 164.929 113.042 164.86 113.28C164.635 113.82 164.542 114.406 164.59 114.99C164.594 115.53 164.758 116.058 165.06 116.506C165.362 116.954 165.79 117.303 166.29 117.51C166.462 117.558 166.643 117.564 166.818 117.526C166.992 117.487 167.154 117.406 167.29 117.29C167.38 117.09 167.41 116.98 167.38 116.98Z" fill="#D78776"/>
<path d="M198.28 228.2L176.07 226.5L142.4 223.77L146.16 404.6L175.39 404.22C175.39 404.22 175.39 402.22 175.32 398.68L192.49 403.36C192.49 403.36 209.19 346.95 214.88 323.8C219.6 304.48 198.28 228.2 198.28 228.2ZM175.01 370.56C174.56 328.82 173.96 262.08 174.57 253.4C174.57 253.4 190.94 311.65 191.09 316.58C191.19 319.58 182.12 348.42 175.01 370.56Z" fill="#263238"/>
<path opacity="0.2" d="M175.01 370.56L175.32 398.67L180.04 399.97L178.9 358.37L175.01 370.56Z" fill="black"/>
<path d="M174.2 253.2C174.11 253.15 174.88 251.97 175.53 249.84C176.316 247.047 176.67 244.15 176.58 241.25C176.58 237.85 176.33 234.74 176.41 232.48C176.42 231.591 176.477 230.703 176.58 229.82C176.59 229.479 176.655 229.142 176.77 228.82C176.86 228.82 176.77 230.21 176.77 232.44C176.77 234.67 177.08 237.76 177.12 241.21C177.213 244.167 176.793 247.117 175.88 249.93C175.584 250.777 175.202 251.591 174.74 252.36C174.608 252.669 174.426 252.952 174.2 253.2Z" fill="#455A64"/>
<path d="M171.11 230.329C171.11 230.329 171.22 230.149 171.54 230.019C172.01 229.841 172.53 229.841 173 230.019C173.367 230.137 173.693 230.357 173.938 230.656C174.183 230.954 174.336 231.316 174.38 231.699C174.463 232.177 174.386 232.668 174.162 233.098C173.938 233.527 173.579 233.872 173.141 234.077C172.702 234.283 172.208 234.339 171.734 234.236C171.261 234.134 170.834 233.878 170.52 233.509C170.252 233.229 170.071 232.876 170 232.494C169.929 232.112 169.971 231.718 170.12 231.359C170.292 230.89 170.625 230.496 171.06 230.249C171.37 230.089 171.57 230.089 171.58 230.129C171.078 230.447 170.701 230.927 170.51 231.489C170.418 231.774 170.406 232.078 170.475 232.369C170.544 232.66 170.691 232.926 170.9 233.139C171.137 233.437 171.466 233.647 171.837 233.735C172.207 233.824 172.596 233.785 172.941 233.626C173.287 233.467 173.569 233.197 173.743 232.858C173.917 232.52 173.972 232.133 173.9 231.759C173.869 231.464 173.76 231.183 173.584 230.944C173.409 230.705 173.172 230.517 172.9 230.399C172.329 230.172 171.697 230.148 171.11 230.329Z" fill="#455A64"/>
<path d="M200.41 237.14C199.802 237.592 199.084 237.872 198.33 237.95C196.52 238.282 194.651 237.962 193.054 237.047C191.458 236.132 190.237 234.68 189.61 232.95C189.297 232.265 189.176 231.508 189.26 230.76C189.36 230.76 189.45 231.59 189.99 232.76C190.698 234.325 191.867 235.637 193.34 236.52C194.844 237.355 196.57 237.704 198.28 237.52C199.6 237.4 200.37 237.05 200.41 237.14Z" fill="#455A64"/>
<path d="M154.96 226.28C154.96 226.28 155.12 226.54 155.25 227.05C155.426 227.773 155.503 228.517 155.48 229.26C155.449 231.766 154.443 234.161 152.674 235.937C150.906 237.712 148.515 238.729 146.01 238.77C145.263 238.795 144.517 238.721 143.79 238.55C143.521 238.508 143.262 238.413 143.03 238.27C144.027 238.355 145.029 238.385 146.03 238.36C148.4 238.219 150.635 237.212 152.311 235.531C153.987 233.849 154.987 231.611 155.12 229.24C155.128 228.251 155.074 227.263 154.96 226.28Z" fill="#455A64"/>
<path d="M175.55 397.35C175.55 397.51 169.01 397.64 160.95 397.64C152.89 397.64 146.35 397.51 146.35 397.35C146.35 397.19 152.88 397.06 160.95 397.06C169.02 397.06 175.55 397.19 175.55 397.35Z" fill="#455A64"/>
<path d="M150.18 397.77C150.02 397.77 149.56 362.11 149.18 318.12C148.8 274.13 148.59 238.47 148.75 238.47C148.91 238.47 149.36 274.12 149.75 318.12C150.14 362.12 150.34 397.77 150.18 397.77Z" fill="#455A64"/>
<path d="M175.94 377.63C175.954 377.514 175.981 377.4 176.02 377.29L176.29 376.29C176.56 375.41 176.93 374.16 177.4 372.58C178.4 369.33 179.84 364.69 181.6 358.97C183.36 353.25 185.52 346.39 187.89 338.81C189.08 335.02 190.33 331.04 191.62 326.91L193.62 320.62C193.93 319.56 194.34 318.46 194.62 317.42C194.589 316.318 194.445 315.223 194.19 314.15C193.19 309.68 192.02 305.36 190.87 301.2C189.72 297.04 188.53 293.03 187.4 289.2C185.14 281.57 183.04 274.73 181.28 268.98C179.52 263.23 178.09 258.62 177.08 255.37C176.6 253.79 176.23 252.55 175.96 251.67L175.68 250.67C175.641 250.56 175.614 250.446 175.6 250.33C175.652 250.433 175.695 250.54 175.73 250.65C175.82 250.89 175.93 251.21 176.07 251.6C176.36 252.48 176.77 253.71 177.3 255.27C178.3 258.51 179.83 263.13 181.67 268.83C183.51 274.53 185.67 281.4 187.91 289.01C189.05 292.82 190.24 296.82 191.41 301.01C192.58 305.2 193.79 309.49 194.75 314.01C194.87 314.58 194.98 315.14 195.06 315.71C195.117 315.997 195.154 316.288 195.17 316.58C195.211 316.885 195.211 317.195 195.17 317.5C194.9 318.66 194.51 319.68 194.17 320.76L192.17 327.05C190.86 331.17 189.6 335.15 188.4 338.94L181.99 359.07C180.15 364.77 178.66 369.39 177.62 372.63L176.4 376.31C176.27 376.7 176.16 377.01 176.07 377.26C176.038 377.387 175.995 377.511 175.94 377.63Z" fill="#455A64"/>
<path d="M175.3 390.85C176.213 391.052 177.107 391.337 177.97 391.7L184.66 394.04L191.35 396.37C192.295 396.646 193.213 397.011 194.09 397.46C193.116 397.322 192.157 397.088 191.23 396.76C189.48 396.26 187.09 395.5 184.47 394.59C181.85 393.68 179.47 392.78 177.83 392.09C176.934 391.792 176.083 391.375 175.3 390.85Z" fill="#455A64"/>
<path d="M160.1 307.669C160.225 307.528 160.374 307.409 160.54 307.319C160.997 307.028 161.501 306.818 162.03 306.699C162.878 306.501 163.762 306.522 164.6 306.759C165.72 307.099 166.695 307.803 167.37 308.759C168.152 309.942 168.537 311.343 168.47 312.759C168.47 314.239 168.38 315.759 168.33 317.419C168.322 319.148 168.182 320.873 167.91 322.579C167.748 323.506 167.408 324.392 166.91 325.189C166.35 326.026 165.515 326.642 164.55 326.929C163.601 327.153 162.61 327.127 161.674 326.854C160.738 326.58 159.889 326.069 159.21 325.369C157.998 324.058 157.225 322.401 157 320.629C156.624 317.711 156.848 314.747 157.66 311.919C157.923 310.818 158.344 309.76 158.91 308.779C159.355 308.022 160.036 307.431 160.85 307.099C161.363 306.888 161.927 306.836 162.47 306.949C162.657 306.979 162.835 307.051 162.99 307.159C162.31 306.974 161.586 307.027 160.94 307.309C160.193 307.65 159.579 308.226 159.19 308.949C158.673 309.917 158.29 310.949 158.05 312.019C157.323 314.802 157.146 317.699 157.53 320.549C157.751 322.2 158.474 323.743 159.6 324.969C160.212 325.593 160.974 326.049 161.812 326.294C162.651 326.539 163.538 326.565 164.39 326.369C165.212 326.115 165.92 325.581 166.39 324.859C166.881 324.135 167.221 323.318 167.39 322.459C167.655 320.782 167.798 319.088 167.82 317.389C167.89 315.759 168.01 314.189 168.02 312.759C168.101 311.447 167.769 310.143 167.07 309.029C166.452 308.137 165.56 307.47 164.53 307.129C163.749 306.877 162.916 306.825 162.11 306.979C161.409 307.107 160.731 307.34 160.1 307.669Z" fill="#455A64"/>
<path d="M202.07 316.03C200.263 316.457 198.416 316.695 196.56 316.74C194.719 316.975 192.859 317.015 191.01 316.86C192.817 316.437 194.664 316.203 196.52 316.16C198.36 315.925 200.22 315.881 202.07 316.03Z" fill="#455A64"/>
<path d="M200.16 319.31C197.307 318.894 194.525 318.09 191.89 316.92C193.331 317.042 194.749 317.351 196.11 317.84C197.519 318.149 198.881 318.644 200.16 319.31Z" fill="#455A64"/>
<path d="M213.49 310.239C213.653 310.293 213.805 310.374 213.94 310.479C214.342 310.771 214.668 311.155 214.89 311.599C215.55 312.739 215.71 314.649 215.67 316.889C215.73 319.561 215.25 322.217 214.26 324.699C213.628 326.178 212.683 327.501 211.49 328.579C210.863 329.182 210.107 329.633 209.28 329.899C208.82 330.015 208.339 330.015 207.88 329.899C207.408 329.772 206.988 329.499 206.68 329.119C206.157 328.387 205.83 327.533 205.73 326.639C205.571 325.82 205.461 324.992 205.4 324.159C205.298 322.587 205.365 321.008 205.6 319.449C206.003 316.81 206.906 314.271 208.26 311.969C208.756 311.043 209.505 310.276 210.42 309.759C210.778 309.577 211.171 309.473 211.572 309.452C211.973 309.431 212.375 309.495 212.75 309.639C213.235 309.822 213.634 310.178 213.87 310.639C213.954 310.793 214.002 310.964 214.01 311.139C214.01 311.139 213.94 310.969 213.77 310.699C213.505 310.319 213.122 310.038 212.68 309.899C212.335 309.78 211.968 309.735 211.604 309.768C211.241 309.801 210.888 309.91 210.57 310.089C209.717 310.598 209.024 311.336 208.57 312.219C207.299 314.496 206.458 316.988 206.09 319.569C205.874 321.09 205.821 322.628 205.93 324.159C205.994 324.968 206.1 325.772 206.25 326.569C206.344 327.367 206.632 328.129 207.09 328.789C207.327 329.075 207.646 329.281 208.003 329.379C208.361 329.478 208.74 329.464 209.09 329.339C209.84 329.104 210.525 328.696 211.09 328.149C212.217 327.127 213.113 325.875 213.72 324.479C214.698 322.065 215.201 319.484 215.2 316.879C215.403 315.132 215.208 313.361 214.63 311.699C214.36 311.136 213.971 310.638 213.49 310.239Z" fill="#455A64"/>
<path d="M230.19 128.05L236.86 156.98L252.47 153.61L247.01 123.92L230.19 128.05Z" fill="#263238"/>
<path d="M232.04 129.54L237.15 152.7L250.69 149.36L245.85 126.09L232.04 129.54Z" fill="white"/>
<path d="M245.9 152.98C245.902 153.265 245.819 153.545 245.661 153.784C245.504 154.022 245.279 154.208 245.016 154.318C244.752 154.428 244.462 154.458 244.182 154.403C243.901 154.347 243.644 154.21 243.442 154.008C243.24 153.806 243.102 153.549 243.047 153.268C242.992 152.988 243.021 152.698 243.132 152.434C243.242 152.171 243.428 151.946 243.666 151.788C243.905 151.631 244.184 151.548 244.47 151.55C244.849 151.55 245.213 151.7 245.481 151.969C245.749 152.237 245.9 152.601 245.9 152.98Z" fill="#455A64"/>
<path d="M241.74 126.399L235.55 127.789L235.57 127.879L241.76 126.489L241.74 126.399Z" fill="#455A64"/>
<path d="M245.124 128.114L233.191 130.794L235.33 140.317L247.263 137.636L245.124 128.114Z" fill="#F0F0F0"/>
<path d="M235.66 141.4L236.57 144.79L248.28 142.11L247.45 138.42L235.66 141.4Z" fill="#E0E0E0"/>
<path d="M236.96 146.1L238.03 151.25L249.6 148.36L248.49 143.45L236.96 146.1Z" fill="#EBEBEB"/>
<path d="M151.05 179.11C150.73 180.86 150.26 183.5 149.7 186.6C156.53 186.89 164.7 187.25 173.59 187.66C182.92 188.1 191.59 188.52 198.59 188.88L198.52 181.31C191.52 181.02 183.08 180.65 173.93 180.22C165.49 179.83 157.67 179.45 151.05 179.11Z" fill="#3E51FF"/>
<path d="M141.41 146.46C140.076 148.888 138.922 151.412 137.96 154.01C145.41 154.27 159.24 154.85 175.08 155.59C189.16 156.24 201.67 156.87 209.49 157.3C208.444 154.612 207.222 151.996 205.83 149.47C198.06 149.17 187.3 148.7 175.42 148.15C161.57 147.51 149.26 146.89 141.41 146.46Z" fill="#3E51FF"/>
<path d="M184.02 139.82C183.514 140.475 182.937 141.072 182.3 141.6C187.64 141.85 192.65 142.09 197.15 142.32C192.894 140.943 188.484 140.103 184.02 139.82Z" fill="#3E51FF"/>
<path d="M160.73 226.89L199.01 232.89V228.56C191.58 228.25 182.01 227.84 171.65 227.35L160.73 226.89Z" fill="#3E51FF"/>
<path d="M200.07 185.27L202.98 181.49L198.56 181.31L200.07 185.27Z" fill="#3E51FF"/>
<path d="M145.07 210.979C144.46 213.729 143.86 216.359 143.36 218.499C150.97 218.799 161.04 219.239 172.1 219.759C182.24 220.229 191.55 220.679 198.9 221.059L198.83 213.479C191.55 213.179 182.39 212.779 172.45 212.319C162.04 211.809 152.49 211.349 145.07 210.979Z" fill="#3E51FF"/>
<path d="M143.26 218.899C142.6 221.679 142.15 223.519 142.15 223.519L156.15 226.129C160.94 226.339 166.15 226.569 171.6 226.829C181.99 227.309 191.51 227.769 198.94 228.159L198.87 221.499C191.52 221.189 182.2 220.789 172.04 220.309C160.98 219.799 150.87 219.299 143.26 218.899Z" fill="#3E51FF"/>
<path d="M146.75 202.979C146.28 205.369 145.75 207.979 145.17 210.489C152.59 210.789 162.1 211.209 172.47 211.689C182.41 212.149 191.55 212.599 198.82 212.969L198.75 205.389C191.54 205.089 182.56 204.699 172.82 204.249C163.08 203.799 153.98 203.379 146.75 202.979Z" fill="#3E51FF"/>
<path d="M135.34 162.18C134.49 165.29 133.9 167.98 133.49 169.98C139.13 170.13 155.26 170.79 174.29 171.68C188.68 172.34 201.4 172.98 209.19 173.42L213.19 168.16C213.19 168.16 212.93 167.27 212.47 165.84C205.22 165.59 190.98 164.99 174.6 164.23C157.08 163.37 141.97 162.6 135.34 162.18Z" fill="#3E51FF"/>
<path d="M133.49 170.11C133.18 171.74 133.03 172.72 133.03 172.72L151.49 176.9C151.49 176.9 151.38 177.53 151.18 178.63C157.8 178.91 165.62 179.25 174.01 179.63C185.36 180.16 195.67 180.63 203.34 181.07L209.03 173.68C201.21 173.39 188.59 172.85 174.36 172.19C155.25 171.32 139.1 170.49 133.49 170.11Z" fill="#3E51FF"/>
<path d="M149.62 187.08C149.2 189.4 148.75 191.96 148.28 194.58C155.28 194.87 163.92 195.25 173.22 195.68C182.75 196.12 191.55 196.55 198.67 196.92L198.6 189.35C191.55 189.06 182.91 188.67 173.6 188.24C164.69 187.83 156.49 187.43 149.62 187.08Z" fill="#3E51FF"/>
<path d="M137.85 154.29C136.85 156.92 136.07 159.54 135.4 161.96C142.07 162.16 157.15 162.79 174.7 163.61C191.01 164.36 205.19 165.08 212.45 165.51C211.81 163.51 210.83 160.66 209.63 157.65C201.81 157.36 189.23 156.82 175.05 156.17C159.14 155.43 145.27 154.73 137.85 154.29Z" fill="#3E51FF"/>
<path d="M148.2 195.04C147.92 196.6 147.64 198.17 147.37 199.71C147.21 200.61 147.03 201.56 146.84 202.55C154.06 202.85 163.07 203.25 172.84 203.7C182.61 204.15 191.55 204.59 198.75 204.96L198.68 197.39C191.54 197.09 182.73 196.7 173.19 196.26C163.86 195.83 155.24 195.41 148.2 195.04Z" fill="#3E51FF"/>
<path d="M170.68 141.06C169.243 140.094 167.921 138.966 166.74 137.7C166.74 137.7 157 133.43 149.39 137.56C148.204 138.217 147.117 139.039 146.16 140C152.71 140.26 161.22 140.62 170.68 141.06Z" fill="#3E51FF"/>
<path d="M145.77 140.39C144.145 142.114 142.744 144.035 141.6 146.11C149.46 146.41 161.7 146.93 175.45 147.57C187.2 148.11 197.83 148.64 205.59 149.05C204.76 147.495 203.651 146.105 202.32 144.95C201.173 144.111 199.927 143.415 198.61 142.88C193.55 142.67 187.77 142.42 181.61 142.14C178.22 144.39 174.55 143.33 171.7 141.68C161.63 141.2 152.6 140.76 145.77 140.39Z" fill="#3E51FF"/>
<path d="M141.6 146.11C141.531 146.224 141.467 146.341 141.41 146.46C149.26 146.89 161.57 147.51 175.41 148.15C187.29 148.7 198.05 149.15 205.82 149.47L205.58 149.05C197.82 148.64 187.19 148.11 175.44 147.57C161.7 146.98 149.49 146.41 141.6 146.11Z" fill="#263238"/>
<path d="M197.15 142.32C192.65 142.09 187.64 141.85 182.3 141.6C182.06 141.786 181.82 141.966 181.58 142.14C187.77 142.42 193.58 142.67 198.58 142.88C198.13 142.68 197.64 142.5 197.15 142.32Z" fill="#263238"/>
<path d="M146.16 139.979C146.02 140.099 145.9 140.239 145.77 140.369C152.6 140.739 161.63 141.179 171.67 141.659C171.33 141.459 171 141.249 170.67 141.039C161.22 140.619 152.71 140.259 146.16 139.979Z" fill="#263238"/>
<path d="M137.96 153.979C137.93 154.075 137.893 154.169 137.85 154.259C145.27 154.699 159.14 155.399 175.05 156.139C189.23 156.789 201.81 157.329 209.63 157.619C209.63 157.509 209.54 157.389 209.49 157.269C201.67 156.839 189.16 156.209 175.08 155.559C159.24 154.849 145.41 154.269 137.96 153.979Z" fill="#263238"/>
<path d="M135.4 161.979L135.34 162.199C141.97 162.619 157.08 163.389 174.68 164.199C191.06 164.959 205.3 165.559 212.55 165.809C212.55 165.719 212.49 165.629 212.45 165.529C205.19 165.099 191.01 164.379 174.7 163.629C157.15 162.789 142.07 162.159 135.4 161.979Z" fill="#263238"/>
<path d="M133.49 169.979C133.494 170.039 133.494 170.1 133.49 170.159C139.1 170.539 155.25 171.369 174.31 172.249C188.54 172.909 201.16 173.449 208.98 173.739L209.23 173.419C201.44 172.979 188.72 172.339 174.33 171.679C155.3 170.739 139.17 170.079 133.49 169.979Z" fill="#263238"/>
<path d="M151.13 178.63C151.13 178.78 151.13 178.94 151.05 179.11C157.67 179.45 165.52 179.83 173.93 180.22C183.08 180.65 191.55 181.02 198.52 181.31L202.94 181.49L203.25 181.08C195.58 180.68 185.25 180.17 173.92 179.64C165.57 179.25 157.75 178.91 151.13 178.63Z" fill="#263238"/>
<path d="M149.7 186.6C149.7 186.76 149.65 186.92 149.62 187.08C156.46 187.43 164.69 187.83 173.56 188.24C182.91 188.67 191.56 189.06 198.56 189.35V188.88C191.56 188.52 182.89 188.1 173.56 187.66C164.75 187.25 156.49 186.89 149.7 186.6Z" fill="#263238"/>
<path d="M148.28 194.58C148.28 194.73 148.28 194.89 148.2 195.04C155.2 195.41 163.86 195.83 173.2 196.26C182.74 196.7 191.55 197.09 198.69 197.39V196.92C191.57 196.55 182.77 196.12 173.24 195.68C163.92 195.25 155.31 194.87 148.28 194.58Z" fill="#263238"/>
<path d="M146.84 202.55L146.75 203.01C153.98 203.38 163.01 203.82 172.82 204.28C182.63 204.74 191.54 205.12 198.75 205.42V204.98C191.55 204.61 182.58 204.17 172.84 203.72C163.1 203.27 154.06 202.85 146.84 202.55Z" fill="#263238"/>
<path d="M145.17 210.52C145.17 210.66 145.1 210.81 145.07 210.96C152.5 211.35 162.07 211.81 172.45 212.3C182.39 212.76 191.55 213.16 198.83 213.46V212.98C191.56 212.61 182.42 212.16 172.48 211.7C162.1 211.24 152.59 210.82 145.17 210.52Z" fill="#263238"/>
<path d="M143.36 218.479C143.36 218.619 143.29 218.759 143.26 218.899C150.87 219.299 160.98 219.799 172.07 220.309C182.23 220.789 191.55 221.189 198.9 221.499V221.049C191.55 220.669 182.24 220.219 172.1 219.749C161.04 219.219 150.97 218.779 143.36 218.479Z" fill="#263238"/>
<path d="M156.18 226.13L160.12 226.86H160.73L171.61 227.37C182 227.86 191.54 228.27 198.97 228.58H199.03V228.13C191.6 227.74 182.03 227.28 171.69 226.8C166.18 226.57 160.97 226.34 156.18 226.13Z" fill="#263238"/>
<path d="M198.81 188.64C198.65 188.64 197.96 182.84 197.27 175.64C196.58 168.44 196.15 162.64 196.27 162.64C196.39 162.64 197.12 168.44 197.81 175.64C198.5 182.84 198.97 188.62 198.81 188.64Z" fill="#263238"/>
<path d="M198.16 159.81C198.29 159.9 197.86 160.76 197.16 161.74C196.46 162.72 195.85 163.45 195.71 163.36C195.57 163.27 196.01 162.36 196.71 161.42C197.41 160.48 198.03 159.72 198.16 159.81Z" fill="#263238"/>
<path d="M189.05 190.98C189.13 191.12 182.13 194.98 173.41 199.57C164.69 204.16 157.57 207.78 157.5 207.64C157.43 207.5 164.43 203.64 173.14 199.06C181.85 194.48 188.98 190.83 189.05 190.98Z" fill="#263238"/>
<path d="M190.74 197.86C189.65 198.183 188.536 198.424 187.41 198.58L179.41 200.09L171.41 201.72C170.311 202.009 169.191 202.21 168.06 202.32C169.111 201.88 170.203 201.545 171.32 201.32C173.32 200.79 176.18 200.13 179.32 199.51C182.46 198.89 185.32 198.44 187.42 198.16C188.516 197.963 189.627 197.863 190.74 197.86Z" fill="#263238"/>
<path d="M152.4 167.27C152.511 168.126 152.511 168.993 152.4 169.85C152.34 171.44 152.17 173.63 151.86 176.04C151.55 178.45 151.14 180.62 150.8 182.18C150.663 183.03 150.429 183.863 150.1 184.66C150.101 183.797 150.201 182.938 150.4 182.1C150.64 180.53 150.97 178.37 151.28 175.97C151.59 173.57 151.83 171.39 151.99 169.82C152.039 168.958 152.176 168.103 152.4 167.27Z" fill="#263238"/>
<path d="M184.16 139.42C184.05 139.673 183.897 139.906 183.71 140.11C183.262 140.702 182.767 141.257 182.23 141.77C181.432 142.572 180.45 143.17 179.37 143.51C178.031 143.869 176.62 143.869 175.28 143.51C172.901 142.84 170.696 141.659 168.82 140.05C168.254 139.568 167.726 139.043 167.24 138.48C166.9 138.09 166.74 137.84 166.77 137.82C166.8 137.8 167.6 138.63 169.06 139.76C170.944 141.245 173.102 142.346 175.41 143C176.662 143.354 177.984 143.382 179.25 143.08C180.267 142.778 181.203 142.251 181.99 141.54C183.36 140.27 184.09 139.36 184.16 139.42Z" fill="#263238"/>
</svg>
