<svg width="44" height="44" viewBox="0 0 44 44" fill="none" xmlns="http://www.w3.org/2000/svg">
<rect x="2" y="2" width="40" height="40" rx="8" fill="#DEDEFA"/>
<rect x="2" y="2" width="40" height="40" rx="8" stroke="#EFEFFD" stroke-width="4"/>
<path d="M17.3333 20.25C18.2998 20.25 19.0833 19.4665 19.0833 18.5C19.0833 17.5335 18.2998 16.75 17.3333 16.75C16.3668 16.75 15.5833 17.5335 15.5833 18.5C15.5833 19.4665 16.3668 20.25 17.3333 20.25Z" fill="#3E51FF"/>
<path fill-rule="evenodd" clip-rule="evenodd" d="M14.7083 11.2083C12.7753 11.2083 11.2083 12.7753 11.2083 14.7083V29.2916C11.2083 31.2246 12.7753 32.7916 14.7083 32.7916H29.2916C31.2246 32.7916 32.7916 31.2246 32.7916 29.2916V14.7083C32.7916 12.7753 31.2246 11.2083 29.2916 11.2083H14.7083ZM29.2916 13.5416H14.7083C14.0639 13.5416 13.5416 14.064 13.5416 14.7083V23.7711L16.4568 21.9772C16.6508 21.8578 16.8966 21.8622 17.0861 21.9886L20.1974 24.0628L25.1418 20.2172C25.3525 20.0534 25.6474 20.0534 25.8581 20.2172L30.4583 23.7951V14.7083C30.4583 14.064 29.9359 13.5416 29.2916 13.5416ZM13.5416 29.2916V26.5109L16.7248 24.552L20.3025 26.9371L25.5 22.8947L30.4583 26.7511V29.2916C30.4583 29.936 29.9359 30.4583 29.2916 30.4583H14.7083C14.0639 30.4583 13.5416 29.936 13.5416 29.2916Z" fill="#3E51FF"/>
</svg>
