<svg width="387" height="345" viewBox="0 0 387 345" fill="none" xmlns="http://www.w3.org/2000/svg">
<rect width="387" height="345" rx="20" fill="white"/>
<path d="M297.816 41V32.6H299.64L302.316 37.928L304.956 32.6H306.78V41H305.244V35.204L302.904 39.8H301.692L299.352 35.204V41H297.816ZM310.99 41.144C310.414 41.144 309.894 41.012 309.43 40.748C308.974 40.484 308.61 40.12 308.338 39.656C308.074 39.184 307.942 38.64 307.942 38.024C307.942 37.408 308.078 36.868 308.35 36.404C308.622 35.932 308.986 35.564 309.442 35.3C309.906 35.036 310.426 34.904 311.002 34.904C311.57 34.904 312.082 35.036 312.538 35.3C313.002 35.564 313.366 35.932 313.63 36.404C313.902 36.868 314.038 37.408 314.038 38.024C314.038 38.64 313.902 39.184 313.63 39.656C313.366 40.12 313.002 40.484 312.538 40.748C312.074 41.012 311.558 41.144 310.99 41.144ZM310.99 39.812C311.39 39.812 311.738 39.664 312.034 39.368C312.33 39.064 312.478 38.616 312.478 38.024C312.478 37.432 312.33 36.988 312.034 36.692C311.738 36.388 311.394 36.236 311.002 36.236C310.594 36.236 310.242 36.388 309.946 36.692C309.658 36.988 309.514 37.432 309.514 38.024C309.514 38.616 309.658 39.064 309.946 39.368C310.242 39.664 310.59 39.812 310.99 39.812ZM315.171 41V35.048H316.527L316.647 36.056C316.831 35.704 317.095 35.424 317.439 35.216C317.791 35.008 318.203 34.904 318.675 34.904C319.411 34.904 319.983 35.136 320.391 35.6C320.799 36.064 321.003 36.744 321.003 37.64V41H319.467V37.784C319.467 37.272 319.363 36.88 319.155 36.608C318.947 36.336 318.623 36.2 318.183 36.2C317.751 36.2 317.395 36.352 317.115 36.656C316.843 36.96 316.707 37.384 316.707 37.928V41H315.171ZM324.884 41C324.26 41 323.76 40.848 323.384 40.544C323.008 40.24 322.82 39.7 322.82 38.924V36.332H321.8V35.048H322.82L323 33.452H324.356V35.048H325.964V36.332H324.356V38.936C324.356 39.224 324.416 39.424 324.536 39.536C324.664 39.64 324.88 39.692 325.184 39.692H325.928V41H324.884ZM327.043 41V32.36H328.579V35.96C328.779 35.632 329.047 35.376 329.383 35.192C329.727 35 330.119 34.904 330.559 34.904C331.295 34.904 331.863 35.136 332.263 35.6C332.671 36.064 332.875 36.744 332.875 37.64V41H331.351V37.784C331.351 37.272 331.247 36.88 331.039 36.608C330.839 36.336 330.519 36.2 330.079 36.2C329.647 36.2 329.287 36.352 328.999 36.656C328.719 36.96 328.579 37.384 328.579 37.928V41H327.043ZM334.103 41V32.36H335.639V41H334.103ZM337.713 43.64L339.093 40.604H338.733L336.417 35.048H338.085L339.753 39.236L341.493 35.048H343.125L339.345 43.64H337.713Z" fill="#051036" fill-opacity="0.2"/>
<g clip-path="url(#clip0_1168_7849)">
<path d="M357.458 35.9167L353.5 39.875L349.541 35.9167L357.458 35.9167Z" fill="#051036" fill-opacity="0.2"/>
</g>
<path d="M32.944 42.128C32.6133 42.128 32.3573 42.0373 32.176 41.856C32.0053 41.664 31.92 41.3973 31.92 41.056V36.192L32.352 37.424L28.496 32C28.3573 31.808 28.2933 31.6053 28.304 31.392C28.3253 31.168 28.416 30.9813 28.576 30.832C28.736 30.672 28.96 30.592 29.248 30.592C29.4613 30.592 29.6533 30.6453 29.824 30.752C30.0053 30.8587 30.176 31.024 30.336 31.248L33.2 35.312H32.752L35.632 31.248C35.8027 31.0133 35.968 30.848 36.128 30.752C36.288 30.6453 36.4853 30.592 36.72 30.592C36.9973 30.592 37.2107 30.6667 37.36 30.816C37.52 30.9547 37.6 31.1307 37.6 31.344C37.6107 31.5573 37.536 31.7813 37.376 32.016L33.552 37.424L33.968 36.192V41.056C33.968 41.7707 33.6267 42.128 32.944 42.128ZM40.8505 42.16C40.0398 42.16 39.3358 41.9947 38.7385 41.664C38.1412 41.3333 37.6772 40.864 37.3465 40.256C37.0158 39.6373 36.8505 38.912 36.8505 38.08C36.8505 37.4507 36.9412 36.8907 37.1225 36.4C37.3145 35.8987 37.5865 35.472 37.9385 35.12C38.2905 34.7573 38.7118 34.4853 39.2025 34.304C39.6932 34.112 40.2425 34.016 40.8505 34.016C41.6612 34.016 42.3652 34.1813 42.9625 34.512C43.5598 34.8427 44.0238 35.312 44.3545 35.92C44.6852 36.528 44.8505 37.248 44.8505 38.08C44.8505 38.7093 44.7545 39.2747 44.5625 39.776C44.3812 40.2773 44.1145 40.7093 43.7625 41.072C43.4105 41.424 42.9892 41.696 42.4985 41.888C42.0078 42.0693 41.4585 42.16 40.8505 42.16ZM40.8505 40.64C41.2452 40.64 41.5918 40.544 41.8905 40.352C42.1892 40.16 42.4185 39.8773 42.5785 39.504C42.7492 39.12 42.8345 38.6453 42.8345 38.08C42.8345 37.2267 42.6532 36.592 42.2905 36.176C41.9278 35.7493 41.4478 35.536 40.8505 35.536C40.4558 35.536 40.1092 35.632 39.8105 35.824C39.5118 36.0053 39.2772 36.288 39.1065 36.672C38.9465 37.0453 38.8665 37.5147 38.8665 38.08C38.8665 38.9227 39.0478 39.5627 39.4105 40C39.7732 40.4267 40.2532 40.64 40.8505 40.64ZM49.0133 42.16C48.3626 42.16 47.8239 42.0427 47.3973 41.808C46.9706 41.5627 46.6506 41.2 46.4373 40.72C46.2346 40.24 46.1333 39.6427 46.1333 38.928V35.056C46.1333 34.7147 46.2186 34.464 46.3893 34.304C46.5599 34.1333 46.8053 34.048 47.1253 34.048C47.4453 34.048 47.6906 34.1333 47.8613 34.304C48.0426 34.464 48.1333 34.7147 48.1333 35.056V38.96C48.1333 39.5147 48.2453 39.9253 48.4693 40.192C48.6933 40.4587 49.0506 40.592 49.5413 40.592C50.0746 40.592 50.5119 40.4107 50.8533 40.048C51.1946 39.6747 51.3653 39.184 51.3653 38.576V35.056C51.3653 34.7147 51.4506 34.464 51.6213 34.304C51.7919 34.1333 52.0373 34.048 52.3573 34.048C52.6773 34.048 52.9226 34.1333 53.0933 34.304C53.2746 34.464 53.3653 34.7147 53.3653 35.056V41.104C53.3653 41.7867 53.0399 42.128 52.3893 42.128C52.0799 42.128 51.8399 42.0427 51.6693 41.872C51.4986 41.6907 51.4133 41.4347 51.4133 41.104V39.888L51.6373 40.368C51.4133 40.944 51.0719 41.3867 50.6133 41.696C50.1653 42.0053 49.6319 42.16 49.0133 42.16ZM56.1509 42.128C55.8202 42.128 55.5642 42.0427 55.3829 41.872C55.2122 41.6907 55.1269 41.4347 55.1269 41.104V35.056C55.1269 34.7253 55.2122 34.4747 55.3829 34.304C55.5535 34.1333 55.7935 34.048 56.1029 34.048C56.4122 34.048 56.6522 34.1333 56.8229 34.304C56.9935 34.4747 57.0789 34.7253 57.0789 35.056V36.064H56.9189C57.0682 35.424 57.3615 34.9387 57.7989 34.608C58.2362 34.2773 58.8175 34.08 59.5429 34.016C59.7669 33.9947 59.9429 34.0533 60.0709 34.192C60.2095 34.32 60.2895 34.5227 60.3109 34.8C60.3322 35.0667 60.2682 35.2853 60.1189 35.456C59.9802 35.616 59.7669 35.712 59.4789 35.744L59.1269 35.776C58.4762 35.84 57.9855 36.0427 57.6549 36.384C57.3242 36.7147 57.1589 37.184 57.1589 37.792V41.104C57.1589 41.4347 57.0735 41.6907 56.9029 41.872C56.7322 42.0427 56.4815 42.128 56.1509 42.128ZM66.3123 42.128C65.9816 42.128 65.7256 42.0373 65.5443 41.856C65.3736 41.664 65.2883 41.4027 65.2883 41.072V31.76C65.2883 31.4187 65.3789 31.1627 65.5603 30.992C65.7416 30.8107 65.9976 30.72 66.3283 30.72H70.1843C71.4216 30.72 72.3763 31.0293 73.0483 31.648C73.7203 32.2667 74.0563 33.1307 74.0563 34.24C74.0563 35.3493 73.7203 36.2187 73.0483 36.848C72.3763 37.4667 71.4216 37.776 70.1843 37.776H67.3363V41.072C67.3363 41.4027 67.2509 41.664 67.0803 41.856C66.9096 42.0373 66.6536 42.128 66.3123 42.128ZM67.3363 36.16H69.8643C70.5896 36.16 71.1389 36 71.5123 35.68C71.8856 35.3493 72.0723 34.8693 72.0723 34.24C72.0723 33.6107 71.8856 33.136 71.5123 32.816C71.1389 32.496 70.5896 32.336 69.8643 32.336H67.3363V36.16ZM76.2058 42.112C75.8858 42.112 75.6404 42.016 75.4698 41.824C75.2991 41.632 75.2138 41.3653 75.2138 41.024V35.152C75.2138 34.8 75.2991 34.5333 75.4698 34.352C75.6404 34.16 75.8858 34.064 76.2058 34.064C76.5258 34.064 76.7711 34.16 76.9418 34.352C77.1231 34.5333 77.2138 34.8 77.2138 35.152V41.024C77.2138 41.3653 77.1284 41.632 76.9578 41.824C76.7871 42.016 76.5364 42.112 76.2058 42.112ZM76.2058 32.576C75.8324 32.576 75.5391 32.4853 75.3258 32.304C75.1231 32.112 75.0218 31.8507 75.0218 31.52C75.0218 31.1787 75.1231 30.9173 75.3258 30.736C75.5391 30.5547 75.8324 30.464 76.2058 30.464C76.5898 30.464 76.8831 30.5547 77.0858 30.736C77.2884 30.9173 77.3898 31.1787 77.3898 31.52C77.3898 31.8507 77.2884 32.112 77.0858 32.304C76.8831 32.4853 76.5898 32.576 76.2058 32.576ZM82.8279 42.16C81.9425 42.16 81.1799 41.9947 80.5399 41.664C79.8999 41.3333 79.4039 40.864 79.0519 40.256C78.7105 39.648 78.5399 38.928 78.5399 38.096C78.5399 37.2853 78.7052 36.576 79.0359 35.968C79.3772 35.36 79.8412 34.8853 80.4279 34.544C81.0252 34.192 81.7025 34.016 82.4599 34.016C83.0145 34.016 83.5105 34.1067 83.9479 34.288C84.3959 34.4693 84.7745 34.7307 85.0839 35.072C85.4039 35.4133 85.6439 35.8293 85.8039 36.32C85.9745 36.8 86.0599 37.344 86.0599 37.952C86.0599 38.144 85.9905 38.2933 85.8519 38.4C85.7239 38.496 85.5372 38.544 85.2919 38.544H80.1559V37.392H84.6519L84.3959 37.632C84.3959 37.1413 84.3212 36.7307 84.1719 36.4C84.0332 36.0693 83.8252 35.8187 83.5479 35.648C83.2812 35.4667 82.9452 35.376 82.5399 35.376C82.0919 35.376 81.7079 35.4827 81.3879 35.696C81.0785 35.8987 80.8385 36.192 80.6679 36.576C80.5079 36.9493 80.4279 37.3973 80.4279 37.92V38.032C80.4279 38.9067 80.6305 39.5627 81.0359 40C81.4519 40.4267 82.0599 40.64 82.8599 40.64C83.1372 40.64 83.4465 40.608 83.7879 40.544C84.1399 40.4693 84.4705 40.3467 84.7799 40.176C85.0039 40.048 85.2012 39.9947 85.3719 40.016C85.5425 40.0267 85.6759 40.0853 85.7719 40.192C85.8785 40.2987 85.9425 40.432 85.9639 40.592C85.9852 40.7413 85.9532 40.896 85.8679 41.056C85.7932 41.216 85.6599 41.3547 85.4679 41.472C85.0945 41.7067 84.6625 41.8827 84.1719 42C83.6919 42.1067 83.2439 42.16 82.8279 42.16ZM96.7875 42.16C95.6142 42.16 94.6062 41.9253 93.7635 41.456C92.9315 40.976 92.2915 40.304 91.8435 39.44C91.3955 38.5653 91.1715 37.536 91.1715 36.352C91.1715 35.4667 91.2995 34.672 91.5555 33.968C91.8115 33.2533 92.1795 32.6453 92.6595 32.144C93.1395 31.632 93.7262 31.2427 94.4195 30.976C95.1235 30.6987 95.9128 30.56 96.7875 30.56C97.3742 30.56 97.9502 30.6347 98.5155 30.784C99.0808 30.9333 99.5768 31.1467 100.003 31.424C100.227 31.5627 100.377 31.7333 100.451 31.936C100.526 32.128 100.542 32.32 100.499 32.512C100.457 32.6933 100.366 32.848 100.227 32.976C100.099 33.104 99.9342 33.1787 99.7315 33.2C99.5395 33.2107 99.3262 33.1413 99.0915 32.992C98.7608 32.7787 98.4035 32.624 98.0195 32.528C97.6355 32.432 97.2462 32.384 96.8515 32.384C96.0942 32.384 95.4542 32.5387 94.9315 32.848C94.4088 33.1573 94.0142 33.6053 93.7475 34.192C93.4808 34.7787 93.3475 35.4987 93.3475 36.352C93.3475 37.1947 93.4808 37.9147 93.7475 38.512C94.0142 39.1093 94.4088 39.5627 94.9315 39.872C95.4542 40.1813 96.0942 40.336 96.8515 40.336C97.2568 40.336 97.6568 40.288 98.0515 40.192C98.4462 40.0853 98.8195 39.9253 99.1715 39.712C99.4062 39.5733 99.6142 39.5147 99.7955 39.536C99.9875 39.5467 100.147 39.6107 100.275 39.728C100.403 39.8453 100.489 39.9947 100.531 40.176C100.574 40.3467 100.563 40.528 100.499 40.72C100.435 40.9013 100.307 41.0613 100.115 41.2C99.6888 41.5093 99.1768 41.7493 98.5795 41.92C97.9928 42.08 97.3955 42.16 96.7875 42.16ZM102.895 42.128C102.575 42.128 102.329 42.0427 102.159 41.872C101.988 41.6907 101.903 41.4347 101.903 41.104V31.6C101.903 31.2693 101.988 31.0187 102.159 30.848C102.329 30.6773 102.575 30.592 102.895 30.592C103.215 30.592 103.46 30.6773 103.631 30.848C103.812 31.0187 103.903 31.2693 103.903 31.6V35.744H103.679C103.913 35.1787 104.276 34.752 104.767 34.464C105.268 34.1653 105.833 34.016 106.463 34.016C107.092 34.016 107.609 34.1333 108.015 34.368C108.42 34.6027 108.724 34.96 108.927 35.44C109.129 35.9093 109.231 36.5067 109.231 37.232V41.104C109.231 41.4347 109.145 41.6907 108.975 41.872C108.804 42.0427 108.559 42.128 108.239 42.128C107.919 42.128 107.668 42.0427 107.487 41.872C107.316 41.6907 107.231 41.4347 107.231 41.104V37.328C107.231 36.72 107.113 36.2773 106.879 36C106.655 35.7227 106.303 35.584 105.823 35.584C105.236 35.584 104.767 35.7707 104.415 36.144C104.073 36.5067 103.903 36.992 103.903 37.6V41.104C103.903 41.7867 103.567 42.128 102.895 42.128ZM113.518 42.16C112.953 42.16 112.446 42.0533 111.998 41.84C111.561 41.616 111.214 41.3173 110.958 40.944C110.713 40.5707 110.59 40.1493 110.59 39.68C110.59 39.104 110.739 38.6507 111.038 38.32C111.337 37.9787 111.822 37.7333 112.494 37.584C113.166 37.4347 114.067 37.36 115.198 37.36H115.998V38.512H115.214C114.553 38.512 114.025 38.544 113.63 38.608C113.235 38.672 112.953 38.784 112.782 38.944C112.622 39.0933 112.542 39.3067 112.542 39.584C112.542 39.936 112.665 40.224 112.91 40.448C113.155 40.672 113.497 40.784 113.934 40.784C114.286 40.784 114.595 40.704 114.862 40.544C115.139 40.3733 115.358 40.144 115.518 39.856C115.678 39.568 115.758 39.2373 115.758 38.864V37.024C115.758 36.4907 115.641 36.1067 115.406 35.872C115.171 35.6373 114.777 35.52 114.222 35.52C113.913 35.52 113.577 35.5573 113.214 35.632C112.862 35.7067 112.489 35.8347 112.094 36.016C111.891 36.112 111.71 36.1387 111.55 36.096C111.401 36.0533 111.283 35.968 111.198 35.84C111.113 35.7013 111.07 35.552 111.07 35.392C111.07 35.232 111.113 35.0773 111.198 34.928C111.283 34.768 111.427 34.6507 111.63 34.576C112.121 34.3733 112.59 34.2293 113.038 34.144C113.497 34.0587 113.913 34.016 114.286 34.016C115.054 34.016 115.683 34.1333 116.174 34.368C116.675 34.6027 117.049 34.96 117.294 35.44C117.539 35.9093 117.662 36.5173 117.662 37.264V41.104C117.662 41.4347 117.582 41.6907 117.422 41.872C117.262 42.0427 117.033 42.128 116.734 42.128C116.435 42.128 116.201 42.0427 116.03 41.872C115.87 41.6907 115.79 41.4347 115.79 41.104V40.336H115.918C115.843 40.7093 115.694 41.0347 115.47 41.312C115.257 41.5787 114.985 41.7867 114.654 41.936C114.323 42.0853 113.945 42.16 113.518 42.16ZM120.396 42.128C120.065 42.128 119.809 42.0427 119.628 41.872C119.457 41.6907 119.372 41.4347 119.372 41.104V35.056C119.372 34.7253 119.457 34.4747 119.628 34.304C119.799 34.1333 120.039 34.048 120.348 34.048C120.657 34.048 120.897 34.1333 121.068 34.304C121.239 34.4747 121.324 34.7253 121.324 35.056V36.064H121.164C121.313 35.424 121.607 34.9387 122.044 34.608C122.481 34.2773 123.063 34.08 123.788 34.016C124.012 33.9947 124.188 34.0533 124.316 34.192C124.455 34.32 124.535 34.5227 124.556 34.8C124.577 35.0667 124.513 35.2853 124.364 35.456C124.225 35.616 124.012 35.712 123.724 35.744L123.372 35.776C122.721 35.84 122.231 36.0427 121.9 36.384C121.569 36.7147 121.404 37.184 121.404 37.792V41.104C121.404 41.4347 121.319 41.6907 121.148 41.872C120.977 42.0427 120.727 42.128 120.396 42.128ZM129.355 42.16C128.661 42.16 128.08 42.0427 127.611 41.808C127.152 41.5733 126.811 41.232 126.587 40.784C126.363 40.3253 126.251 39.76 126.251 39.088V35.68H125.419C125.163 35.68 124.965 35.616 124.827 35.488C124.688 35.3493 124.619 35.1627 124.619 34.928C124.619 34.6827 124.688 34.496 124.827 34.368C124.965 34.24 125.163 34.176 125.419 34.176H126.251V32.72C126.251 32.3893 126.336 32.1387 126.507 31.968C126.688 31.7973 126.939 31.712 127.259 31.712C127.579 31.712 127.824 31.7973 127.995 31.968C128.165 32.1387 128.251 32.3893 128.251 32.72V34.176H129.947C130.203 34.176 130.4 34.24 130.539 34.368C130.677 34.496 130.747 34.6827 130.747 34.928C130.747 35.1627 130.677 35.3493 130.539 35.488C130.4 35.616 130.203 35.68 129.947 35.68H128.251V38.976C128.251 39.488 128.363 39.872 128.587 40.128C128.811 40.384 129.173 40.512 129.675 40.512C129.856 40.512 130.016 40.496 130.155 40.464C130.293 40.432 130.416 40.4107 130.523 40.4C130.651 40.3893 130.757 40.432 130.843 40.528C130.928 40.6133 130.971 40.7947 130.971 41.072C130.971 41.2853 130.933 41.4773 130.859 41.648C130.795 41.808 130.672 41.92 130.491 41.984C130.352 42.0267 130.171 42.064 129.947 42.096C129.723 42.1387 129.525 42.16 129.355 42.16Z" fill="black"/>
<circle cx="193.5" cy="141.5" r="71.4999" transform="rotate(-90 193.5 141.5)" fill="#EFF4FB"/>
<path d="M193.5 70.0002C208.028 70.0002 222.212 74.4259 234.162 82.688C246.112 90.9501 255.261 102.657 260.392 116.248C265.523 129.84 266.392 144.673 262.883 158.771C259.373 172.869 251.653 185.563 240.749 195.164C229.845 204.764 216.275 210.815 201.846 212.511C187.417 214.207 172.814 211.467 159.981 204.657C147.148 197.846 136.695 187.287 130.012 174.387C123.33 161.487 120.736 146.858 122.576 132.446L193.5 141.5L193.5 70.0002Z" fill="#6AD2FF"/>
<path d="M193.5 70.0002C204.515 70.0002 215.381 72.5452 225.251 77.4367C235.12 82.3282 243.726 89.4338 250.397 98.1993C257.068 106.965 261.623 117.153 263.708 127.969C265.792 138.785 265.35 149.937 262.414 160.553C259.479 171.17 254.13 180.965 246.786 189.175C239.441 197.384 230.299 203.785 220.073 207.879C209.847 211.972 198.813 213.648 187.833 212.775C176.852 211.902 166.222 208.504 156.771 202.845L193.5 141.5L193.5 70.0002Z" fill="#4318FF"/>
<g filter="url(#filter0_d_1168_7849)">
<rect x="32" y="234" width="323" height="75" rx="15" fill="white"/>
<line x1="193.5" y1="295" x2="193.5" y2="248" stroke="#F4F7FE"/>
<path d="M88.6 265.084C88.424 265.084 88.288 265.036 88.192 264.94C88.096 264.836 88.048 264.688 88.048 264.496V260.62L88.288 261.364L85.312 257.236C85.232 257.124 85.192 257.008 85.192 256.888C85.2 256.76 85.248 256.656 85.336 256.576C85.424 256.496 85.544 256.456 85.696 256.456C85.816 256.456 85.924 256.484 86.02 256.54C86.116 256.596 86.208 256.688 86.296 256.816L88.768 260.224H88.492L90.964 256.816C91.052 256.68 91.14 256.588 91.228 256.54C91.316 256.484 91.428 256.456 91.564 256.456C91.708 256.456 91.82 256.496 91.9 256.576C91.988 256.648 92.032 256.744 92.032 256.864C92.04 256.984 91.996 257.108 91.9 257.236L88.924 261.364L89.164 260.62V264.496C89.164 264.888 88.976 265.084 88.6 265.084ZM94.3661 265.108C93.7901 265.108 93.2901 264.984 92.8661 264.736C92.4421 264.488 92.1141 264.136 91.8821 263.68C91.6501 263.224 91.5341 262.688 91.5341 262.072C91.5341 261.608 91.5981 261.192 91.7261 260.824C91.8621 260.448 92.0541 260.128 92.3021 259.864C92.5501 259.6 92.8461 259.4 93.1901 259.264C93.5421 259.12 93.9341 259.048 94.3661 259.048C94.9421 259.048 95.4421 259.172 95.8661 259.42C96.2901 259.668 96.6181 260.02 96.8501 260.476C97.0821 260.924 97.1981 261.456 97.1981 262.072C97.1981 262.536 97.1301 262.956 96.9941 263.332C96.8661 263.708 96.6781 264.028 96.4301 264.292C96.1821 264.556 95.8821 264.76 95.5301 264.904C95.1861 265.04 94.7981 265.108 94.3661 265.108ZM94.3661 264.244C94.7181 264.244 95.0221 264.16 95.2781 263.992C95.5421 263.824 95.7421 263.58 95.8781 263.26C96.0221 262.94 96.0941 262.544 96.0941 262.072C96.0941 261.368 95.9381 260.832 95.6261 260.464C95.3141 260.096 94.8941 259.912 94.3661 259.912C94.0221 259.912 93.7181 259.996 93.4541 260.164C93.1981 260.324 92.9981 260.564 92.8541 260.884C92.7101 261.204 92.6381 261.6 92.6381 262.072C92.6381 262.776 92.7941 263.316 93.1061 263.692C93.4261 264.06 93.8461 264.244 94.3661 264.244ZM100.445 265.108C99.9729 265.108 99.5769 265.02 99.2569 264.844C98.9449 264.668 98.7129 264.408 98.5609 264.064C98.4089 263.72 98.3329 263.288 98.3329 262.768V259.624C98.3329 259.44 98.3769 259.304 98.4649 259.216C98.5609 259.12 98.6969 259.072 98.8729 259.072C99.0489 259.072 99.1849 259.12 99.2809 259.216C99.3769 259.304 99.4249 259.44 99.4249 259.624V262.768C99.4249 263.264 99.5249 263.632 99.7249 263.872C99.9249 264.104 100.241 264.22 100.673 264.22C101.153 264.22 101.541 264.06 101.837 263.74C102.141 263.42 102.293 262.996 102.293 262.468V259.624C102.293 259.44 102.337 259.304 102.425 259.216C102.521 259.12 102.657 259.072 102.833 259.072C103.009 259.072 103.145 259.12 103.241 259.216C103.337 259.304 103.385 259.44 103.385 259.624V264.52C103.385 264.896 103.209 265.084 102.857 265.084C102.681 265.084 102.545 265.036 102.449 264.94C102.361 264.844 102.317 264.704 102.317 264.52V263.476L102.473 263.68C102.313 264.144 102.053 264.5 101.693 264.748C101.341 264.988 100.925 265.108 100.445 265.108ZM105.466 265.084C105.282 265.084 105.142 265.036 105.046 264.94C104.95 264.844 104.902 264.704 104.902 264.52V259.624C104.902 259.44 104.95 259.304 105.046 259.216C105.142 259.12 105.274 259.072 105.442 259.072C105.61 259.072 105.738 259.12 105.826 259.216C105.922 259.304 105.97 259.44 105.97 259.624V260.548H105.85C105.978 260.068 106.218 259.704 106.57 259.456C106.922 259.208 107.366 259.068 107.902 259.036C108.03 259.028 108.134 259.06 108.214 259.132C108.294 259.196 108.338 259.308 108.346 259.468C108.354 259.62 108.318 259.744 108.238 259.84C108.158 259.928 108.034 259.98 107.866 259.996L107.65 260.008C107.122 260.064 106.714 260.236 106.426 260.524C106.146 260.812 106.006 261.208 106.006 261.712V264.52C106.006 264.704 105.958 264.844 105.862 264.94C105.774 265.036 105.642 265.084 105.466 265.084ZM112.822 265.084C112.646 265.084 112.51 265.036 112.414 264.94C112.318 264.844 112.27 264.704 112.27 264.52V259.996H111.55C111.406 259.996 111.294 259.96 111.214 259.888C111.134 259.808 111.094 259.704 111.094 259.576C111.094 259.44 111.134 259.336 111.214 259.264C111.294 259.192 111.406 259.156 111.55 259.156H112.57L112.27 259.444V259C112.27 258.232 112.454 257.648 112.822 257.248C113.198 256.848 113.754 256.612 114.49 256.54L114.838 256.516C114.974 256.5 115.082 256.52 115.162 256.576C115.242 256.624 115.294 256.688 115.318 256.768C115.35 256.848 115.354 256.932 115.33 257.02C115.314 257.108 115.278 257.184 115.222 257.248C115.166 257.312 115.094 257.344 115.006 257.344L114.67 257.368C114.214 257.4 113.882 257.54 113.674 257.788C113.466 258.036 113.362 258.392 113.362 258.856V259.336L113.206 259.156H116.482C116.658 259.156 116.79 259.208 116.878 259.312C116.974 259.408 117.022 259.552 117.022 259.744V264.472C117.022 264.656 116.978 264.8 116.89 264.904C116.802 265.008 116.666 265.06 116.482 265.06C116.306 265.06 116.17 265.008 116.074 264.904C115.978 264.8 115.93 264.656 115.93 264.472V259.996H113.362V264.52C113.362 264.896 113.182 265.084 112.822 265.084ZM116.494 257.8C116.286 257.8 116.122 257.744 116.002 257.632C115.882 257.512 115.822 257.356 115.822 257.164C115.822 256.956 115.882 256.8 116.002 256.696C116.122 256.584 116.286 256.528 116.494 256.528C116.718 256.528 116.886 256.584 116.998 256.696C117.118 256.8 117.178 256.956 117.178 257.164C117.178 257.356 117.118 257.512 116.998 257.632C116.886 257.744 116.718 257.8 116.494 257.8ZM120.374 265.108C119.774 265.108 119.318 264.932 119.006 264.58C118.694 264.22 118.538 263.704 118.538 263.032V257.008C118.538 256.824 118.586 256.688 118.682 256.6C118.778 256.504 118.91 256.456 119.078 256.456C119.254 256.456 119.39 256.504 119.486 256.6C119.582 256.688 119.63 256.824 119.63 257.008V262.948C119.63 263.364 119.714 263.676 119.882 263.884C120.058 264.084 120.306 264.184 120.626 264.184C120.698 264.184 120.762 264.184 120.818 264.184C120.874 264.176 120.93 264.168 120.986 264.16C121.074 264.152 121.138 264.176 121.178 264.232C121.218 264.288 121.238 264.4 121.238 264.568C121.238 264.72 121.202 264.84 121.13 264.928C121.066 265.008 120.958 265.06 120.806 265.084C120.734 265.092 120.662 265.096 120.59 265.096C120.518 265.104 120.446 265.108 120.374 265.108ZM124.548 265.108C123.916 265.108 123.372 264.988 122.916 264.748C122.468 264.5 122.12 264.152 121.872 263.704C121.624 263.248 121.5 262.712 121.5 262.096C121.5 261.488 121.62 260.956 121.86 260.5C122.108 260.044 122.444 259.688 122.868 259.432C123.3 259.176 123.792 259.048 124.344 259.048C124.736 259.048 125.088 259.116 125.4 259.252C125.72 259.38 125.992 259.568 126.216 259.816C126.44 260.064 126.608 260.368 126.72 260.728C126.84 261.08 126.9 261.48 126.9 261.928C126.9 262.056 126.86 262.156 126.78 262.228C126.708 262.292 126.6 262.324 126.456 262.324H122.352V261.628H126.18L125.976 261.796C125.976 261.38 125.912 261.028 125.784 260.74C125.664 260.444 125.484 260.22 125.244 260.068C125.012 259.916 124.72 259.84 124.368 259.84C123.984 259.84 123.656 259.932 123.384 260.116C123.112 260.292 122.904 260.544 122.76 260.872C122.616 261.192 122.544 261.564 122.544 261.988V262.06C122.544 262.78 122.716 263.324 123.06 263.692C123.404 264.06 123.9 264.244 124.548 264.244C124.804 264.244 125.064 264.212 125.328 264.148C125.6 264.084 125.86 263.968 126.108 263.8C126.228 263.728 126.336 263.696 126.432 263.704C126.536 263.704 126.62 263.736 126.684 263.8C126.748 263.856 126.788 263.928 126.804 264.016C126.82 264.096 126.808 264.184 126.768 264.28C126.728 264.376 126.652 264.46 126.54 264.532C126.276 264.716 125.96 264.86 125.592 264.964C125.232 265.06 124.884 265.108 124.548 265.108ZM130.035 265.108C129.675 265.108 129.311 265.068 128.943 264.988C128.583 264.9 128.243 264.752 127.923 264.544C127.835 264.488 127.771 264.42 127.731 264.34C127.699 264.252 127.687 264.168 127.695 264.088C127.711 264 127.747 263.924 127.803 263.86C127.859 263.796 127.927 263.76 128.007 263.752C128.095 263.736 128.187 263.756 128.283 263.812C128.595 263.988 128.895 264.112 129.183 264.184C129.479 264.256 129.771 264.292 130.059 264.292C130.499 264.292 130.831 264.212 131.055 264.052C131.279 263.892 131.391 263.68 131.391 263.416C131.391 263.192 131.315 263.02 131.163 262.9C131.019 262.772 130.791 262.676 130.479 262.612L129.363 262.384C128.867 262.272 128.491 262.088 128.235 261.832C127.987 261.568 127.863 261.232 127.863 260.824C127.863 260.464 127.959 260.152 128.151 259.888C128.351 259.616 128.627 259.408 128.979 259.264C129.331 259.12 129.735 259.048 130.191 259.048C130.543 259.048 130.875 259.096 131.187 259.192C131.507 259.28 131.795 259.416 132.051 259.6C132.147 259.656 132.207 259.728 132.231 259.816C132.263 259.896 132.267 259.98 132.243 260.068C132.227 260.148 132.191 260.216 132.135 260.272C132.079 260.328 132.007 260.364 131.919 260.38C131.831 260.388 131.735 260.364 131.631 260.308C131.399 260.148 131.159 260.036 130.911 259.972C130.671 259.9 130.431 259.864 130.191 259.864C129.759 259.864 129.431 259.948 129.207 260.116C128.991 260.284 128.883 260.504 128.883 260.776C128.883 260.984 128.947 261.156 129.075 261.292C129.211 261.428 129.423 261.528 129.711 261.592L130.827 261.82C131.347 261.932 131.739 262.112 132.003 262.36C132.267 262.6 132.399 262.928 132.399 263.344C132.399 263.888 132.183 264.32 131.751 264.64C131.327 264.952 130.755 265.108 130.035 265.108Z" fill="#051036" fill-opacity="0.2"/>
<path d="M90.868 285.18C89.824 285.18 88.93 284.934 88.186 284.442C87.454 283.938 86.896 283.218 86.512 282.282C86.128 281.346 85.936 280.212 85.936 278.88C85.936 277.8 86.056 276.846 86.296 276.018C86.548 275.178 86.908 274.47 87.376 273.894C87.844 273.318 88.414 272.88 89.086 272.58C89.77 272.28 90.538 272.13 91.39 272.13C91.918 272.13 92.452 272.214 92.992 272.382C93.544 272.538 94.06 272.778 94.54 273.102C94.732 273.222 94.858 273.378 94.918 273.57C94.978 273.762 94.984 273.954 94.936 274.146C94.9 274.326 94.816 274.488 94.684 274.632C94.564 274.764 94.408 274.848 94.216 274.884C94.024 274.908 93.814 274.854 93.586 274.722C93.178 274.482 92.794 274.314 92.434 274.218C92.074 274.122 91.714 274.074 91.354 274.074C90.658 274.074 90.07 274.236 89.59 274.56C89.11 274.884 88.744 275.37 88.492 276.018C88.252 276.666 88.132 277.476 88.132 278.448V279.798H87.916C88.012 279.186 88.21 278.664 88.51 278.232C88.822 277.788 89.218 277.452 89.698 277.224C90.178 276.984 90.712 276.864 91.3 276.864C92.032 276.864 92.68 277.038 93.244 277.386C93.808 277.734 94.252 278.214 94.576 278.826C94.9 279.438 95.062 280.14 95.062 280.932C95.062 281.748 94.882 282.48 94.522 283.128C94.174 283.764 93.682 284.268 93.046 284.64C92.422 285 91.696 285.18 90.868 285.18ZM90.742 283.344C91.174 283.344 91.552 283.248 91.876 283.056C92.212 282.864 92.47 282.594 92.65 282.246C92.83 281.886 92.92 281.478 92.92 281.022C92.92 280.554 92.83 280.146 92.65 279.798C92.47 279.45 92.212 279.18 91.876 278.988C91.552 278.784 91.174 278.682 90.742 278.682C90.31 278.682 89.932 278.784 89.608 278.988C89.284 279.18 89.026 279.45 88.834 279.798C88.654 280.146 88.564 280.554 88.564 281.022C88.564 281.478 88.654 281.886 88.834 282.246C89.026 282.594 89.284 282.864 89.608 283.056C89.932 283.248 90.31 283.344 90.742 283.344ZM100.581 285.18C99.933 285.18 99.261 285.096 98.565 284.928C97.869 284.76 97.263 284.508 96.747 284.172C96.507 284.016 96.345 283.836 96.261 283.632C96.177 283.428 96.153 283.236 96.189 283.056C96.237 282.864 96.327 282.702 96.459 282.57C96.603 282.438 96.777 282.36 96.981 282.336C97.197 282.312 97.431 282.366 97.683 282.498C98.175 282.762 98.649 282.954 99.105 283.074C99.561 283.182 100.029 283.236 100.509 283.236C101.037 283.236 101.481 283.164 101.841 283.02C102.201 282.876 102.471 282.66 102.651 282.372C102.843 282.084 102.939 281.736 102.939 281.328C102.939 280.728 102.735 280.284 102.327 279.996C101.931 279.696 101.349 279.546 100.581 279.546H99.429C99.093 279.546 98.835 279.462 98.655 279.294C98.487 279.126 98.403 278.892 98.403 278.592C98.403 278.292 98.487 278.058 98.655 277.89C98.835 277.722 99.093 277.638 99.429 277.638H100.365C100.821 277.638 101.211 277.566 101.535 277.422C101.859 277.266 102.111 277.05 102.291 276.774C102.471 276.498 102.561 276.162 102.561 275.766C102.561 275.214 102.375 274.794 102.003 274.506C101.643 274.218 101.115 274.074 100.419 274.074C99.975 274.074 99.555 274.128 99.159 274.236C98.775 274.332 98.349 274.518 97.881 274.794C97.665 274.926 97.455 274.98 97.251 274.956C97.059 274.932 96.897 274.854 96.765 274.722C96.633 274.59 96.543 274.434 96.495 274.254C96.447 274.062 96.459 273.87 96.531 273.678C96.603 273.474 96.753 273.3 96.981 273.156C97.497 272.82 98.067 272.568 98.691 272.4C99.315 272.22 99.957 272.13 100.617 272.13C101.493 272.13 102.243 272.268 102.867 272.544C103.491 272.808 103.965 273.192 104.289 273.696C104.625 274.188 104.793 274.788 104.793 275.496C104.793 276 104.697 276.462 104.505 276.882C104.313 277.29 104.043 277.638 103.695 277.926C103.347 278.214 102.927 278.418 102.435 278.538V278.322C103.299 278.466 103.971 278.826 104.451 279.402C104.931 279.966 105.171 280.674 105.171 281.526C105.171 282.27 104.985 282.918 104.613 283.47C104.241 284.022 103.713 284.448 103.029 284.748C102.345 285.036 101.529 285.18 100.581 285.18ZM111.788 284.856C111.668 285.072 111.518 285.21 111.338 285.27C111.17 285.342 110.996 285.354 110.816 285.306C110.648 285.27 110.504 285.186 110.384 285.054C110.264 284.934 110.192 284.784 110.168 284.604C110.144 284.412 110.192 284.208 110.312 283.992L116.954 272.472C117.074 272.256 117.218 272.112 117.386 272.04C117.566 271.968 117.74 271.956 117.908 272.004C118.076 272.04 118.22 272.124 118.34 272.256C118.46 272.388 118.532 272.55 118.556 272.742C118.592 272.922 118.55 273.114 118.43 273.318L111.788 284.856ZM109.862 279.888C108.854 279.888 108.068 279.54 107.504 278.844C106.94 278.148 106.658 277.2 106.658 276C106.658 275.196 106.784 274.506 107.036 273.93C107.288 273.354 107.654 272.91 108.134 272.598C108.614 272.286 109.19 272.13 109.862 272.13C110.87 272.13 111.656 272.478 112.22 273.174C112.784 273.858 113.066 274.8 113.066 276C113.066 276.804 112.94 277.5 112.688 278.088C112.436 278.664 112.07 279.108 111.59 279.42C111.11 279.732 110.534 279.888 109.862 279.888ZM109.862 278.376C110.15 278.376 110.396 278.292 110.6 278.124C110.804 277.944 110.96 277.68 111.068 277.332C111.176 276.984 111.23 276.54 111.23 276C111.23 275.196 111.11 274.602 110.87 274.218C110.63 273.834 110.294 273.642 109.862 273.642C109.574 273.642 109.328 273.726 109.124 273.894C108.92 274.062 108.764 274.32 108.656 274.668C108.548 275.016 108.494 275.46 108.494 276C108.494 276.816 108.614 277.416 108.854 277.8C109.094 278.184 109.43 278.376 109.862 278.376ZM118.898 285.18C117.89 285.18 117.104 284.832 116.54 284.136C115.976 283.44 115.694 282.492 115.694 281.292C115.694 280.488 115.82 279.798 116.072 279.222C116.324 278.646 116.69 278.202 117.17 277.89C117.65 277.578 118.226 277.422 118.898 277.422C119.906 277.422 120.692 277.77 121.256 278.466C121.82 279.15 122.102 280.092 122.102 281.292C122.102 282.096 121.976 282.792 121.724 283.38C121.472 283.956 121.106 284.4 120.626 284.712C120.146 285.024 119.57 285.18 118.898 285.18ZM118.898 283.668C119.186 283.668 119.432 283.584 119.636 283.416C119.84 283.248 119.996 282.99 120.104 282.642C120.212 282.282 120.266 281.832 120.266 281.292C120.266 280.488 120.146 279.894 119.906 279.51C119.666 279.126 119.33 278.934 118.898 278.934C118.61 278.934 118.364 279.018 118.16 279.186C117.956 279.354 117.8 279.612 117.692 279.96C117.584 280.308 117.53 280.752 117.53 281.292C117.53 282.108 117.65 282.708 117.89 283.092C118.13 283.476 118.466 283.668 118.898 283.668Z" fill="black"/>
<circle cx="76" cy="261" r="4" fill="#4318FF"/>
<path d="M268.792 265.108C268.416 265.108 268.052 265.076 267.7 265.012C267.348 264.956 267.016 264.868 266.704 264.748C266.392 264.628 266.112 264.48 265.864 264.304C265.76 264.232 265.684 264.144 265.636 264.04C265.596 263.936 265.584 263.836 265.6 263.74C265.624 263.636 265.668 263.548 265.732 263.476C265.804 263.404 265.888 263.36 265.984 263.344C266.08 263.328 266.184 263.36 266.296 263.44C266.664 263.688 267.048 263.868 267.448 263.98C267.856 264.092 268.304 264.148 268.792 264.148C269.496 264.148 270.012 264.02 270.34 263.764C270.676 263.508 270.844 263.172 270.844 262.756C270.844 262.412 270.724 262.144 270.484 261.952C270.244 261.752 269.84 261.596 269.272 261.484L268 261.22C267.248 261.06 266.684 260.796 266.308 260.428C265.94 260.06 265.756 259.568 265.756 258.952C265.756 258.576 265.832 258.236 265.984 257.932C266.136 257.62 266.352 257.352 266.632 257.128C266.912 256.904 267.24 256.732 267.616 256.612C268 256.492 268.424 256.432 268.888 256.432C269.384 256.432 269.848 256.5 270.28 256.636C270.72 256.772 271.116 256.972 271.468 257.236C271.564 257.308 271.628 257.396 271.66 257.5C271.692 257.596 271.696 257.692 271.672 257.788C271.656 257.884 271.612 257.964 271.54 258.028C271.476 258.092 271.392 258.128 271.288 258.136C271.192 258.144 271.084 258.108 270.964 258.028C270.644 257.804 270.316 257.644 269.98 257.548C269.644 257.444 269.276 257.392 268.876 257.392C268.468 257.392 268.112 257.456 267.808 257.584C267.512 257.712 267.28 257.892 267.112 258.124C266.952 258.348 266.872 258.612 266.872 258.916C266.872 259.284 266.984 259.572 267.208 259.78C267.432 259.988 267.808 260.148 268.336 260.26L269.596 260.512C270.396 260.68 270.988 260.94 271.372 261.292C271.764 261.636 271.96 262.1 271.96 262.684C271.96 263.052 271.884 263.384 271.732 263.68C271.588 263.976 271.38 264.232 271.108 264.448C270.836 264.656 270.504 264.82 270.112 264.94C269.72 265.052 269.28 265.108 268.792 265.108ZM274.316 267.244C274.188 267.244 274.08 267.208 273.992 267.136C273.912 267.072 273.864 266.98 273.848 266.86C273.84 266.748 273.864 266.628 273.92 266.5L274.736 264.652V265.108L272.468 259.828C272.412 259.692 272.392 259.568 272.408 259.456C272.424 259.344 272.476 259.252 272.564 259.18C272.66 259.108 272.788 259.072 272.948 259.072C273.084 259.072 273.192 259.104 273.272 259.168C273.352 259.232 273.428 259.344 273.5 259.504L275.384 264.148H275.048L276.968 259.504C277.032 259.344 277.108 259.232 277.196 259.168C277.284 259.104 277.404 259.072 277.556 259.072C277.692 259.072 277.796 259.108 277.868 259.18C277.948 259.252 277.996 259.344 278.012 259.456C278.028 259.568 278.004 259.688 277.94 259.816L274.916 266.812C274.836 266.98 274.752 267.092 274.664 267.148C274.584 267.212 274.468 267.244 274.316 267.244ZM280.83 265.108C280.47 265.108 280.106 265.068 279.738 264.988C279.378 264.9 279.038 264.752 278.718 264.544C278.63 264.488 278.566 264.42 278.526 264.34C278.494 264.252 278.482 264.168 278.49 264.088C278.506 264 278.542 263.924 278.598 263.86C278.654 263.796 278.722 263.76 278.802 263.752C278.89 263.736 278.982 263.756 279.078 263.812C279.39 263.988 279.69 264.112 279.978 264.184C280.274 264.256 280.566 264.292 280.854 264.292C281.294 264.292 281.626 264.212 281.85 264.052C282.074 263.892 282.186 263.68 282.186 263.416C282.186 263.192 282.11 263.02 281.958 262.9C281.814 262.772 281.586 262.676 281.274 262.612L280.158 262.384C279.662 262.272 279.286 262.088 279.03 261.832C278.782 261.568 278.658 261.232 278.658 260.824C278.658 260.464 278.754 260.152 278.946 259.888C279.146 259.616 279.422 259.408 279.774 259.264C280.126 259.12 280.53 259.048 280.986 259.048C281.338 259.048 281.67 259.096 281.982 259.192C282.302 259.28 282.59 259.416 282.846 259.6C282.942 259.656 283.002 259.728 283.026 259.816C283.058 259.896 283.062 259.98 283.038 260.068C283.022 260.148 282.986 260.216 282.93 260.272C282.874 260.328 282.802 260.364 282.714 260.38C282.626 260.388 282.53 260.364 282.426 260.308C282.194 260.148 281.954 260.036 281.706 259.972C281.466 259.9 281.226 259.864 280.986 259.864C280.554 259.864 280.226 259.948 280.002 260.116C279.786 260.284 279.678 260.504 279.678 260.776C279.678 260.984 279.742 261.156 279.87 261.292C280.006 261.428 280.218 261.528 280.506 261.592L281.622 261.82C282.142 261.932 282.534 262.112 282.798 262.36C283.062 262.6 283.194 262.928 283.194 263.344C283.194 263.888 282.978 264.32 282.546 264.64C282.122 264.952 281.55 265.108 280.83 265.108ZM286.74 265.108C286.268 265.108 285.872 265.024 285.552 264.856C285.24 264.688 285.004 264.444 284.844 264.124C284.692 263.804 284.616 263.412 284.616 262.948V259.996H283.848C283.704 259.996 283.592 259.96 283.512 259.888C283.432 259.808 283.392 259.704 283.392 259.576C283.392 259.44 283.432 259.336 283.512 259.264C283.592 259.192 283.704 259.156 283.848 259.156H284.616V257.848C284.616 257.664 284.664 257.528 284.76 257.44C284.856 257.344 284.992 257.296 285.168 257.296C285.344 257.296 285.476 257.344 285.564 257.44C285.66 257.528 285.708 257.664 285.708 257.848V259.156H287.16C287.312 259.156 287.428 259.192 287.508 259.264C287.588 259.336 287.628 259.44 287.628 259.576C287.628 259.704 287.588 259.808 287.508 259.888C287.428 259.96 287.312 259.996 287.16 259.996H285.708V262.852C285.708 263.292 285.8 263.624 285.984 263.848C286.168 264.072 286.472 264.184 286.896 264.184C287.048 264.184 287.176 264.172 287.28 264.148C287.384 264.116 287.476 264.1 287.556 264.1C287.628 264.092 287.688 264.116 287.736 264.172C287.792 264.228 287.82 264.332 287.82 264.484C287.82 264.596 287.8 264.7 287.76 264.796C287.728 264.884 287.66 264.944 287.556 264.976C287.46 265.008 287.332 265.036 287.172 265.06C287.012 265.092 286.868 265.108 286.74 265.108ZM291.018 265.108C290.386 265.108 289.842 264.988 289.386 264.748C288.938 264.5 288.59 264.152 288.342 263.704C288.094 263.248 287.97 262.712 287.97 262.096C287.97 261.488 288.09 260.956 288.33 260.5C288.578 260.044 288.914 259.688 289.338 259.432C289.77 259.176 290.262 259.048 290.814 259.048C291.206 259.048 291.558 259.116 291.87 259.252C292.19 259.38 292.462 259.568 292.686 259.816C292.91 260.064 293.078 260.368 293.19 260.728C293.31 261.08 293.37 261.48 293.37 261.928C293.37 262.056 293.33 262.156 293.25 262.228C293.178 262.292 293.07 262.324 292.926 262.324H288.822V261.628H292.65L292.446 261.796C292.446 261.38 292.382 261.028 292.254 260.74C292.134 260.444 291.954 260.22 291.714 260.068C291.482 259.916 291.19 259.84 290.838 259.84C290.454 259.84 290.126 259.932 289.854 260.116C289.582 260.292 289.374 260.544 289.23 260.872C289.086 261.192 289.014 261.564 289.014 261.988V262.06C289.014 262.78 289.186 263.324 289.53 263.692C289.874 264.06 290.37 264.244 291.018 264.244C291.274 264.244 291.534 264.212 291.798 264.148C292.07 264.084 292.33 263.968 292.578 263.8C292.698 263.728 292.806 263.696 292.902 263.704C293.006 263.704 293.09 263.736 293.154 263.8C293.218 263.856 293.258 263.928 293.274 264.016C293.29 264.096 293.278 264.184 293.238 264.28C293.198 264.376 293.122 264.46 293.01 264.532C292.746 264.716 292.43 264.86 292.062 264.964C291.702 265.06 291.354 265.108 291.018 265.108ZM295.052 265.084C294.884 265.084 294.752 265.036 294.656 264.94C294.56 264.844 294.512 264.704 294.512 264.52V259.624C294.512 259.44 294.56 259.304 294.656 259.216C294.752 259.12 294.884 259.072 295.052 259.072C295.22 259.072 295.348 259.12 295.436 259.216C295.532 259.304 295.58 259.44 295.58 259.624V260.644L295.448 260.428C295.6 259.988 295.844 259.648 296.18 259.408C296.524 259.168 296.932 259.048 297.404 259.048C297.9 259.048 298.3 259.168 298.604 259.408C298.908 259.64 299.112 259.996 299.216 260.476H299.048C299.192 260.036 299.448 259.688 299.816 259.432C300.192 259.176 300.628 259.048 301.124 259.048C301.564 259.048 301.924 259.136 302.204 259.312C302.492 259.48 302.708 259.736 302.852 260.08C302.996 260.416 303.068 260.848 303.068 261.376V264.52C303.068 264.704 303.02 264.844 302.924 264.94C302.828 265.036 302.696 265.084 302.528 265.084C302.352 265.084 302.216 265.036 302.12 264.94C302.024 264.844 301.976 264.704 301.976 264.52V261.424C301.976 260.912 301.888 260.536 301.712 260.296C301.536 260.056 301.24 259.936 300.824 259.936C300.368 259.936 300.004 260.096 299.732 260.416C299.468 260.728 299.336 261.16 299.336 261.712V264.52C299.336 264.704 299.288 264.844 299.192 264.94C299.104 265.036 298.972 265.084 298.796 265.084C298.62 265.084 298.484 265.036 298.388 264.94C298.292 264.844 298.244 264.704 298.244 264.52V261.424C298.244 260.912 298.156 260.536 297.98 260.296C297.804 260.056 297.508 259.936 297.092 259.936C296.636 259.936 296.272 260.096 296 260.416C295.736 260.728 295.604 261.16 295.604 261.712V264.52C295.604 264.896 295.42 265.084 295.052 265.084Z" fill="#051036" fill-opacity="0.2"/>
<path d="M267.394 285C267.01 285 266.728 284.916 266.548 284.748C266.38 284.568 266.296 284.31 266.296 283.974C266.296 283.77 266.35 283.572 266.458 283.38C266.566 283.188 266.722 282.984 266.926 282.768L270.544 278.916C271.096 278.34 271.492 277.818 271.732 277.35C271.972 276.87 272.092 276.39 272.092 275.91C272.092 275.31 271.9 274.854 271.516 274.542C271.144 274.23 270.598 274.074 269.878 274.074C269.47 274.074 269.062 274.134 268.654 274.254C268.246 274.362 267.832 274.554 267.412 274.83C267.196 274.974 266.992 275.034 266.8 275.01C266.62 274.986 266.458 274.908 266.314 274.776C266.182 274.644 266.092 274.482 266.044 274.29C265.996 274.098 266.002 273.906 266.062 273.714C266.134 273.51 266.278 273.336 266.494 273.192C267.01 272.844 267.586 272.58 268.222 272.4C268.87 272.22 269.518 272.13 270.166 272.13C271.078 272.13 271.846 272.268 272.47 272.544C273.094 272.82 273.568 273.222 273.892 273.75C274.216 274.278 274.378 274.92 274.378 275.676C274.378 276.18 274.294 276.672 274.126 277.152C273.97 277.632 273.724 278.118 273.388 278.61C273.064 279.102 272.638 279.624 272.11 280.176L268.726 283.704V283.092H274.018C274.342 283.092 274.588 283.17 274.756 283.326C274.924 283.482 275.008 283.716 275.008 284.028C275.008 284.34 274.924 284.58 274.756 284.748C274.588 284.916 274.342 285 274.018 285H267.394ZM280.941 285.18C280.305 285.18 279.657 285.096 278.997 284.928C278.337 284.76 277.731 284.502 277.179 284.154C276.951 284.01 276.795 283.842 276.711 283.65C276.639 283.446 276.621 283.248 276.657 283.056C276.705 282.852 276.795 282.684 276.927 282.552C277.071 282.408 277.239 282.324 277.431 282.3C277.635 282.276 277.857 282.33 278.097 282.462C278.541 282.714 278.991 282.906 279.447 283.038C279.903 283.17 280.389 283.236 280.905 283.236C281.409 283.236 281.841 283.146 282.201 282.966C282.561 282.786 282.837 282.534 283.029 282.21C283.221 281.886 283.317 281.508 283.317 281.076C283.317 280.404 283.113 279.864 282.705 279.456C282.297 279.036 281.739 278.826 281.031 278.826C280.647 278.826 280.275 278.892 279.915 279.024C279.555 279.144 279.201 279.36 278.853 279.672C278.745 279.768 278.607 279.864 278.439 279.96C278.271 280.044 278.091 280.086 277.899 280.086C277.599 280.086 277.371 280.008 277.215 279.852C277.059 279.696 276.981 279.48 276.981 279.204V273.318C276.981 272.994 277.065 272.748 277.233 272.58C277.413 272.4 277.665 272.31 277.989 272.31H283.911C284.235 272.31 284.481 272.394 284.649 272.562C284.829 272.718 284.919 272.952 284.919 273.264C284.919 273.564 284.829 273.798 284.649 273.966C284.481 274.134 284.235 274.218 283.911 274.218H279.231V278.25H278.637C278.949 277.83 279.363 277.506 279.879 277.278C280.395 277.05 280.959 276.936 281.571 276.936C282.375 276.936 283.071 277.11 283.659 277.458C284.259 277.794 284.721 278.268 285.045 278.88C285.381 279.48 285.549 280.182 285.549 280.986C285.549 281.814 285.363 282.546 284.991 283.182C284.619 283.806 284.085 284.298 283.389 284.658C282.705 285.006 281.889 285.18 280.941 285.18ZM291.788 284.856C291.668 285.072 291.518 285.21 291.338 285.27C291.17 285.342 290.996 285.354 290.816 285.306C290.648 285.27 290.504 285.186 290.384 285.054C290.264 284.934 290.192 284.784 290.168 284.604C290.144 284.412 290.192 284.208 290.312 283.992L296.954 272.472C297.074 272.256 297.218 272.112 297.386 272.04C297.566 271.968 297.74 271.956 297.908 272.004C298.076 272.04 298.22 272.124 298.34 272.256C298.46 272.388 298.532 272.55 298.556 272.742C298.592 272.922 298.55 273.114 298.43 273.318L291.788 284.856ZM289.862 279.888C288.854 279.888 288.068 279.54 287.504 278.844C286.94 278.148 286.658 277.2 286.658 276C286.658 275.196 286.784 274.506 287.036 273.93C287.288 273.354 287.654 272.91 288.134 272.598C288.614 272.286 289.19 272.13 289.862 272.13C290.87 272.13 291.656 272.478 292.22 273.174C292.784 273.858 293.066 274.8 293.066 276C293.066 276.804 292.94 277.5 292.688 278.088C292.436 278.664 292.07 279.108 291.59 279.42C291.11 279.732 290.534 279.888 289.862 279.888ZM289.862 278.376C290.15 278.376 290.396 278.292 290.6 278.124C290.804 277.944 290.96 277.68 291.068 277.332C291.176 276.984 291.23 276.54 291.23 276C291.23 275.196 291.11 274.602 290.87 274.218C290.63 273.834 290.294 273.642 289.862 273.642C289.574 273.642 289.328 273.726 289.124 273.894C288.92 274.062 288.764 274.32 288.656 274.668C288.548 275.016 288.494 275.46 288.494 276C288.494 276.816 288.614 277.416 288.854 277.8C289.094 278.184 289.43 278.376 289.862 278.376ZM298.898 285.18C297.89 285.18 297.104 284.832 296.54 284.136C295.976 283.44 295.694 282.492 295.694 281.292C295.694 280.488 295.82 279.798 296.072 279.222C296.324 278.646 296.69 278.202 297.17 277.89C297.65 277.578 298.226 277.422 298.898 277.422C299.906 277.422 300.692 277.77 301.256 278.466C301.82 279.15 302.102 280.092 302.102 281.292C302.102 282.096 301.976 282.792 301.724 283.38C301.472 283.956 301.106 284.4 300.626 284.712C300.146 285.024 299.57 285.18 298.898 285.18ZM298.898 283.668C299.186 283.668 299.432 283.584 299.636 283.416C299.84 283.248 299.996 282.99 300.104 282.642C300.212 282.282 300.266 281.832 300.266 281.292C300.266 280.488 300.146 279.894 299.906 279.51C299.666 279.126 299.33 278.934 298.898 278.934C298.61 278.934 298.364 279.018 298.16 279.186C297.956 279.354 297.8 279.612 297.692 279.96C297.584 280.308 297.53 280.752 297.53 281.292C297.53 282.108 297.65 282.708 297.89 283.092C298.13 283.476 298.466 283.668 298.898 283.668Z" fill="black"/>
<circle cx="256" cy="261" r="4" fill="#6AD2FF"/>
</g>
<defs>
<filter id="filter0_d_1168_7849" x="22" y="234" width="343" height="95" filterUnits="userSpaceOnUse" color-interpolation-filters="sRGB">
<feFlood flood-opacity="0" result="BackgroundImageFix"/>
<feColorMatrix in="SourceAlpha" type="matrix" values="0 0 0 0 0 0 0 0 0 0 0 0 0 0 0 0 0 0 127 0" result="hardAlpha"/>
<feOffset dy="10"/>
<feGaussianBlur stdDeviation="5"/>
<feColorMatrix type="matrix" values="0 0 0 0 0.439216 0 0 0 0 0.564706 0 0 0 0 0.690196 0 0 0 0.1 0"/>
<feBlend mode="normal" in2="BackgroundImageFix" result="effect1_dropShadow_1168_7849"/>
<feBlend mode="normal" in="SourceGraphic" in2="effect1_dropShadow_1168_7849" result="shape"/>
</filter>
<clipPath id="clip0_1168_7849">
<rect width="19" height="19" fill="white" transform="translate(363 47) rotate(-180)"/>
</clipPath>
</defs>
</svg>
