<svg width="485" height="345" viewBox="0 0 485 345" fill="none" xmlns="http://www.w3.org/2000/svg">
<rect width="485" height="345" rx="20" fill="white"/>
<path d="M41.5887 300.144C40.8127 300.144 40.1487 299.964 39.5967 299.604C39.0447 299.236 38.6167 298.728 38.3127 298.08C38.0167 297.424 37.8687 296.664 37.8687 295.8C37.8687 294.944 38.0167 294.188 38.3127 293.532C38.6167 292.876 39.0447 292.368 39.5967 292.008C40.1487 291.64 40.8127 291.456 41.5887 291.456C42.3647 291.456 43.0287 291.64 43.5807 292.008C44.1327 292.368 44.5567 292.876 44.8527 293.532C45.1567 294.188 45.3087 294.944 45.3087 295.8C45.3087 296.664 45.1567 297.424 44.8527 298.08C44.5567 298.728 44.1327 299.236 43.5807 299.604C43.0287 299.964 42.3647 300.144 41.5887 300.144ZM41.5887 298.764C42.2207 298.764 42.7367 298.5 43.1367 297.972C43.5367 297.444 43.7367 296.72 43.7367 295.8C43.7367 294.88 43.5367 294.156 43.1367 293.628C42.7367 293.1 42.2207 292.836 41.5887 292.836C40.9487 292.836 40.4287 293.1 40.0287 293.628C39.6367 294.156 39.4407 294.88 39.4407 295.8C39.4407 296.72 39.6367 297.444 40.0287 297.972C40.4287 298.5 40.9487 298.764 41.5887 298.764ZM49.8683 300.144C49.0923 300.144 48.4283 299.964 47.8763 299.604C47.3243 299.236 46.8963 298.728 46.5923 298.08C46.2963 297.424 46.1483 296.664 46.1483 295.8C46.1483 294.944 46.2963 294.188 46.5923 293.532C46.8963 292.876 47.3243 292.368 47.8763 292.008C48.4283 291.64 49.0923 291.456 49.8683 291.456C50.6443 291.456 51.3083 291.64 51.8603 292.008C52.4123 292.368 52.8363 292.876 53.1323 293.532C53.4363 294.188 53.5883 294.944 53.5883 295.8C53.5883 296.664 53.4363 297.424 53.1323 298.08C52.8363 298.728 52.4123 299.236 51.8603 299.604C51.3083 299.964 50.6443 300.144 49.8683 300.144ZM49.8683 298.764C50.5003 298.764 51.0163 298.5 51.4163 297.972C51.8163 297.444 52.0163 296.72 52.0163 295.8C52.0163 294.88 51.8163 294.156 51.4163 293.628C51.0163 293.1 50.5003 292.836 49.8683 292.836C49.2283 292.836 48.7083 293.1 48.3083 293.628C47.9163 294.156 47.7203 294.88 47.7203 295.8C47.7203 296.72 47.9163 297.444 48.3083 297.972C48.7083 298.5 49.2283 298.764 49.8683 298.764Z" fill="#B0BBD5"/>
<path d="M107.827 300.144C107.051 300.144 106.387 299.964 105.835 299.604C105.283 299.236 104.855 298.728 104.551 298.08C104.255 297.424 104.107 296.664 104.107 295.8C104.107 294.944 104.255 294.188 104.551 293.532C104.855 292.876 105.283 292.368 105.835 292.008C106.387 291.64 107.051 291.456 107.827 291.456C108.603 291.456 109.267 291.64 109.819 292.008C110.371 292.368 110.795 292.876 111.091 293.532C111.395 294.188 111.547 294.944 111.547 295.8C111.547 296.664 111.395 297.424 111.091 298.08C110.795 298.728 110.371 299.236 109.819 299.604C109.267 299.964 108.603 300.144 107.827 300.144ZM107.827 298.764C108.459 298.764 108.975 298.5 109.375 297.972C109.775 297.444 109.975 296.72 109.975 295.8C109.975 294.88 109.775 294.156 109.375 293.628C108.975 293.1 108.459 292.836 107.827 292.836C107.187 292.836 106.667 293.1 106.267 293.628C105.875 294.156 105.679 294.88 105.679 295.8C105.679 296.72 105.875 297.444 106.267 297.972C106.667 298.5 107.187 298.764 107.827 298.764ZM116.502 300V298.44H112.362V297.216L116.298 291.6H118.038V297.108H119.142V298.44H118.038V300H116.502ZM114.006 297.108H116.598V293.292L114.006 297.108Z" fill="#B0BBD5"/>
<path d="M173.718 300.144C172.942 300.144 172.278 299.964 171.726 299.604C171.174 299.236 170.746 298.728 170.442 298.08C170.146 297.424 169.998 296.664 169.998 295.8C169.998 294.944 170.146 294.188 170.442 293.532C170.746 292.876 171.174 292.368 171.726 292.008C172.278 291.64 172.942 291.456 173.718 291.456C174.494 291.456 175.158 291.64 175.71 292.008C176.262 292.368 176.686 292.876 176.982 293.532C177.286 294.188 177.438 294.944 177.438 295.8C177.438 296.664 177.286 297.424 176.982 298.08C176.686 298.728 176.262 299.236 175.71 299.604C175.158 299.964 174.494 300.144 173.718 300.144ZM173.718 298.764C174.35 298.764 174.866 298.5 175.266 297.972C175.666 297.444 175.866 296.72 175.866 295.8C175.866 294.88 175.666 294.156 175.266 293.628C174.866 293.1 174.35 292.836 173.718 292.836C173.078 292.836 172.558 293.1 172.158 293.628C171.766 294.156 171.57 294.88 171.57 295.8C171.57 296.72 171.766 297.444 172.158 297.972C172.558 298.5 173.078 298.764 173.718 298.764ZM181.517 300.144C180.941 300.144 180.421 300.044 179.957 299.844C179.493 299.636 179.121 299.344 178.841 298.968C178.569 298.592 178.433 298.156 178.433 297.66C178.433 297.148 178.565 296.7 178.829 296.316C179.101 295.932 179.457 295.656 179.897 295.488C179.513 295.32 179.209 295.08 178.985 294.768C178.761 294.448 178.649 294.092 178.649 293.7C178.649 293.3 178.757 292.932 178.973 292.596C179.189 292.252 179.509 291.976 179.933 291.768C180.365 291.56 180.893 291.456 181.517 291.456C182.141 291.456 182.665 291.56 183.089 291.768C183.513 291.976 183.833 292.252 184.049 292.596C184.265 292.932 184.373 293.3 184.373 293.7C184.373 294.084 184.257 294.44 184.025 294.768C183.801 295.088 183.501 295.328 183.125 295.488C183.573 295.656 183.929 295.932 184.193 296.316C184.457 296.7 184.589 297.148 184.589 297.66C184.589 298.156 184.453 298.592 184.181 298.968C183.909 299.344 183.537 299.636 183.065 299.844C182.601 300.044 182.085 300.144 181.517 300.144ZM181.517 295.032C181.933 295.032 182.261 294.924 182.501 294.708C182.741 294.492 182.861 294.216 182.861 293.88C182.861 293.512 182.741 293.224 182.501 293.016C182.269 292.808 181.941 292.704 181.517 292.704C181.085 292.704 180.753 292.808 180.521 293.016C180.289 293.224 180.173 293.512 180.173 293.88C180.173 294.224 180.289 294.504 180.521 294.72C180.761 294.928 181.093 295.032 181.517 295.032ZM181.517 298.86C182.029 298.86 182.417 298.736 182.681 298.488C182.945 298.232 183.077 297.912 183.077 297.528C183.077 297.104 182.937 296.772 182.657 296.532C182.385 296.292 182.005 296.172 181.517 296.172C181.029 296.172 180.641 296.292 180.353 296.532C180.073 296.772 179.933 297.104 179.933 297.528C179.933 297.912 180.065 298.232 180.329 298.488C180.601 298.736 180.997 298.86 181.517 298.86Z" fill="#B0BBD5"/>
<path d="M238.852 300V293.352L237.472 293.676V292.5L239.5 291.6H240.448V300H238.852ZM241.632 300V298.884C242.144 298.46 242.64 298.04 243.12 297.624C243.608 297.208 244.04 296.796 244.416 296.388C244.8 295.98 245.104 295.584 245.328 295.2C245.56 294.808 245.676 294.428 245.676 294.06C245.676 293.716 245.58 293.412 245.388 293.148C245.204 292.884 244.896 292.752 244.464 292.752C244.024 292.752 243.692 292.896 243.468 293.184C243.244 293.472 243.132 293.82 243.132 294.228H241.644C241.66 293.612 241.796 293.1 242.052 292.692C242.308 292.276 242.648 291.968 243.072 291.768C243.496 291.56 243.972 291.456 244.5 291.456C245.356 291.456 246.02 291.692 246.492 292.164C246.972 292.628 247.212 293.232 247.212 293.976C247.212 294.44 247.104 294.892 246.888 295.332C246.68 295.772 246.404 296.196 246.06 296.604C245.716 297.012 245.344 297.396 244.944 297.756C244.544 298.108 244.156 298.436 243.78 298.74H247.416V300H241.632Z" fill="#B0BBD5"/>
<path d="M304.257 300V293.352L302.877 293.676V292.5L304.905 291.6H305.853V300H304.257ZM311.082 300V298.44H306.942V297.216L310.878 291.6H312.618V297.108H313.722V298.44H312.618V300H311.082ZM308.586 297.108H311.178V293.292L308.586 297.108Z" fill="#B0BBD5"/>
<path d="M369.426 300V293.352L368.046 293.676V292.5L370.074 291.6H371.022V300H369.426ZM375.567 300.144C374.935 300.144 374.403 300.028 373.971 299.796C373.539 299.564 373.191 299.252 372.927 298.86C372.663 298.468 372.471 298.032 372.351 297.552C372.239 297.072 372.183 296.58 372.183 296.076C372.183 295.14 372.315 294.328 372.579 293.64C372.843 292.944 373.223 292.408 373.719 292.032C374.215 291.648 374.815 291.456 375.519 291.456C376.095 291.456 376.583 291.572 376.983 291.804C377.391 292.028 377.707 292.324 377.931 292.692C378.155 293.06 378.287 293.456 378.327 293.88H376.899C376.827 293.512 376.671 293.228 376.431 293.028C376.191 292.828 375.883 292.728 375.507 292.728C374.971 292.728 374.539 292.976 374.211 293.472C373.883 293.96 373.707 294.708 373.683 295.716C373.875 295.388 374.163 295.116 374.547 294.9C374.931 294.684 375.359 294.576 375.831 294.576C376.295 294.576 376.731 294.688 377.139 294.912C377.547 295.136 377.875 295.452 378.123 295.86C378.379 296.268 378.507 296.748 378.507 297.3C378.507 297.804 378.383 298.272 378.135 298.704C377.895 299.136 377.551 299.484 377.103 299.748C376.663 300.012 376.151 300.144 375.567 300.144ZM375.483 298.824C375.931 298.824 376.299 298.688 376.587 298.416C376.883 298.136 377.031 297.784 377.031 297.36C377.031 296.912 376.883 296.552 376.587 296.28C376.291 296.008 375.915 295.872 375.459 295.872C375.163 295.872 374.895 295.94 374.655 296.076C374.423 296.204 374.239 296.38 374.103 296.604C373.967 296.82 373.899 297.064 373.899 297.336C373.899 297.768 374.047 298.124 374.343 298.404C374.647 298.684 375.027 298.824 375.483 298.824Z" fill="#B0BBD5"/>
<path d="M434.585 300V293.352L433.205 293.676V292.5L435.233 291.6H436.181V300H434.585ZM440.533 300.144C439.957 300.144 439.437 300.044 438.973 299.844C438.509 299.636 438.137 299.344 437.857 298.968C437.585 298.592 437.449 298.156 437.449 297.66C437.449 297.148 437.581 296.7 437.845 296.316C438.117 295.932 438.473 295.656 438.913 295.488C438.529 295.32 438.225 295.08 438.001 294.768C437.777 294.448 437.665 294.092 437.665 293.7C437.665 293.3 437.773 292.932 437.989 292.596C438.205 292.252 438.525 291.976 438.949 291.768C439.381 291.56 439.909 291.456 440.533 291.456C441.157 291.456 441.681 291.56 442.105 291.768C442.529 291.976 442.849 292.252 443.065 292.596C443.281 292.932 443.389 293.3 443.389 293.7C443.389 294.084 443.273 294.44 443.041 294.768C442.817 295.088 442.517 295.328 442.141 295.488C442.589 295.656 442.945 295.932 443.209 296.316C443.473 296.7 443.605 297.148 443.605 297.66C443.605 298.156 443.469 298.592 443.197 298.968C442.925 299.344 442.553 299.636 442.081 299.844C441.617 300.044 441.101 300.144 440.533 300.144ZM440.533 295.032C440.949 295.032 441.277 294.924 441.517 294.708C441.757 294.492 441.877 294.216 441.877 293.88C441.877 293.512 441.757 293.224 441.517 293.016C441.285 292.808 440.957 292.704 440.533 292.704C440.101 292.704 439.769 292.808 439.537 293.016C439.305 293.224 439.189 293.512 439.189 293.88C439.189 294.224 439.305 294.504 439.537 294.72C439.777 294.928 440.109 295.032 440.533 295.032ZM440.533 298.86C441.045 298.86 441.433 298.736 441.697 298.488C441.961 298.232 442.093 297.912 442.093 297.528C442.093 297.104 441.953 296.772 441.673 296.532C441.401 296.292 441.021 296.172 440.533 296.172C440.045 296.172 439.657 296.292 439.369 296.532C439.089 296.772 438.949 297.104 438.949 297.528C438.949 297.912 439.081 298.232 439.345 298.488C439.617 298.736 440.013 298.86 440.533 298.86Z" fill="#B0BBD5"/>
<path d="M422.026 41.168V39.884H424.282V37.808H425.59V39.884H427.834V41.168H425.59V43.244H424.282V41.168H422.026ZM428.886 44V42.884C429.398 42.46 429.894 42.04 430.374 41.624C430.862 41.208 431.294 40.796 431.67 40.388C432.054 39.98 432.358 39.584 432.582 39.2C432.814 38.808 432.93 38.428 432.93 38.06C432.93 37.716 432.834 37.412 432.642 37.148C432.458 36.884 432.15 36.752 431.718 36.752C431.278 36.752 430.946 36.896 430.722 37.184C430.498 37.472 430.386 37.82 430.386 38.228H428.898C428.914 37.612 429.05 37.1 429.306 36.692C429.562 36.276 429.902 35.968 430.326 35.768C430.75 35.56 431.226 35.456 431.754 35.456C432.61 35.456 433.274 35.692 433.746 36.164C434.226 36.628 434.466 37.232 434.466 37.976C434.466 38.44 434.358 38.892 434.142 39.332C433.934 39.772 433.658 40.196 433.314 40.604C432.97 41.012 432.598 41.396 432.198 41.756C431.798 42.108 431.41 42.436 431.034 42.74H434.67V44H428.886ZM436.33 44.084C436.05 44.084 435.818 43.996 435.634 43.82C435.458 43.644 435.37 43.432 435.37 43.184C435.37 42.928 435.458 42.712 435.634 42.536C435.818 42.36 436.05 42.272 436.33 42.272C436.61 42.272 436.838 42.36 437.014 42.536C437.198 42.712 437.29 42.928 437.29 43.184C437.29 43.432 437.198 43.644 437.014 43.82C436.838 43.996 436.61 44.084 436.33 44.084ZM442.188 44V42.44H438.048V41.216L441.984 35.6H443.724V41.108H444.828V42.44H443.724V44H442.188ZM439.692 41.108H442.284V37.292L439.692 41.108ZM448.808 44.144C448.192 44.144 447.66 44.036 447.212 43.82C446.772 43.604 446.424 43.308 446.168 42.932C445.92 42.548 445.776 42.116 445.736 41.636H447.236C447.308 41.98 447.484 42.268 447.764 42.5C448.044 42.724 448.392 42.836 448.808 42.836C449.256 42.836 449.62 42.672 449.9 42.344C450.188 42.016 450.332 41.608 450.332 41.12C450.332 40.616 450.188 40.216 449.9 39.92C449.62 39.624 449.264 39.476 448.832 39.476C448.472 39.476 448.16 39.564 447.896 39.74C447.632 39.916 447.444 40.136 447.332 40.4H445.856L446.576 35.6H451.232V36.944H447.728L447.344 38.888C447.52 38.696 447.76 38.54 448.064 38.42C448.368 38.292 448.708 38.228 449.084 38.228C449.684 38.228 450.184 38.364 450.584 38.636C450.984 38.9 451.288 39.252 451.496 39.692C451.704 40.124 451.808 40.596 451.808 41.108C451.808 41.692 451.68 42.212 451.424 42.668C451.176 43.124 450.824 43.484 450.368 43.748C449.92 44.012 449.4 44.144 448.808 44.144ZM454.725 39.728C454.341 39.728 453.993 39.644 453.681 39.476C453.369 39.3 453.121 39.052 452.937 38.732C452.753 38.412 452.661 38.032 452.661 37.592C452.661 37.152 452.753 36.772 452.937 36.452C453.121 36.132 453.369 35.888 453.681 35.72C453.993 35.544 454.345 35.456 454.737 35.456C455.121 35.456 455.465 35.544 455.769 35.72C456.081 35.888 456.329 36.132 456.513 36.452C456.697 36.772 456.789 37.152 456.789 37.592C456.789 38.032 456.697 38.412 456.513 38.732C456.329 39.052 456.081 39.3 455.769 39.476C455.457 39.644 455.109 39.728 454.725 39.728ZM454.269 44L459.009 35.6H460.509L455.769 44H454.269ZM454.725 38.66C454.957 38.66 455.157 38.572 455.325 38.396C455.493 38.212 455.577 37.944 455.577 37.592C455.577 37.24 455.493 36.972 455.325 36.788C455.165 36.604 454.965 36.512 454.725 36.512C454.485 36.512 454.281 36.604 454.113 36.788C453.953 36.972 453.873 37.24 453.873 37.592C453.873 37.944 453.953 38.212 454.113 38.396C454.281 38.572 454.485 38.66 454.725 38.66ZM460.101 44.144C459.717 44.144 459.369 44.06 459.057 43.892C458.745 43.716 458.497 43.468 458.313 43.148C458.129 42.828 458.037 42.448 458.037 42.008C458.037 41.568 458.129 41.192 458.313 40.88C458.497 40.56 458.745 40.316 459.057 40.148C459.369 39.972 459.721 39.884 460.113 39.884C460.497 39.884 460.841 39.972 461.145 40.148C461.457 40.316 461.705 40.56 461.889 40.88C462.073 41.192 462.165 41.568 462.165 42.008C462.165 42.448 462.073 42.828 461.889 43.148C461.705 43.468 461.457 43.716 461.145 43.892C460.841 44.06 460.493 44.144 460.101 44.144ZM460.101 43.076C460.341 43.076 460.541 42.988 460.701 42.812C460.869 42.628 460.953 42.36 460.953 42.008C460.953 41.656 460.869 41.388 460.701 41.204C460.541 41.02 460.341 40.928 460.101 40.928C459.861 40.928 459.657 41.02 459.489 41.204C459.329 41.388 459.249 41.656 459.249 42.008C459.249 42.36 459.329 42.628 459.489 42.812C459.657 42.988 459.861 43.076 460.101 43.076Z" fill="#05CD99"/>
<g clip-path="url(#clip0_1168_7816)">
<path d="M408.25 41.5L412 37.75L415.75 41.5H408.25Z" fill="#05CD99"/>
</g>
<path d="M431.388 270L431.388 238.523C431.388 233.703 435.295 229.796 440.115 229.796C444.935 229.796 448.843 233.703 448.843 238.523L448.843 270L431.388 270Z" fill="url(#paint0_linear_1168_7816)"/>
<path d="M365.309 270L365.309 125.728C365.309 120.907 369.216 117 374.036 117C378.856 117 382.764 120.907 382.764 125.728L382.764 270L365.309 270Z" fill="url(#paint1_linear_1168_7816)"/>
<path d="M300.476 270L300.476 162.582C300.476 157.761 304.383 153.854 309.203 153.854C314.023 153.854 317.931 157.761 317.931 162.582L317.931 270L300.476 270Z" fill="url(#paint2_linear_1168_7816)"/>
<path d="M234.396 270L234.395 191.618C234.395 186.798 238.303 182.891 243.123 182.891C247.943 182.891 251.851 186.798 251.851 191.618L251.851 270L234.396 270Z" fill="url(#paint3_linear_1168_7816)"/>
<path d="M168.315 270L168.315 140.246C168.315 135.426 172.223 131.518 177.043 131.518C181.863 131.518 185.77 135.426 185.77 140.246L185.77 270L168.315 270Z" fill="url(#paint4_linear_1168_7816)"/>
<path d="M103.483 270L103.483 208.37C103.483 203.55 107.391 199.642 112.211 199.642C117.031 199.642 120.938 203.55 120.938 208.37L120.938 270L103.483 270Z" fill="url(#paint5_linear_1168_7816)"/>
<path d="M37.4033 270L37.4033 179.333C37.4033 174.513 41.3108 170.606 46.1308 170.606C50.9509 170.606 54.8583 174.513 54.8583 179.333L54.8583 270L37.4033 270Z" fill="url(#paint6_linear_1168_7816)"/>
<path d="M26.89 42C26.666 42 26.4933 41.9393 26.372 41.818C26.2507 41.6967 26.19 41.524 26.19 41.3V32.83C26.19 32.606 26.2507 32.4333 26.372 32.312C26.4933 32.1907 26.666 32.13 26.89 32.13H29.592C31.2067 32.13 32.448 32.5547 33.316 33.404C34.1933 34.244 34.632 35.462 34.632 37.058C34.632 37.8513 34.52 38.556 34.296 39.172C34.072 39.788 33.7453 40.306 33.316 40.726C32.8867 41.1367 32.3593 41.454 31.734 41.678C31.118 41.8927 30.404 42 29.592 42H26.89ZM27.492 40.894H29.508C30.1427 40.894 30.6933 40.8147 31.16 40.656C31.6267 40.4973 32.014 40.2593 32.322 39.942C32.6393 39.6247 32.8773 39.228 33.036 38.752C33.1947 38.2667 33.274 37.702 33.274 37.058C33.274 35.7793 32.9567 34.8227 32.322 34.188C31.6967 33.5533 30.7587 33.236 29.508 33.236H27.492V40.894ZM38.371 42.126C37.9043 42.126 37.4797 42.0327 37.097 41.846C36.7237 41.6593 36.4297 41.4073 36.215 41.09C36.0097 40.7727 35.907 40.418 35.907 40.026C35.907 39.522 36.033 39.1253 36.285 38.836C36.537 38.5467 36.9617 38.3413 37.559 38.22C38.1563 38.0893 38.959 38.024 39.967 38.024H40.625V38.836H39.995C39.2763 38.836 38.707 38.8687 38.287 38.934C37.8763 38.9993 37.587 39.116 37.419 39.284C37.251 39.4427 37.167 39.6667 37.167 39.956C37.167 40.32 37.293 40.6187 37.545 40.852C37.8063 41.0853 38.161 41.202 38.609 41.202C38.9637 41.202 39.2763 41.118 39.547 40.95C39.8177 40.7727 40.0323 40.5393 40.191 40.25C40.3497 39.9513 40.429 39.6107 40.429 39.228V37.618C40.429 37.0673 40.317 36.6707 40.093 36.428C39.869 36.176 39.491 36.05 38.959 36.05C38.651 36.05 38.3337 36.092 38.007 36.176C37.6803 36.26 37.3397 36.3907 36.985 36.568C36.845 36.6333 36.7237 36.6567 36.621 36.638C36.5183 36.61 36.4343 36.554 36.369 36.47C36.313 36.3767 36.2803 36.2787 36.271 36.176C36.271 36.064 36.2943 35.9567 36.341 35.854C36.397 35.7513 36.4903 35.6767 36.621 35.63C37.0317 35.4247 37.4377 35.28 37.839 35.196C38.2497 35.1027 38.6323 35.056 38.987 35.056C39.5937 35.056 40.093 35.154 40.485 35.35C40.877 35.5367 41.171 35.8307 41.367 36.232C41.563 36.624 41.661 37.128 41.661 37.744V41.44C41.661 41.6547 41.6097 41.818 41.507 41.93C41.4043 42.042 41.255 42.098 41.059 42.098C40.8723 42.098 40.723 42.042 40.611 41.93C40.5083 41.818 40.457 41.6547 40.457 41.44V40.446H40.583C40.5083 40.7913 40.3683 41.09 40.163 41.342C39.9577 41.594 39.701 41.79 39.393 41.93C39.0943 42.0607 38.7537 42.126 38.371 42.126ZM44.0158 42.07C43.8198 42.07 43.6658 42.0093 43.5538 41.888C43.4418 41.7667 43.3858 41.5987 43.3858 41.384V35.798C43.3858 35.574 43.4418 35.406 43.5538 35.294C43.6658 35.1727 43.8198 35.112 44.0158 35.112C44.2212 35.112 44.3798 35.1727 44.4918 35.294C44.6038 35.406 44.6598 35.574 44.6598 35.798V41.384C44.6598 41.5987 44.6038 41.7667 44.4918 41.888C44.3892 42.0093 44.2305 42.07 44.0158 42.07ZM44.0158 33.6C43.7638 33.6 43.5632 33.5347 43.4138 33.404C43.2738 33.264 43.2038 33.082 43.2038 32.858C43.2038 32.6153 43.2738 32.4333 43.4138 32.312C43.5632 32.1813 43.7638 32.116 44.0158 32.116C44.2865 32.116 44.4872 32.1813 44.6178 32.312C44.7578 32.4333 44.8278 32.6153 44.8278 32.858C44.8278 33.082 44.7578 33.264 44.6178 33.404C44.4872 33.5347 44.2865 33.6 44.0158 33.6ZM48.5701 42.126C47.8701 42.126 47.3381 41.9207 46.9741 41.51C46.6101 41.09 46.4281 40.488 46.4281 39.704V32.676C46.4281 32.4613 46.4841 32.3027 46.5961 32.2C46.7081 32.088 46.8621 32.032 47.0581 32.032C47.2634 32.032 47.4221 32.088 47.5341 32.2C47.6461 32.3027 47.7021 32.4613 47.7021 32.676V39.606C47.7021 40.0913 47.8001 40.4553 47.9961 40.698C48.2014 40.9313 48.4908 41.048 48.8641 41.048C48.9481 41.048 49.0228 41.048 49.0881 41.048C49.1534 41.0387 49.2188 41.0293 49.2841 41.02C49.3868 41.0107 49.4614 41.0387 49.5081 41.104C49.5548 41.1693 49.5781 41.3 49.5781 41.496C49.5781 41.6733 49.5361 41.8133 49.4521 41.916C49.3774 42.0093 49.2514 42.07 49.0741 42.098C48.9901 42.1073 48.9061 42.112 48.8221 42.112C48.7381 42.1213 48.6541 42.126 48.5701 42.126ZM51.763 44.618C51.6136 44.618 51.4876 44.576 51.385 44.492C51.2916 44.4173 51.2356 44.31 51.217 44.17C51.2076 44.0393 51.2356 43.8993 51.301 43.75L52.253 41.594V42.126L49.607 35.966C49.5416 35.8073 49.5183 35.6627 49.537 35.532C49.5556 35.4013 49.6163 35.294 49.719 35.21C49.831 35.126 49.9803 35.084 50.167 35.084C50.3256 35.084 50.4516 35.1213 50.545 35.196C50.6383 35.2707 50.727 35.4013 50.811 35.588L53.009 41.006H52.617L54.857 35.588C54.9316 35.4013 55.0203 35.2707 55.123 35.196C55.2256 35.1213 55.3656 35.084 55.543 35.084C55.7016 35.084 55.823 35.126 55.907 35.21C56.0003 35.294 56.0563 35.4013 56.075 35.532C56.0936 35.6627 56.0656 35.8027 55.991 35.952L52.463 44.114C52.3696 44.31 52.2716 44.4407 52.169 44.506C52.0756 44.5807 51.9403 44.618 51.763 44.618ZM63.7518 42.098C63.5371 42.098 63.3738 42.042 63.2618 41.93C63.1498 41.8087 63.0938 41.6407 63.0938 41.426V33.236H60.0278C59.8504 33.236 59.7104 33.1893 59.6078 33.096C59.5051 32.9933 59.4538 32.8533 59.4538 32.676C59.4538 32.4987 59.5051 32.3633 59.6078 32.27C59.7104 32.1767 59.8504 32.13 60.0278 32.13H67.4618C67.6484 32.13 67.7884 32.1767 67.8818 32.27C67.9844 32.3633 68.0358 32.4987 68.0358 32.676C68.0358 32.8533 67.9844 32.9933 67.8818 33.096C67.7884 33.1893 67.6484 33.236 67.4618 33.236H64.3958V41.426C64.3958 41.6407 64.3398 41.8087 64.2278 41.93C64.1251 42.042 63.9664 42.098 63.7518 42.098ZM68.3196 42.098C68.1049 42.098 67.9416 42.042 67.8296 41.93C67.7176 41.818 67.6616 41.6547 67.6616 41.44V35.728C67.6616 35.5133 67.7176 35.3547 67.8296 35.252C67.9416 35.14 68.0956 35.084 68.2916 35.084C68.4876 35.084 68.6369 35.14 68.7396 35.252C68.8516 35.3547 68.9076 35.5133 68.9076 35.728V36.806H68.7676C68.9169 36.246 69.1969 35.8213 69.6076 35.532C70.0183 35.2427 70.5363 35.0793 71.1616 35.042C71.3109 35.0327 71.4323 35.07 71.5256 35.154C71.6189 35.2287 71.6703 35.3593 71.6796 35.546C71.6889 35.7233 71.6469 35.868 71.5536 35.98C71.4603 36.0827 71.3156 36.1433 71.1196 36.162L70.8676 36.176C70.2516 36.2413 69.7756 36.442 69.4396 36.778C69.1129 37.114 68.9496 37.576 68.9496 38.164V41.44C68.9496 41.6547 68.8936 41.818 68.7816 41.93C68.6789 42.042 68.5249 42.098 68.3196 42.098ZM74.5965 42.126C74.1299 42.126 73.7052 42.0327 73.3225 41.846C72.9492 41.6593 72.6552 41.4073 72.4405 41.09C72.2352 40.7727 72.1325 40.418 72.1325 40.026C72.1325 39.522 72.2585 39.1253 72.5105 38.836C72.7625 38.5467 73.1872 38.3413 73.7845 38.22C74.3819 38.0893 75.1845 38.024 76.1925 38.024H76.8505V38.836H76.2205C75.5019 38.836 74.9325 38.8687 74.5125 38.934C74.1019 38.9993 73.8125 39.116 73.6445 39.284C73.4765 39.4427 73.3925 39.6667 73.3925 39.956C73.3925 40.32 73.5185 40.6187 73.7705 40.852C74.0319 41.0853 74.3865 41.202 74.8345 41.202C75.1892 41.202 75.5019 41.118 75.7725 40.95C76.0432 40.7727 76.2579 40.5393 76.4165 40.25C76.5752 39.9513 76.6545 39.6107 76.6545 39.228V37.618C76.6545 37.0673 76.5425 36.6707 76.3185 36.428C76.0945 36.176 75.7165 36.05 75.1845 36.05C74.8765 36.05 74.5592 36.092 74.2325 36.176C73.9059 36.26 73.5652 36.3907 73.2105 36.568C73.0705 36.6333 72.9492 36.6567 72.8465 36.638C72.7439 36.61 72.6599 36.554 72.5945 36.47C72.5385 36.3767 72.5059 36.2787 72.4965 36.176C72.4965 36.064 72.5199 35.9567 72.5665 35.854C72.6225 35.7513 72.7159 35.6767 72.8465 35.63C73.2572 35.4247 73.6632 35.28 74.0645 35.196C74.4752 35.1027 74.8579 35.056 75.2125 35.056C75.8192 35.056 76.3185 35.154 76.7105 35.35C77.1025 35.5367 77.3965 35.8307 77.5925 36.232C77.7885 36.624 77.8865 37.128 77.8865 37.744V41.44C77.8865 41.6547 77.8352 41.818 77.7325 41.93C77.6299 42.042 77.4805 42.098 77.2845 42.098C77.0979 42.098 76.9485 42.042 76.8365 41.93C76.7339 41.818 76.6825 41.6547 76.6825 41.44V40.446H76.8085C76.7339 40.7913 76.5939 41.09 76.3885 41.342C76.1832 41.594 75.9265 41.79 75.6185 41.93C75.3199 42.0607 74.9792 42.126 74.5965 42.126ZM80.6474 42.098C80.442 42.098 80.2834 42.042 80.1714 41.93C80.0594 41.818 80.0034 41.6547 80.0034 41.44V36.162H79.1634C78.9954 36.162 78.8647 36.12 78.7714 36.036C78.678 35.9427 78.6314 35.8213 78.6314 35.672C78.6314 35.5133 78.678 35.392 78.7714 35.308C78.8647 35.224 78.9954 35.182 79.1634 35.182H80.3534L80.0034 35.518V35C80.0034 34.0947 80.2227 33.4087 80.6614 32.942C81.1094 32.466 81.7627 32.1907 82.6214 32.116L83.0554 32.088C83.1954 32.0693 83.3074 32.0927 83.3914 32.158C83.4754 32.214 83.5314 32.2887 83.5594 32.382C83.5874 32.4753 83.5874 32.5733 83.5594 32.676C83.5407 32.7693 83.4987 32.8533 83.4334 32.928C83.368 33.0027 83.284 33.0447 83.1814 33.054L82.8734 33.068C82.3134 33.1147 81.9074 33.2827 81.6554 33.572C81.4034 33.852 81.2774 34.272 81.2774 34.832V35.392L81.0954 35.182H82.7054C82.8827 35.182 83.018 35.224 83.1114 35.308C83.2047 35.392 83.2514 35.5133 83.2514 35.672C83.2514 35.8213 83.2047 35.9427 83.1114 36.036C83.018 36.12 82.8827 36.162 82.7054 36.162H81.2774V41.44C81.2774 41.8787 81.0674 42.098 80.6474 42.098ZM84.8791 42.098C84.6738 42.098 84.5151 42.042 84.4031 41.93C84.2911 41.818 84.2351 41.6547 84.2351 41.44V36.162H83.3951C83.2271 36.162 83.0964 36.12 83.0031 36.036C82.9098 35.9427 82.8631 35.8213 82.8631 35.672C82.8631 35.5133 82.9098 35.392 83.0031 35.308C83.0964 35.224 83.2271 35.182 83.3951 35.182H84.5851L84.2351 35.518V35C84.2351 34.104 84.4498 33.4227 84.8791 32.956C85.3178 32.4893 85.9664 32.214 86.8251 32.13L87.2311 32.102C87.3898 32.0833 87.5158 32.1067 87.6091 32.172C87.7024 32.228 87.7631 32.3027 87.7911 32.396C87.8284 32.4893 87.8331 32.5873 87.8051 32.69C87.7864 32.7927 87.7444 32.8813 87.6791 32.956C87.6138 33.0307 87.5298 33.068 87.4271 33.068L87.0351 33.096C86.5031 33.1333 86.1158 33.2967 85.8731 33.586C85.6304 33.8753 85.5091 34.2907 85.5091 34.832V35.392L85.3271 35.182H89.1491C89.3544 35.182 89.5084 35.2427 89.6111 35.364C89.7231 35.476 89.7791 35.644 89.7791 35.868V41.384C89.7791 41.5987 89.7278 41.7667 89.6251 41.888C89.5224 42.0093 89.3638 42.07 89.1491 42.07C88.9438 42.07 88.7851 42.0093 88.6731 41.888C88.5611 41.7667 88.5051 41.5987 88.5051 41.384V36.162H85.5091V41.44C85.5091 41.8787 85.2991 42.098 84.8791 42.098ZM89.1631 33.6C88.9204 33.6 88.7291 33.5347 88.5891 33.404C88.4491 33.264 88.3791 33.082 88.3791 32.858C88.3791 32.6153 88.4491 32.4333 88.5891 32.312C88.7291 32.1813 88.9204 32.116 89.1631 32.116C89.4244 32.116 89.6204 32.1813 89.7511 32.312C89.8911 32.4333 89.9611 32.6153 89.9611 32.858C89.9611 33.082 89.8911 33.264 89.7511 33.404C89.6204 33.5347 89.4244 33.6 89.1631 33.6ZM94.5015 42.126C93.8108 42.126 93.2135 41.9813 92.7095 41.692C92.2055 41.3933 91.8181 40.978 91.5475 40.446C91.2768 39.9047 91.1415 39.27 91.1415 38.542C91.1415 38.0007 91.2161 37.5153 91.3655 37.086C91.5241 36.6567 91.7481 36.2927 92.0375 35.994C92.3268 35.686 92.6768 35.4527 93.0875 35.294C93.5075 35.1353 93.9788 35.056 94.5015 35.056C94.8281 35.056 95.1735 35.1073 95.5375 35.21C95.9015 35.3127 96.2375 35.4807 96.5455 35.714C96.6481 35.7887 96.7135 35.8773 96.7415 35.98C96.7695 36.0733 96.7695 36.1713 96.7415 36.274C96.7228 36.3767 96.6761 36.4653 96.6015 36.54C96.5361 36.6053 96.4475 36.6427 96.3355 36.652C96.2328 36.6613 96.1208 36.6287 95.9995 36.554C95.7755 36.386 95.5375 36.2647 95.2855 36.19C95.0428 36.1153 94.8095 36.078 94.5855 36.078C94.2401 36.078 93.9321 36.134 93.6615 36.246C93.4001 36.358 93.1761 36.5213 92.9895 36.736C92.8121 36.9413 92.6768 37.198 92.5835 37.506C92.4901 37.8047 92.4435 38.1547 92.4435 38.556C92.4435 39.3493 92.6301 39.9747 93.0035 40.432C93.3768 40.88 93.9041 41.104 94.5855 41.104C94.8095 41.104 95.0428 41.0713 95.2855 41.006C95.5281 40.9313 95.7661 40.81 95.9995 40.642C96.1208 40.5673 96.2328 40.5393 96.3355 40.558C96.4381 40.5673 96.5221 40.6093 96.5875 40.684C96.6621 40.7493 96.7088 40.8333 96.7275 40.936C96.7461 41.0293 96.7368 41.1273 96.6995 41.23C96.6715 41.3327 96.6061 41.4167 96.5035 41.482C96.2048 41.706 95.8781 41.8693 95.5235 41.972C95.1688 42.0747 94.8281 42.126 94.5015 42.126Z" fill="#051036" fill-opacity="0.2"/>
<path d="M29.522 82C28.7967 82 28.264 81.8413 27.924 81.524C27.6067 81.184 27.448 80.6967 27.448 80.062C27.448 79.6767 27.55 79.3027 27.754 78.94C27.958 78.5773 28.2527 78.192 28.638 77.784L35.472 70.508C36.5147 69.42 37.2627 68.434 37.716 67.55C38.1693 66.6433 38.396 65.7367 38.396 64.83C38.396 63.6967 38.0333 62.8353 37.308 62.246C36.6053 61.6567 35.574 61.362 34.214 61.362C33.4433 61.362 32.6727 61.4753 31.902 61.702C31.1313 61.906 30.3493 62.2687 29.556 62.79C29.148 63.062 28.7627 63.1753 28.4 63.13C28.06 63.0847 27.754 62.9373 27.482 62.688C27.2327 62.4387 27.0627 62.1327 26.972 61.77C26.8813 61.4073 26.8927 61.0447 27.006 60.682C27.142 60.2967 27.414 59.968 27.822 59.696C28.7967 59.0387 29.8847 58.54 31.086 58.2C32.31 57.86 33.534 57.69 34.758 57.69C36.4807 57.69 37.9313 57.9507 39.11 58.472C40.2887 58.9933 41.184 59.7527 41.796 60.75C42.408 61.7473 42.714 62.96 42.714 64.388C42.714 65.34 42.5553 66.2693 42.238 67.176C41.9433 68.0827 41.4787 69.0007 40.844 69.93C40.232 70.8593 39.4273 71.8453 38.43 72.888L32.038 79.552V78.396H42.034C42.646 78.396 43.1107 78.5433 43.428 78.838C43.7453 79.1327 43.904 79.5747 43.904 80.164C43.904 80.7533 43.7453 81.2067 43.428 81.524C43.1107 81.8413 42.646 82 42.034 82H29.522ZM48.9567 82.17C48.1861 82.17 47.5627 81.932 47.0867 81.456C46.6334 80.98 46.4067 80.368 46.4067 79.62C46.4067 78.8947 46.6334 78.3053 47.0867 77.852C47.5627 77.376 48.1861 77.138 48.9567 77.138C49.7501 77.138 50.3621 77.376 50.7927 77.852C51.2461 78.3053 51.4727 78.8947 51.4727 79.62C51.4727 80.368 51.2461 80.98 50.7927 81.456C50.3621 81.932 49.7501 82.17 48.9567 82.17ZM62.8643 82.34C61.663 82.34 60.439 82.1813 59.1923 81.864C57.9456 81.5467 56.801 81.0593 55.7583 80.402C55.3276 80.13 55.033 79.8127 54.8743 79.45C54.7383 79.0647 54.7043 78.6907 54.7723 78.328C54.863 77.9427 55.033 77.6253 55.2823 77.376C55.5543 77.104 55.8716 76.9453 56.2343 76.9C56.6196 76.8547 57.039 76.9567 57.4923 77.206C58.331 77.682 59.181 78.0447 60.0423 78.294C60.9036 78.5433 61.8216 78.668 62.7963 78.668C63.7483 78.668 64.5643 78.498 65.2443 78.158C65.9243 77.818 66.4456 77.342 66.8083 76.73C67.171 76.118 67.3523 75.404 67.3523 74.588C67.3523 73.3187 66.967 72.2987 66.1963 71.528C65.4256 70.7347 64.3716 70.338 63.0343 70.338C62.309 70.338 61.6063 70.4627 60.9263 70.712C60.2463 70.9387 59.5776 71.3467 58.9203 71.936C58.7163 72.1173 58.4556 72.2987 58.1383 72.48C57.821 72.6387 57.481 72.718 57.1183 72.718C56.5516 72.718 56.121 72.5707 55.8263 72.276C55.5316 71.9813 55.3843 71.5733 55.3843 71.052V59.934C55.3843 59.322 55.543 58.8573 55.8603 58.54C56.2003 58.2 56.6763 58.03 57.2883 58.03H68.4743C69.0863 58.03 69.551 58.1887 69.8683 58.506C70.2083 58.8007 70.3783 59.2427 70.3783 59.832C70.3783 60.3987 70.2083 60.8407 69.8683 61.158C69.551 61.4753 69.0863 61.634 68.4743 61.634H59.6343V69.25H58.5123C59.1016 68.4567 59.8836 67.8447 60.8583 67.414C61.833 66.9833 62.8983 66.768 64.0543 66.768C65.573 66.768 66.8876 67.0967 67.9983 67.754C69.1316 68.3887 70.0043 69.284 70.6163 70.44C71.251 71.5733 71.5683 72.8993 71.5683 74.418C71.5683 75.982 71.217 77.3647 70.5143 78.566C69.8116 79.7447 68.803 80.674 67.4883 81.354C66.1963 82.0113 64.655 82.34 62.8643 82.34ZM78.015 82.272C77.4937 82.272 77.063 82.1473 76.723 81.898C76.383 81.6487 76.179 81.32 76.111 80.912C76.043 80.4813 76.145 80.0053 76.417 79.484L86.685 60.172V61.668H75.669C75.057 61.668 74.581 61.5093 74.241 61.192C73.9237 60.8747 73.765 60.4327 73.765 59.866C73.765 59.2767 73.9237 58.8233 74.241 58.506C74.581 58.1887 75.057 58.03 75.669 58.03H88.827C89.439 58.03 89.9377 58.1887 90.323 58.506C90.7084 58.8233 90.901 59.2767 90.901 59.866C90.901 60.3647 90.833 60.8067 90.697 61.192C90.561 61.5547 90.3797 61.9513 90.153 62.382L80.497 80.844C80.2477 81.3427 79.919 81.7053 79.511 81.932C79.1257 82.1587 78.627 82.272 78.015 82.272ZM100.204 82.34C99.2291 82.34 98.2204 82.1927 97.1777 81.898C96.1351 81.5807 95.1604 81.116 94.2537 80.504C93.8911 80.2773 93.6531 79.9827 93.5397 79.62C93.4264 79.2573 93.4037 78.906 93.4717 78.566C93.5624 78.2033 93.7211 77.8973 93.9477 77.648C94.1971 77.376 94.5031 77.2173 94.8657 77.172C95.2284 77.104 95.6251 77.1947 96.0557 77.444C96.8264 77.8973 97.5517 78.2147 98.2317 78.396C98.9117 78.5773 99.5917 78.668 100.272 78.668C101.586 78.668 102.697 78.362 103.604 77.75C104.51 77.138 105.19 76.22 105.644 74.996C106.12 73.7493 106.358 72.2193 106.358 70.406V67.856H106.766C106.607 68.9893 106.233 69.9753 105.644 70.814C105.054 71.6527 104.306 72.2987 103.4 72.752C102.493 73.1827 101.484 73.398 100.374 73.398C99.0137 73.398 97.7897 73.0693 96.7017 72.412C95.6364 71.7547 94.7977 70.848 94.1857 69.692C93.5737 68.5133 93.2677 67.1873 93.2677 65.714C93.2677 64.15 93.5964 62.7673 94.2537 61.566C94.9337 60.3647 95.8744 59.424 97.0757 58.744C98.2771 58.0413 99.6484 57.69 101.19 57.69C103.184 57.69 104.873 58.1547 106.256 59.084C107.638 60.0133 108.692 61.3733 109.418 63.164C110.143 64.932 110.506 67.074 110.506 69.59C110.506 71.63 110.268 73.4433 109.792 75.03C109.338 76.594 108.67 77.92 107.786 79.008C106.902 80.096 105.814 80.9233 104.522 81.49C103.252 82.0567 101.813 82.34 100.204 82.34ZM101.462 69.93C102.278 69.93 102.992 69.7487 103.604 69.386C104.238 69.0007 104.726 68.4793 105.066 67.822C105.406 67.142 105.576 66.3713 105.576 65.51C105.576 64.626 105.406 63.8553 105.066 63.198C104.726 62.5407 104.238 62.0307 103.604 61.668C102.992 61.3053 102.278 61.124 101.462 61.124C100.646 61.124 99.9317 61.3053 99.3197 61.668C98.7077 62.0307 98.2204 62.5407 97.8577 63.198C97.5177 63.8553 97.3477 64.626 97.3477 65.51C97.3477 66.3713 97.5177 67.142 97.8577 67.822C98.2204 68.4793 98.7077 69.0007 99.3197 69.386C99.9317 69.7487 100.646 69.93 101.462 69.93Z" fill="black"/>
<path d="M117.872 83.098C117.676 83.098 117.517 83.056 117.396 82.972C117.275 82.8787 117.172 82.7387 117.088 82.552L113.294 73.886C113.219 73.7087 113.196 73.5593 113.224 73.438C113.261 73.3073 113.331 73.2093 113.434 73.144C113.546 73.0693 113.677 73.032 113.826 73.032C114.022 73.032 114.167 73.074 114.26 73.158C114.363 73.242 114.451 73.368 114.526 73.536L118.138 81.922H117.648L121.246 73.536C121.321 73.368 121.409 73.242 121.512 73.158C121.615 73.074 121.759 73.032 121.946 73.032C122.095 73.032 122.217 73.0693 122.31 73.144C122.413 73.2187 122.473 73.3213 122.492 73.452C122.52 73.5733 122.501 73.718 122.436 73.886L118.628 82.552C118.553 82.7387 118.455 82.8787 118.334 82.972C118.222 83.056 118.068 83.098 117.872 83.098ZM124.503 83.07C124.307 83.07 124.153 83.0093 124.041 82.888C123.929 82.7667 123.873 82.5987 123.873 82.384V76.798C123.873 76.574 123.929 76.406 124.041 76.294C124.153 76.1727 124.307 76.112 124.503 76.112C124.708 76.112 124.867 76.1727 124.979 76.294C125.091 76.406 125.147 76.574 125.147 76.798V82.384C125.147 82.5987 125.091 82.7667 124.979 82.888C124.876 83.0093 124.718 83.07 124.503 83.07ZM124.503 74.6C124.251 74.6 124.05 74.5347 123.901 74.404C123.761 74.264 123.691 74.082 123.691 73.858C123.691 73.6153 123.761 73.4333 123.901 73.312C124.05 73.1813 124.251 73.116 124.503 73.116C124.774 73.116 124.974 73.1813 125.105 73.312C125.245 73.4333 125.315 73.6153 125.315 73.858C125.315 74.082 125.245 74.264 125.105 74.404C124.974 74.5347 124.774 74.6 124.503 74.6ZM129.267 83.126C128.847 83.126 128.422 83.0793 127.993 82.986C127.573 82.8833 127.176 82.7107 126.803 82.468C126.7 82.4027 126.626 82.3233 126.579 82.23C126.542 82.1273 126.528 82.0293 126.537 81.936C126.556 81.8333 126.598 81.7447 126.663 81.67C126.728 81.5953 126.808 81.5533 126.901 81.544C127.004 81.5253 127.111 81.5487 127.223 81.614C127.587 81.8193 127.937 81.964 128.273 82.048C128.618 82.132 128.959 82.174 129.295 82.174C129.808 82.174 130.196 82.0807 130.457 81.894C130.718 81.7073 130.849 81.46 130.849 81.152C130.849 80.8907 130.76 80.69 130.583 80.55C130.415 80.4007 130.149 80.2887 129.785 80.214L128.483 79.948C127.904 79.8173 127.466 79.6027 127.167 79.304C126.878 78.996 126.733 78.604 126.733 78.128C126.733 77.708 126.845 77.344 127.069 77.036C127.302 76.7187 127.624 76.476 128.035 76.308C128.446 76.14 128.917 76.056 129.449 76.056C129.86 76.056 130.247 76.112 130.611 76.224C130.984 76.3267 131.32 76.4853 131.619 76.7C131.731 76.7653 131.801 76.8493 131.829 76.952C131.866 77.0453 131.871 77.1433 131.843 77.246C131.824 77.3393 131.782 77.4187 131.717 77.484C131.652 77.5493 131.568 77.5913 131.465 77.61C131.362 77.6193 131.25 77.5913 131.129 77.526C130.858 77.3393 130.578 77.2087 130.289 77.134C130.009 77.05 129.729 77.008 129.449 77.008C128.945 77.008 128.562 77.106 128.301 77.302C128.049 77.498 127.923 77.7547 127.923 78.072C127.923 78.3147 127.998 78.5153 128.147 78.674C128.306 78.8327 128.553 78.9493 128.889 79.024L130.191 79.29C130.798 79.4207 131.255 79.6307 131.563 79.92C131.871 80.2 132.025 80.5827 132.025 81.068C132.025 81.7027 131.773 82.2067 131.269 82.58C130.774 82.944 130.107 83.126 129.267 83.126ZM134.033 83.07C133.837 83.07 133.683 83.0093 133.571 82.888C133.459 82.7667 133.403 82.5987 133.403 82.384V76.798C133.403 76.574 133.459 76.406 133.571 76.294C133.683 76.1727 133.837 76.112 134.033 76.112C134.238 76.112 134.397 76.1727 134.509 76.294C134.621 76.406 134.677 76.574 134.677 76.798V82.384C134.677 82.5987 134.621 82.7667 134.509 82.888C134.406 83.0093 134.247 83.07 134.033 83.07ZM134.033 74.6C133.781 74.6 133.58 74.5347 133.431 74.404C133.291 74.264 133.221 74.082 133.221 73.858C133.221 73.6153 133.291 73.4333 133.431 73.312C133.58 73.1813 133.781 73.116 134.033 73.116C134.303 73.116 134.504 73.1813 134.635 73.312C134.775 73.4333 134.845 73.6153 134.845 73.858C134.845 74.082 134.775 74.264 134.635 74.404C134.504 74.5347 134.303 74.6 134.033 74.6ZM139.273 83.126C138.722 83.126 138.26 83.028 137.887 82.832C137.523 82.636 137.248 82.3513 137.061 81.978C136.884 81.6047 136.795 81.1473 136.795 80.606V77.162H135.899C135.731 77.162 135.6 77.12 135.507 77.036C135.414 76.9427 135.367 76.8213 135.367 76.672C135.367 76.5133 135.414 76.392 135.507 76.308C135.6 76.224 135.731 76.182 135.899 76.182H136.795V74.656C136.795 74.4413 136.851 74.2827 136.963 74.18C137.075 74.068 137.234 74.012 137.439 74.012C137.644 74.012 137.798 74.068 137.901 74.18C138.013 74.2827 138.069 74.4413 138.069 74.656V76.182H139.763C139.94 76.182 140.076 76.224 140.169 76.308C140.262 76.392 140.309 76.5133 140.309 76.672C140.309 76.8213 140.262 76.9427 140.169 77.036C140.076 77.12 139.94 77.162 139.763 77.162H138.069V80.494C138.069 81.0073 138.176 81.3947 138.391 81.656C138.606 81.9173 138.96 82.048 139.455 82.048C139.632 82.048 139.782 82.034 139.903 82.006C140.024 81.9687 140.132 81.95 140.225 81.95C140.309 81.9407 140.379 81.9687 140.435 82.034C140.5 82.0993 140.533 82.2207 140.533 82.398C140.533 82.5287 140.51 82.65 140.463 82.762C140.426 82.8647 140.346 82.9347 140.225 82.972C140.113 83.0093 139.964 83.042 139.777 83.07C139.59 83.1073 139.422 83.126 139.273 83.126ZM144.012 83.126C143.34 83.126 142.757 82.9813 142.262 82.692C141.768 82.4027 141.385 81.992 141.114 81.46C140.844 80.928 140.708 80.3027 140.708 79.584C140.708 79.0427 140.783 78.5573 140.932 78.128C141.091 77.6893 141.315 77.316 141.604 77.008C141.894 76.7 142.239 76.4667 142.64 76.308C143.051 76.14 143.508 76.056 144.012 76.056C144.684 76.056 145.268 76.2007 145.762 76.49C146.257 76.7793 146.64 77.19 146.91 77.722C147.181 78.2447 147.316 78.8653 147.316 79.584C147.316 80.1253 147.237 80.6153 147.078 81.054C146.929 81.4927 146.71 81.866 146.42 82.174C146.131 82.482 145.781 82.72 145.37 82.888C144.969 83.0467 144.516 83.126 144.012 83.126ZM144.012 82.118C144.423 82.118 144.778 82.02 145.076 81.824C145.384 81.628 145.618 81.3433 145.776 80.97C145.944 80.5967 146.028 80.1347 146.028 79.584C146.028 78.7627 145.846 78.1373 145.482 77.708C145.118 77.2787 144.628 77.064 144.012 77.064C143.611 77.064 143.256 77.162 142.948 77.358C142.65 77.5447 142.416 77.8247 142.248 78.198C142.08 78.5713 141.996 79.0333 141.996 79.584C141.996 80.4053 142.178 81.0353 142.542 81.474C142.916 81.9033 143.406 82.118 144.012 82.118ZM149.326 83.098C149.112 83.098 148.948 83.042 148.836 82.93C148.724 82.818 148.668 82.6547 148.668 82.44V76.728C148.668 76.5133 148.724 76.3547 148.836 76.252C148.948 76.14 149.102 76.084 149.298 76.084C149.494 76.084 149.644 76.14 149.746 76.252C149.858 76.3547 149.914 76.5133 149.914 76.728V77.806H149.774C149.924 77.246 150.204 76.8213 150.614 76.532C151.025 76.2427 151.543 76.0793 152.168 76.042C152.318 76.0327 152.439 76.07 152.532 76.154C152.626 76.2287 152.677 76.3593 152.686 76.546C152.696 76.7233 152.654 76.868 152.56 76.98C152.467 77.0827 152.322 77.1433 152.126 77.162L151.874 77.176C151.258 77.2413 150.782 77.442 150.446 77.778C150.12 78.114 149.956 78.576 149.956 79.164V82.44C149.956 82.6547 149.9 82.818 149.788 82.93C149.686 83.042 149.532 83.098 149.326 83.098ZM155.785 83.126C155.365 83.126 154.94 83.0793 154.511 82.986C154.091 82.8833 153.694 82.7107 153.321 82.468C153.218 82.4027 153.144 82.3233 153.097 82.23C153.06 82.1273 153.046 82.0293 153.055 81.936C153.074 81.8333 153.116 81.7447 153.181 81.67C153.246 81.5953 153.326 81.5533 153.419 81.544C153.522 81.5253 153.629 81.5487 153.741 81.614C154.105 81.8193 154.455 81.964 154.791 82.048C155.136 82.132 155.477 82.174 155.813 82.174C156.326 82.174 156.714 82.0807 156.975 81.894C157.236 81.7073 157.367 81.46 157.367 81.152C157.367 80.8907 157.278 80.69 157.101 80.55C156.933 80.4007 156.667 80.2887 156.303 80.214L155.001 79.948C154.422 79.8173 153.984 79.6027 153.685 79.304C153.396 78.996 153.251 78.604 153.251 78.128C153.251 77.708 153.363 77.344 153.587 77.036C153.82 76.7187 154.142 76.476 154.553 76.308C154.964 76.14 155.435 76.056 155.967 76.056C156.378 76.056 156.765 76.112 157.129 76.224C157.502 76.3267 157.838 76.4853 158.137 76.7C158.249 76.7653 158.319 76.8493 158.347 76.952C158.384 77.0453 158.389 77.1433 158.361 77.246C158.342 77.3393 158.3 77.4187 158.235 77.484C158.17 77.5493 158.086 77.5913 157.983 77.61C157.88 77.6193 157.768 77.5913 157.647 77.526C157.376 77.3393 157.096 77.2087 156.807 77.134C156.527 77.05 156.247 77.008 155.967 77.008C155.463 77.008 155.08 77.106 154.819 77.302C154.567 77.498 154.441 77.7547 154.441 78.072C154.441 78.3147 154.516 78.5153 154.665 78.674C154.824 78.8327 155.071 78.9493 155.407 79.024L156.709 79.29C157.316 79.4207 157.773 79.6307 158.081 79.92C158.389 80.2 158.543 80.5827 158.543 81.068C158.543 81.7027 158.291 82.2067 157.787 82.58C157.292 82.944 156.625 83.126 155.785 83.126Z" fill="#051036" fill-opacity="0.2"/>
<defs>
<linearGradient id="paint0_linear_1168_7816" x1="440.115" y1="232.029" x2="440.115" y2="270" gradientUnits="userSpaceOnUse">
<stop stop-color="#4318FF"/>
<stop offset="1" stop-color="#4318FF" stop-opacity="0.28"/>
</linearGradient>
<linearGradient id="paint1_linear_1168_7816" x1="374.036" y1="125.5" x2="374.036" y2="270" gradientUnits="userSpaceOnUse">
<stop stop-color="#4318FF"/>
<stop offset="1" stop-color="#4318FF" stop-opacity="0.28"/>
</linearGradient>
<linearGradient id="paint2_linear_1168_7816" x1="309.203" y1="160.307" x2="309.203" y2="270" gradientUnits="userSpaceOnUse">
<stop stop-color="#4318FF"/>
<stop offset="1" stop-color="#4318FF" stop-opacity="0.28"/>
</linearGradient>
<linearGradient id="paint3_linear_1168_7816" x1="243.123" y1="187.73" x2="243.123" y2="270" gradientUnits="userSpaceOnUse">
<stop stop-color="#4318FF"/>
<stop offset="1" stop-color="#4318FF" stop-opacity="0.28"/>
</linearGradient>
<linearGradient id="paint4_linear_1168_7816" x1="177.043" y1="139.212" x2="177.043" y2="270" gradientUnits="userSpaceOnUse">
<stop stop-color="#4318FF"/>
<stop offset="1" stop-color="#4318FF" stop-opacity="0.28"/>
</linearGradient>
<linearGradient id="paint5_linear_1168_7816" x1="112.211" y1="203.551" x2="112.211" y2="270" gradientUnits="userSpaceOnUse">
<stop stop-color="#4318FF"/>
<stop offset="1" stop-color="#4318FF" stop-opacity="0.28"/>
</linearGradient>
<linearGradient id="paint6_linear_1168_7816" x1="46.1306" y1="176.128" x2="46.1306" y2="270" gradientUnits="userSpaceOnUse">
<stop stop-color="#4318FF"/>
<stop offset="1" stop-color="#4318FF" stop-opacity="0.28"/>
</linearGradient>
<clipPath id="clip0_1168_7816">
<rect width="18" height="18" fill="white" transform="translate(403 31)"/>
</clipPath>
</defs>
</svg>
