<svg width="20" height="20" viewBox="0 0 20 20" fill="none" xmlns="http://www.w3.org/2000/svg">
<g clip-path="url(#clip0_2023_21160)">
<path d="M2.75439 4.66883V18.075C2.75439 18.6938 3.26064 19.2 3.87939 19.2H15.3892C16.008 19.2 16.5142 18.6938 16.5142 18.075V1.125C16.5142 0.50625 16.008 0 15.3892 0H7.42324" fill="#E74C3C"/>
<path d="M2.75439 4.66883H6.29824C6.91699 4.66883 7.42324 4.16258 7.42324 3.54383V0" fill="#C0392B"/>
<path d="M1.53447 12.5781H2.75455V10.9688L1.42432 12.6258H1.42454C1.44704 12.5963 1.48512 12.5781 1.53447 12.5781Z" fill="#262626"/>
<path d="M17.7345 12.5781H16.5144V10.9688L17.8446 12.6258H17.8444C17.8219 12.5963 17.7838 12.5781 17.7345 12.5781Z" fill="#262626"/>
<path d="M16.5802 16.1526C16.544 16.2491 16.4299 16.3281 16.3268 16.3281H2.942C2.83887 16.3281 2.72483 16.2491 2.68861 16.1526L1.4128 12.7537C1.37656 12.6571 1.43129 12.5781 1.53442 12.5781H17.7344C17.8375 12.5781 17.8923 12.6571 17.856 12.7537L16.5802 16.1526Z" fill="#C0392B"/>
<path d="M6.28589 15.3436C6.28589 15.2496 6.31371 15.177 6.3694 15.1259C6.42509 15.0749 6.50603 15.0493 6.61231 15.0493C6.71346 15.0493 6.79109 15.0749 6.84526 15.1259C6.89941 15.1771 6.92648 15.2496 6.92648 15.3436C6.92648 15.4355 6.89864 15.5073 6.84295 15.5589C6.78724 15.6104 6.71041 15.6362 6.61231 15.6362C6.51115 15.6362 6.43146 15.6107 6.37324 15.5596C6.31501 15.5086 6.28589 15.4365 6.28589 15.3436Z" fill="white"/>
<path d="M8.92945 14.07C8.92945 14.3204 8.85561 14.5137 8.70799 14.6501C8.56035 14.7865 8.35065 14.8547 8.07889 14.8547H7.90879V15.598H7.30347V13.3574H8.07889C8.36189 13.3574 8.5744 13.4192 8.71641 13.5429C8.85842 13.6665 8.92945 13.8422 8.92945 14.07ZM7.90881 14.3612H8.01915C8.11009 14.3612 8.18237 14.3357 8.236 14.2846C8.28962 14.2335 8.31645 14.163 8.31645 14.0731C8.31645 13.9219 8.23266 13.8463 8.06513 13.8463H7.90881V14.3612Z" fill="white"/>
<path d="M11.1885 14.4302C11.1885 14.8041 11.0856 15.0922 10.8797 15.2945C10.6738 15.4968 10.3844 15.598 10.0115 15.598H9.28662V13.3574H10.0621C10.4217 13.3574 10.6993 13.4494 10.895 13.6333C11.0906 13.8172 11.1885 14.0828 11.1885 14.4302ZM10.5601 14.4516C10.5601 14.2463 10.5195 14.0941 10.4383 13.995C10.3571 13.8959 10.2337 13.8463 10.0682 13.8463H9.89198V15.1014H10.0268C10.2108 15.1014 10.3456 15.048 10.4314 14.9413C10.5172 14.8345 10.5601 14.6713 10.5601 14.4516Z" fill="white"/>
<path d="M12.186 15.598H11.5898V13.3574H12.9139V13.8432H12.186V14.2708H12.8572V14.7566H12.186V15.598Z" fill="white"/>
<path d="M13.6873 6.93408C13.6873 7.08877 13.5185 7.21533 13.3123 7.21533H5.90356C5.69731 7.21533 5.52856 7.08877 5.52856 6.93408C5.52856 6.77939 5.69731 6.65283 5.90356 6.65283H13.3123C13.5185 6.65283 13.6873 6.77939 13.6873 6.93408Z" fill="white"/>
<path d="M13.6716 8.62158C13.6716 8.77627 13.5029 8.90283 13.2966 8.90283H5.88794C5.68169 8.90283 5.51294 8.77627 5.51294 8.62158C5.51294 8.46689 5.68169 8.34033 5.88794 8.34033H13.2967C13.5029 8.34033 13.6716 8.46689 13.6716 8.62158Z" fill="white"/>
<path d="M13.6873 10.3125C13.6873 10.4672 13.5185 10.5938 13.3123 10.5938H5.90356C5.69731 10.5938 5.52856 10.4672 5.52856 10.3125C5.52856 10.1578 5.69731 10.0312 5.90356 10.0312H13.3123C13.5185 10.0312 13.6873 10.1578 13.6873 10.3125Z" fill="white"/>
</g>
<defs>
<clipPath id="clip0_2023_21160">
<rect width="19.2" height="19.2" fill="white"/>
</clipPath>
</defs>
</svg>
