<svg width="24" height="24" viewBox="0 0 24 24" fill="none" xmlns="http://www.w3.org/2000/svg">
<path fill-rule="evenodd" clip-rule="evenodd" d="M8.27556 3H15.7253C18.4711 3 20 4.58222 20 7.29333V16.4756C20 19.2311 18.4711 20.7778 15.7253 20.7778H8.27556C5.57333 20.7778 4 19.2311 4 16.4756V7.29333C4 4.58222 5.57333 3 8.27556 3ZM8.5156 7.14224V7.13336H11.1725C11.5556 7.13336 11.8667 7.44447 11.8667 7.8258C11.8667 8.2178 11.5556 8.52891 11.1725 8.52891H8.5156C8.13249 8.52891 7.82227 8.2178 7.82227 7.83558C7.82227 7.45336 8.13249 7.14224 8.5156 7.14224ZM8.5156 12.5467H15.4845C15.8667 12.5467 16.1778 12.2356 16.1778 11.8533C16.1778 11.4711 15.8667 11.1591 15.4845 11.1591H8.5156C8.13249 11.1591 7.82227 11.4711 7.82227 11.8533C7.82227 12.2356 8.13249 12.5467 8.5156 12.5467ZM8.51558 16.6089H15.4845C15.8391 16.5734 16.1067 16.2702 16.1067 15.9156C16.1067 15.5511 15.8391 15.2489 15.4845 15.2134H8.51558C8.24891 15.1867 7.99113 15.3111 7.84891 15.5422C7.70669 15.7645 7.70669 16.0578 7.84891 16.2889C7.99113 16.5111 8.24891 16.6445 8.51558 16.6089Z" fill="black"/>
</svg>
