<svg width="20" height="20" viewBox="0 0 20 20" fill="none" xmlns="http://www.w3.org/2000/svg">
<path d="M8.33329 2.5H11.6666C13.4347 2.5 15.1304 3.20238 16.3807 4.45262C17.6309 5.70286 18.3333 7.39856 18.3333 9.16667C18.3333 10.9348 17.6309 12.6305 16.3807 13.8807C15.1304 15.131 13.4347 15.8333 11.6666 15.8333V18.75C7.49996 17.0833 1.66663 14.5833 1.66663 9.16667C1.66663 7.39856 2.36901 5.70286 3.61925 4.45262C4.86949 3.20238 6.56518 2.5 8.33329 2.5Z" fill="#B2B2B2"/>
<path d="M7 12.8008C7 10.653 8.57094 8.91187 10.5 8.91187C12.433 8.91187 14 10.6574 14 12.8008" stroke="white" stroke-width="0.722222" stroke-linecap="round"/>
<path d="M10.5004 8.93464C11.5869 8.93464 12.4677 8.05384 12.4677 6.96732C12.4677 5.8808 11.5869 5 10.5004 5C9.41388 5 8.53308 5.8808 8.53308 6.96732C8.53308 8.05384 9.41388 8.93464 10.5004 8.93464Z" stroke="white" stroke-width="0.722222"/>
</svg>
