<svg width="20" height="20" viewBox="0 0 20 20" fill="none" xmlns="http://www.w3.org/2000/svg">
<path d="M16.5629 2.4375H9.32539C9.36745 2.62765 9.38841 2.82182 9.38789 3.01652V7.06346H15.2566C15.4224 7.06346 15.5814 7.12905 15.6986 7.24581C15.8158 7.36258 15.8816 7.52094 15.8816 7.68606C15.8816 7.85119 15.8158 8.00955 15.6986 8.12631C15.5814 8.24307 15.4224 8.30867 15.2566 8.30867H9.33789C9.33789 8.40206 9.33789 8.48922 9.28789 8.57639C9.17817 9.07382 8.97685 9.54668 8.69414 9.97103H15.2566C15.4224 9.97103 15.5814 10.0366 15.6986 10.1534C15.8158 10.2701 15.8816 10.4285 15.8816 10.5936C15.8816 10.7588 15.8158 10.9171 15.6986 11.0339C15.5814 11.1506 15.4224 11.2162 15.2566 11.2162H7.97539C7.85074 11.2165 7.72885 11.1797 7.62539 11.1104C7.03463 11.5242 6.34476 11.7754 5.62539 11.8388H5.49414V17.5481C5.50068 17.8526 5.6267 18.1424 5.84517 18.3553C6.06365 18.5683 6.3572 18.6876 6.66289 18.6875H16.5629C16.8718 18.6875 17.1681 18.5657 17.3871 18.3487C17.6061 18.1317 17.73 17.8372 17.7316 17.5295V3.60177C17.7316 3.29299 17.6085 2.99685 17.3893 2.77851C17.1701 2.56016 16.8729 2.4375 16.5629 2.4375ZM15.2566 14.0678H7.97539C7.84025 14.034 7.7203 13.9563 7.63459 13.8469C7.54888 13.7374 7.50233 13.6026 7.50233 13.4638C7.50233 13.3251 7.54888 13.1902 7.63459 13.0808C7.7203 12.9714 7.84025 12.8937 7.97539 12.8599H15.2566C15.3918 12.8937 15.5117 12.9714 15.5974 13.0808C15.6831 13.1902 15.7297 13.3251 15.7297 13.4638C15.7297 13.6026 15.6831 13.7374 15.5974 13.8469C15.5117 13.9563 15.3918 14.034 15.2566 14.0678Z" fill="#B2B2B2"/>
<path d="M8.06836 8.006C8.11488 7.80915 8.13795 7.60785 8.13711 7.406V2.948C8.13711 2.49766 7.95076 2.06577 7.61905 1.74733C7.28735 1.4289 6.83746 1.25 6.36836 1.25C5.89926 1.25 5.44937 1.4289 5.11766 1.74733C4.78596 2.06577 4.59961 2.49766 4.59961 2.948V7.982C4.63559 8.10911 4.71414 8.22131 4.82314 8.30131C4.93214 8.38131 5.06553 8.42465 5.20273 8.42465C5.33994 8.42465 5.47333 8.38131 5.58233 8.30131C5.69133 8.22131 5.76988 8.10911 5.80586 7.982V2.948C5.80586 2.80478 5.86512 2.66743 5.97061 2.56616C6.0761 2.46489 6.21918 2.408 6.36836 2.408C6.51754 2.408 6.66062 2.46489 6.76611 2.56616C6.8716 2.66743 6.93086 2.80478 6.93086 2.948V7.424C6.93211 7.78515 6.81078 8.13686 6.58524 8.4259C6.3597 8.71495 6.04223 8.92561 5.68086 9.026C5.53183 9.06278 5.37848 9.08093 5.22461 9.08C4.76762 9.07842 4.32981 8.90344 4.00667 8.59322C3.68353 8.283 3.50126 7.86271 3.49961 7.424V2.948C3.5248 2.85901 3.52829 2.76565 3.5098 2.67516C3.49131 2.58468 3.45134 2.4995 3.39301 2.42624C3.33467 2.35298 3.25952 2.29362 3.17341 2.25276C3.0873 2.2119 2.99254 2.19065 2.89648 2.19065C2.80043 2.19065 2.70567 2.2119 2.61956 2.25276C2.53344 2.29362 2.4583 2.35298 2.39996 2.42624C2.34162 2.4995 2.30166 2.58468 2.28317 2.67516C2.26468 2.76565 2.26817 2.85901 2.29336 2.948V7.424C2.29167 8.16778 2.59613 8.88208 3.14045 9.41138C3.68478 9.94067 4.42488 10.2421 5.19961 10.25H5.49336C6.11519 10.187 6.69996 9.93553 7.16294 9.53206C7.62591 9.1286 7.94304 8.59409 8.06836 8.006Z" fill="#B2B2B2"/>
</svg>
