<svg width="20" height="20" viewBox="0 0 20 20" fill="none" xmlns="http://www.w3.org/2000/svg">
<path d="M6.54199 1.66675H13.042C14.3349 1.66675 15.5749 2.18036 16.4891 3.0946C17.4034 4.00884 17.917 5.24882 17.917 6.54175V13.0417C17.917 14.3347 17.4034 15.5747 16.4891 16.4889C15.5749 17.4031 14.3349 17.9167 13.042 17.9167H6.54199C5.24906 17.9167 4.00909 17.4031 3.09485 16.4889C2.18061 15.5747 1.66699 14.3347 1.66699 13.0417L1.66699 6.54175C1.66699 5.24882 2.18061 4.00884 3.09485 3.0946C4.00909 2.18036 5.24906 1.66675 6.54199 1.66675ZM11.417 8.97925C11.2015 8.97925 10.9948 9.06485 10.8425 9.21722C10.6901 9.3696 10.6045 9.57626 10.6045 9.79175C10.6045 10.0072 10.6901 10.2139 10.8425 10.3663C10.9948 10.5186 11.2015 10.6042 11.417 10.6042H13.8545C14.07 10.6042 14.2766 10.5186 14.429 10.3663C14.5814 10.2139 14.667 10.0072 14.667 9.79175C14.667 9.57626 14.5814 9.3696 14.429 9.21722C14.2766 9.06485 14.07 8.97925 13.8545 8.97925H11.417ZM9.79199 12.2292C9.5765 12.2292 9.36984 12.3149 9.21747 12.4672C9.06509 12.6196 8.97949 12.8263 8.97949 13.0417C8.97949 13.2572 9.06509 13.4639 9.21747 13.6163C9.36984 13.7686 9.5765 13.8542 9.79199 13.8542H13.8545C14.07 13.8542 14.2766 13.7686 14.429 13.6163C14.5814 13.4639 14.667 13.2572 14.667 13.0417C14.667 12.8263 14.5814 12.6196 14.429 12.4672C14.2766 12.3149 14.07 12.2292 13.8545 12.2292H9.79199ZM9.79199 5.72925C9.5765 5.72925 9.36984 5.81485 9.21747 5.96722C9.06509 6.1196 8.97949 6.32626 8.97949 6.54175C8.97949 6.75724 9.06509 6.9639 9.21747 7.11627C9.36984 7.26865 9.5765 7.35425 9.79199 7.35425H13.8545C14.07 7.35425 14.2766 7.26865 14.429 7.11627C14.5814 6.9639 14.667 6.75724 14.667 6.54175C14.667 6.32626 14.5814 6.1196 14.429 5.96722C14.2766 5.81485 14.07 5.72925 13.8545 5.72925H9.79199ZM6.40224 9.98919L5.8278 9.41475C5.75285 9.33715 5.6632 9.27525 5.56407 9.23267C5.46494 9.19008 5.35833 9.16767 5.25044 9.16673C5.14256 9.16579 5.03557 9.18635 4.93572 9.22721C4.83586 9.26806 4.74515 9.32839 4.66886 9.40468C4.59257 9.48097 4.53224 9.57168 4.49139 9.67154C4.45053 9.77139 4.42998 9.87838 4.43091 9.98626C4.43185 10.0941 4.45427 10.2008 4.49685 10.2999C4.53943 10.399 4.60133 10.4887 4.67893 10.5636L5.8278 11.7125C5.90326 11.788 5.99287 11.848 6.09151 11.8889C6.19015 11.9297 6.29587 11.9508 6.40265 11.9508C6.50942 11.9508 6.61515 11.9297 6.71379 11.8889C6.81242 11.848 6.90203 11.788 6.97749 11.7125L9.27524 9.41475C9.42781 9.2624 9.5136 9.05568 9.51376 8.84007C9.51391 8.62446 9.4284 8.41763 9.27605 8.26506C9.1237 8.11249 8.91699 8.0267 8.70138 8.02655C8.48577 8.02639 8.27893 8.1119 8.12637 8.26425L6.40224 9.98837V9.98919Z" fill="#B2B2B2"/>
</svg>
