<svg width="20" height="20" viewBox="0 0 20 20" fill="none" xmlns="http://www.w3.org/2000/svg">
<g id="assign comments">
<g id="Group">
<path id="Vector" d="M8.33335 2.5H11.6667C13.4348 2.5 15.1305 3.20238 16.3807 4.45262C17.631 5.70286 18.3334 7.39856 18.3334 9.16667C18.3334 10.9348 17.631 12.6305 16.3807 13.8807C15.1305 15.131 13.4348 15.8333 11.6667 15.8333V18.75C7.50002 17.0833 1.66669 14.5833 1.66669 9.16667C1.66669 7.39856 2.36907 5.70286 3.61931 4.45262C4.86955 3.20238 6.56524 2.5 8.33335 2.5Z" fill="#B2B2B2"/>
</g>
<g id="Group 427322969">
<path id="Vector_2" d="M7 12.8006C7 10.6529 8.57094 8.91174 10.5 8.91174C12.433 8.91174 14 10.6572 14 12.8006" stroke="white" stroke-width="0.722222" stroke-linecap="round"/>
<path id="Vector_3" d="M10.5003 8.93464C11.5869 8.93464 12.4677 8.05384 12.4677 6.96732C12.4677 5.8808 11.5869 5 10.5003 5C9.41382 5 8.53302 5.8808 8.53302 6.96732C8.53302 8.05384 9.41382 8.93464 10.5003 8.93464Z" stroke="white" stroke-width="0.722222"/>
</g>
</g>
</svg>
