<svg width="20" height="20" viewBox="0 0 20 20" fill="none" xmlns="http://www.w3.org/2000/svg">
<g id="9110594_task_list_f_icon 1">
<path id="Vector" d="M6.54199 1.66669H13.042C14.3349 1.66669 15.5749 2.1803 16.4891 3.09454C17.4034 4.00878 17.917 5.24876 17.917 6.54169V13.0417C17.917 14.3346 17.4034 15.5746 16.4891 16.4888C15.5749 17.4031 14.3349 17.9167 13.042 17.9167H6.54199C5.24906 17.9167 4.00909 17.4031 3.09485 16.4888C2.18061 15.5746 1.66699 14.3346 1.66699 13.0417L1.66699 6.54169C1.66699 5.24876 2.18061 4.00878 3.09485 3.09454C4.00909 2.1803 5.24906 1.66669 6.54199 1.66669ZM11.417 8.97919C11.2015 8.97919 10.9948 9.06479 10.8425 9.21716C10.6901 9.36954 10.6045 9.5762 10.6045 9.79169C10.6045 10.0072 10.6901 10.2138 10.8425 10.3662C10.9948 10.5186 11.2015 10.6042 11.417 10.6042H13.8545C14.07 10.6042 14.2766 10.5186 14.429 10.3662C14.5814 10.2138 14.667 10.0072 14.667 9.79169C14.667 9.5762 14.5814 9.36954 14.429 9.21716C14.2766 9.06479 14.07 8.97919 13.8545 8.97919H11.417ZM9.79199 12.2292C9.5765 12.2292 9.36984 12.3148 9.21747 12.4672C9.06509 12.6195 8.97949 12.8262 8.97949 13.0417C8.97949 13.2572 9.06509 13.4638 9.21747 13.6162C9.36984 13.7686 9.5765 13.8542 9.79199 13.8542H13.8545C14.07 13.8542 14.2766 13.7686 14.429 13.6162C14.5814 13.4638 14.667 13.2572 14.667 13.0417C14.667 12.8262 14.5814 12.6195 14.429 12.4672C14.2766 12.3148 14.07 12.2292 13.8545 12.2292H9.79199ZM9.79199 5.72919C9.5765 5.72919 9.36984 5.81479 9.21747 5.96716C9.06509 6.11954 8.97949 6.3262 8.97949 6.54169C8.97949 6.75718 9.06509 6.96384 9.21747 7.11621C9.36984 7.26858 9.5765 7.35419 9.79199 7.35419H13.8545C14.07 7.35419 14.2766 7.26858 14.429 7.11621C14.5814 6.96384 14.667 6.75718 14.667 6.54169C14.667 6.3262 14.5814 6.11954 14.429 5.96716C14.2766 5.81479 14.07 5.72919 13.8545 5.72919H9.79199ZM6.40224 9.98912L5.8278 9.41469C5.75285 9.33709 5.6632 9.27519 5.56407 9.2326C5.46494 9.19002 5.35833 9.16761 5.25044 9.16667C5.14256 9.16573 5.03557 9.18629 4.93572 9.22714C4.83586 9.268 4.74515 9.32833 4.66886 9.40462C4.59257 9.4809 4.53224 9.57162 4.49139 9.67147C4.45053 9.77133 4.42998 9.87832 4.43091 9.9862C4.43185 10.0941 4.45427 10.2007 4.49685 10.2998C4.53943 10.399 4.60133 10.4886 4.67893 10.5636L5.8278 11.7124C5.90326 11.788 5.99287 11.8479 6.09151 11.8888C6.19015 11.9297 6.29587 11.9507 6.40265 11.9507C6.50942 11.9507 6.61515 11.9297 6.71379 11.8888C6.81242 11.8479 6.90203 11.788 6.97749 11.7124L9.27524 9.41469C9.42781 9.26234 9.5136 9.05562 9.51376 8.84001C9.51391 8.6244 9.4284 8.41757 9.27605 8.265C9.1237 8.11243 8.91699 8.02664 8.70138 8.02649C8.48577 8.02633 8.27893 8.11184 8.12637 8.26419L6.40224 9.98831V9.98912Z" fill="#B2B2B2"/>
</g>
</svg>
