<svg width="16" height="16" viewBox="0 0 16 16" fill="none" xmlns="http://www.w3.org/2000/svg">
<g id="Pen">
<g id="Vector">
<path fill-rule="evenodd" clip-rule="evenodd" d="M3 13.9999H5.79293L5.79375 13.9999C5.79375 13.9999 5.99075 14.0003 6.17303 13.9254C6.17303 13.9254 6.35612 13.8502 6.49643 13.7106L13.9973 6.20975C13.9973 6.20975 14.1377 6.07147 14.2153 5.88616C14.2153 5.88616 14.2929 5.70085 14.2929 5.49995C14.2929 5.49995 14.2929 5.29904 14.2153 5.11373C14.2153 5.11373 14.1377 4.92842 13.9946 4.78745L11.2098 2.00264C11.2098 2.00264 11.0715 1.86222 10.8862 1.78462C10.8862 1.78462 10.7009 1.70703 10.5 1.70703C10.5 1.70703 10.2991 1.70703 10.1138 1.78462C10.1138 1.78462 9.92847 1.86222 9.7875 2.00536L2.2902 9.50264C2.2902 9.50264 2.14971 9.64382 2.07451 9.82692C2.07451 9.82692 1.99931 10.01 2 10.2079L2 12.9999C2 12.9999 2 13.4142 2.2929 13.7071C2.2929 13.7071 2.58579 13.9999 3 13.9999ZM13.2902 5.50264L5.7929 12.9999H3L3 10.2071L10.5 2.70703L10.5027 2.70975L13.2929 5.49995L13.2902 5.50264Z" fill="black"/>
<path d="M11.6462 7.85329C11.74 7.94706 11.8674 8 12 8C12.1326 8 12.2598 7.94732 12.3536 7.85355C12.4473 7.75979 12.5 7.63261 12.5 7.5C12.5 7.36739 12.4473 7.24021 12.3536 7.14645L8.85361 3.64651C8.75978 3.55268 8.63261 3.5 8.5 3.5C8.36739 3.5 8.24021 3.55268 8.14645 3.64645C8.05268 3.74021 8 3.86739 8 4C8 4.13261 8.05268 4.25979 8.14645 4.35355L11.6462 7.85329Z" fill="black"/>
<path d="M12.4851 7.37898C12.4838 7.37352 12.4822 7.36783 12.4807 7.36242C12.4458 7.24055 12.3659 7.13647 12.2572 7.07125C12.2482 7.06583 12.239 7.0607 12.2296 7.05586C12.1587 7.01915 12.0799 7 12 7C11.9591 7 11.9184 7.00501 11.8787 7.01493C11.8733 7.01629 11.8678 7.01775 11.8624 7.0193C11.6479 7.0807 11.5 7.27684 11.5 7.5C11.5 7.54088 11.505 7.58161 11.5149 7.62127L11.9463 9.34663L9.64663 11.6463C9.55286 11.74 9.5 11.8674 9.5 12C9.5 12.1326 9.55268 12.2598 9.64645 12.3536C9.74021 12.4473 9.86739 12.5 10 12.5C10.1326 12.5 10.2598 12.4473 10.3536 12.3536L12.8536 9.85355C12.9777 9.72936 13.0277 9.54912 12.9851 9.37873L12.4851 7.37898Z" fill="black"/>
<path d="M5.61494 13.822C5.7087 13.9158 5.83614 13.9688 5.96875 13.9688C6.10136 13.9688 6.22853 13.9161 6.3223 13.8223C6.41607 13.7285 6.46875 13.6014 6.46875 13.4688C6.46875 13.3361 6.41607 13.209 6.3223 13.1152L2.88486 9.67776C2.79103 9.58393 2.66386 9.53125 2.53125 9.53125C2.39864 9.53125 2.27146 9.58393 2.1777 9.6777C2.08393 9.77147 2.03125 9.89864 2.03125 10.0312C2.03125 10.1639 2.08393 10.291 2.1777 10.3848L5.61494 13.822Z" fill="black"/>
</g>
</g>
</svg>
