<svg width="16" height="16" viewBox="0 0 16 16" fill="none" xmlns="http://www.w3.org/2000/svg">
<g id="XCircle">
<g id="Vector">
<path d="M10.3534 6.35374C10.4471 6.25997 10.5 6.13261 10.5 6C10.5 5.86739 10.4473 5.74021 10.3536 5.64645L10.3492 5.64218C10.2559 5.5512 10.1304 5.5 10 5.5C9.86739 5.5 9.74021 5.55268 9.64645 5.64645L8 7.29289L6.35355 5.64645C6.25979 5.55268 6.13261 5.5 6 5.5C5.86739 5.5 5.74021 5.55268 5.64645 5.64645C5.55268 5.74021 5.5 5.86739 5.5 6C5.5 6.13261 5.55268 6.25979 5.64645 6.35355L7.29289 8L5.64663 9.64626C5.55287 9.74003 5.5 9.86739 5.5 10C5.5 10.001 5.5 10.002 5.50001 10.003C5.50005 10.01 5.50024 10.017 5.50058 10.024C5.50655 10.1482 5.55855 10.2657 5.64645 10.3536C5.74021 10.4473 5.86739 10.5 6 10.5C6.13261 10.5 6.25979 10.4473 6.35355 10.3536L8 8.70711L9.64645 10.3536C9.74021 10.4473 9.86739 10.5 10 10.5C10.1326 10.5 10.2598 10.4473 10.3536 10.3536C10.4473 10.2598 10.5 10.1326 10.5 10C10.5 9.86739 10.4473 9.74021 10.3536 9.64645L8.70711 8L10.3534 6.35374Z" fill="black"/>
<path fill-rule="evenodd" clip-rule="evenodd" d="M8 1.5C8 1.5 9.32209 1.5 10.5302 2.01101C10.5302 2.01101 11.6968 2.50442 12.5962 3.40381C12.5962 3.40381 13.4956 4.30319 13.989 5.46975C13.989 5.46975 14.5 6.67791 14.5 8C14.5 8 14.5 9.32208 13.989 10.5302C13.989 10.5302 13.4956 11.6968 12.5962 12.5962C12.5962 12.5962 11.6968 13.4956 10.5302 13.989C10.5302 13.989 9.32208 14.5 8 14.5C8 14.5 6.67791 14.5 5.46975 13.989C5.46975 13.989 4.30319 13.4956 3.40381 12.5962C3.40381 12.5962 2.50442 11.6968 2.01101 10.5302C2.01101 10.5302 1.5 9.32209 1.5 8C1.5 8 1.5 6.67791 2.01101 5.46975C2.01101 5.46975 2.50442 4.30319 3.40381 3.40381C3.40381 3.40381 4.30319 2.50442 5.46975 2.01101C5.46975 2.01101 6.67791 1.5 8 1.5ZM8 2.5C8 2.5 6.8807 2.5 5.85931 2.93201C5.85931 2.93201 4.87238 3.34945 4.11091 4.11091C4.11091 4.11091 3.34945 4.87238 2.93201 5.85931C2.93201 5.85931 2.5 6.8807 2.5 8C2.5 8 2.5 9.1193 2.93201 10.1407C2.93201 10.1407 3.34945 11.1276 4.11091 11.8891C4.11091 11.8891 4.87238 12.6506 5.85931 13.068C5.85931 13.068 6.8807 13.5 8 13.5C8 13.5 9.1193 13.5 10.1407 13.068C10.1407 13.068 11.1276 12.6506 11.8891 11.8891C11.8891 11.8891 12.6506 11.1276 13.068 10.1407C13.068 10.1407 13.5 9.1193 13.5 8C13.5 8 13.5 6.8807 13.068 5.85931C13.068 5.85931 12.6506 4.87238 11.8891 4.11091C11.8891 4.11091 11.1276 3.34945 10.1407 2.93201C10.1407 2.93201 9.1193 2.5 8 2.5Z" fill="black"/>
</g>
</g>
</svg>
